<svg width="64" height="64" viewBox="0 0 64 64" fill="none" xmlns="http://www.w3.org/2000/svg">
  <path
    d="M0 21.3333C0 9.55126 9.55126 0 21.3333 0H42.6667C54.4487 0 64 9.55126 64 21.3333V42.6667C64 54.4487 54.4487 64 42.6667 64H21.3333C9.55126 64 0 54.4487 0 42.6667V21.3333Z"
    fill="#F7F8F8"/>
  <path
    d="M32 10.6665C26.9344 10.6667 22.0341 12.515 18.176 15.8807C14.3179 19.2463 11.7537 23.9097 10.9423 29.0364C10.1308 34.1631 11.1251 39.4186 13.7471 43.8625C16.3691 48.3063 20.4478 51.6486 25.2534 53.2913C26.3201 53.4827 26.7201 52.8266 26.7201 52.2523C26.7201 51.7329 26.6934 50.0104 26.6934 48.1785C21.3334 49.1901 19.9467 46.8389 19.5201 45.6085C19.0466 44.4119 18.2961 43.3515 17.3334 42.5189C16.5868 42.1088 15.5201 41.0972 17.3067 41.0699C17.9889 41.1458 18.6433 41.3892 19.2142 41.7794C19.7852 42.1697 20.256 42.6953 20.5867 43.3118C20.8785 43.8492 21.2709 44.3223 21.7413 44.704C22.2117 45.0857 22.7509 45.3684 23.3281 45.5361C23.9053 45.7037 24.5091 45.7529 25.1048 45.6809C25.7006 45.6088 26.2767 45.417 26.8 45.1163C26.8923 44.0043 27.3757 42.9647 28.16 42.1909C23.4134 41.6441 18.4534 39.7574 18.4534 31.3911C18.4234 29.2173 19.2058 27.1141 20.6401 25.5128C19.9879 23.6235 20.0642 21.5501 20.8534 19.7165C20.8534 19.7165 22.64 19.1423 26.72 21.9585C30.2108 20.9741 33.8959 20.9741 37.3866 21.9585C41.4665 19.115 43.2532 19.7165 43.2532 19.7165C44.0426 21.55 44.1189 23.6235 43.4666 25.5128C44.9052 27.1113 45.6882 29.2164 45.6532 31.3911C45.6532 39.7848 40.6666 41.6441 35.92 42.1909C36.4291 42.72 36.8212 43.3552 37.0697 44.0534C37.3181 44.7516 37.4171 45.4965 37.36 46.2374C37.36 49.1629 37.3333 51.5142 37.3333 52.2524C37.3333 52.8266 37.7333 53.5101 38.7999 53.2914C43.597 51.6353 47.664 48.2852 50.2749 43.8391C52.8857 39.3929 53.8705 34.1401 53.0535 29.0184C52.2364 23.8966 49.6706 19.2393 45.8142 15.8777C41.9578 12.5162 37.0617 10.6692 32 10.6665Z"
    fill="black"/>
</svg>
