<svg id="图层_1" data-name="图层 1" xmlns="http://www.w3.org/2000/svg" xmlns:xlink="http://www.w3.org/1999/xlink" viewBox="0 0 670 530"><defs><style>.cls-1{fill:#d8dde5;}.cls-2{fill:#7ab5fc;}.cls-3{fill:#005eeb;}.cls-4{fill:#73a9e8;}.cls-5{fill:#9dacc1;}.cls-6{isolation:isolate;}.cls-7{clip-path:url(#clip-path);}.cls-8{clip-path:url(#clip-path-2);}.cls-9{clip-path:url(#clip-path-3);}.cls-10{fill:#e8eff7;}.cls-11{fill:#748aa5;}.cls-12{clip-path:url(#clip-path-4);}.cls-13{clip-path:url(#clip-path-5);}.cls-14{clip-path:url(#clip-path-6);}.cls-15{fill:#c3d1e2;}.cls-16{opacity:0.9;}.cls-17{fill:#7dc4f4;}.cls-18{fill:#286ac9;}.cls-19{fill:#549bef;}.cls-20{opacity:0.5;}.cls-21{fill:#214272;}.cls-22{fill:url(#未命名的渐变_7);}.cls-23{fill:#3d3f44;}.cls-24{fill:#f4f6f9;}.cls-25{fill:#3180f4;}.cls-26{fill:url(#未命名的渐变_7-2);}.cls-27{fill:url(#未命名的渐变_7-3);}.cls-28{clip-path:url(#clip-path-7);}.cls-29{fill:#1972f4;}.cls-30{clip-path:url(#clip-path-8);}.cls-31{clip-path:url(#clip-path-9);}.cls-32{clip-path:url(#clip-path-10);}.cls-33{clip-path:url(#clip-path-11);}.cls-34{clip-path:url(#clip-path-12);}.cls-35{fill:#f0f9ff;}.cls-36{clip-path:url(#clip-path-13);}.cls-37{clip-path:url(#clip-path-14);}.cls-38{fill:#e5effd;}.cls-39{opacity:0.75;}.cls-40{clip-path:url(#clip-path-15);}.cls-41{opacity:0.35;}</style><clipPath id="clip-path"><path class="cls-1" d="M653.05,366.29,653,376.82c0,2.48-3,4.93-9,6.7l.06-10.54C650,371.22,653,368.76,653.05,366.29Z"/></clipPath><clipPath id="clip-path-2"><path class="cls-1" d="M17,417,17,406.48c0,2.2,2.34,4.42,7.13,6.2l-.06,10.54C19.29,421.44,16.94,419.22,17,417Z"/></clipPath><clipPath id="clip-path-3"><path class="cls-1" d="M261.06,487.1,261,497.64c-11.2,3.34-28.53,3-38.72-.81l.06-10.53C232.53,490.08,249.86,490.44,261.06,487.1Z"/></clipPath><clipPath id="clip-path-4"><path class="cls-5" d="M627.24,347.68l-.11,5.88c0,2.55-3.15,5-9.2,6.77l.11-5.88C624.09,352.72,627.19,350.23,627.24,347.68Z"/></clipPath><clipPath id="clip-path-5"><path class="cls-5" d="M268.51,368.91l.11-5.88c0,2.23,2.24,4.5,6.93,6.38l-.11,5.88C270.75,373.42,268.47,371.14,268.51,368.91Z"/></clipPath><clipPath id="clip-path-6"><path class="cls-5" d="M418.51,411.84l-.11,5.88c-11.31,3.24-28.64,2.61-38.7-1.41l.11-5.88C389.87,414.45,407.2,415.08,418.51,411.84Z"/></clipPath><linearGradient id="未命名的渐变_7" x1="136.07" y1="426.3" x2="313.48" y2="426.3" gradientUnits="userSpaceOnUse"><stop offset="0" stop-color="#c3d1e2"/><stop offset="0.46" stop-color="#c3d1e2"/><stop offset="0.49" stop-color="#d3dff0"/><stop offset="0.5" stop-color="#dee8f9"/></linearGradient><linearGradient id="未命名的渐变_7-2" x1="136.07" y1="386.67" x2="313.48" y2="386.67" xlink:href="#未命名的渐变_7"/><linearGradient id="未命名的渐变_7-3" x1="136.07" y1="347.03" x2="313.48" y2="347.03" xlink:href="#未命名的渐变_7"/><clipPath id="clip-path-7"><path class="cls-3" d="M396,48.73l-25.45-6.65a174.66,174.66,0,0,0,47.85,5.57L443.9,54.3A174.34,174.34,0,0,1,396,48.73Z"/></clipPath><clipPath id="clip-path-8"><path class="cls-3" d="M332.39,309.93l-25.46-6.65c-29.63-20.07-47.54-61.23-48.05-110.44l25.46,6.65C284.85,248.7,302.76,289.86,332.39,309.93Z"/></clipPath><clipPath id="clip-path-9"><path class="cls-3" d="M304.17,94.46l-25.46-6.65A300.15,300.15,0,0,0,327.6,53.68l25.46,6.65A300,300,0,0,1,304.17,94.46Z"/></clipPath><clipPath id="clip-path-10"><path class="cls-2" d="M395.73,65.08l-11-2.86a187.71,187.71,0,0,0,51.55,6l11,2.86A187.8,187.8,0,0,1,395.73,65.08Z"/></clipPath><clipPath id="clip-path-11"><path class="cls-2" d="M362,316.9,351,314c-31.91-21.62-51.2-66-51.75-119l11,2.86C310.8,251,330.08,295.29,362,316.9Z"/></clipPath><clipPath id="clip-path-12"><path class="cls-2" d="M319.82,107.67l-11-2.86a324.11,324.11,0,0,0,52.66-36.76l11,2.87A323.41,323.41,0,0,1,319.82,107.67Z"/></clipPath><clipPath id="clip-path-13"><path class="cls-3" d="M409.65,122.93l5.09,1.33a30.05,30.05,0,0,0-16,.37l-5.09-1.33A30.05,30.05,0,0,1,409.65,122.93Z"/></clipPath><clipPath id="clip-path-14"><path class="cls-3" d="M383.94,242.22l-5.09-1.33c-15.85-4.14-27.19-22-27.45-46.69-.33-32.37,18.58-64.11,42.24-70.9l5.09,1.33c-23.66,6.79-42.57,38.53-42.24,70.9C356.75,220.18,368.09,238.08,383.94,242.22Z"/></clipPath><clipPath id="clip-path-15"><path class="cls-4" d="M581,116.76l3.67,7.36a28.09,28.09,0,0,1,2.49,16.54c-3,22.33-27.79,49.72-69.88,77.11s-96.43,51.52-153,67.94-108.59,23.14-146.48,19c-27.53-3-45.22-11.58-51.7-24.58l-3.66-7.35c6.48,13,24.16,21.54,51.69,24.58,37.9,4.18,89.92-2.55,146.48-19s110.9-40.54,153-67.93,66.91-54.78,69.88-77.11A28,28,0,0,0,581,116.76Z"/></clipPath></defs><title>【插图】页面元素插图-1</title><g class="cls-6"><g class="cls-6"><path class="cls-1" d="M653.05,366.29,653,376.82c0,2.48-3,4.93-9,6.7l.06-10.54C650,371.22,653,368.76,653.05,366.29Z"/><g class="cls-7"><g class="cls-6"><path class="cls-1" d="M653.05,366.29,653,376.82v.11l.06-10.54v-.1"/><path class="cls-1" d="M653.05,366.39,653,376.93a3.52,3.52,0,0,1-.09.64L653,367a3.4,3.4,0,0,0,.09-.64"/><path class="cls-1" d="M653,367l-.06,10.54a5.65,5.65,0,0,1-.22.61l.06-10.54A4.44,4.44,0,0,0,653,367"/><path class="cls-1" d="M652.74,367.64l-.06,10.54a3.27,3.27,0,0,1-.32.57l.06-10.54a3.27,3.27,0,0,0,.32-.57"/><path class="cls-1" d="M652.42,368.21l-.06,10.54a6.64,6.64,0,0,1-.41.56l0-10.54a4.3,4.3,0,0,0,.42-.56"/><path class="cls-1" d="M652,368.77l0,10.54c-.16.18-.34.36-.53.54l.06-10.54a6.5,6.5,0,0,0,.52-.54"/><path class="cls-1" d="M651.48,369.31l-.06,10.54q-.28.27-.63.54l.06-10.54a5.57,5.57,0,0,0,.63-.54"/><path class="cls-1" d="M650.85,369.85l-.06,10.54c-.24.18-.49.37-.77.54l.06-10.53c.28-.18.53-.36.77-.55"/><path class="cls-1" d="M650.08,370.4,650,380.93c-.29.19-.59.37-.92.56l.06-10.54c.33-.18.63-.37.92-.55"/><path class="cls-1" d="M649.16,371l-.06,10.54-1.14.57.06-10.54c.4-.18.78-.38,1.14-.57"/><path class="cls-1" d="M648,371.52,648,382.06c-.46.21-1,.42-1.47.62l.06-10.53q.78-.3,1.47-.63"/><path class="cls-1" d="M646.55,372.15l-.06,10.53c-.65.25-1.34.49-2.08.72l.06-10.53c.74-.23,1.43-.47,2.08-.72"/><path class="cls-1" d="M644.47,372.87l-.06,10.53-.39.12.06-10.54.39-.11"/></g></g></g><g class="cls-6"><path class="cls-1" d="M17,417,17,406.48c0,2.2,2.34,4.42,7.13,6.2l-.06,10.54C19.29,421.44,16.94,419.22,17,417Z"/><g class="cls-8"><g class="cls-6"><path class="cls-1" d="M24.14,412.68l-.06,10.54c-4.79-1.78-7.14-4-7.13-6.2L17,406.48c0,2.2,2.34,4.42,7.13,6.2"/></g></g></g><polygon class="cls-1" points="222.34 486.3 222.28 496.83 24.08 423.22 24.14 412.68 222.34 486.3"/><polygon class="cls-1" points="644.08 372.98 644.02 383.52 261 497.64 261.06 487.11 644.08 372.98"/><g class="cls-6"><path class="cls-1" d="M261.06,487.1,261,497.64c-11.2,3.34-28.53,3-38.72-.81l.06-10.53C232.53,490.08,249.86,490.44,261.06,487.1Z"/><g class="cls-9"><g class="cls-6"><path class="cls-1" d="M261.06,487.1,261,497.64c-1.11.33-2.29.63-3.51.89l.06-10.54c1.22-.26,2.4-.55,3.51-.89"/><path class="cls-1" d="M257.55,488l-.06,10.54q-2.49.53-5.21.85l.06-10.53c1.8-.22,3.55-.51,5.21-.86"/><path class="cls-1" d="M252.34,488.85l-.06,10.53c-1.28.16-2.59.28-3.92.37l.06-10.54c1.33-.09,2.64-.21,3.92-.36"/><path class="cls-1" d="M248.42,489.21l-.06,10.54-2.43.12.06-10.53c.81,0,1.62-.07,2.43-.13"/><path class="cls-1" d="M246,489.34l-.06,10.53c-.68,0-1.36,0-2,.05l.06-10.54c.68,0,1.36,0,2,0"/><path class="cls-1" d="M244,489.38l-.06,10.54H242l.06-10.54H244"/><path class="cls-1" d="M242.07,489.38,242,499.92l-1.8,0,.06-10.54c.6,0,1.2,0,1.8,0"/><path class="cls-1" d="M240.27,489.34l-.06,10.54c-.58,0-1.16,0-1.74-.08l.06-10.53,1.74.07"/><path class="cls-1" d="M238.53,489.27l-.06,10.53-1.7-.11.06-10.54c.56.05,1.13.08,1.7.12"/><path class="cls-1" d="M236.83,489.15l-.06,10.54-1.66-.14.06-10.54,1.66.14"/><path class="cls-1" d="M235.17,489l-.06,10.54-1.64-.18.06-10.54,1.64.18"/><path class="cls-1" d="M233.53,488.83l-.06,10.54-1.63-.22.06-10.54,1.63.22"/><path class="cls-1" d="M231.9,488.61l-.06,10.54-1.64-.26.06-10.54,1.64.26"/><path class="cls-1" d="M230.26,488.35l-.06,10.54-1.66-.32L228.6,488l1.66.31"/><path class="cls-1" d="M228.6,488l-.06,10.53-1.74-.38.06-10.54q.85.21,1.74.39"/><path class="cls-1" d="M226.86,487.65l-.06,10.54c-.65-.16-1.28-.32-1.89-.5l.06-10.53c.61.17,1.24.34,1.89.49"/><path class="cls-1" d="M225,487.16l-.06,10.53c-.76-.21-1.5-.45-2.2-.7l.06-10.54c.7.25,1.44.49,2.2.71"/><path class="cls-1" d="M222.77,486.45,222.71,497l-.43-.16.06-10.53.43.15"/></g></g></g><path class="cls-10" d="M409,285.67c11.2-3.34,28.54-3,38.72.8l198.2,73.62c10.19,3.79,9.36,9.56-1.84,12.89l-383,114.12c-11.2,3.34-28.53,3-38.72-.8L24.14,412.68C14,408.9,14.78,403.12,26,399.79Z"/></g><g class="cls-6"><path class="cls-11" d="M479,310.87c11.31-3.25,28.63-2.62,38.7,1.4L622,353.3c10.06,4,9.06,9.91-2.26,13.15L420.16,423.84c-11.31,3.24-28.64,2.61-38.7-1.41l-104.26-41c-10.07-4-9.05-9.91,2.26-13.15Z"/><g class="cls-6"><path class="cls-5" d="M627.24,347.68l-.11,5.88c0,2.55-3.15,5-9.2,6.77l.11-5.88C624.09,352.72,627.19,350.23,627.24,347.68Z"/><g class="cls-12"><g class="cls-6"><path class="cls-5" d="M627.24,347.68l-.11,5.88c0,.06,0,.11,0,.17l.11-5.88a1,1,0,0,1,0-.17"/><path class="cls-5" d="M627.23,347.85l-.11,5.88a3.82,3.82,0,0,1-.12.66l.11-5.88a3.82,3.82,0,0,0,.12-.66"/><path class="cls-5" d="M627.11,348.51l-.11,5.88a4.06,4.06,0,0,1-.24.63l.11-5.89a3.61,3.61,0,0,0,.24-.62"/><path class="cls-5" d="M626.87,349.13l-.11,5.89a5.21,5.21,0,0,1-.34.59l.11-5.88a4.56,4.56,0,0,0,.34-.6"/><path class="cls-5" d="M626.53,349.73l-.11,5.88c-.14.19-.29.38-.46.57l.11-5.88c.17-.19.32-.38.46-.57"/><path class="cls-5" d="M626.07,350.3l-.11,5.88a5.78,5.78,0,0,1-.55.56l.1-5.88a5.91,5.91,0,0,0,.56-.56"/><path class="cls-5" d="M625.51,350.86l-.1,5.88c-.21.19-.44.37-.68.55l.1-5.88a6.5,6.5,0,0,0,.68-.55"/><path class="cls-5" d="M624.83,351.41l-.1,5.88c-.26.19-.53.38-.82.56L624,352a9,9,0,0,0,.82-.56"/><path class="cls-5" d="M624,352l-.1,5.88c-.31.19-.65.38-1,.57l.11-5.88q.53-.29,1-.57"/><path class="cls-5" d="M623,352.54l-.11,5.88c-.39.2-.8.4-1.24.59l.11-5.88c.44-.19.85-.39,1.24-.59"/><path class="cls-5" d="M621.78,353.13l-.11,5.88c-.51.22-1,.44-1.63.65l.11-5.88c.58-.21,1.12-.43,1.63-.65"/><path class="cls-5" d="M620.15,353.78l-.11,5.88c-.66.23-1.36.46-2.11.67l.11-5.88c.75-.21,1.45-.44,2.11-.67"/></g></g></g><g class="cls-6"><path class="cls-5" d="M268.51,368.91l.11-5.88c0,2.23,2.24,4.5,6.93,6.38l-.11,5.88C270.75,373.42,268.47,371.14,268.51,368.91Z"/><g class="cls-13"><g class="cls-6"><path class="cls-5" d="M275.55,369.41l-.11,5.88c-4.69-1.87-7-4.15-6.93-6.38l.11-5.88c0,2.23,2.24,4.5,6.93,6.38"/></g></g></g><polygon class="cls-5" points="379.81 410.43 379.7 416.31 275.44 375.29 275.55 369.41 379.81 410.43"/><polygon class="cls-5" points="618.04 354.45 617.93 360.33 418.4 417.72 418.51 411.84 618.04 354.45"/><g class="cls-6"><path class="cls-5" d="M418.51,411.84l-.11,5.88c-11.31,3.24-28.64,2.61-38.7-1.41l.11-5.88C389.87,414.45,407.2,415.08,418.51,411.84Z"/><g class="cls-14"><g class="cls-6"><path class="cls-5" d="M418.51,411.84l-.11,5.88-.35.1.11-5.88.35-.1"/><path class="cls-5" d="M418.16,411.94l-.11,5.88a58.08,58.08,0,0,1-11.19,1.79l.11-5.88a58.08,58.08,0,0,0,11.19-1.79"/><path class="cls-5" d="M407,413.73l-.11,5.88c-.89.06-1.79.11-2.7.14l.11-5.88c.91,0,1.81-.08,2.7-.14"/><path class="cls-5" d="M404.27,413.87l-.11,5.88c-.73,0-1.47,0-2.2,0l.11-5.88c.73,0,1.47,0,2.2,0"/><path class="cls-5" d="M402.07,413.91l-.11,5.88h-2l.11-5.88h2"/><path class="cls-5" d="M400.08,413.9l-.11,5.88c-.63,0-1.25,0-1.87-.06l.11-5.88c.62,0,1.24,0,1.87.06"/><path class="cls-5" d="M398.21,413.84l-.11,5.88-1.8-.1.11-5.88,1.8.1"/><path class="cls-5" d="M396.41,413.74l-.11,5.88c-.59,0-1.17-.08-1.74-.13l.1-5.88,1.75.13"/><path class="cls-5" d="M394.66,413.61l-.1,5.88-1.7-.17.1-5.88,1.7.17"/><path class="cls-5" d="M393,413.44l-.1,5.88-1.68-.2.11-5.88,1.67.2"/><path class="cls-5" d="M391.29,413.24l-.11,5.88-1.66-.25.11-5.88,1.66.25"/><path class="cls-5" d="M389.63,413l-.11,5.88-1.66-.28.11-5.89c.55.11,1.1.2,1.66.29"/><path class="cls-5" d="M388,412.7l-.11,5.89-1.69-.35.11-5.88c.56.12,1.12.24,1.69.34"/><path class="cls-5" d="M386.28,412.36l-.11,5.88-1.75-.41.11-5.88,1.75.41"/><path class="cls-5" d="M384.53,412l-.11,5.88c-.66-.17-1.29-.35-1.91-.54l.11-5.88c.62.19,1.25.37,1.91.54"/><path class="cls-5" d="M382.62,411.41l-.11,5.88c-.77-.23-1.52-.48-2.23-.75l.11-5.88c.71.26,1.45.52,2.23.75"/><path class="cls-5" d="M380.39,410.66l-.11,5.88-.58-.23.11-5.88.58.23"/></g></g></g><path class="cls-15" d="M477.35,298.87c11.31-3.24,28.63-2.62,38.7,1.41l104.25,41c10.07,4,9.06,9.91-2.26,13.15L418.51,411.84c-11.31,3.24-28.64,2.61-38.7-1.41l-104.26-41c-10.06-4-9.05-9.91,2.26-13.15Z"/></g><g class="cls-16"><g class="cls-6"><polygon class="cls-17" points="564.06 224.18 561.99 335.93 535.98 343.39 538.05 231.64 564.06 224.18"/><polygon class="cls-18" points="538.05 231.64 535.98 343.39 512.84 334.15 514.91 222.4 538.05 231.64"/><polygon class="cls-19" points="540.92 214.94 564.06 224.18 538.05 231.64 514.91 222.4 540.92 214.94"/><g class="cls-20"><polygon class="cls-19" points="538.85 326.69 561.99 335.93 535.98 343.39 512.84 334.15 538.85 326.69"/></g></g></g><g class="cls-16"><g class="cls-6"><polygon class="cls-17" points="509.96 182.9 506.85 350.52 480.84 357.98 483.95 190.36 509.96 182.9"/><polygon class="cls-18" points="483.95 190.36 480.84 357.98 457.7 348.74 460.81 181.11 483.95 190.36"/><polygon class="cls-19" points="486.82 173.66 509.96 182.9 483.95 190.36 460.81 181.11 486.82 173.66"/><g class="cls-20"><polygon class="cls-19" points="483.71 341.28 506.85 350.52 480.84 357.98 457.7 348.74 483.71 341.28"/></g></g></g><path class="cls-21" d="M221,405.9c5.29-1.51,13.4-1.22,18.11.66L310.24,435c4.7,1.88,4.23,4.63-1.06,6.15l-80,22.93c-5.29,1.51-13.4,1.22-18.1-.66L140,435c-4.71-1.88-4.24-4.63,1-6.15Z"/><path class="cls-22" d="M313.41,397.89l0,.07a2.06,2.06,0,0,1-.16.34l-.05.07a3.2,3.2,0,0,1-.29.38l-.08.07a3.42,3.42,0,0,1-.39.35l0,0a5.37,5.37,0,0,1-.53.34l-.16.09-.52.27L311,400a6.51,6.51,0,0,1-.75.3l-.07,0c-.31.11-.64.22-1,.32l-80,22.93-.46.12-.76.18-.45.09-.76.14-.48.08-.79.11-.48.05c-.3,0-.59.06-.89.08l-.42,0-.72,0-.53,0h-2.62c-.36,0-.72,0-1.07-.06h-.21l-.91-.08-.24,0c-.35,0-.7-.07-1-.12l-.19,0-.86-.14-.24,0c-.34-.06-.67-.12-1-.2l-.15,0-.79-.2-.38-.1-.53-.16-.59-.2-.55-.2L140,394.48c-2.2-.87-3.26-1.94-3.25-3l-.67,36.58c0,1,1,2.11,3.24,3l71.13,28.42.27.1.28.1.59.2.17.06.36.1.38.1.15.05.64.15.15,0h0l.79.16.16,0,.24,0,.37.07.49.07.2,0h.09l.78.1h.16l.24,0,.4,0,.51,0,.21,0h.09l.84,0h.42l.46,0h.93l.61,0h.42l.45,0,.72,0h.1l.32,0,.89-.08.48-.05.79-.11.48-.08.76-.14.45-.09.77-.19.29-.07.16,0,80-22.93c.35-.1.68-.21,1-.32h0l.07,0,.69-.27.06,0,.17-.08.35-.17.17-.1.16-.09.13-.07.39-.26v0l0,0,.26-.21.13-.13a.6.6,0,0,0,.08-.08l.06-.05a2.47,2.47,0,0,0,.21-.27l0-.05a.59.59,0,0,1,0-.08,1.19,1.19,0,0,0,.09-.15,1.07,1.07,0,0,0,.07-.19l0-.07v0a1.7,1.7,0,0,0,.06-.31V434l.68-36.58A1.61,1.61,0,0,1,313.41,397.89Z"/><path class="cls-10" d="M221,365.4c5.29-1.51,13.4-1.22,18.11.66l71.13,28.42c4.7,1.88,4.23,4.63-1.06,6.15l-80,22.93c-5.29,1.52-13.4,1.22-18.1-.66L140,394.48c-4.71-1.88-4.24-4.63,1-6.15Z"/><g class="cls-6"><polygon class="cls-21" points="291.15 412.06 290.68 437.66 251.99 448.76 252.46 423.15 291.15 412.06"/><polygon class="cls-23" points="252.46 423.15 251.99 448.76 251.03 448.38 251.51 422.77 252.46 423.15"/><polygon class="cls-23" points="290.2 411.68 291.15 412.06 252.46 423.15 251.51 422.77 290.2 411.68"/></g><g class="cls-6"><polygon class="cls-1" points="175.87 415.76 175.78 420.15 174.47 420.53 174.55 416.14 175.87 415.76"/><polygon class="cls-24" points="174.55 416.14 174.47 420.53 142.76 407.86 142.84 403.47 174.55 416.14"/><polygon class="cls-1" points="144.16 403.09 175.87 415.76 174.55 416.14 142.84 403.47 144.16 403.09"/></g><g class="cls-6"><polygon class="cls-1" points="175.87 423.48 175.78 427.87 174.47 428.25 174.55 423.86 175.87 423.48"/><polygon class="cls-24" points="174.55 423.86 174.47 428.25 142.76 415.58 142.84 411.19 174.55 423.86"/><polygon class="cls-1" points="144.16 410.81 175.87 423.48 174.55 423.86 142.84 411.19 144.16 410.81"/></g><g class="cls-6"><polygon class="cls-1" points="175.86 431.19 175.78 435.58 174.46 435.96 174.54 431.57 175.86 431.19"/><polygon class="cls-24" points="174.54 431.57 174.46 435.96 142.76 423.3 142.84 418.91 174.54 431.57"/><polygon class="cls-1" points="144.16 418.53 175.86 431.19 174.54 431.57 142.84 418.91 144.16 418.53"/></g><g class="cls-6"><polygon class="cls-25" points="201.37 432.61 201.28 436.99 200.02 437.36 200.1 432.97 201.37 432.61"/><polygon class="cls-2" points="200.1 432.97 200.02 437.36 188.41 432.72 188.5 428.33 200.1 432.97"/><polygon class="cls-25" points="189.76 427.97 201.37 432.61 200.1 432.97 188.5 428.33 189.76 427.97"/></g><path class="cls-26" d="M313.41,358.25l0,.07a1.74,1.74,0,0,1-.16.34.56.56,0,0,0-.05.08,3.12,3.12,0,0,1-.29.37l-.08.07a3.42,3.42,0,0,1-.39.35l0,0c-.16.12-.34.23-.53.35l-.16.09-.52.26-.17.08c-.23.11-.48.21-.75.31l-.07,0c-.31.12-.64.22-1,.32l-80,22.93-.46.12c-.25.06-.5.13-.76.18l-.45.1-.76.14-.48.07-.79.11-.48.06-.89.08-.42,0-.72,0-.53,0H221l-.85,0h-.27c-.36,0-.72,0-1.07-.06h-.21l-.91-.08-.24,0-1-.13-.19,0-.86-.13-.24,0-1-.19-.15,0-.79-.19-.38-.11-.53-.16-.59-.19-.55-.21L140,354.85c-2.2-.88-3.26-1.94-3.25-3l-.67,36.58c0,1,1,2.11,3.24,3l71.13,28.42.27.11.28.09.59.2.17.06.36.1.38.1.15.05.64.15.15,0h0l.79.16.16,0,.24,0,.37.07.49.07.2,0h.09l.78.1h.16l.24,0,.4,0,.51,0h.3l.84,0h2.84l.45,0,.72,0h.1c.11,0,.21,0,.32,0,.3,0,.59,0,.89-.08l.48,0,.79-.11.48-.08.76-.14.45-.09.77-.19.29-.07.16,0,80-22.93c.35-.1.68-.21,1-.32h0l.07,0a7.07,7.07,0,0,0,.69-.27l.06,0,.17-.08.35-.17.17-.1.16-.09.13-.07.39-.26h0l0,0,.26-.21a1.59,1.59,0,0,0,.13-.13l.08-.08.06-.05a2.47,2.47,0,0,0,.21-.27l0-.05a.25.25,0,0,1,0-.07,1.29,1.29,0,0,0,.09-.16,1.34,1.34,0,0,0,.07-.18l0-.07s0,0,0,0a1.55,1.55,0,0,0,.06-.31v-.08l.68-36.58A1.55,1.55,0,0,1,313.41,358.25Z"/><path class="cls-10" d="M221,325.77c5.29-1.52,13.4-1.23,18.11.65l71.13,28.42c4.7,1.88,4.23,4.64-1.06,6.15l-80,22.93c-5.29,1.52-13.4,1.22-18.1-.66L140,354.85c-4.71-1.88-4.24-4.64,1-6.15Z"/><g class="cls-6"><polygon class="cls-21" points="291.15 372.42 290.68 398.02 251.99 409.12 252.46 383.51 291.15 372.42"/><polygon class="cls-23" points="252.46 383.51 251.99 409.12 251.03 408.74 251.51 383.13 252.46 383.51"/><polygon class="cls-23" points="290.2 372.04 291.15 372.42 252.46 383.51 251.51 383.13 290.2 372.04"/></g><g class="cls-6"><polygon class="cls-1" points="175.87 376.12 175.78 380.51 174.47 380.89 174.55 376.5 175.87 376.12"/><polygon class="cls-24" points="174.55 376.5 174.47 380.89 142.76 368.22 142.84 363.83 174.55 376.5"/><polygon class="cls-1" points="144.16 363.46 175.87 376.12 174.55 376.5 142.84 363.83 144.16 363.46"/></g><g class="cls-6"><polygon class="cls-1" points="175.87 383.84 175.78 388.23 174.47 388.61 174.55 384.22 175.87 383.84"/><polygon class="cls-24" points="174.55 384.22 174.47 388.61 142.76 375.94 142.84 371.55 174.55 384.22"/><polygon class="cls-1" points="144.16 371.17 175.87 383.84 174.55 384.22 142.84 371.55 144.16 371.17"/></g><g class="cls-6"><polygon class="cls-1" points="175.86 391.56 175.78 395.94 174.46 396.32 174.54 391.93 175.86 391.56"/><polygon class="cls-24" points="174.54 391.93 174.46 396.32 142.76 383.66 142.84 379.27 174.54 391.93"/><polygon class="cls-1" points="144.16 378.89 175.86 391.56 174.54 391.93 142.84 379.27 144.16 378.89"/></g><g class="cls-6"><polygon class="cls-25" points="201.37 392.97 201.28 397.36 200.02 397.72 200.1 393.33 201.37 392.97"/><polygon class="cls-2" points="200.1 393.33 200.02 397.72 188.41 393.08 188.5 388.69 200.1 393.33"/><polygon class="cls-25" points="189.76 388.33 201.37 392.97 200.1 393.33 188.5 388.69 189.76 388.33"/></g><path class="cls-27" d="M313.41,318.61l0,.07a1.5,1.5,0,0,1-.16.34l-.05.08a3.12,3.12,0,0,1-.29.37l-.08.07a2.68,2.68,0,0,1-.39.35l0,0c-.16.12-.34.23-.53.35l-.16.09a5,5,0,0,1-.52.26l-.17.09-.75.3-.07,0c-.31.11-.64.21-1,.31l-80,22.93c-.15.05-.3.08-.46.12l-.76.19-.45.09-.76.14-.48.08-.79.1-.48.06-.89.08-.42,0-.72,0-.53,0H221l-.85,0h-.27l-1.07-.05-.21,0-.91-.08-.24,0-1-.13-.19,0-.86-.14-.24,0-1-.2-.15,0-.79-.19-.38-.11-.53-.16-.59-.19-.55-.2L140,315.21c-2.2-.88-3.26-1.94-3.25-3l-.67,36.57c0,1.05,1,2.11,3.24,3l71.13,28.41.27.11.28.09.59.2.17.06.36.1.38.11.15,0,.64.15.15,0h0l.79.16.16,0,.24,0,.37.06.49.07.2,0h.09l.78.1.16,0,.24,0,.4,0,.51,0h.3l.84.05h2.84l.45,0,.72,0h.1c.11,0,.21,0,.32,0l.89-.08.48-.06.79-.11.48-.07.76-.14.45-.09.77-.19.29-.07.16-.05,80-22.93c.35-.1.68-.2,1-.31h0l.07,0c.24-.09.47-.18.69-.28l.06,0,.17-.08.35-.16.17-.1.16-.09.13-.08a3.77,3.77,0,0,0,.39-.26h0l0,0,.26-.22.13-.13.08-.07.06-.06a2.47,2.47,0,0,0,.21-.27l0,0a.2.2,0,0,1,0-.08,1.19,1.19,0,0,0,.09-.15c0-.07.05-.13.07-.19l0-.07s0,0,0,0a1.55,1.55,0,0,0,.06-.31v-.08l.68-36.57A1.54,1.54,0,0,1,313.41,318.61Z"/><path class="cls-10" d="M221,286.13c5.29-1.52,13.4-1.22,18.11.66l71.13,28.41c4.7,1.88,4.23,4.64-1.06,6.15l-80,22.93c-5.29,1.52-13.4,1.23-18.1-.65L140,315.21c-4.71-1.88-4.24-4.64,1-6.15Z"/><g class="cls-6"><polygon class="cls-21" points="291.15 332.78 290.68 358.39 251.99 369.48 252.46 343.88 291.15 332.78"/><polygon class="cls-23" points="252.46 343.88 251.99 369.48 251.03 369.1 251.51 343.5 252.46 343.88"/><polygon class="cls-23" points="290.2 332.4 291.15 332.78 252.46 343.88 251.51 343.5 290.2 332.4"/></g><g class="cls-6"><polygon class="cls-1" points="175.87 336.49 175.78 340.87 174.47 341.25 174.55 336.86 175.87 336.49"/><polygon class="cls-24" points="174.55 336.86 174.47 341.25 142.76 328.59 142.84 324.2 174.55 336.86"/><polygon class="cls-1" points="144.16 323.82 175.87 336.49 174.55 336.86 142.84 324.2 144.16 323.82"/></g><g class="cls-6"><polygon class="cls-1" points="175.87 344.2 175.78 348.59 174.47 348.97 174.55 344.58 175.87 344.2"/><polygon class="cls-24" points="174.55 344.58 174.47 348.97 142.76 336.3 142.84 331.92 174.55 344.58"/><polygon class="cls-1" points="144.16 331.54 175.87 344.2 174.55 344.58 142.84 331.92 144.16 331.54"/></g><g class="cls-6"><polygon class="cls-1" points="175.86 351.92 175.78 356.31 174.46 356.69 174.54 352.3 175.86 351.92"/><polygon class="cls-24" points="174.54 352.3 174.46 356.69 142.76 344.02 142.84 339.63 174.54 352.3"/><polygon class="cls-1" points="144.16 339.25 175.86 351.92 174.54 352.3 142.84 339.63 144.16 339.25"/></g><g class="cls-6"><polygon class="cls-25" points="201.37 353.33 201.28 357.72 200.02 358.08 200.1 353.69 201.37 353.33"/><polygon class="cls-2" points="200.1 353.69 200.02 358.08 188.41 353.44 188.5 349.05 200.1 353.69"/><polygon class="cls-25" points="189.76 348.69 201.37 353.33 200.1 353.69 188.5 349.05 189.76 348.69"/></g><g class="cls-6"><polygon class="cls-3" points="443.9 54.3 418.44 47.65 439.73 47.2 465.19 53.85 443.9 54.3"/><polygon class="cls-3" points="376.98 340.13 351.52 333.48 306.93 303.28 332.39 309.93 376.98 340.13"/><g class="cls-6"><path class="cls-3" d="M396,48.73l-25.45-6.65a174.66,174.66,0,0,0,47.85,5.57L443.9,54.3A174.34,174.34,0,0,1,396,48.73Z"/><g class="cls-28"><g class="cls-6"><path class="cls-3" d="M396,48.73l-25.45-6.65q7.59,2,15.37,3.27L411.41,52q-7.76-1.29-15.37-3.27"/><path class="cls-3" d="M411.41,52,386,45.35a176.5,176.5,0,0,0,28.79,2.34l25.46,6.65A175.51,175.51,0,0,1,411.41,52"/><path class="cls-3" d="M440.21,54.34l-25.46-6.65c1.23,0,2.46,0,3.69,0L443.9,54.3c-1.23,0-2.46,0-3.69,0"/></g></g></g><polygon class="cls-29" points="353.06 60.33 327.6 53.68 348.44 35.95 373.89 42.6 353.06 60.33"/><g class="cls-6"><path class="cls-3" d="M332.39,309.93l-25.46-6.65c-29.63-20.07-47.54-61.23-48.05-110.44l25.46,6.65C284.85,248.7,302.76,289.86,332.39,309.93Z"/><g class="cls-30"><g class="cls-6"><path class="cls-3" d="M332.39,309.93l-25.46-6.65c-27.36-18.54-44.72-55-47.62-99.28l25.45,6.66c2.9,44.22,20.27,80.74,47.63,99.27"/><path class="cls-3" d="M284.76,210.66,259.31,204q-.37-5.5-.43-11.16l25.46,6.65q.06,5.65.42,11.17"/></g></g></g><g class="cls-6"><path class="cls-3" d="M304.17,94.46l-25.46-6.65A300.15,300.15,0,0,0,327.6,53.68l25.46,6.65A300,300,0,0,1,304.17,94.46Z"/><g class="cls-31"><g class="cls-6"><path class="cls-29" d="M304.17,94.46l-25.46-6.65A292.49,292.49,0,0,0,317.49,62L343,68.6a293.14,293.14,0,0,1-38.78,25.86"/><path class="cls-29" d="M343,68.6,317.49,62q5.1-4,10.11-8.27l25.46,6.65Q348,64.61,343,68.6"/></g></g></g><polygon class="cls-29" points="283.37 105.99 257.91 99.33 278.71 87.81 304.17 94.46 283.37 105.99"/><path class="cls-25" d="M373.89,42.6l19.68,5.46A174.09,174.09,0,0,0,443.9,54.3l21.29-.45,1,93.5c.51,49.21-16.44,100.37-45.47,137.26L377,340.13l-44.59-30.2c-29.63-20.07-47.54-61.23-48.05-110.44l-1-93.5,20.8-11.53a300,300,0,0,0,48.89-34.13Z"/><polygon class="cls-3" points="284.34 199.49 258.88 192.84 257.91 99.33 283.37 105.99 284.34 199.49"/></g><g class="cls-6"><polygon class="cls-2" points="447.28 71.08 436.31 68.22 446.99 67.99 457.96 70.85 447.28 71.08"/><polygon class="cls-2" points="386.16 333.27 375.2 330.4 351.03 314.04 362 316.9 386.16 333.27"/><g class="cls-6"><path class="cls-2" d="M395.73,65.08l-11-2.86a187.71,187.71,0,0,0,51.55,6l11,2.86A187.8,187.8,0,0,1,395.73,65.08Z"/><g class="cls-32"><g class="cls-6"><path class="cls-2" d="M395.73,65.08l-11-2.86q8.19,2.13,16.55,3.52l11,2.87q-8.37-1.39-16.56-3.53"/><path class="cls-2" d="M412.29,68.61l-11-2.87a189.3,189.3,0,0,0,31,2.52l11,2.87a190.4,190.4,0,0,1-31-2.52"/><path class="cls-2" d="M443.32,71.13l-11-2.87c1.32,0,2.64,0,4,0l11,2.86c-1.32,0-2.64,0-4,0"/></g></g></g><polygon class="cls-2" points="372.48 70.92 361.51 68.05 372.38 58.8 383.35 61.66 372.48 70.92"/><g class="cls-6"><path class="cls-2" d="M362,316.9,351,314c-31.91-21.62-51.2-66-51.75-119l11,2.86C310.8,251,330.08,295.29,362,316.9Z"/><g class="cls-33"><g class="cls-6"><path class="cls-2" d="M362,316.9,351,314c-29.47-20-48.17-59.29-51.3-106.93l11,2.87c3.13,47.63,21.83,87,51.29,106.92"/><path class="cls-2" d="M310.7,210l-11-2.87q-.39-5.93-.45-12l11,2.86q.06,6.09.45,12"/></g></g></g><g class="cls-6"><path class="cls-2" d="M319.82,107.67l-11-2.86a324.11,324.11,0,0,0,52.66-36.76l11,2.87A323.41,323.41,0,0,1,319.82,107.67Z"/><g class="cls-34"><g class="cls-6"><path class="cls-2" d="M319.82,107.67l-11-2.86a316.51,316.51,0,0,0,41.8-27.88l11,2.87a316.42,316.42,0,0,1-41.8,27.87"/><path class="cls-2" d="M361.62,79.8l-11-2.87q5.48-4.29,10.86-8.88l11,2.87q-5.39,4.58-10.86,8.88"/></g></g></g><polygon class="cls-2" points="309.37 113.46 298.4 110.59 308.85 104.81 319.82 107.67 309.37 113.46"/><path class="cls-35" d="M383.34,61.66l9.74,2.71a187.59,187.59,0,0,0,54.2,6.71L458,70.85l.88,84.5c.55,53-17.71,108.09-49,147.83l-23.69,30.09L362,316.9C330.08,295.29,310.8,251,310.25,198l-.88-84.49,10.45-5.79a323.41,323.41,0,0,0,52.66-36.75Z"/><polygon class="cls-2" points="310.25 197.95 299.28 195.09 298.4 110.59 309.37 113.46 310.25 197.95"/></g><g class="cls-6"><g class="cls-6"><path class="cls-3" d="M409.65,122.93l5.09,1.33a30.05,30.05,0,0,0-16,.37l-5.09-1.33A30.05,30.05,0,0,1,409.65,122.93Z"/><g class="cls-36"><g class="cls-6"><path class="cls-3" d="M398.73,124.63l-5.09-1.33a34.67,34.67,0,0,1,3.58-.82l5.09,1.33a34.67,34.67,0,0,0-3.58.82"/><path class="cls-3" d="M402.31,123.81l-5.09-1.33a30.32,30.32,0,0,1,5.23-.46l5.09,1.33a30.41,30.41,0,0,0-5.23.46"/><path class="cls-3" d="M407.54,123.35,402.45,122a28,28,0,0,1,4.7.38l5.09,1.33a28,28,0,0,0-4.7-.38"/><path class="cls-3" d="M412.24,123.73l-5.09-1.33c.84.14,1.67.31,2.5.53l5.09,1.33c-.82-.22-1.66-.39-2.5-.53"/></g></g></g><g class="cls-6"><path class="cls-3" d="M383.94,242.22l-5.09-1.33c-15.85-4.14-27.19-22-27.45-46.69-.33-32.37,18.58-64.11,42.24-70.9l5.09,1.33c-23.66,6.79-42.57,38.53-42.24,70.9C356.75,220.18,368.09,238.08,383.94,242.22Z"/><g class="cls-37"><g class="cls-6"><path class="cls-3" d="M383.94,242.22l-5.09-1.33C364,237,353,220.94,351.57,198.56l5.09,1.33c1.47,22.38,12.38,38.44,27.28,42.33"/><path class="cls-3" d="M356.66,199.89l-5.09-1.33c-.1-1.43-.15-2.88-.17-4.36s0-3.08.09-4.62l5.09,1.33q-.1,2.31-.09,4.62c0,1.48.08,2.93.17,4.36"/><path class="cls-3" d="M356.58,190.91l-5.09-1.33q.17-3.72.66-7.4l5.09,1.33q-.5,3.68-.66,7.4"/><path class="cls-3" d="M357.24,183.51l-5.09-1.33c.3-2.28.69-4.55,1.17-6.78l5.09,1.33c-.48,2.23-.87,4.5-1.17,6.78"/><path class="cls-3" d="M358.41,176.73l-5.09-1.33c.47-2.2,1-4.38,1.65-6.52l5.09,1.33c-.63,2.14-1.18,4.32-1.65,6.52"/><path class="cls-3" d="M360.06,170.21,355,168.88c.65-2.22,1.39-4.4,2.2-6.53l5.09,1.33c-.81,2.13-1.55,4.31-2.2,6.53"/><path class="cls-3" d="M362.26,163.68l-5.09-1.33c.89-2.35,1.88-4.65,2.95-6.87l5.1,1.33c-1.08,2.22-2.07,4.52-3,6.87"/><path class="cls-3" d="M365.22,156.81l-5.1-1.33a83.83,83.83,0,0,1,4.28-7.76l5.09,1.33a81.48,81.48,0,0,0-4.27,7.76"/><path class="cls-3" d="M369.49,149.05l-5.09-1.33A69.79,69.79,0,0,1,374,135.49l5.1,1.33a69.37,69.37,0,0,0-9.62,12.23"/><path class="cls-3" d="M379.11,136.82l-5.1-1.33a59.26,59.26,0,0,1,4.6-4.14l5.09,1.34a57,57,0,0,0-4.59,4.13"/><path class="cls-3" d="M383.7,132.69l-5.09-1.34a44.78,44.78,0,0,1,12.1-7.07l5.09,1.33a44.56,44.56,0,0,0-12.1,7.08"/><path class="cls-3" d="M395.8,125.61l-5.09-1.33c1-.37,1.94-.69,2.93-1l5.09,1.33c-1,.29-2,.61-2.93,1"/></g></g></g><path class="cls-25" d="M398.73,124.63c23.66-6.78,43.12,14,43.45,46.33s-18.57,64.1-42.23,70.89-43.12-13.95-43.46-46.32S375.07,131.42,398.73,124.63Z"/></g><g class="cls-6"><polygon class="cls-4" points="394.11 190.86 386.48 188.87 425.54 123.29 433.18 125.29 394.11 190.86"/><polygon class="cls-4" points="367.4 193.2 359.76 191.2 370.99 172.35 378.63 174.35 367.4 193.2"/><polygon class="cls-4" points="394.44 222.02 386.8 220.03 359.76 191.2 367.4 193.2 394.44 222.02"/><polygon class="cls-38" points="433.18 125.29 444.73 137.6 394.44 222.02 367.4 193.2 378.63 174.35 394.11 190.86 433.18 125.29"/></g><g class="cls-39"><path class="cls-4" d="M581,116.76l3.67,7.36a28.09,28.09,0,0,1,2.49,16.54c-3,22.33-27.79,49.72-69.88,77.11s-96.43,51.52-153,67.94-108.59,23.14-146.48,19c-27.53-3-45.22-11.58-51.7-24.58l-3.66-7.35c6.48,13,24.16,21.54,51.69,24.58,37.9,4.18,89.92-2.55,146.48-19s110.9-40.54,153-67.93,66.91-54.78,69.88-77.11A28,28,0,0,0,581,116.76Z"/><g class="cls-40"><g class="cls-6"><path class="cls-4" d="M581,116.76l3.67,7.36a26.44,26.44,0,0,1,1.45,3.53l-3.67-7.35a25.3,25.3,0,0,0-1.45-3.54"/><path class="cls-4" d="M582.49,120.3l3.67,7.35a27,27,0,0,1,1,3.92l-3.67-7.35a25.49,25.49,0,0,0-1-3.92"/><path class="cls-4" d="M583.45,124.22l3.67,7.35a30,30,0,0,1,.37,4.07l-3.67-7.36a28.36,28.36,0,0,0-.37-4.06"/><path class="cls-4" d="M583.82,128.28l3.67,7.36a34.05,34.05,0,0,1-.2,4.24l-3.67-7.36a32.23,32.23,0,0,0,.2-4.24"/><path class="cls-4" d="M583.62,132.52l3.67,7.36-.09.78c-.16,1.2-.39,2.42-.67,3.65L582.86,137c.29-1.23.51-2.44.67-3.64,0-.27.07-.53.09-.79"/><path class="cls-4" d="M582.86,137l3.67,7.36a45.62,45.62,0,0,1-1.34,4.61l-3.67-7.36a44.88,44.88,0,0,0,1.34-4.61"/><path class="cls-4" d="M581.52,141.56l3.67,7.36a51.77,51.77,0,0,1-2,4.82l-3.67-7.35q1.13-2.44,1.95-4.83"/><path class="cls-4" d="M579.57,146.39l3.67,7.35c-.77,1.69-1.65,3.4-2.62,5.12L577,151.51q1.47-2.59,2.62-5.12"/><path class="cls-4" d="M577,151.51l3.67,7.35c-1,1.83-2.18,3.67-3.44,5.53L573.52,157c1.25-1.86,2.4-3.7,3.43-5.52"/><path class="cls-4" d="M573.52,157l3.66,7.36q-2,3-4.44,6.07l-3.67-7.36c1.61-2,3.09-4.07,4.45-6.07"/><path class="cls-4" d="M569.07,163.1l3.67,7.36c-1.78,2.27-3.73,4.56-5.82,6.87L563.25,170q3.15-3.47,5.82-6.87"/><path class="cls-4" d="M563.25,170l3.67,7.36q-3.72,4.09-8.06,8.27l-3.67-7.36q4.35-4.17,8.06-8.27"/><path class="cls-4" d="M555.19,178.24l3.67,7.36q-5.68,5.46-12.43,11l-3.67-7.36q6.74-5.55,12.43-11"/><path class="cls-4" d="M542.76,189.25l3.67,7.36a315.6,315.6,0,0,1-26.18,19.23l-3.66-7.35a317,317,0,0,0,26.17-19.24"/><path class="cls-4" d="M516.59,208.49l3.66,7.35c-1,.65-1.94,1.29-2.93,1.93-9.26,6-19.12,11.9-29.46,17.57L484.19,228c10.34-5.66,20.2-11.53,29.46-17.56l2.94-1.93"/><path class="cls-4" d="M484.19,228l3.67,7.36q-10.51,5.76-21.68,11.22l-3.67-7.35q11.14-5.46,21.68-11.23"/><path class="cls-4" d="M462.51,239.21l3.67,7.35q-6.48,3.18-13.15,6.24l-3.67-7.36q6.66-3.06,13.15-6.23"/><path class="cls-4" d="M449.36,245.44,453,252.8q-5.43,2.49-11,4.9l-3.67-7.36q5.53-2.4,11-4.9"/><path class="cls-4" d="M438.39,250.34l3.67,7.36Q437,259.91,431.83,262l-3.67-7.35c3.44-1.43,6.85-2.87,10.23-4.35"/><path class="cls-4" d="M428.16,254.69l3.67,7.35q-4.93,2-9.94,4l-3.67-7.36q5-2,9.94-4"/><path class="cls-4" d="M418.22,258.7l3.67,7.36q-5,1.95-9.94,3.82l-3.67-7.35q5-1.87,9.94-3.83"/><path class="cls-4" d="M408.28,262.53l3.67,7.35q-5,1.89-10.08,3.69l-3.67-7.35q5.07-1.82,10.08-3.69"/><path class="cls-4" d="M398.2,266.22l3.67,7.35q-5.12,1.83-10.28,3.58l-3.67-7.36c3.44-1.16,6.87-2.36,10.28-3.57"/><path class="cls-4" d="M387.92,269.79l3.67,7.36c-3.49,1.17-7,2.33-10.5,3.45l-3.67-7.36c3.51-1.12,7-2.27,10.5-3.45"/><path class="cls-4" d="M377.42,273.24l3.67,7.36q-5.35,1.71-10.75,3.33l-3.66-7.36q5.38-1.62,10.74-3.33"/><path class="cls-4" d="M366.68,276.57l3.66,7.36-6,1.78-4.91,1.4-3.66-7.36c1.63-.46,3.26-.92,4.9-1.4,2-.58,4-1.17,6-1.78"/><path class="cls-4" d="M355.76,279.75l3.66,7.36q-5.52,1.54-11,3l-3.67-7.35q5.46-1.44,11-3"/><path class="cls-4" d="M344.77,282.74l3.67,7.35q-5.58,1.47-11.08,2.79l-3.67-7.35q5.51-1.33,11.08-2.79"/><path class="cls-4" d="M333.69,285.53l3.67,7.35q-5.69,1.38-11.29,2.61l-3.66-7.35c3.73-.83,7.49-1.69,11.28-2.61"/><path class="cls-4" d="M322.41,288.14l3.66,7.35q-5.83,1.29-11.56,2.42l-3.67-7.36q5.73-1.12,11.57-2.41"/><path class="cls-4" d="M310.84,290.55l3.67,7.36q-6.15,1.21-12.15,2.24l-3.67-7.36q6-1,12.15-2.24"/><path class="cls-4" d="M298.69,292.79l3.67,7.36q-6.58,1.13-13,2l-3.67-7.36q6.39-.9,13-2"/><path class="cls-4" d="M285.72,294.83l3.67,7.36Q282,303.23,275,304l-3.67-7.35q7.08-.75,14.44-1.8"/><path class="cls-4" d="M271.28,296.63,275,304q-9,1-17.51,1.43l-3.67-7.35c5.67-.32,11.52-.8,17.51-1.43"/><path class="cls-4" d="M253.77,298.06l3.67,7.35a241.1,241.1,0,0,1-39.59-.75c-27.53-3-45.22-11.58-51.7-24.58l-3.66-7.35c6.48,13,24.16,21.54,51.69,24.58a242.21,242.21,0,0,0,39.59.75"/></g></g><path class="cls-4" d="M258,165.6c-8,4.53-15.79,9.2-23.18,14l-2.42,1.6a305.69,305.69,0,0,0-25.15,18.42q-6.63,5.46-12.18,10.77-4.26,4.08-7.87,8.06-3.07,3.39-5.68,6.7-2.35,3-4.33,5.91-1.85,2.73-3.36,5.39t-2.57,5c-.72,1.58-1.34,3.13-1.88,4.65a42,42,0,0,0-1.28,4.43,34.07,34.07,0,0,0-.73,4.23,30.83,30.83,0,0,0-.19,4,28.13,28.13,0,0,0,.36,3.92,24.38,24.38,0,0,0,.93,3.79,25.32,25.32,0,0,0,1.4,3.42l3.67,7.36a25.07,25.07,0,0,1-2.33-7.22,27.86,27.86,0,0,1-.36-3.92,29.34,29.34,0,0,1,.19-4.05,36.69,36.69,0,0,1,.72-4.23,44.52,44.52,0,0,1,1.29-4.42q.8-2.29,1.88-4.65t2.57-5q1.51-2.65,3.36-5.4,2-2.91,4.33-5.91,2.61-3.3,5.68-6.69,3.61-4,7.87-8.06,5.53-5.31,12.18-10.77A304.82,304.82,0,0,1,236,188.56l2.43-1.59q9.39-6.1,19.51-11.92Z"/><path class="cls-4" d="M573.7,119.53c-6.11-12.25-22.63-20.8-49.79-23.8A232.07,232.07,0,0,0,486,95q-8.16.45-16.73,1.36c-1,.1-2,.23-3,.34v7.78q3.38-.41,6.69-.77c5.7-.6,11.29-1,16.73-1.36a231,231,0,0,1,38,.72c27.16,3,43.68,11.54,49.78,23.8Z"/><path class="cls-38" d="M529.35,92.19c-18.15-2-39.56-1.5-63.15,1.37v3.15c21.2-2.41,40.81-2.85,57.71-1,75.53,8.34,68.73,59.55-15.16,114.15s-213.6,92.22-289.13,83.88-68.73-59.55,15.16-114.15c7.39-4.81,15.14-9.48,23.18-14v-3.32c-9.84,5.42-19.23,11-28.08,16.79C187.79,206.47,163,233.85,160,256.19s16.28,36.93,54.18,41.12,89.92-2.55,146.48-19,110.9-40.54,153-67.93,66.91-54.78,69.88-77.11S567.25,96.37,529.35,92.19Z"/></g><g class="cls-39"><g class="cls-6"><polygon class="cls-17" points="452.24 280.51 450.69 364.33 424.68 371.78 426.24 287.97 452.24 280.51"/><polygon class="cls-18" points="426.24 287.97 424.68 371.78 401.54 362.54 403.1 278.73 426.24 287.97"/><polygon class="cls-19" points="429.11 271.27 452.24 280.51 426.24 287.97 403.1 278.73 429.11 271.27"/><g class="cls-41"><polygon class="cls-19" points="427.55 355.08 450.69 364.33 424.68 371.78 401.54 362.54 427.55 355.08"/></g></g></g></svg>
