<svg id="图层_1" data-name="图层 1" xmlns="http://www.w3.org/2000/svg" xmlns:xlink="http://www.w3.org/1999/xlink" viewBox="0 0 670 530"><defs><style>.cls-1{fill:#d8dde5;}.cls-2{fill:#005eeb;}.cls-3{fill:#0569e2;}.cls-4{fill:#9dacc1;}.cls-5{fill:#d9e3ed;}.cls-6{fill:#7ab5fc;}.cls-7{fill:#73a9e8;}.cls-8{fill:#095fc6;}.cls-9{isolation:isolate;}.cls-10{clip-path:url(#clip-path);}.cls-11{clip-path:url(#clip-path-2);}.cls-12{clip-path:url(#clip-path-3);}.cls-13{fill:#e8eff7;}.cls-14{fill:#748aa5;}.cls-15{clip-path:url(#clip-path-4);}.cls-16{clip-path:url(#clip-path-5);}.cls-17{clip-path:url(#clip-path-6);}.cls-18{fill:#c3d1e2;}.cls-19{clip-path:url(#clip-path-7);}.cls-20{clip-path:url(#clip-path-8);}.cls-21{clip-path:url(#clip-path-9);}.cls-22{fill:#3180f4;}.cls-23{opacity:0.6;}.cls-24{clip-path:url(#clip-path-10);}.cls-25{clip-path:url(#clip-path-11);}.cls-26{clip-path:url(#clip-path-12);}.cls-27{clip-path:url(#clip-path-13);}.cls-28{fill:#eff3f9;}.cls-29{clip-path:url(#clip-path-14);}.cls-30{clip-path:url(#clip-path-15);}.cls-31{clip-path:url(#clip-path-16);}.cls-32{clip-path:url(#clip-path-17);}.cls-33{clip-path:url(#clip-path-18);}.cls-34{clip-path:url(#clip-path-19);}.cls-35{clip-path:url(#clip-path-20);}.cls-36{clip-path:url(#clip-path-21);}.cls-37{clip-path:url(#clip-path-22);}.cls-38{fill:#f5f8fc;}.cls-39{clip-path:url(#clip-path-23);}.cls-40{clip-path:url(#clip-path-24);}.cls-41{clip-path:url(#clip-path-25);}.cls-42{clip-path:url(#clip-path-26);}.cls-43{clip-path:url(#clip-path-27);}.cls-44{clip-path:url(#clip-path-28);}.cls-45{clip-path:url(#clip-path-29);}.cls-46{clip-path:url(#clip-path-30);}.cls-47{fill:#3e92f7;}.cls-48{clip-path:url(#clip-path-31);}.cls-49{clip-path:url(#clip-path-32);}.cls-50{clip-path:url(#clip-path-33);}.cls-51{clip-path:url(#clip-path-34);}.cls-52{fill:#f0f9ff;}.cls-53{clip-path:url(#clip-path-35);}.cls-54{clip-path:url(#clip-path-36);}.cls-55{clip-path:url(#clip-path-37);}.cls-56{clip-path:url(#clip-path-38);}.cls-57{clip-path:url(#clip-path-39);}.cls-58{clip-path:url(#clip-path-40);}.cls-59{clip-path:url(#clip-path-41);}.cls-60{clip-path:url(#clip-path-42);}.cls-61{clip-path:url(#clip-path-43);}.cls-62{fill:#e5effd;}.cls-63{clip-path:url(#clip-path-44);}.cls-64{clip-path:url(#clip-path-45);}.cls-65{clip-path:url(#clip-path-46);}.cls-66{clip-path:url(#clip-path-47);}.cls-67{fill:#e5effd;}</style><clipPath id="clip-path"><path class="cls-1" d="M20,343.77,20.23,331c-.07,3.87,3.9,7.83,12.05,11.08L32,354.85C23.89,351.6,19.92,347.64,20,343.77Z"/></clipPath><clipPath id="clip-path-2"><path class="cls-1" d="M650,383.16l-.24,12.78c-.08,4.44-5.48,8.76-16,11.77l.24-12.78C644.53,391.92,649.93,387.6,650,383.16Z"/></clipPath><clipPath id="clip-path-3"><path class="cls-1" d="M396.35,463.09l-.24,12.78c-19.67,5.64-49.78,4.54-67.27-2.45l.24-12.78C346.57,467.63,376.68,468.73,396.35,463.09Z"/></clipPath><clipPath id="clip-path-4"><path class="cls-4" d="M563.68,345.37l-.14,7.43c-.06,3.22-4,6.36-11.6,8.54l.14-7.42C559.71,351.73,563.62,348.59,563.68,345.37Z"/></clipPath><clipPath id="clip-path-5"><path class="cls-4" d="M62.49,310.07l.14-7.43c-.05,2.81,2.83,5.69,8.75,8.05l-.14,7.43C65.32,315.75,62.44,312.88,62.49,310.07Z"/></clipPath><clipPath id="clip-path-6"><path class="cls-4" d="M362.49,409.18l-.14,7.42c-14.28,4.09-36.15,3.3-48.85-1.77l.14-7.43C326.34,412.48,348.21,413.27,362.49,409.18Z"/></clipPath><clipPath id="clip-path-7"><path class="cls-8" d="M177.06,319.2l-8.55-9.83a11.54,11.54,0,0,0,5.32,3.42l8.56,9.83A11.54,11.54,0,0,1,177.06,319.2Z"/></clipPath><clipPath id="clip-path-8"><path class="cls-8" d="M460.11,223.09l8.56,9.83c3.5,4,3.91,10.43.5,16.62l-8.56-9.84C464,233.51,463.61,227.11,460.11,223.09Z"/></clipPath><clipPath id="clip-path-9"><path class="cls-8" d="M392.33,363.46l8.56,9.84c-4.72,8.56-15,13.47-22.93,11l-8.55-9.83C377.34,376.94,387.61,372,392.33,363.46Z"/></clipPath><clipPath id="clip-path-10"><path class="cls-1" d="M207.5,312.62l-8.74-7a6.51,6.51,0,0,0,1.86,1l8.74,7A6.78,6.78,0,0,1,207.5,312.62Z"/></clipPath><clipPath id="clip-path-11"><path class="cls-1" d="M435.87,89.55l8.74,7a7.62,7.62,0,0,1,2.61,4.33l-8.74-7A7.63,7.63,0,0,0,435.87,89.55Z"/></clipPath><clipPath id="clip-path-12"><path class="cls-1" d="M452.09,152.72l8.74,7a12.79,12.79,0,0,1-1.16,8.28l-8.74-7A12.75,12.75,0,0,0,452.09,152.72Z"/></clipPath><clipPath id="clip-path-13"><path class="cls-1" d="M358.56,352.68l8.74,7c-2.68,5.55-8.29,8.84-12.82,7.64a4.75,4.75,0,0,1-.64-.2l-8.74-7c.21.08.43.14.64.2C350.27,361.53,355.88,358.24,358.56,352.68Z"/></clipPath><clipPath id="clip-path-14"><path class="cls-1" d="M196.38,302.11l-9.08-6.47a6.94,6.94,0,0,0,1.91.94l9.08,6.47A6.94,6.94,0,0,1,196.38,302.11Z"/></clipPath><clipPath id="clip-path-15"><path class="cls-1" d="M413.07,66.65l9.08,6.46A7.58,7.58,0,0,1,425,77.29l-9.08-6.47A7.52,7.52,0,0,0,413.07,66.65Z"/></clipPath><clipPath id="clip-path-16"><path class="cls-1" d="M432.48,128.83l9.09,6.46a12.83,12.83,0,0,1-.74,8.33l-9.08-6.47A12.74,12.74,0,0,0,432.48,128.83Z"/></clipPath><clipPath id="clip-path-17"><path class="cls-1" d="M349.26,333.71l9.08,6.46c-2.39,5.7-7.83,9.3-12.41,8.36-.22,0-.43-.1-.64-.17l-9.09-6.47c.22.07.43.12.65.17C341.43,343,346.87,339.41,349.26,333.71Z"/></clipPath><clipPath id="clip-path-18"><path class="cls-2" d="M298.72,100.61l-5.25-3.53a7.59,7.59,0,0,0,2.11,1l5.25,3.52A7.71,7.71,0,0,1,298.72,100.61Z"/></clipPath><clipPath id="clip-path-19"><path class="cls-2" d="M398.2,100.68l5.26,3.53c3.89,2.61,5.16,8.63,2.75,14.65-2.68,6.69-8.93,11-14.26,9.9a6.49,6.49,0,0,1-.76-.19l-5.26-3.52c.25.07.5.13.76.18,5.34,1,11.59-3.21,14.26-9.9C403.37,109.31,402.09,103.29,398.2,100.68Z"/></clipPath><clipPath id="clip-path-20"><path class="cls-1" d="M278,140l-5.26-3.53a3.46,3.46,0,0,0,.89.42l5.26,3.53A3.31,3.31,0,0,1,278,140Z"/></clipPath><clipPath id="clip-path-21"><path class="cls-1" d="M399.19,154.53l5.26,3.53c1.65,1.11,2.19,3.66,1.17,6.22l-5.26-3.53C401.38,158.19,400.84,155.64,399.19,154.53Z"/></clipPath><clipPath id="clip-path-22"><path class="cls-1" d="M397.53,167.83l5.25,3.53c-1.13,2.83-3.78,4.64-6,4.2l-.31-.08L391.16,172l.32.08C393.74,172.47,396.39,170.67,397.53,167.83Z"/></clipPath><clipPath id="clip-path-23"><path class="cls-1" d="M260.73,175.8l-5.26-3.53a3.09,3.09,0,0,0,.9.42l5.25,3.53A3.46,3.46,0,0,1,260.73,175.8Z"/></clipPath><clipPath id="clip-path-24"><path class="cls-1" d="M382,190.38l5.25,3.52c1.65,1.11,2.19,3.66,1.17,6.22l-5.26-3.53C384.17,194,383.63,191.48,382,190.38Z"/></clipPath><clipPath id="clip-path-25"><path class="cls-1" d="M380.31,203.67l5.25,3.53c-1.13,2.84-3.78,4.64-6.05,4.2l-.31-.08-5.26-3.53.32.08C376.52,208.32,379.17,206.51,380.31,203.67Z"/></clipPath><clipPath id="clip-path-26"><path class="cls-3" d="M150.59,132.41l12.53-6.3a7.56,7.56,0,0,1,5.89-.24l-12.52,6.3A7.58,7.58,0,0,0,150.59,132.41Z"/></clipPath><clipPath id="clip-path-27"><path class="cls-3" d="M236.3,159.05l12.53-6.3a13.79,13.79,0,0,1,7,5.83l-12.53,6.3A13.79,13.79,0,0,0,236.3,159.05Z"/></clipPath><clipPath id="clip-path-28"><path class="cls-3" d="M270.65,208.21l12.53-6.3a13.72,13.72,0,0,0,7,5.83L277.62,214A13.72,13.72,0,0,1,270.65,208.21Z"/></clipPath><clipPath id="clip-path-29"><path class="cls-3" d="M386.43,385.2l-12.53,6.3a7.78,7.78,0,0,0,3.91-5.25l12.53-6.3A7.78,7.78,0,0,1,386.43,385.2Z"/></clipPath><clipPath id="clip-path-30"><path class="cls-3" d="M397.62,254.45l12.52-6.3c6.36,2.14,10.84,10.57,9.17,17.2l-12.53,6.3C408.46,265,404,256.59,397.62,254.45Z"/></clipPath><clipPath id="clip-path-31"><path class="cls-5" d="M274.64,327.67,270.11,333a2.48,2.48,0,0,0,.19-.26,2.36,2.36,0,0,0,.05-2l4.53-5.31a2.34,2.34,0,0,1-.06,2A1.59,1.59,0,0,1,274.64,327.67Z"/></clipPath><clipPath id="clip-path-32"><path class="cls-5" d="M228.83,276.46l4.52-5.31c0,.25,0,.43,0,.67,0,.73,0,1.46.07,2.2a33.4,33.4,0,0,0,1.62,7.91c1.57,4.82,4.88,7.07,8.32,9.42.57.38,1.13.77,1.7,1.17l-4.53,5.32c-.56-.4-1.13-.79-1.7-1.18-3.44-2.34-6.75-4.6-8.32-9.41a34.62,34.62,0,0,1-1.62-7.92c-.06-.74-.08-1.47-.07-2.19C228.8,276.9,228.81,276.71,228.83,276.46Z"/></clipPath><clipPath id="clip-path-33"><path class="cls-5" d="M253.9,299l4.53-5.31a1.91,1.91,0,0,1,1.38-.65,2.79,2.79,0,0,1,1.05.12l-4.52,5.31a3.32,3.32,0,0,0-1.06-.12A2,2,0,0,0,253.9,299Z"/></clipPath><clipPath id="clip-path-34"><path class="cls-5" d="M221,275.63l4.53-5.32a12.54,12.54,0,0,1,3-2.63,2,2,0,0,1,.95-.28,3.43,3.43,0,0,1,2.26.72,3.53,3.53,0,0,1,1.61,3l-4.52,5.31a3.55,3.55,0,0,0-1.61-3,3.59,3.59,0,0,0-2.27-.72,2.16,2.16,0,0,0-.95.29A12.32,12.32,0,0,0,221,275.63Z"/></clipPath><clipPath id="clip-path-35"><path class="cls-5" d="M256.34,298.51l4.52-5.31a4.17,4.17,0,0,1,2.64,2.4L259,300.91A4.13,4.13,0,0,0,256.34,298.51Z"/></clipPath><clipPath id="clip-path-36"><path class="cls-5" d="M257.31,275.3l-4.53,5.31a1.46,1.46,0,0,0,.22-.33l4.53-5.31A1.9,1.9,0,0,1,257.31,275.3Z"/></clipPath><clipPath id="clip-path-37"><path class="cls-5" d="M236.57,246.68l4.52-5.32a2,2,0,0,1,1.39-.65L238,246A2,2,0,0,0,236.57,246.68Z"/></clipPath><clipPath id="clip-path-38"><path class="cls-5" d="M290.21,298.72,285.69,304a22,22,0,0,0,3.25-5.32,23.2,23.2,0,0,0,2.12-10.57c-.43-6.53-5.11-19.6-17.61-28.47l4.53-5.32c12.49,8.88,17.17,22,17.61,28.48a23.34,23.34,0,0,1-2.12,10.57A21.69,21.69,0,0,1,290.21,298.72Z"/></clipPath><clipPath id="clip-path-39"><path class="cls-5" d="M265.67,244.36l4.52-5.31a3.84,3.84,0,0,1,3.06,1.49,2.77,2.77,0,0,1,.58,3l-4.53,5.32a2.77,2.77,0,0,0-.58-3A3.88,3.88,0,0,0,265.67,244.36Z"/></clipPath><clipPath id="clip-path-40"><path class="cls-6" d="M517,296.8l18.41.65a37.06,37.06,0,0,0-9.91,1c-1,.25-2,.54-3,.87L504,298.7c1-.33,2-.63,3-.87A36.34,36.34,0,0,1,517,296.8Z"/></clipPath><clipPath id="clip-path-41"><path class="cls-6" d="M459.74,252l18.41.66a44.3,44.3,0,0,0-11.9,1.23l-18.42-.65A44.35,44.35,0,0,1,459.74,252Z"/></clipPath><clipPath id="clip-path-42"><path class="cls-6" d="M415.2,338.68,396.78,338c-.15-1.52-.28-3.06-.34-4.63-1.55-37.06,21.45-72.94,51.39-80.13l18.42.65c-29.94,7.19-52.95,43.07-51.39,80.13C414.92,335.62,415.05,337.16,415.2,338.68Z"/></clipPath><clipPath id="clip-path-43"><path class="cls-6" d="M406.35,438.72l-18.41-.65c-18-.64-32.08-17.09-33.06-40.57-1.14-27.16,15.73-53.46,37.67-58.73a33.81,33.81,0,0,1,4.23-.74l18.42.65a35.38,35.38,0,0,0-4.23.74C389,344.69,372.16,371,373.29,398.15,374.28,421.63,388.38,438.08,406.35,438.72Z"/></clipPath><clipPath id="clip-path-44"><path class="cls-7" d="M233.85,80.61l-7.43-4.46a4.8,4.8,0,0,0,2.12-2.71L236,77.9A4.77,4.77,0,0,1,233.85,80.61Z"/></clipPath><clipPath id="clip-path-45"><path class="cls-7" d="M244.47,38.72l7.43,4.46a3.43,3.43,0,0,0-1.94-.47l-7.44-4.46A3.49,3.49,0,0,1,244.47,38.72Z"/></clipPath><clipPath id="clip-path-46"><path class="cls-7" d="M246,46l-7.44-4.46a4.53,4.53,0,0,1,4-3.29L250,42.71A4.53,4.53,0,0,0,246,46Z"/></clipPath><clipPath id="clip-path-47"><path class="cls-7" d="M205.13,104.51l-7.44-4.46c-2.4-1.45-2.25-5.58.67-7.31l7.44,4.46C202.88,98.93,202.73,103.06,205.13,104.51Z"/></clipPath></defs><title>【插图】页面元素插图-1</title><g class="cls-9"><g class="cls-9"><path class="cls-1" d="M20,343.77,20.23,331c-.07,3.87,3.9,7.83,12.05,11.08L32,354.85C23.89,351.6,19.92,347.64,20,343.77Z"/><g class="cls-10"><g class="cls-9"><path class="cls-1" d="M32.28,342.07,32,354.85c-8.15-3.25-12.12-7.21-12-11.08L20.23,331c-.07,3.87,3.9,7.83,12.05,11.08"/></g></g></g><g class="cls-9"><path class="cls-1" d="M650,383.16l-.24,12.78c-.08,4.44-5.48,8.76-16,11.77l.24-12.78C644.53,391.92,649.93,387.6,650,383.16Z"/><g class="cls-11"><g class="cls-9"><path class="cls-1" d="M650,383.16l-.24,12.78c0,.1,0,.2,0,.29l.23-12.77c0-.1,0-.2,0-.3"/><path class="cls-1" d="M650,383.46l-.23,12.77a5.9,5.9,0,0,1-.21,1.16l.24-12.78a5.14,5.14,0,0,0,.2-1.15"/><path class="cls-1" d="M649.79,384.61l-.24,12.78a6.81,6.81,0,0,1-.41,1.08l.24-12.78a6.81,6.81,0,0,0,.41-1.08"/><path class="cls-1" d="M649.38,385.69l-.24,12.78a9.14,9.14,0,0,1-.6,1l.23-12.78a7.32,7.32,0,0,0,.61-1"/><path class="cls-1" d="M648.77,386.72l-.23,12.78a11.5,11.5,0,0,1-.79,1l.24-12.78a10,10,0,0,0,.78-1"/><path class="cls-1" d="M648,387.72l-.24,12.78c-.29.32-.62.65-1,1l.23-12.78c.36-.32.68-.65,1-1"/><path class="cls-1" d="M647,388.69l-.23,12.78c-.37.32-.76.64-1.19,1l.24-12.78c.43-.32.82-.64,1.18-1"/><path class="cls-1" d="M645.83,389.65l-.24,12.78c-.44.33-.91.65-1.42,1l.24-12.78c.51-.32,1-.64,1.42-1"/><path class="cls-1" d="M644.41,390.62l-.24,12.78c-.54.33-1.12.66-1.73,1l.24-12.78c.61-.32,1.19-.65,1.73-1"/><path class="cls-1" d="M642.68,391.6l-.24,12.78c-.67.36-1.39.7-2.16,1l.24-12.77c.76-.34,1.48-.68,2.16-1"/><path class="cls-1" d="M640.52,392.64l-.24,12.77c-.88.39-1.83.77-2.83,1.13l.23-12.78c1-.36,2-.74,2.84-1.12"/><path class="cls-1" d="M637.68,393.76l-.23,12.78q-1.71.61-3.66,1.17l.24-12.78c1.3-.37,2.52-.76,3.65-1.17"/></g></g></g><polygon class="cls-1" points="329.08 460.64 328.84 473.42 32.04 354.85 32.28 342.07 329.08 460.64"/><polygon class="cls-1" points="634.03 394.93 633.79 407.71 396.11 475.87 396.35 463.09 634.03 394.93"/><g class="cls-9"><path class="cls-1" d="M396.35,463.09l-.24,12.78c-19.67,5.64-49.78,4.54-67.27-2.45l.24-12.78C346.57,467.63,376.68,468.73,396.35,463.09Z"/><g class="cls-12"><g class="cls-9"><path class="cls-1" d="M396.35,463.09l-.24,12.78-.61.17.24-12.78.61-.17"/><path class="cls-1" d="M395.74,463.26,395.5,476a100.28,100.28,0,0,1-19.45,3.12l.24-12.78a100.41,100.41,0,0,0,19.45-3.12"/><path class="cls-1" d="M376.29,466.38l-.24,12.78c-1.55.1-3.12.18-4.69.24l.24-12.78c1.57-.06,3.14-.14,4.69-.24"/><path class="cls-1" d="M371.6,466.62l-.24,12.78c-1.27,0-2.55.06-3.83.07l.24-12.78c1.28,0,2.55,0,3.83-.07"/><path class="cls-1" d="M367.77,466.69l-.24,12.78c-1.15,0-2.3,0-3.45,0l.23-12.78c1.16,0,2.31,0,3.46,0"/><path class="cls-1" d="M364.31,466.67l-.23,12.78-3.26-.1.24-12.78c1.08,0,2.17.08,3.25.1"/><path class="cls-1" d="M361.06,466.57l-.24,12.78c-1-.05-2.09-.1-3.12-.17l.23-12.78c1,.07,2.09.12,3.13.17"/><path class="cls-1" d="M357.93,466.4l-.23,12.78c-1-.07-2-.14-3-.23l.24-12.78c1,.09,2,.16,3,.23"/><path class="cls-1" d="M354.91,466.17,354.67,479c-1-.09-2-.19-3-.3l.24-12.77,3,.29"/><path class="cls-1" d="M352,465.88l-.24,12.77c-1-.1-1.94-.22-2.9-.35l.23-12.78q1.44.19,2.91.36"/><path class="cls-1" d="M349,465.52l-.23,12.78c-1-.13-1.94-.27-2.89-.42l.24-12.78q1.43.22,2.88.42"/><path class="cls-1" d="M346.16,465.1l-.24,12.78c-1-.16-1.94-.33-2.89-.51l.24-12.77,2.89.5"/><path class="cls-1" d="M343.27,464.6,343,477.37c-1-.18-2-.38-2.93-.59l.24-12.78c1,.21,1.94.41,2.93.6"/><path class="cls-1" d="M340.34,464l-.24,12.78c-1-.23-2.06-.47-3.05-.73l.23-12.77q1.5.38,3.06.72"/><path class="cls-1" d="M337.28,463.28l-.23,12.77c-1.14-.29-2.25-.6-3.32-.92l.24-12.78c1.07.33,2.18.63,3.31.93"/><path class="cls-1" d="M334,462.35l-.24,12.78c-1.35-.41-2.64-.85-3.88-1.32l.23-12.78c1.24.47,2.54.91,3.89,1.32"/><path class="cls-1" d="M330.08,461l-.23,12.78-1-.39.24-12.78c.33.14.67.27,1,.39"/></g></g></g><path class="cls-13" d="M273.9,251.06c19.65-5.64,49.77-4.54,67.26,2.44L638,372.07c17.49,7,15.73,17.22-3.93,22.86L396.35,463.09c-19.67,5.64-49.78,4.54-67.27-2.45L32.28,342.07c-17.49-7-15.74-17.21,3.93-22.85Z"/></g><g class="cls-9"><path class="cls-14" d="M262.13,249.42c14.28-4.09,36.14-3.3,48.85,1.78l242.26,96.7c12.7,5.08,11.43,12.51-2.86,16.61L360.79,419.76c-14.27,4.09-36.15,3.3-48.85-1.77L69.68,321.28c-12.7-5.08-11.42-12.51,2.86-16.6Z"/><g class="cls-9"><path class="cls-4" d="M563.68,345.37l-.14,7.43c-.06,3.22-4,6.36-11.6,8.54l.14-7.42C559.71,351.73,563.62,348.59,563.68,345.37Z"/><g class="cls-15"><g class="cls-9"><path class="cls-4" d="M563.68,345.37l-.14,7.43a1.48,1.48,0,0,1,0,.21l.14-7.42a1.62,1.62,0,0,0,0-.22"/><path class="cls-4" d="M563.67,345.59l-.14,7.42a4.1,4.1,0,0,1-.14.84l.13-7.43a3.91,3.91,0,0,0,.15-.83"/><path class="cls-4" d="M563.52,346.42l-.13,7.43a6.24,6.24,0,0,1-.3.78l.13-7.42a4,4,0,0,0,.3-.79"/><path class="cls-4" d="M563.22,347.21l-.13,7.42a7.31,7.31,0,0,1-.44.75l.14-7.42a5.75,5.75,0,0,0,.43-.75"/><path class="cls-4" d="M562.79,348l-.14,7.42a7.49,7.49,0,0,1-.57.72l.14-7.42a9,9,0,0,0,.57-.72"/><path class="cls-4" d="M562.22,348.68l-.14,7.42a9.51,9.51,0,0,1-.71.71l.14-7.42c.26-.24.49-.47.71-.71"/><path class="cls-4" d="M561.51,349.39l-.14,7.42a10.43,10.43,0,0,1-.86.7l.14-7.43c.31-.23.6-.46.86-.69"/><path class="cls-4" d="M560.65,350.08l-.14,7.43c-.32.24-.66.47-1,.7l.14-7.42c.37-.23.71-.47,1-.71"/><path class="cls-4" d="M559.62,350.79l-.14,7.42q-.59.36-1.26.72l.14-7.43c.45-.23.86-.47,1.26-.71"/><path class="cls-4" d="M558.36,351.5l-.14,7.43c-.49.25-1,.5-1.57.75l.14-7.43c.56-.24,1.08-.49,1.57-.75"/><path class="cls-4" d="M556.79,352.25l-.14,7.43c-.64.28-1.32.55-2,.81l.13-7.42c.73-.26,1.42-.54,2.06-.82"/><path class="cls-4" d="M554.73,353.07l-.13,7.42c-.83.3-1.72.58-2.66.85l.14-7.42c.94-.27,1.82-.55,2.65-.85"/></g></g></g><g class="cls-9"><path class="cls-4" d="M62.49,310.07l.14-7.43c-.05,2.81,2.83,5.69,8.75,8.05l-.14,7.43C65.32,315.75,62.44,312.88,62.49,310.07Z"/><g class="cls-16"><g class="cls-9"><path class="cls-4" d="M71.38,310.69l-.14,7.43c-5.92-2.37-8.8-5.24-8.75-8.05l.14-7.43c-.05,2.81,2.83,5.69,8.75,8.05"/></g></g></g><polygon class="cls-4" points="313.64 407.4 313.5 414.83 71.24 318.12 71.38 310.69 313.64 407.4"/><polygon class="cls-4" points="552.08 353.92 551.94 361.34 362.35 416.6 362.49 409.18 552.08 353.92"/><g class="cls-9"><path class="cls-4" d="M362.49,409.18l-.14,7.42c-14.28,4.09-36.15,3.3-48.85-1.77l.14-7.43C326.34,412.48,348.21,413.27,362.49,409.18Z"/><g class="cls-17"><g class="cls-9"><path class="cls-4" d="M362.49,409.18l-.14,7.42-.44.12.14-7.42.44-.12"/><path class="cls-4" d="M362.05,409.3l-.14,7.42A72.26,72.26,0,0,1,347.79,419l.14-7.42a72.38,72.38,0,0,0,14.12-2.27"/><path class="cls-4" d="M347.93,411.57l-.14,7.42c-1.13.08-2.27.13-3.41.17l.14-7.42c1.14,0,2.28-.1,3.41-.17"/><path class="cls-4" d="M344.52,411.74l-.14,7.42c-.93,0-1.85,0-2.78.06l.13-7.43c.93,0,1.86,0,2.79-.05"/><path class="cls-4" d="M341.73,411.79l-.13,7.43c-.84,0-1.68,0-2.51,0l.14-7.42c.83,0,1.67,0,2.5,0"/><path class="cls-4" d="M339.23,411.78l-.14,7.42-2.37-.07.14-7.43c.79,0,1.58.06,2.37.08"/><path class="cls-4" d="M336.86,411.7l-.14,7.43-2.27-.12.14-7.43c.76.05,1.51.09,2.27.12"/><path class="cls-4" d="M334.59,411.58l-.14,7.43-2.2-.17.14-7.43c.73.07,1.46.12,2.2.17"/><path class="cls-4" d="M332.39,411.41l-.14,7.43-2.14-.21.13-7.43c.71.08,1.43.15,2.15.21"/><path class="cls-4" d="M330.24,411.2l-.13,7.43-2.12-.26.14-7.43c.7.1,1.4.18,2.11.26"/><path class="cls-4" d="M328.13,410.94l-.14,7.43-2.09-.31.14-7.42c.69.11,1.39.21,2.09.3"/><path class="cls-4" d="M326,410.64l-.14,7.42c-.71-.11-1.41-.24-2.1-.36l.14-7.43,2.1.37"/><path class="cls-4" d="M323.94,410.27l-.14,7.43c-.72-.14-1.43-.28-2.13-.44l.14-7.42c.7.15,1.41.3,2.13.43"/><path class="cls-4" d="M321.81,409.84l-.14,7.42c-.75-.16-1.49-.34-2.22-.52l.14-7.43c.73.19,1.47.36,2.22.53"/><path class="cls-4" d="M319.59,409.31l-.14,7.43c-.82-.21-1.62-.44-2.4-.68l.13-7.42c.78.24,1.59.46,2.41.67"/><path class="cls-4" d="M317.18,408.64l-.13,7.42c-1-.29-1.92-.61-2.82-.95l.14-7.42c.9.33,1.84.65,2.81.95"/><path class="cls-4" d="M314.37,407.69l-.14,7.42-.73-.28.14-7.43.73.29"/></g></g></g><path class="cls-18" d="M263.82,238.84c14.29-4.1,36.15-3.3,48.85,1.77l242.26,96.71c12.7,5.07,11.43,12.5-2.85,16.6L362.49,409.18c-14.28,4.09-36.15,3.3-48.85-1.78L71.38,310.69c-12.71-5.07-11.42-12.5,2.85-16.6Z"/></g><g class="cls-9"><g class="cls-9"><path class="cls-8" d="M177.06,319.2l-8.55-9.83a11.54,11.54,0,0,0,5.32,3.42l8.56,9.83A11.54,11.54,0,0,1,177.06,319.2Z"/><g class="cls-19"><g class="cls-9"><path class="cls-8" d="M173.83,312.79l8.56,9.83a11.54,11.54,0,0,1-5.33-3.42l-8.55-9.83a11.54,11.54,0,0,0,5.32,3.42"/></g></g></g><g class="cls-9"><path class="cls-8" d="M460.11,223.09l8.56,9.83c3.5,4,3.91,10.43.5,16.62l-8.56-9.84C464,233.51,463.61,227.11,460.11,223.09Z"/><g class="cls-20"><g class="cls-9"><path class="cls-8" d="M460.11,223.09l8.56,9.83.27.32-8.56-9.83a2.69,2.69,0,0,0-.27-.32"/><path class="cls-8" d="M460.38,223.41l8.56,9.83c.2.25.38.5.56.76l-8.56-9.84c-.18-.26-.36-.51-.56-.75"/><path class="cls-8" d="M460.94,224.16,469.5,234c.17.26.34.53.49.81L461.44,225c-.16-.28-.32-.55-.5-.82"/><path class="cls-8" d="M461.44,225l8.55,9.83c.16.29.31.58.45.88l-8.56-9.83c-.14-.3-.28-.6-.44-.88"/><path class="cls-8" d="M461.88,225.86l8.56,9.83c.14.32.27.65.38,1l-8.56-9.84c-.11-.33-.24-.65-.38-1"/><path class="cls-8" d="M462.26,226.83l8.56,9.84a10,10,0,0,1,.32,1.1l-8.55-9.84a10.68,10.68,0,0,0-.33-1.1"/><path class="cls-8" d="M462.59,227.93l8.55,9.84a10.89,10.89,0,0,1,.25,1.29l-8.56-9.84q-.09-.66-.24-1.29"/><path class="cls-8" d="M462.83,229.22l8.56,9.84a14,14,0,0,1,.13,1.6L463,230.83a12.2,12.2,0,0,0-.13-1.61"/><path class="cls-8" d="M463,230.83l8.56,9.83a16,16,0,0,1-.2,2.82l-8.56-9.83a15.11,15.11,0,0,0,.2-2.82"/><path class="cls-8" d="M462.76,233.65l8.56,9.83a18.61,18.61,0,0,1-.92,3.41l-8.56-9.84a18,18,0,0,0,.92-3.4"/><path class="cls-8" d="M461.84,237.05l8.56,9.84a20.93,20.93,0,0,1-1.23,2.65l-8.56-9.84a19.63,19.63,0,0,0,1.23-2.65"/></g></g></g><polygon class="cls-8" points="369.41 374.44 377.96 384.27 182.39 322.62 173.83 312.79 369.41 374.44"/><polygon class="cls-8" points="460.61 239.7 469.17 249.54 400.89 373.3 392.33 363.46 460.61 239.7"/><g class="cls-9"><path class="cls-8" d="M392.33,363.46l8.56,9.84c-4.72,8.56-15,13.47-22.93,11l-8.55-9.83C377.34,376.94,387.61,372,392.33,363.46Z"/><g class="cls-21"><g class="cls-9"><path class="cls-8" d="M392.33,363.46l8.56,9.84-.06.11-8.56-9.83.06-.12"/><path class="cls-8" d="M392.27,363.58l8.56,9.83c-.31.56-.65,1.1-1,1.62l-8.56-9.84c.36-.52.69-1.06,1-1.61"/><path class="cls-8" d="M391.27,365.19l8.56,9.84c-.3.43-.61.86-.93,1.27l-8.56-9.84c.33-.41.64-.83.93-1.27"/><path class="cls-8" d="M390.34,366.46l8.56,9.84c-.29.37-.59.73-.9,1.07l-8.56-9.83q.46-.53.9-1.08"/><path class="cls-8" d="M389.44,367.54l8.56,9.83c-.29.33-.59.65-.89.95l-8.56-9.83c.31-.31.6-.63.89-.95"/><path class="cls-8" d="M388.55,368.49l8.56,9.83c-.3.3-.6.59-.91.87l-8.55-9.84c.3-.28.61-.56.9-.86"/><path class="cls-8" d="M387.65,369.35l8.55,9.84c-.3.27-.61.53-.92.79l-8.56-9.84c.32-.25.62-.52.93-.79"/><path class="cls-8" d="M386.72,370.14l8.56,9.84c-.32.26-.63.5-1,.74l-8.56-9.84c.33-.23.65-.48,1-.74"/><path class="cls-8" d="M385.76,370.88l8.56,9.84c-.33.24-.66.48-1,.7l-8.55-9.84c.34-.22.67-.45,1-.7"/><path class="cls-8" d="M384.76,371.58l8.55,9.84c-.35.23-.71.45-1.07.66l-8.55-9.83c.36-.21.72-.43,1.07-.67"/><path class="cls-8" d="M383.69,372.25l8.55,9.83c-.38.22-.77.43-1.16.63l-8.55-9.83c.39-.2.77-.41,1.16-.63"/><path class="cls-8" d="M382.53,372.88l8.55,9.83c-.42.22-.85.42-1.28.6l-8.56-9.83,1.29-.6"/><path class="cls-8" d="M381.24,373.48l8.56,9.83c-.49.21-1,.4-1.48.57l-8.56-9.83c.5-.17,1-.36,1.48-.57"/><path class="cls-8" d="M379.76,374.05l8.56,9.83a18.64,18.64,0,0,1-1.9.55l-8.55-9.83c.63-.15,1.26-.34,1.89-.55"/><path class="cls-8" d="M377.87,374.6l8.55,9.83a15.84,15.84,0,0,1-8.46-.16l-8.55-9.83a16,16,0,0,0,8.46.16"/></g></g></g><path class="cls-22" d="M454.79,219.67c7.94,2.5,10.55,11.47,5.82,20L392.33,363.46c-4.72,8.57-15,13.48-22.92,11L173.83,312.79c-7.94-2.51-10.54-11.48-5.82-20L236.29,169c4.72-8.56,15-13.47,22.93-11Z"/></g><g class="cls-23"><g class="cls-9"><g class="cls-9"><path class="cls-1" d="M207.5,312.62l-8.74-7a6.51,6.51,0,0,0,1.86,1l8.74,7A6.78,6.78,0,0,1,207.5,312.62Z"/><g class="cls-24"><g class="cls-9"><path class="cls-1" d="M200.62,306.7l8.74,7a6.78,6.78,0,0,1-1.86-1.05l-8.74-7a6.51,6.51,0,0,0,1.86,1"/></g></g></g><g class="cls-9"><path class="cls-1" d="M435.87,89.55l8.74,7a7.62,7.62,0,0,1,2.61,4.33l-8.74-7A7.63,7.63,0,0,0,435.87,89.55Z"/><g class="cls-25"><g class="cls-9"><path class="cls-1" d="M435.87,89.55l8.74,7,.19.16-8.74-7-.19-.16"/><path class="cls-1" d="M436.06,89.71l8.74,7,.37.34-8.74-7a4,4,0,0,0-.37-.34"/><path class="cls-1" d="M436.43,90.05l8.74,7c.12.12.23.24.34.37l-8.74-7-.34-.36"/><path class="cls-1" d="M436.77,90.41l8.74,7c.11.12.21.25.31.38l-8.74-7c-.1-.14-.2-.26-.31-.39"/><path class="cls-1" d="M437.08,90.8l8.74,7c.1.13.2.27.29.41l-8.74-7c-.09-.14-.19-.28-.29-.41"/><path class="cls-1" d="M437.37,91.21l8.74,7,.26.43-8.74-7c-.08-.15-.17-.29-.26-.43"/><path class="cls-1" d="M437.63,91.64l8.74,7,.24.47-8.74-7c-.07-.16-.16-.32-.24-.47"/><path class="cls-1" d="M437.87,92.11l8.74,7c.08.17.15.34.22.51l-8.74-7c-.07-.17-.14-.34-.22-.51"/><path class="cls-1" d="M438.09,92.62l8.74,7c.07.19.14.38.2.57l-8.74-7c-.06-.19-.13-.38-.2-.56"/><path class="cls-1" d="M438.29,93.18l8.74,7c.06.21.12.42.17.64l-8.73-7c-.06-.22-.11-.43-.18-.64"/><path class="cls-1" d="M438.47,93.82l8.73,7,0,0-8.74-7v-.05"/></g></g></g><polygon class="cls-1" points="438.48 93.87 447.22 100.84 460.83 159.68 452.09 152.72 438.48 93.87"/><g class="cls-9"><path class="cls-1" d="M452.09,152.72l8.74,7a12.79,12.79,0,0,1-1.16,8.28l-8.74-7A12.75,12.75,0,0,0,452.09,152.72Z"/><g class="cls-26"><g class="cls-9"><path class="cls-1" d="M452.09,152.72l8.74,7c.06.24.1.47.14.71l-8.74-7c0-.24-.08-.48-.14-.71"/><path class="cls-1" d="M452.23,153.43l8.74,7c0,.31.08.62.1.94l-8.74-7c0-.31-.05-.63-.1-.93"/><path class="cls-1" d="M452.33,154.36l8.74,7a11.85,11.85,0,0,1,0,1.46l-8.74-7a12,12,0,0,0,0-1.47"/><path class="cls-1" d="M452.33,155.83l8.74,7a12.94,12.94,0,0,1-.54,3l-8.74-7a12.94,12.94,0,0,0,.54-2.95"/><path class="cls-1" d="M451.79,158.78l8.74,7c-.15.5-.33,1-.53,1.5l-8.74-7c.2-.49.38-1,.53-1.49"/><path class="cls-1" d="M451.26,160.27l8.74,7c-.11.24-.21.48-.33.72l-8.74-7q.18-.36.33-.72"/></g></g></g><polygon class="cls-1" points="345.1 360.13 353.84 367.09 209.36 313.67 200.62 306.7 345.1 360.13"/><polygon class="cls-1" points="450.93 160.99 459.67 167.96 367.3 359.65 358.56 352.68 450.93 160.99"/><g class="cls-9"><path class="cls-1" d="M358.56,352.68l8.74,7c-2.68,5.55-8.29,8.84-12.82,7.64a4.75,4.75,0,0,1-.64-.2l-8.74-7c.21.08.43.14.64.2C350.27,361.53,355.88,358.24,358.56,352.68Z"/><g class="cls-27"><g class="cls-9"><path class="cls-1" d="M358.56,352.68l8.74,7-.13.25-8.74-7c.05-.09.09-.17.13-.26"/><path class="cls-1" d="M358.43,352.94l8.74,7c-.13.27-.28.53-.43.79l-8.73-7c.14-.26.29-.52.42-.79"/><path class="cls-1" d="M358,353.73l8.73,7c-.13.23-.27.46-.41.68l-8.74-7,.42-.68"/><path class="cls-1" d="M357.59,354.41l8.74,7-.41.6-8.74-7,.41-.6"/><path class="cls-1" d="M357.18,355l8.74,7c-.13.18-.27.37-.41.54l-8.74-7,.41-.54"/><path class="cls-1" d="M356.77,355.55l8.74,7c-.13.18-.27.35-.41.51l-8.74-7,.41-.51"/><path class="cls-1" d="M356.36,356.06l8.74,7-.43.48-8.74-7,.43-.48"/><path class="cls-1" d="M355.93,356.54l8.74,7-.44.45-8.74-7,.44-.45"/><path class="cls-1" d="M355.49,357l8.74,7-.46.43-8.74-7,.46-.43"/><path class="cls-1" d="M355,357.42l8.74,7-.48.42-8.74-7,.48-.42"/><path class="cls-1" d="M354.55,357.84l8.74,7-.51.4-8.74-7c.18-.13.34-.27.51-.4"/><path class="cls-1" d="M354,358.24l8.74,7-.54.39-8.74-7c.18-.12.37-.25.54-.38"/><path class="cls-1" d="M353.5,358.62l8.74,7c-.2.13-.39.26-.6.38l-8.73-7c.2-.12.39-.24.59-.38"/><path class="cls-1" d="M352.91,359l8.73,7-.66.37-8.74-7,.67-.38"/><path class="cls-1" d="M352.24,359.38l8.74,7c-.26.13-.52.26-.78.37l-8.73-7,.77-.37"/><path class="cls-1" d="M351.47,359.75l8.73,7c-.33.14-.67.27-1,.38l-8.73-7c.33-.1.67-.23,1-.37"/><path class="cls-1" d="M350.46,360.12l8.73,7a8.35,8.35,0,0,1-4.71.2,4.75,4.75,0,0,1-.64-.2l-8.74-7c.21.08.43.14.64.2a8.39,8.39,0,0,0,4.72-.21"/></g></g></g><path class="cls-28" d="M324.52,48.05c.22.06.43.13.64.21L434,88.51a7.2,7.2,0,0,1,4.46,5.36l13.61,58.85a12.75,12.75,0,0,1-1.16,8.27L358.56,352.68c-2.68,5.56-8.29,8.85-12.82,7.65-.21-.06-.43-.12-.64-.2L200.62,306.7c-4.62-1.7-6.1-7.81-3.29-13.64L311.71,55.7C314.39,50.15,320,46.86,324.52,48.05Z"/></g></g><g class="cls-9"><g class="cls-9"><path class="cls-1" d="M196.38,302.11l-9.08-6.47a6.94,6.94,0,0,0,1.91.94l9.08,6.47A6.94,6.94,0,0,1,196.38,302.11Z"/><g class="cls-29"><g class="cls-9"><path class="cls-1" d="M189.21,296.58l9.08,6.47a6.94,6.94,0,0,1-1.91-.94l-9.08-6.47a6.94,6.94,0,0,0,1.91.94"/></g></g></g><g class="cls-9"><path class="cls-1" d="M413.07,66.65l9.08,6.46A7.58,7.58,0,0,1,425,77.29l-9.08-6.47A7.52,7.52,0,0,0,413.07,66.65Z"/><g class="cls-30"><g class="cls-9"><path class="cls-1" d="M413.07,66.65l9.08,6.46.2.15-9.08-6.47-.2-.14"/><path class="cls-1" d="M413.27,66.79l9.08,6.47a4.16,4.16,0,0,1,.39.32l-9.08-6.46-.39-.33"/><path class="cls-1" d="M413.66,67.12l9.08,6.46.36.35L414,67.46l-.36-.34"/><path class="cls-1" d="M414,67.46l9.08,6.47.33.36-9.09-6.46c-.1-.13-.21-.25-.32-.37"/><path class="cls-1" d="M414.34,67.83l9.09,6.46.3.39-9.08-6.46a4.08,4.08,0,0,0-.31-.39"/><path class="cls-1" d="M414.65,68.22l9.08,6.46.29.43-9.09-6.47a4.38,4.38,0,0,0-.28-.42"/><path class="cls-1" d="M414.93,68.64,424,75.11a4.83,4.83,0,0,1,.26.45l-9.08-6.47c-.09-.15-.17-.31-.27-.45"/><path class="cls-1" d="M415.2,69.09l9.08,6.47c.09.16.17.33.25.5l-9.09-6.47a4.59,4.59,0,0,0-.24-.5"/><path class="cls-1" d="M415.44,69.59l9.09,6.47c.08.18.15.36.22.55l-9.08-6.47a5.31,5.31,0,0,0-.23-.55"/><path class="cls-1" d="M415.67,70.14l9.08,6.47a5.81,5.81,0,0,1,.21.63l-9.08-6.47c-.06-.22-.13-.42-.21-.63"/><path class="cls-1" d="M415.88,70.77,425,77.24v.05l-9.08-6.47v0"/></g></g></g><polygon class="cls-1" points="415.89 70.82 424.98 77.29 441.57 135.29 432.49 128.82 415.89 70.82"/><g class="cls-9"><path class="cls-1" d="M432.48,128.83l9.09,6.46a12.83,12.83,0,0,1-.74,8.33l-9.08-6.47A12.74,12.74,0,0,0,432.48,128.83Z"/><g class="cls-31"><g class="cls-9"><path class="cls-1" d="M432.48,128.83l9.09,6.46c.06.23.12.46.17.7l-9.08-6.47c-.05-.23-.11-.47-.18-.69"/><path class="cls-1" d="M432.66,129.52l9.08,6.47q.09.47.15.93l-9.08-6.47q-.06-.47-.15-.93"/><path class="cls-1" d="M432.81,130.45l9.08,6.47a11.87,11.87,0,0,1,.07,1.47l-9.08-6.47a11.87,11.87,0,0,0-.07-1.47"/><path class="cls-1" d="M432.88,131.92l9.08,6.47a13.36,13.36,0,0,1-.38,3l-9.09-6.47a12.82,12.82,0,0,0,.39-3"/><path class="cls-1" d="M432.49,134.89l9.09,6.47c-.13.51-.28,1-.46,1.52L432,136.41a12,12,0,0,0,.46-1.52"/><path class="cls-1" d="M432,136.41l9.09,6.47c-.09.25-.19.49-.29.74l-9.08-6.47c.1-.24.2-.49.28-.74"/></g></g></g><polygon class="cls-1" points="336.2 341.89 345.29 348.36 198.29 303.05 189.21 296.58 336.2 341.89"/><polygon class="cls-1" points="431.75 137.15 440.83 143.62 358.34 340.18 349.26 333.71 431.75 137.15"/><g class="cls-9"><path class="cls-1" d="M349.26,333.71l9.08,6.46c-2.39,5.7-7.83,9.3-12.41,8.36-.22,0-.43-.1-.64-.17l-9.09-6.47c.22.07.43.12.65.17C341.43,343,346.87,339.41,349.26,333.71Z"/><g class="cls-32"><g class="cls-9"><path class="cls-1" d="M349.26,333.71l9.08,6.46c0,.09-.07.18-.11.27L349.15,334c0-.09.07-.18.11-.26"/><path class="cls-1" d="M349.15,334l9.08,6.47q-.18.4-.39.81l-9.08-6.47q.21-.39.39-.81"/><path class="cls-1" d="M348.76,334.78l9.08,6.47c-.12.24-.24.47-.38.7l-9.08-6.47c.13-.23.26-.46.38-.7"/><path class="cls-1" d="M348.38,335.48l9.08,6.47c-.12.21-.24.42-.37.62L348,336.1c.13-.2.26-.41.38-.62"/><path class="cls-1" d="M348,336.1l9.09,6.47-.38.57-9.08-6.47c.12-.19.25-.37.37-.57"/><path class="cls-1" d="M347.63,336.67l9.08,6.47-.39.53-9.08-6.47.39-.53"/><path class="cls-1" d="M347.24,337.2l9.08,6.47c-.13.17-.27.34-.41.5l-9.08-6.47c.14-.16.27-.33.41-.5"/><path class="cls-1" d="M346.83,337.7l9.08,6.47c-.13.16-.27.32-.41.47l-9.08-6.46.41-.48"/><path class="cls-1" d="M346.42,338.18l9.08,6.46c-.14.16-.29.31-.44.46L346,338.63l.44-.45"/><path class="cls-1" d="M346,338.63l9.08,6.47c-.15.15-.3.3-.46.44l-9.08-6.46c.16-.15.31-.29.46-.45"/><path class="cls-1" d="M345.52,339.08l9.08,6.46-.48.43L345,339.5l.48-.42"/><path class="cls-1" d="M345,339.5l9.08,6.47c-.17.15-.35.28-.53.42l-9.08-6.47c.18-.13.35-.27.53-.42"/><path class="cls-1" d="M344.51,339.92l9.08,6.47c-.18.14-.38.28-.57.41l-9.08-6.47.57-.41"/><path class="cls-1" d="M343.94,340.33,353,346.8c-.21.15-.43.28-.65.41l-9.08-6.47c.22-.12.43-.26.65-.41"/><path class="cls-1" d="M343.29,340.74l9.08,6.47c-.25.15-.5.29-.75.41l-9.08-6.47c.25-.12.5-.26.75-.41"/><path class="cls-1" d="M342.54,341.15l9.08,6.47a10.71,10.71,0,0,1-1,.44l-9.08-6.47a10.71,10.71,0,0,0,1-.44"/><path class="cls-1" d="M341.55,341.59l9.08,6.47a8.51,8.51,0,0,1-4.7.47c-.22,0-.43-.1-.64-.17l-9.09-6.47c.22.07.43.12.65.17a8.42,8.42,0,0,0,4.7-.47"/></g></g></g><path class="cls-28" d="M299.77,31.4c.22.05.43.1.65.17L411.17,65.71a7.14,7.14,0,0,1,4.72,5.11l16.59,58a12.74,12.74,0,0,1-.73,8.32L349.26,333.71c-2.39,5.7-7.83,9.29-12.41,8.35-.22-.05-.43-.1-.65-.17l-147-45.31c-4.71-1.45-6.49-7.47-4-13.44L287.36,39.75C289.76,34.06,295.19,30.46,299.77,31.4Z"/></g><g class="cls-9"><g class="cls-9"><path class="cls-2" d="M298.72,100.61l-5.25-3.53a7.59,7.59,0,0,0,2.11,1l5.25,3.52A7.71,7.71,0,0,1,298.72,100.61Z"/><g class="cls-33"><g class="cls-9"><path class="cls-2" d="M295.58,98.08l5.25,3.52a7.71,7.71,0,0,1-2.11-1l-5.25-3.53a7.59,7.59,0,0,0,2.11,1"/></g></g></g><polygon class="cls-2" points="385.93 125.05 391.19 128.57 300.83 101.61 295.58 98.08 385.93 125.05"/><g class="cls-9"><path class="cls-2" d="M398.2,100.68l5.26,3.53c3.89,2.61,5.16,8.63,2.75,14.65-2.68,6.69-8.93,11-14.26,9.9a6.49,6.49,0,0,1-.76-.19l-5.26-3.52c.25.07.5.13.76.18,5.34,1,11.59-3.21,14.26-9.9C403.37,109.31,402.09,103.29,398.2,100.68Z"/><g class="cls-34"><g class="cls-9"><path class="cls-2" d="M398.2,100.68l5.26,3.53c.1.06.2.14.3.21l-5.26-3.53-.3-.21"/><path class="cls-2" d="M398.5,100.89l5.26,3.53c.15.11.31.24.45.36L399,101.26l-.46-.37"/><path class="cls-2" d="M399,101.26l5.25,3.52.42.39-5.26-3.53-.41-.38"/><path class="cls-2" d="M399.37,101.64l5.26,3.53.39.42-5.26-3.53q-.18-.21-.39-.42"/><path class="cls-2" d="M399.76,102.06l5.26,3.53.36.44-5.26-3.52a3.94,3.94,0,0,0-.36-.45"/><path class="cls-2" d="M400.12,102.51l5.26,3.52c.12.16.23.32.34.49L400.46,103a5.85,5.85,0,0,0-.34-.48"/><path class="cls-2" d="M400.46,103l5.26,3.53c.11.17.22.34.32.52l-5.26-3.53c-.1-.18-.21-.35-.32-.52"/><path class="cls-2" d="M400.78,103.51,406,107c.1.18.2.37.29.57l-5.25-3.53c-.1-.19-.19-.38-.3-.57"/><path class="cls-2" d="M401.08,104.08l5.25,3.53c.1.2.19.41.28.63l-5.26-3.53a6,6,0,0,0-.27-.63"/><path class="cls-2" d="M401.35,104.71l5.26,3.53c.09.23.18.47.26.72l-5.26-3.53a7.63,7.63,0,0,0-.26-.72"/><path class="cls-2" d="M401.61,105.43l5.26,3.53c.08.27.16.55.23.84l-5.26-3.53a7.39,7.39,0,0,0-.23-.84"/><path class="cls-2" d="M401.84,106.27l5.26,3.53c.08.34.15.68.2,1L402,107.31c-.05-.35-.12-.7-.2-1"/><path class="cls-2" d="M402,107.31l5.26,3.53a13.82,13.82,0,0,1,.13,1.59l-5.26-3.53a11.89,11.89,0,0,0-.13-1.59"/><path class="cls-2" d="M402.17,108.9l5.26,3.53a15.49,15.49,0,0,1-.44,4l-5.26-3.53a15.07,15.07,0,0,0,.44-4"/><path class="cls-2" d="M401.73,112.89l5.26,3.53c-.13.55-.3,1.11-.49,1.66l-5.26-3.52a15.7,15.7,0,0,0,.49-1.67"/><path class="cls-2" d="M401.24,114.56l5.26,3.52c-.09.26-.19.52-.29.78s-.1.25-.16.38l-5.25-3.53.15-.38c.11-.26.2-.52.29-.77"/><path class="cls-2" d="M400.8,115.71l5.25,3.53c-.13.31-.27.63-.42.93l-5.26-3.53c.15-.3.29-.61.43-.93"/><path class="cls-2" d="M400.37,116.64l5.26,3.53c-.14.27-.28.54-.43.81l-5.26-3.53c.15-.26.29-.53.43-.81"/><path class="cls-2" d="M399.94,117.45,405.2,121c-.14.24-.28.49-.42.72l-5.26-3.53q.23-.35.42-.72"/><path class="cls-2" d="M399.52,118.17l5.26,3.53c-.14.23-.28.44-.43.66l-5.26-3.53c.15-.21.29-.43.43-.66"/><path class="cls-2" d="M399.09,118.83l5.26,3.53c-.14.21-.29.42-.44.62l-5.26-3.53c.15-.2.3-.41.44-.62"/><path class="cls-2" d="M398.65,119.45l5.26,3.53c-.15.2-.3.39-.46.58L398.2,120l.45-.58"/><path class="cls-2" d="M398.2,120l5.25,3.53c-.15.19-.31.38-.47.56l-5.25-3.53c.16-.18.31-.37.47-.56"/><path class="cls-2" d="M397.73,120.59l5.25,3.53c-.16.18-.32.36-.49.53l-5.26-3.52.5-.54"/><path class="cls-2" d="M397.23,121.13l5.26,3.52-.52.52-5.26-3.52.52-.52"/><path class="cls-2" d="M396.71,121.65l5.26,3.52-.56.51-5.26-3.53.56-.5"/><path class="cls-2" d="M396.15,122.15l5.26,3.53c-.19.17-.39.33-.59.49l-5.26-3.53c.2-.16.4-.32.59-.49"/><path class="cls-2" d="M395.56,122.64l5.26,3.53-.66.49-5.26-3.53.66-.49"/><path class="cls-2" d="M394.9,123.13l5.26,3.53c-.25.17-.49.33-.74.48l-5.26-3.53c.25-.15.5-.31.74-.48"/><path class="cls-2" d="M394.16,123.61l5.26,3.53c-.29.18-.58.34-.87.49l-5.25-3.53c.29-.15.57-.31.86-.49"/><path class="cls-2" d="M393.3,124.1l5.25,3.53c-.37.19-.75.37-1.13.52l-5.26-3.53a11.51,11.51,0,0,0,1.14-.52"/><path class="cls-2" d="M392.16,124.62l5.26,3.53a9.74,9.74,0,0,1-5.47.61,6.49,6.49,0,0,1-.76-.19l-5.26-3.52c.25.07.5.13.76.18a9.72,9.72,0,0,0,5.47-.61"/></g></g></g><path class="cls-22" d="M305,72.52c.25,0,.5.12.75.19l90.36,27c5.49,1.63,7.67,8.64,4.86,15.64-2.67,6.69-8.92,11-14.26,9.9-.26,0-.51-.11-.76-.18l-90.35-27c-5.5-1.65-7.67-8.65-4.87-15.66C293.39,75.74,299.64,71.47,305,72.52Z"/></g><g class="cls-9"><g class="cls-9"><path class="cls-1" d="M278,140l-5.26-3.53a3.46,3.46,0,0,0,.89.42l5.26,3.53A3.31,3.31,0,0,1,278,140Z"/><g class="cls-35"><g class="cls-9"><path class="cls-1" d="M273.58,136.85l5.26,3.53A3.31,3.31,0,0,1,278,140l-5.26-3.53a3.46,3.46,0,0,0,.89.42"/></g></g></g><polygon class="cls-1" points="391.16 171.95 396.42 175.48 278.84 140.38 273.58 136.85 391.16 171.95"/><g class="cls-9"><path class="cls-1" d="M399.19,154.53l5.26,3.53c1.65,1.11,2.19,3.66,1.17,6.22l-5.26-3.53C401.38,158.19,400.84,155.64,399.19,154.53Z"/><g class="cls-36"><g class="cls-9"><path class="cls-1" d="M399.19,154.53l5.26,3.53.13.09-5.26-3.53-.13-.09"/><path class="cls-1" d="M399.32,154.62l5.26,3.53.19.16-5.26-3.53-.19-.16"/><path class="cls-1" d="M399.51,154.78l5.26,3.53.18.16-5.26-3.53c-.06-.05-.11-.11-.18-.16"/><path class="cls-1" d="M399.69,154.94l5.26,3.53.16.18-5.25-3.53-.17-.18"/><path class="cls-1" d="M399.86,155.12l5.25,3.53a1.46,1.46,0,0,1,.16.19L400,155.31l-.15-.19"/><path class="cls-1" d="M400,155.31l5.26,3.53c.05.06.09.13.14.2l-5.26-3.53a1.43,1.43,0,0,0-.14-.2"/><path class="cls-1" d="M400.15,155.51l5.26,3.53.14.22-5.26-3.53-.14-.22"/><path class="cls-1" d="M400.29,155.73l5.26,3.53.12.24L400.41,156l-.12-.25"/><path class="cls-1" d="M400.41,156l5.26,3.52.12.27-5.26-3.53a1.23,1.23,0,0,0-.12-.26"/><path class="cls-1" d="M400.53,156.24l5.26,3.53c0,.1.07.2.11.31l-5.26-3.53a2.83,2.83,0,0,0-.11-.31"/><path class="cls-1" d="M400.64,156.55l5.26,3.53c0,.11.07.23.1.35l-5.26-3.52a3.1,3.1,0,0,0-.1-.36"/><path class="cls-1" d="M400.74,156.91l5.26,3.52c0,.15.06.3.08.45l-5.26-3.53c0-.15-.05-.3-.08-.44"/><path class="cls-1" d="M400.82,157.35l5.26,3.53c0,.22.05.44.06.67L400.88,158a4.91,4.91,0,0,0-.06-.67"/><path class="cls-1" d="M400.88,158l5.26,3.53a6.72,6.72,0,0,1-.19,1.7l-5.26-3.53a6.72,6.72,0,0,0,.19-1.7"/><path class="cls-1" d="M400.69,159.72l5.26,3.53c-.06.23-.13.47-.21.7l-5.26-3.52a5.15,5.15,0,0,0,.21-.71"/><path class="cls-1" d="M400.48,160.43l5.26,3.52-.12.33-5.26-3.53a2.56,2.56,0,0,0,.12-.32"/></g></g></g><polygon class="cls-1" points="400.36 160.75 405.62 164.28 402.78 171.36 397.53 167.83 400.36 160.75"/><g class="cls-9"><path class="cls-1" d="M397.53,167.83l5.25,3.53c-1.13,2.83-3.78,4.64-6,4.2l-.31-.08L391.16,172l.32.08C393.74,172.47,396.39,170.67,397.53,167.83Z"/><g class="cls-37"><g class="cls-9"><path class="cls-1" d="M397.53,167.83l5.25,3.53-.06.16L397.46,168l.07-.16"/><path class="cls-1" d="M397.46,168l5.26,3.53c-.06.14-.12.27-.19.4l-5.25-3.53.18-.4"/><path class="cls-1" d="M397.28,168.39l5.25,3.53c0,.11-.11.23-.17.34l-5.26-3.53.18-.34"/><path class="cls-1" d="M397.1,168.73l5.26,3.53-.18.3L396.92,169l.18-.31"/><path class="cls-1" d="M396.92,169l5.26,3.52-.18.28-5.26-3.53.18-.27"/><path class="cls-1" d="M396.74,169.31l5.26,3.53-.19.26-5.26-3.53a2.48,2.48,0,0,0,.19-.26"/><path class="cls-1" d="M396.55,169.57l5.26,3.53c-.06.09-.13.17-.19.25l-5.26-3.53a2.35,2.35,0,0,0,.19-.25"/><path class="cls-1" d="M396.36,169.82l5.26,3.53-.2.24-5.26-3.53.2-.24"/><path class="cls-1" d="M396.16,170.06l5.26,3.53-.21.22L396,170.29l.21-.23"/><path class="cls-1" d="M396,170.29l5.26,3.52L401,174l-5.26-3.52.22-.22"/><path class="cls-1" d="M395.73,170.51,401,174l-.24.22-5.26-3.53.24-.21"/><path class="cls-1" d="M395.49,170.72l5.26,3.53-.25.21-5.26-3.53.25-.21"/><path class="cls-1" d="M395.24,170.93l5.26,3.53-.28.2L395,171.13a2.83,2.83,0,0,0,.28-.2"/><path class="cls-1" d="M395,171.13l5.26,3.53-.32.21-5.25-3.53a2.82,2.82,0,0,0,.31-.21"/><path class="cls-1" d="M394.65,171.34l5.25,3.53-.36.21-5.26-3.53.37-.21"/><path class="cls-1" d="M394.28,171.55l5.26,3.53-.48.22-5.26-3.53.48-.22"/><path class="cls-1" d="M393.8,171.77l5.26,3.53a4.28,4.28,0,0,1-2.33.26l-.31-.08L391.16,172l.32.08a4.16,4.16,0,0,0,2.32-.26"/></g></g></g><path class="cls-38" d="M280.41,118.94l.32.07,117.57,35.1c2.33.7,3.25,3.67,2.06,6.64l-2.83,7.08c-1.14,2.84-3.79,4.64-6,4.2l-.32-.08-117.58-35.1c-2.32-.7-3.25-3.66-2.06-6.64l2.84-7.08C275.49,120.3,278.14,118.49,280.41,118.94Z"/></g><g class="cls-9"><g class="cls-9"><path class="cls-1" d="M260.73,175.8l-5.26-3.53a3.09,3.09,0,0,0,.9.42l5.25,3.53A3.46,3.46,0,0,1,260.73,175.8Z"/><g class="cls-39"><g class="cls-9"><path class="cls-1" d="M256.37,172.69l5.25,3.53a3.46,3.46,0,0,1-.89-.42l-5.26-3.53a3.09,3.09,0,0,0,.9.42"/></g></g></g><polygon class="cls-1" points="373.94 207.79 379.2 211.32 261.62 176.22 256.37 172.69 373.94 207.79"/><g class="cls-9"><path class="cls-1" d="M382,190.38l5.25,3.52c1.65,1.11,2.19,3.66,1.17,6.22l-5.26-3.53C384.17,194,383.63,191.48,382,190.38Z"/><g class="cls-40"><g class="cls-9"><path class="cls-1" d="M382,190.38l5.25,3.52.13.09-5.26-3.53-.12-.08"/><path class="cls-1" d="M382.1,190.46l5.26,3.53.19.16-5.25-3.53-.2-.16"/><path class="cls-1" d="M382.3,190.62l5.25,3.53.18.16-5.26-3.53-.17-.16"/><path class="cls-1" d="M382.47,190.78l5.26,3.53.16.18L382.64,191l-.17-.18"/><path class="cls-1" d="M382.64,191l5.25,3.53a1.46,1.46,0,0,1,.16.19l-5.26-3.53-.15-.19"/><path class="cls-1" d="M382.79,191.15l5.26,3.53a2.43,2.43,0,0,1,.14.2l-5.26-3.53a2.43,2.43,0,0,0-.14-.2"/><path class="cls-1" d="M382.93,191.35l5.26,3.53.14.23-5.26-3.53c0-.08-.09-.15-.14-.23"/><path class="cls-1" d="M383.07,191.58l5.26,3.53a2.68,2.68,0,0,1,.12.24l-5.25-3.53-.13-.24"/><path class="cls-1" d="M383.2,191.82l5.25,3.53.12.26-5.26-3.52a2.18,2.18,0,0,0-.11-.27"/><path class="cls-1" d="M383.31,192.09l5.26,3.52a2.83,2.83,0,0,1,.11.31l-5.26-3.53a2.65,2.65,0,0,0-.11-.3"/><path class="cls-1" d="M383.42,192.39l5.26,3.53c0,.12.07.23.1.36l-5.26-3.53c0-.12-.06-.24-.1-.36"/><path class="cls-1" d="M383.52,192.75l5.26,3.53c0,.14.06.29.08.44l-5.26-3.53c0-.15-.05-.3-.08-.44"/><path class="cls-1" d="M383.6,193.19l5.26,3.53c0,.22.05.44.06.67l-5.26-3.52a3.74,3.74,0,0,0-.06-.68"/><path class="cls-1" d="M383.66,193.87l5.26,3.52a6.72,6.72,0,0,1-.19,1.7l-5.26-3.53a6.69,6.69,0,0,0,.19-1.69"/><path class="cls-1" d="M383.47,195.56l5.26,3.53a7,7,0,0,1-.21.71l-5.25-3.53a6.29,6.29,0,0,0,.2-.71"/><path class="cls-1" d="M383.27,196.27l5.25,3.53c0,.1-.08.21-.12.32l-5.26-3.53c.05-.11.09-.21.13-.32"/></g></g></g><polygon class="cls-1" points="383.14 196.59 388.4 200.12 385.56 207.2 380.31 203.67 383.14 196.59"/><g class="cls-9"><path class="cls-1" d="M380.31,203.67l5.25,3.53c-1.13,2.84-3.78,4.64-6.05,4.2l-.31-.08-5.26-3.53.32.08C376.52,208.32,379.17,206.51,380.31,203.67Z"/><g class="cls-41"><g class="cls-9"><path class="cls-1" d="M380.31,203.67l5.25,3.53-.06.16-5.26-3.52c0-.06.05-.11.07-.17"/><path class="cls-1" d="M380.24,203.84l5.26,3.52-.18.4-5.26-3.53.18-.39"/><path class="cls-1" d="M380.06,204.23l5.26,3.53-.18.34-5.26-3.53.18-.34"/><path class="cls-1" d="M379.88,204.57l5.26,3.53-.18.31-5.26-3.53.18-.31"/><path class="cls-1" d="M379.7,204.88l5.26,3.53-.18.27-5.26-3.52.18-.28"/><path class="cls-1" d="M379.52,205.16l5.26,3.52-.19.27-5.26-3.53.19-.26"/><path class="cls-1" d="M379.33,205.42l5.26,3.53-.19.24-5.26-3.53.19-.24"/><path class="cls-1" d="M379.14,205.66l5.26,3.53-.2.24-5.26-3.53.2-.24"/><path class="cls-1" d="M378.94,205.9l5.26,3.53-.21.23-5.26-3.53.21-.23"/><path class="cls-1" d="M378.73,206.13l5.26,3.53-.22.22-5.26-3.53.22-.22"/><path class="cls-1" d="M378.51,206.35l5.26,3.53-.24.21-5.25-3.53.23-.21"/><path class="cls-1" d="M378.28,206.56l5.25,3.53-.25.21L378,206.77l.26-.21"/><path class="cls-1" d="M378,206.77l5.26,3.53-.28.21L377.74,207l.28-.21"/><path class="cls-1" d="M377.74,207l5.26,3.53-.31.2-5.26-3.53.31-.2"/><path class="cls-1" d="M377.43,207.18l5.26,3.53-.37.21-5.26-3.53a2.71,2.71,0,0,0,.37-.21"/><path class="cls-1" d="M377.06,207.39l5.26,3.53-.48.22-5.26-3.53a5.11,5.11,0,0,0,.48-.22"/><path class="cls-1" d="M376.58,207.61l5.26,3.53a4.1,4.1,0,0,1-2.33.26l-.31-.08-5.26-3.53.32.08a4.08,4.08,0,0,0,2.32-.26"/></g></g></g><path class="cls-38" d="M263.19,154.78l.32.08L381.08,190c2.33.69,3.25,3.66,2.06,6.63l-2.83,7.08c-1.14,2.84-3.79,4.65-6.05,4.2l-.32-.08-117.57-35.1c-2.33-.69-3.25-3.66-2.07-6.63l2.84-7.09C258.28,156.14,260.93,154.33,263.19,154.78Z"/></g><g class="cls-9"><g class="cls-9"><path class="cls-3" d="M150.59,132.41l12.53-6.3a7.56,7.56,0,0,1,5.89-.24l-12.52,6.3A7.58,7.58,0,0,0,150.59,132.41Z"/><g class="cls-42"><g class="cls-9"><path class="cls-3" d="M150.59,132.41l12.53-6.3a7.5,7.5,0,0,1,1.22-.47l-12.53,6.3a7.5,7.5,0,0,0-1.22.47"/><path class="cls-3" d="M151.81,131.94l12.53-6.3a6.83,6.83,0,0,1,.81-.17l-12.53,6.3a6.83,6.83,0,0,0-.81.17"/><path class="cls-3" d="M152.62,131.77l12.53-6.3.65-.07-12.53,6.3-.65.07"/><path class="cls-3" d="M153.27,131.7l12.53-6.3h.58l-12.53,6.3h-.58"/><path class="cls-3" d="M153.85,131.69l12.53-6.3.51,0-12.53,6.3c-.17,0-.34,0-.51,0"/><path class="cls-3" d="M154.36,131.72l12.53-6.3a4.26,4.26,0,0,1,.5.06l-12.53,6.3a4.26,4.26,0,0,0-.5-.06"/><path class="cls-3" d="M154.86,131.78l12.53-6.3.47.08-12.53,6.3-.47-.08"/><path class="cls-3" d="M155.33,131.86l12.53-6.3.46.1L155.79,132l-.46-.1"/><path class="cls-3" d="M155.79,132l12.53-6.3.45.13-12.53,6.3-.45-.13"/><path class="cls-3" d="M156.24,132.09l12.53-6.3.24.08-12.52,6.3-.25-.08"/></g></g></g><polygon class="cls-3" points="156.49 132.17 169.01 125.87 248.82 152.75 236.3 159.05 156.49 132.17"/><g class="cls-9"><path class="cls-3" d="M236.3,159.05l12.53-6.3a13.79,13.79,0,0,1,7,5.83l-12.53,6.3A13.79,13.79,0,0,0,236.3,159.05Z"/><g class="cls-43"><g class="cls-9"><path class="cls-3" d="M236.3,159.05l12.53-6.3.2.07-12.53,6.3-.2-.07"/><path class="cls-3" d="M236.5,159.12l12.53-6.3.42.16-12.53,6.3-.42-.16"/><path class="cls-3" d="M236.92,159.28l12.53-6.3.43.19-12.53,6.3-.43-.19"/><path class="cls-3" d="M237.35,159.47l12.53-6.3.42.2-12.53,6.3-.42-.2"/><path class="cls-3" d="M237.77,159.67l12.53-6.3.42.23-12.53,6.3-.42-.23"/><path class="cls-3" d="M238.19,159.9l12.53-6.3.43.26-12.53,6.3c-.14-.09-.28-.18-.43-.26"/><path class="cls-3" d="M238.62,160.16l12.53-6.3.43.28-12.53,6.3-.43-.28"/><path class="cls-3" d="M239.05,160.44l12.53-6.3.45.32-12.53,6.3-.45-.32"/><path class="cls-3" d="M239.5,160.76l12.53-6.3c.15.11.31.23.46.36L240,161.12a5.19,5.19,0,0,0-.46-.36"/><path class="cls-3" d="M240,161.12l12.53-6.3.48.4-12.53,6.3-.48-.4"/><path class="cls-3" d="M240.44,161.52l12.53-6.3.51.48L241,162l-.51-.48"/><path class="cls-3" d="M241,162l12.53-6.3c.19.19.37.38.55.58l-12.53,6.3c-.18-.2-.36-.39-.55-.58"/><path class="cls-3" d="M241.5,162.58l12.53-6.3c.22.23.43.48.64.73l-12.53,6.3c-.21-.25-.42-.5-.64-.73"/><path class="cls-3" d="M242.14,163.31l12.53-6.3c.29.37.58.75.85,1.15L243,164.46c-.27-.4-.56-.78-.85-1.15"/><path class="cls-3" d="M243,164.46l12.53-6.3q.14.19.27.42l-12.53,6.3q-.13-.23-.27-.42"/></g></g></g><polygon class="cls-3" points="243.26 164.88 255.79 158.58 283.18 201.91 270.65 208.21 243.26 164.88"/><g class="cls-9"><path class="cls-3" d="M270.65,208.21l12.53-6.3a13.72,13.72,0,0,0,7,5.83L277.62,214A13.72,13.72,0,0,1,270.65,208.21Z"/><g class="cls-44"><g class="cls-9"><path class="cls-3" d="M270.65,208.21l12.53-6.3.28.44-12.53,6.3-.28-.44"/><path class="cls-3" d="M270.93,208.65l12.53-6.3c.27.39.55.77.85,1.14l-12.53,6.3c-.3-.37-.58-.75-.85-1.14"/><path class="cls-3" d="M271.78,209.79l12.53-6.3c.2.25.41.49.63.73l-12.53,6.3c-.22-.24-.43-.48-.63-.73"/><path class="cls-3" d="M272.41,210.52l12.53-6.3.55.57L273,211.09l-.55-.57"/><path class="cls-3" d="M273,211.09l12.53-6.3.51.47-12.53,6.3-.51-.47"/><path class="cls-3" d="M273.47,211.56l12.53-6.3c.16.14.31.28.48.41L274,212l-.48-.41"/><path class="cls-3" d="M274,212l12.53-6.3.45.36-12.52,6.3L274,212"/><path class="cls-3" d="M274.41,212.33l12.52-6.3.45.32-12.53,6.3-.44-.32"/><path class="cls-3" d="M274.85,212.65l12.53-6.3.44.28-12.53,6.3-.44-.28"/><path class="cls-3" d="M275.29,212.93l12.53-6.3.42.26-12.53,6.3-.42-.26"/><path class="cls-3" d="M275.71,213.19l12.53-6.3.43.23-12.53,6.3-.43-.23"/><path class="cls-3" d="M276.14,213.42l12.53-6.3.42.2-12.53,6.3-.42-.2"/><path class="cls-3" d="M276.56,213.62l12.53-6.3.43.19L277,213.81l-.43-.19"/><path class="cls-3" d="M277,213.81l12.53-6.3.42.16L277.42,214l-.43-.16"/><path class="cls-3" d="M277.42,214l12.52-6.3.21.07L277.62,214l-.2-.07"/></g></g></g><g class="cls-9"><path class="cls-3" d="M386.43,385.2l-12.53,6.3a7.78,7.78,0,0,0,3.91-5.25l12.53-6.3A7.78,7.78,0,0,1,386.43,385.2Z"/><g class="cls-45"><g class="cls-9"><path class="cls-3" d="M377.81,386.25l12.53-6.3,0,.1-12.53,6.3,0-.1"/><path class="cls-3" d="M377.78,386.35l12.53-6.3c0,.16-.08.32-.13.48l-12.53,6.29c.05-.15.09-.31.13-.47"/><path class="cls-3" d="M377.65,386.82l12.53-6.29c-.05.16-.11.32-.17.47l-12.52,6.3c.05-.15.11-.31.16-.48"/><path class="cls-3" d="M377.49,387.3,390,381c-.06.16-.12.32-.19.48l-12.53,6.3.2-.48"/><path class="cls-3" d="M377.29,387.78l12.53-6.3c-.07.17-.15.33-.23.49l-12.53,6.3c.08-.16.16-.32.23-.49"/><path class="cls-3" d="M377.06,388.27l12.53-6.3c-.09.18-.19.35-.29.52l-12.53,6.3c.1-.17.2-.34.29-.52"/><path class="cls-3" d="M376.77,388.79l12.53-6.3c-.12.19-.24.38-.37.56l-12.53,6.3c.13-.18.25-.37.37-.56"/><path class="cls-3" d="M376.4,389.35l12.53-6.3a5.83,5.83,0,0,1-.55.66L375.85,390a6.87,6.87,0,0,0,.55-.66"/><path class="cls-3" d="M375.85,390l12.53-6.3a7,7,0,0,1-1.95,1.49l-12.53,6.3a7,7,0,0,0,2-1.49"/></g></g></g><polygon class="cls-3" points="277.62 214.04 290.15 207.74 410.14 248.16 397.62 254.45 277.62 214.04"/><polygon class="cls-3" points="406.78 271.65 419.31 265.35 390.34 379.95 377.81 386.25 406.78 271.65"/><g class="cls-9"><path class="cls-3" d="M397.62,254.45l12.52-6.3c6.36,2.14,10.84,10.57,9.17,17.2l-12.53,6.3C408.46,265,404,256.59,397.62,254.45Z"/><g class="cls-46"><g class="cls-9"><path class="cls-3" d="M397.62,254.45l12.52-6.3.21.08-12.53,6.3-.2-.08"/><path class="cls-3" d="M397.82,254.53l12.53-6.3.44.17-12.53,6.29-.44-.16"/><path class="cls-3" d="M398.26,254.69l12.53-6.29.43.18-12.53,6.3-.43-.19"/><path class="cls-3" d="M398.69,254.88l12.53-6.3.43.21-12.53,6.3-.43-.21"/><path class="cls-3" d="M399.12,255.09l12.53-6.3.42.23-12.53,6.3-.42-.23"/><path class="cls-3" d="M399.54,255.32l12.53-6.3.43.26L400,255.58l-.43-.26"/><path class="cls-3" d="M400,255.58l12.53-6.3.42.27-12.53,6.3c-.14-.09-.28-.19-.42-.27"/><path class="cls-3" d="M400.39,255.85l12.53-6.3.45.32-12.53,6.3-.45-.32"/><path class="cls-3" d="M400.84,256.17l12.53-6.3.45.35-12.53,6.3-.45-.35"/><path class="cls-3" d="M401.29,256.52l12.53-6.3.47.41-12.53,6.3-.47-.41"/><path class="cls-3" d="M401.76,256.93l12.53-6.3a5.79,5.79,0,0,1,.51.48l-12.53,6.3a5.79,5.79,0,0,0-.51-.48"/><path class="cls-3" d="M402.27,257.41l12.53-6.3c.19.18.37.37.55.56L402.82,258c-.18-.19-.36-.38-.55-.56"/><path class="cls-3" d="M402.82,258l12.53-6.3c.21.23.42.48.62.72l-12.53,6.3c-.2-.24-.41-.49-.62-.72"/><path class="cls-3" d="M403.44,258.69l12.53-6.3q.48.6.9,1.23l-12.53,6.3q-.42-.63-.9-1.23"/><path class="cls-3" d="M404.34,259.92l12.53-6.3a16.37,16.37,0,0,1,1.36,2.46l-12.53,6.3a16.37,16.37,0,0,0-1.36-2.46"/><path class="cls-3" d="M405.7,262.38l12.53-6.3a12,12,0,0,1,.52,1.29l-12.53,6.3a12,12,0,0,0-.52-1.29"/><path class="cls-3" d="M406.22,263.67l12.53-6.3c.11.31.21.62.31.93l-12.53,6.3c-.1-.31-.2-.62-.31-.93"/><path class="cls-3" d="M406.53,264.6l12.53-6.3c.07.26.14.52.2.79l-12.53,6.3c-.06-.27-.13-.53-.2-.79"/><path class="cls-3" d="M406.73,265.39l12.53-6.3c.05.22.1.44.14.67l-12.52,6.3c-.05-.23-.09-.45-.15-.67"/><path class="cls-3" d="M406.88,266.06l12.52-6.3c0,.21.08.42.11.63L407,266.69c0-.21-.06-.42-.1-.63"/><path class="cls-3" d="M407,266.69l12.53-6.3c0,.19.05.39.08.58l-12.53,6.3c0-.19-.05-.39-.08-.58"/><path class="cls-3" d="M407.06,267.27l12.53-6.3c0,.19,0,.37,0,.56l-12.53,6.3c0-.19,0-.37,0-.56"/><path class="cls-3" d="M407.1,267.83l12.53-6.3,0,.53-12.53,6.3,0-.53"/><path class="cls-3" d="M407.13,268.36l12.53-6.3v.51l-12.53,6.3v-.51"/><path class="cls-3" d="M407.13,268.87l12.53-6.3c0,.16,0,.33,0,.49l-12.53,6.3c0-.16,0-.33,0-.49"/><path class="cls-3" d="M407.12,269.36l12.53-6.3c0,.17,0,.33,0,.49l-12.53,6.3c0-.16,0-.32,0-.49"/><path class="cls-3" d="M407.08,269.85l12.53-6.3c0,.16,0,.32-.05.48L407,270.33c0-.16,0-.32.05-.48"/><path class="cls-3" d="M407,270.33l12.53-6.3c0,.16,0,.32-.07.48L407,270.81c0-.16.05-.32.07-.48"/><path class="cls-3" d="M407,270.81l12.53-6.3-.09.47-12.53,6.3.09-.47"/><path class="cls-3" d="M406.87,271.28,419.4,265l-.09.37-12.53,6.3.09-.37"/></g></g></g><path class="cls-47" d="M236.3,159.05a13.79,13.79,0,0,1,7,5.83l27.39,43.33a13.72,13.72,0,0,0,7,5.83l120,40.41c6.35,2.14,10.84,10.57,9.16,17.2l-29,114.6c-1.2,4.76-5.26,7-9.82,5.5L168.11,324.44c-5-1.68-9.06-7.38-9.48-13.29L146.35,141.58c-.5-7,4.24-11.4,10.14-9.41Z"/></g><g class="cls-9"><g class="cls-9"><path class="cls-5" d="M274.64,327.67,270.11,333a2.48,2.48,0,0,0,.19-.26,2.36,2.36,0,0,0,.05-2l4.53-5.31a2.34,2.34,0,0,1-.06,2A1.59,1.59,0,0,1,274.64,327.67Z"/><g class="cls-48"><g class="cls-9"><path class="cls-5" d="M270.35,330.73l4.53-5.31a.49.49,0,0,0,0,.11l-4.53,5.32s0-.08,0-.12"/><path class="cls-5" d="M270.39,330.85l4.53-5.32a.65.65,0,0,0,0,.13L270.43,331c0-.05,0-.09,0-.13"/><path class="cls-5" d="M270.43,331l4.53-5.32,0,.13-4.52,5.31a.56.56,0,0,1,0-.12"/><path class="cls-5" d="M270.47,331.1l4.52-5.31,0,.12-4.53,5.32s0-.08,0-.13"/><path class="cls-5" d="M270.49,331.23l4.53-5.32s0,.08,0,.12l-4.53,5.32a.5.5,0,0,0,0-.12"/><path class="cls-5" d="M270.51,331.35,275,326s0,.08,0,.12l-4.53,5.32s0-.08,0-.12"/><path class="cls-5" d="M270.53,331.47l4.53-5.32a.49.49,0,0,0,0,.12l-4.53,5.31s0-.08,0-.11"/><path class="cls-5" d="M270.54,331.58l4.53-5.31v.11l-4.53,5.32v-.12"/><path class="cls-5" d="M270.54,331.7l4.53-5.32v.12l-4.53,5.31v-.11"/><path class="cls-5" d="M270.54,331.81l4.53-5.31s0,.07,0,.11l-4.53,5.32a.49.49,0,0,0,0-.12"/><path class="cls-5" d="M270.53,331.93l4.53-5.32s0,.08,0,.12l-4.53,5.32a.49.49,0,0,0,0-.12"/><path class="cls-5" d="M270.52,332.05l4.53-5.32s0,.08,0,.12l-4.53,5.32a.5.5,0,0,0,0-.12"/><path class="cls-5" d="M270.5,332.17l4.53-5.32,0,.12-4.53,5.32,0-.12"/><path class="cls-5" d="M270.47,332.29,275,327s0,.09,0,.13l-4.53,5.32a.93.93,0,0,0,0-.13"/><path class="cls-5" d="M270.43,332.42,275,327.1l0,.14-4.53,5.31a.69.69,0,0,0,.05-.13"/><path class="cls-5" d="M270.38,332.55l4.53-5.31-.07.14-4.53,5.32.07-.15"/><path class="cls-5" d="M270.31,332.7l4.53-5.32,0,0a.86.86,0,0,1-.1.16l-4.52,5.31.1-.15v0"/><path class="cls-5" d="M270.2,332.87l4.52-5.31-.08.11L270.11,333l.09-.11"/></g></g></g><polygon class="cls-5" points="240.5 297.83 245.03 292.52 255.27 299.79 250.74 305.11 240.5 297.83"/><g class="cls-9"><path class="cls-5" d="M228.83,276.46l4.52-5.31c0,.25,0,.43,0,.67,0,.73,0,1.46.07,2.2a33.4,33.4,0,0,0,1.62,7.91c1.57,4.82,4.88,7.07,8.32,9.42.57.38,1.13.77,1.7,1.17l-4.53,5.32c-.56-.4-1.13-.79-1.7-1.18-3.44-2.34-6.75-4.6-8.32-9.41a34.62,34.62,0,0,1-1.62-7.92c-.06-.74-.08-1.47-.07-2.19C228.8,276.9,228.81,276.71,228.83,276.46Z"/><g class="cls-49"><g class="cls-9"><path class="cls-5" d="M228.83,276.46l4.52-5.31c0,.2,0,.36,0,.54L228.8,277a5.17,5.17,0,0,1,0-.54"/><path class="cls-5" d="M228.8,277l4.52-5.31v.13c0,.24,0,.48,0,.71l-4.53,5.32v-.71a.66.66,0,0,1,0-.14"/><path class="cls-5" d="M228.79,277.85l4.53-5.32c0,.35,0,.71,0,1.06l-4.53,5.32c0-.36,0-.71,0-1.06"/><path class="cls-5" d="M228.83,278.91l4.53-5.32,0,.43c0,.28.05.57.08.89l-4.53,5.31c0-.31-.06-.61-.08-.89l0-.42"/><path class="cls-5" d="M228.94,280.22l4.53-5.31c.05.42.1.88.18,1.37l-4.53,5.31c-.07-.48-.13-.94-.18-1.37"/><path class="cls-5" d="M229.12,281.59l4.53-5.31c.07.45.15.93.25,1.44L229.37,283c-.1-.5-.18-1-.25-1.44"/><path class="cls-5" d="M229.37,283l4.53-5.31c.1.47.21,1,.33,1.49l-4.52,5.32c-.13-.52-.24-1-.34-1.5"/><path class="cls-5" d="M229.71,284.53l4.52-5.32c.12.5.26,1,.42,1.55l-4.53,5.32c-.15-.54-.29-1.05-.41-1.55"/><path class="cls-5" d="M230.12,286.08l4.53-5.32q.16.57.36,1.17l.06.19-4.53,5.31-.06-.18q-.19-.6-.36-1.17"/><path class="cls-5" d="M230.54,287.43l4.53-5.31.24.66-4.53,5.31q-.12-.31-.24-.66"/><path class="cls-5" d="M230.78,288.09l4.53-5.31c.09.21.17.42.27.63l-4.53,5.31-.27-.63"/><path class="cls-5" d="M231.05,288.72l4.53-5.31c.09.22.2.43.3.64l-4.52,5.31c-.11-.2-.21-.42-.31-.64"/><path class="cls-5" d="M231.36,289.36l4.52-5.31c.12.23.25.46.38.68l-4.53,5.32c-.13-.22-.25-.45-.37-.69"/><path class="cls-5" d="M231.73,290.05l4.53-5.32c.16.27.33.54.5.79l-4.53,5.31c-.17-.25-.34-.51-.5-.78"/><path class="cls-5" d="M232.23,290.83l4.53-5.31a13.21,13.21,0,0,0,1.07,1.37l-4.53,5.31a13.51,13.51,0,0,1-1.07-1.37"/><path class="cls-5" d="M233.3,292.2l4.53-5.31c.26.29.52.57.8.84L234.1,293c-.27-.27-.54-.55-.8-.84"/><path class="cls-5" d="M234.1,293l4.53-5.31a23,23,0,0,0,1.83,1.58l-4.53,5.31A20.92,20.92,0,0,1,234.1,293"/><path class="cls-5" d="M235.93,294.62l4.53-5.31c.92.71,1.89,1.37,2.87,2,.57.38,1.13.77,1.7,1.17l-4.53,5.32c-.56-.4-1.13-.79-1.7-1.18-1-.66-1.94-1.32-2.87-2"/></g></g></g><polygon class="cls-5" points="258.97 300.91 263.5 295.6 274.88 325.42 270.35 330.73 258.97 300.91"/><g class="cls-9"><path class="cls-5" d="M253.9,299l4.53-5.31a1.91,1.91,0,0,1,1.38-.65,2.79,2.79,0,0,1,1.05.12l-4.52,5.31a3.32,3.32,0,0,0-1.06-.12A2,2,0,0,0,253.9,299Z"/><g class="cls-50"><g class="cls-9"><path class="cls-5" d="M253.9,299l4.53-5.31a1.73,1.73,0,0,1,.69-.5l-4.53,5.32a1.81,1.81,0,0,0-.69.49"/><path class="cls-5" d="M254.59,298.55l4.53-5.32.21-.07-4.53,5.32-.21.07"/><path class="cls-5" d="M254.8,298.48l4.53-5.32.17,0L255,298.43l-.17.05"/><path class="cls-5" d="M255,298.43l4.53-5.31.16,0-4.53,5.32-.16,0"/><path class="cls-5" d="M255.13,298.41l4.53-5.32h.14l-4.53,5.31-.14,0"/><path class="cls-5" d="M255.27,298.39l4.53-5.31h.14l-4.53,5.32h-.14"/><path class="cls-5" d="M255.41,298.39l4.53-5.32h.13l-4.53,5.32h-.13"/><path class="cls-5" d="M255.54,298.39l4.53-5.32h.13l-4.53,5.31h-.13"/><path class="cls-5" d="M255.67,298.39l4.53-5.31h.12l-4.52,5.31h-.13"/><path class="cls-5" d="M255.8,298.4l4.52-5.31.13,0-4.53,5.31-.12,0"/><path class="cls-5" d="M255.92,298.42l4.53-5.31.12,0L256,298.44l-.12,0"/><path class="cls-5" d="M256,298.44l4.53-5.31.13,0-4.53,5.32-.13,0"/><path class="cls-5" d="M256.17,298.47l4.53-5.32.12,0-4.53,5.31-.12,0"/><path class="cls-5" d="M256.29,298.5l4.53-5.31h0l-4.52,5.31h0"/></g></g></g><g class="cls-9"><path class="cls-5" d="M221,275.63l4.53-5.32a12.54,12.54,0,0,1,3-2.63,2,2,0,0,1,.95-.28,3.43,3.43,0,0,1,2.26.72,3.53,3.53,0,0,1,1.61,3l-4.52,5.31a3.55,3.55,0,0,0-1.61-3,3.59,3.59,0,0,0-2.27-.72,2.16,2.16,0,0,0-.95.29A12.32,12.32,0,0,0,221,275.63Z"/><g class="cls-51"><g class="cls-9"><path class="cls-5" d="M221,275.63l4.53-5.32a12.54,12.54,0,0,1,3-2.63l.25-.13-4.52,5.32a1.26,1.26,0,0,0-.26.13,12.32,12.32,0,0,0-3,2.63"/><path class="cls-5" d="M224.26,272.87l4.52-5.32.21-.07-4.52,5.32a1.29,1.29,0,0,0-.21.07"/><path class="cls-5" d="M224.47,272.8l4.52-5.32.18,0-4.53,5.31-.17.05"/><path class="cls-5" d="M224.64,272.75l4.53-5.31.15,0-4.52,5.32-.16,0"/><path class="cls-5" d="M224.8,272.73l4.52-5.32h.15l-4.53,5.31-.14,0"/><path class="cls-5" d="M224.94,272.71l4.53-5.31h.14l-4.53,5.31h-.14"/><path class="cls-5" d="M225.08,272.7l4.53-5.31h.13l-4.53,5.31h-.13"/><path class="cls-5" d="M225.21,272.7l4.53-5.31h.13l-4.53,5.31h-.13"/><path class="cls-5" d="M225.34,272.71l4.53-5.31H230l-4.52,5.31h-.13"/><path class="cls-5" d="M225.47,272.72l4.52-5.31h.13l-4.53,5.32-.12,0"/><path class="cls-5" d="M225.59,272.74l4.53-5.32.13,0-4.53,5.31-.13,0"/><path class="cls-5" d="M225.72,272.76l4.53-5.31.12,0-4.53,5.32-.12,0"/><path class="cls-5" d="M225.84,272.79l4.53-5.32.13,0L226,272.82l-.13,0"/><path class="cls-5" d="M226,272.82l4.53-5.31.12,0-4.52,5.32-.13,0"/><path class="cls-5" d="M226.1,272.86l4.52-5.32.13,0-4.53,5.31-.12,0"/><path class="cls-5" d="M226.22,272.9l4.53-5.31.13.05L226.36,273l-.14-.05"/><path class="cls-5" d="M226.36,273l4.52-5.31.14.06L226.49,273l-.13-.06"/><path class="cls-5" d="M226.49,273,231,267.7l.14.06-4.53,5.32-.14-.07"/><path class="cls-5" d="M226.63,273.08l4.53-5.32.15.08-4.53,5.32-.15-.08"/><path class="cls-5" d="M226.78,273.16l4.53-5.32.16.09-4.53,5.32-.16-.09"/><path class="cls-5" d="M226.94,273.25l4.53-5.32.18.12-4.53,5.31-.18-.11"/><path class="cls-5" d="M227.12,273.36l4.53-5.31.09.07.13.09-4.52,5.32-.13-.1-.1-.07"/><path class="cls-5" d="M227.35,273.53l4.52-5.32a3,3,0,0,1,.38.33l-4.53,5.32a2.91,2.91,0,0,0-.37-.33"/><path class="cls-5" d="M227.72,273.86l4.53-5.32.22.23-4.53,5.32a2.39,2.39,0,0,0-.22-.23"/><path class="cls-5" d="M227.94,274.09l4.53-5.32q.17.19.3.39l-4.53,5.31a3.57,3.57,0,0,0-.3-.38"/><path class="cls-5" d="M228.24,274.47l4.53-5.31a1.76,1.76,0,0,1,.14.23l-4.52,5.31-.15-.23"/><path class="cls-5" d="M228.39,274.7l4.52-5.31a1.74,1.74,0,0,1,.11.18l-4.53,5.32c0-.06-.07-.12-.1-.19"/><path class="cls-5" d="M228.49,274.89l4.53-5.32.08.17-4.53,5.31a1.19,1.19,0,0,0-.08-.16"/><path class="cls-5" d="M228.57,275.05l4.53-5.31.06.15-4.53,5.32-.06-.16"/><path class="cls-5" d="M228.63,275.21l4.53-5.32a.78.78,0,0,1,.05.14l-4.52,5.32-.06-.14"/><path class="cls-5" d="M228.69,275.35l4.52-5.32a.93.93,0,0,1,0,.13l-4.52,5.32a.65.65,0,0,1,0-.13"/><path class="cls-5" d="M228.73,275.48l4.52-5.32a.93.93,0,0,1,0,.13l-4.53,5.32,0-.13"/><path class="cls-5" d="M228.76,275.61l4.53-5.32a.5.5,0,0,1,0,.12l-4.52,5.32,0-.12"/><path class="cls-5" d="M228.79,275.73l4.52-5.32,0,.12-4.53,5.32s0-.08,0-.12"/><path class="cls-5" d="M228.81,275.85l4.53-5.32s0,.08,0,.12L228.82,276a.49.49,0,0,0,0-.12"/><path class="cls-5" d="M228.82,276l4.53-5.32a.49.49,0,0,1,0,.12l-4.53,5.31a.37.37,0,0,0,0-.11"/><path class="cls-5" d="M228.83,276.08l4.53-5.31v.11l-4.52,5.32a.49.49,0,0,0,0-.12"/><path class="cls-5" d="M228.84,276.2l4.52-5.32a.2.2,0,0,1,0,.11l-4.52,5.32v-.11"/><path class="cls-5" d="M228.84,276.31l4.52-5.32v.12l-4.53,5.32s0-.08,0-.12"/><path class="cls-5" d="M228.83,276.43l4.53-5.32v0l-4.52,5.31v0"/></g></g></g><path class="cls-52" d="M256.34,298.51a4.13,4.13,0,0,1,2.63,2.4l11.38,29.82a2.36,2.36,0,0,1-.05,2,1.9,1.9,0,0,1-1.58.91L241,335.29a3.86,3.86,0,0,1-3-1.48,2.81,2.81,0,0,1-.59-3l3-5.75-7.16-5.1c-12.5-8.87-17.18-21.94-17.61-28.47a23.27,23.27,0,0,1,2.12-10.58c1.44-3.28,3.61-6.35,6.26-7.94a2.16,2.16,0,0,1,.95-.29,3.59,3.59,0,0,1,2.27.72,3.55,3.55,0,0,1,1.61,3c0,.25,0,.44,0,.68,0,.72,0,1.45.07,2.19a34.62,34.62,0,0,0,1.62,7.92c1.57,4.81,4.88,7.07,8.32,9.41.57.39,1.14.78,1.7,1.18l10.24,7.27,2.94-5.73a1.87,1.87,0,0,1,1.6-1A3.32,3.32,0,0,1,256.34,298.51Z"/><g class="cls-9"><path class="cls-5" d="M256.34,298.51l4.52-5.31a4.17,4.17,0,0,1,2.64,2.4L259,300.91A4.13,4.13,0,0,0,256.34,298.51Z"/><g class="cls-53"><g class="cls-9"><path class="cls-5" d="M256.34,298.51l4.52-5.31.09,0-4.52,5.31-.09,0"/><path class="cls-5" d="M256.43,298.54l4.52-5.31.13,0-4.52,5.32-.13,0"/><path class="cls-5" d="M256.56,298.59l4.52-5.32.13.05-4.52,5.32-.13-.05"/><path class="cls-5" d="M256.69,298.64l4.52-5.32.14.06-4.53,5.31-.13-.05"/><path class="cls-5" d="M256.82,298.69l4.53-5.31.14.07L257,298.76l-.15-.07"/><path class="cls-5" d="M257,298.76l4.52-5.31.15.07-4.52,5.32-.15-.08"/><path class="cls-5" d="M257.12,298.84l4.52-5.32.17.1-4.53,5.31-.16-.09"/><path class="cls-5" d="M257.28,298.93l4.53-5.31.18.11-4.53,5.32-.18-.12"/><path class="cls-5" d="M257.46,299.05l4.53-5.32.21.16-4.53,5.32-.21-.16"/><path class="cls-5" d="M257.67,299.21l4.53-5.32c.13.1.25.21.37.32L258,299.53a2.83,2.83,0,0,0-.37-.32"/><path class="cls-5" d="M258,299.53l4.53-5.32.22.23-4.53,5.31-.22-.22"/><path class="cls-5" d="M258.26,299.75l4.53-5.31a3.9,3.9,0,0,1,.31.4l-4.53,5.32a4,4,0,0,0-.31-.41"/><path class="cls-5" d="M258.57,300.16l4.53-5.32.15.23-4.53,5.32a1.82,1.82,0,0,0-.15-.23"/><path class="cls-5" d="M258.72,300.39l4.53-5.32.1.19-4.53,5.32a1.14,1.14,0,0,0-.1-.19"/><path class="cls-5" d="M258.82,300.58l4.53-5.32c0,.05,0,.11.08.17l-4.53,5.31a1.19,1.19,0,0,0-.08-.16"/><path class="cls-5" d="M258.9,300.74l4.53-5.31.06.15L259,300.89a1,1,0,0,0-.07-.15"/><path class="cls-5" d="M259,300.89l4.52-5.31v0L259,300.91v0"/></g></g></g><polygon class="cls-5" points="277.85 303.19 282.38 297.88 283.98 300.91 279.46 306.22 277.85 303.19"/><path class="cls-5" d="M279.46,306.22a3.55,3.55,0,0,1-1.61-3Z"/><g class="cls-9"><path class="cls-5" d="M257.31,275.3l-4.53,5.31a1.46,1.46,0,0,0,.22-.33l4.53-5.31A1.9,1.9,0,0,1,257.31,275.3Z"/><g class="cls-54"><g class="cls-9"><path class="cls-5" d="M253,280.28l4.53-5.31,0,0L253,280.33l0-.05"/><path class="cls-5" d="M253,280.33,257.5,275a1,1,0,0,1-.11.17l-4.52,5.32.11-.18"/><path class="cls-5" d="M252.87,280.51l4.52-5.32a.76.76,0,0,1-.08.11l-4.53,5.31.09-.1"/></g></g></g><polygon class="cls-5" points="255.94 274.55 260.47 269.24 257.53 274.97 253 280.28 255.94 274.55"/><g class="cls-9"><path class="cls-5" d="M236.57,246.68l4.52-5.32a2,2,0,0,1,1.39-.65L238,246A2,2,0,0,0,236.57,246.68Z"/><g class="cls-55"><g class="cls-9"><path class="cls-5" d="M236.57,246.68l4.52-5.32a1.89,1.89,0,0,1,.69-.49l-4.52,5.31a1.67,1.67,0,0,0-.69.5"/><path class="cls-5" d="M237.26,246.18l4.52-5.31.22-.08-4.53,5.32-.21.07"/><path class="cls-5" d="M237.47,246.11l4.53-5.32.17,0-4.53,5.32-.17,0"/><path class="cls-5" d="M237.64,246.07l4.53-5.32.16,0L237.8,246l-.16,0"/><path class="cls-5" d="M237.8,246l4.53-5.32h.14L237.94,246l-.14,0"/><polyline class="cls-5" points="237.94 246.02 242.47 240.71 242.48 240.71 237.95 246.02 237.94 246.02"/></g></g></g><polygon class="cls-5" points="266.28 254.57 270.81 249.25 277.98 254.35 273.45 259.67 266.28 254.57"/><g class="cls-9"><path class="cls-5" d="M290.21,298.72,285.69,304a22,22,0,0,0,3.25-5.32,23.2,23.2,0,0,0,2.12-10.57c-.43-6.53-5.11-19.6-17.61-28.47l4.53-5.32c12.49,8.88,17.17,22,17.61,28.48a23.34,23.34,0,0,1-2.12,10.57A21.69,21.69,0,0,1,290.21,298.72Z"/><g class="cls-56"><g class="cls-9"><path class="cls-5" d="M273.45,259.67l4.53-5.32c.52.37,1,.75,1.52,1.13L275,260.8c-.49-.38-1-.76-1.52-1.13"/><path class="cls-5" d="M275,260.8l4.53-5.32a43.19,43.19,0,0,1,3.69,3.22L278.67,264a43.27,43.27,0,0,0-3.7-3.21"/><path class="cls-5" d="M278.67,264l4.52-5.31c.8.77,1.55,1.56,2.25,2.36l-4.52,5.31c-.71-.8-1.46-1.58-2.25-2.36"/><path class="cls-5" d="M280.92,266.37l4.52-5.31a44.07,44.07,0,0,1,3.39,4.34l-4.53,5.32a44,44,0,0,0-3.38-4.35"/><path class="cls-5" d="M284.3,270.72l4.53-5.32c.6.87,1.15,1.75,1.67,2.62L286,273.34c-.51-.87-1.07-1.75-1.67-2.62"/><path class="cls-5" d="M286,273.34,290.5,268c.43.74.83,1.47,1.2,2.2l-4.53,5.32c-.37-.73-.77-1.46-1.2-2.2"/><path class="cls-5" d="M287.17,275.54l4.53-5.32c.34.67.66,1.34,1,2l-4.53,5.32c-.29-.66-.61-1.32-1-2"/><path class="cls-5" d="M288.13,277.53l4.53-5.32c.27.62.53,1.23.77,1.83l-4.53,5.32c-.24-.6-.49-1.21-.77-1.83"/><path class="cls-5" d="M288.9,279.36l4.53-5.32c.22.58.43,1.14.61,1.69l-4.52,5.32c-.19-.55-.4-1.12-.62-1.69"/><path class="cls-5" d="M289.52,281.05l4.52-5.32c.18.53.35,1,.5,1.56L290,282.6c-.15-.5-.31-1-.49-1.55"/><path class="cls-5" d="M290,282.6l4.53-5.31c.14.48.26,1,.38,1.41L290.39,284c-.11-.46-.24-.93-.38-1.42"/><path class="cls-5" d="M290.39,284l4.53-5.32c.1.44.2.87.28,1.28l-4.53,5.31c-.08-.41-.17-.83-.28-1.27"/><path class="cls-5" d="M290.67,285.29,295.2,280c.07.38.14.76.2,1.12l-4.53,5.32c-.06-.37-.12-.74-.2-1.13"/><path class="cls-5" d="M290.87,286.42l4.53-5.32c.05.34.09.67.12,1L291,287.4c0-.32-.08-.64-.13-1"/><path class="cls-5" d="M291,287.4l4.52-5.32c0,.26.05.51.07.75v.1l-4.53,5.32v-.11c0-.24,0-.49-.06-.74"/><path class="cls-5" d="M291.07,288.25l4.53-5.32c0,.25,0,.51,0,.76L291.1,289c0-.26,0-.51,0-.76"/><path class="cls-5" d="M291.1,289l4.52-5.32c0,.29,0,.57,0,.86l-4.53,5.32c0-.29,0-.58,0-.86"/><path class="cls-5" d="M291.09,289.87l4.53-5.32-.06,1L291,290.85c0-.33.05-.66.06-1"/><path class="cls-5" d="M291,290.85l4.53-5.31c0,.38-.08.76-.14,1.14L290.9,292c.05-.38.1-.76.13-1.14"/><path class="cls-5" d="M290.9,292l4.52-5.31c-.06.44-.13.88-.22,1.32l-4.53,5.31c.09-.44.17-.88.23-1.32"/><path class="cls-5" d="M290.67,293.31,295.2,288c-.11.51-.23,1-.36,1.52l-4.53,5.32q.21-.76.36-1.53"/><path class="cls-5" d="M290.31,294.84l4.53-5.32c-.16.59-.34,1.18-.54,1.75l-4.52,5.32c.19-.58.37-1.16.53-1.75"/><path class="cls-5" d="M289.78,296.59l4.52-5.32a20.75,20.75,0,0,1-.78,2L289,298.59c.29-.65.55-1.32.79-2"/><path class="cls-5" d="M289,298.59l4.53-5.32,0,.13c-.3.67-.63,1.34-1,2L288,300.7c.35-.64.68-1.31,1-2l.05-.12"/><path class="cls-5" d="M288,300.7l4.52-5.31a22.58,22.58,0,0,1-1.38,2.2l-4.53,5.31a22.17,22.17,0,0,0,1.39-2.2"/><path class="cls-5" d="M286.57,302.9l4.53-5.31c-.28.39-.58.77-.89,1.13L285.69,304c.3-.36.6-.74.88-1.13"/></g></g></g><polygon class="cls-5" points="269.3 248.82 273.83 243.5 270.81 249.25 266.28 254.57 269.3 248.82"/><polygon class="cls-5" points="237.95 246.02 242.48 240.71 270.19 239.05 265.67 244.36 237.95 246.02"/><path class="cls-52" d="M273.45,259.67c12.5,8.87,17.18,21.94,17.61,28.47a23.2,23.2,0,0,1-2.12,10.57c-1.45,3.29-3.61,6.36-6.26,8a2.2,2.2,0,0,1-.95.29,3.59,3.59,0,0,1-2.27-.72l-1.61-3a21,21,0,0,0,0-2.86,34,34,0,0,0-1.62-7.92c-1.57-4.81-4.88-7.07-8.33-9.42-.57-.38-1.13-.77-1.69-1.17l-10.24-7.27L253,280.28a1.87,1.87,0,0,1-1.6,1,3.08,3.08,0,0,1-1.06-.13,4.09,4.09,0,0,1-2.63-2.39l-11.38-29.83a2.31,2.31,0,0,1,0-2A1.91,1.91,0,0,1,238,246l27.72-1.66a3.88,3.88,0,0,1,3.05,1.5,2.77,2.77,0,0,1,.58,3l-3,5.75Z"/><g class="cls-9"><path class="cls-5" d="M265.67,244.36l4.52-5.31a3.84,3.84,0,0,1,3.06,1.49,2.77,2.77,0,0,1,.58,3l-4.53,5.32a2.77,2.77,0,0,0-.58-3A3.88,3.88,0,0,0,265.67,244.36Z"/><g class="cls-57"><g class="cls-9"><path class="cls-5" d="M265.67,244.36l4.52-5.31h.1l-4.52,5.32h-.1"/><path class="cls-5" d="M265.77,244.36l4.52-5.32h.13l-4.52,5.32h-.13"/><path class="cls-5" d="M265.9,244.36l4.52-5.32h.13L266,244.37h-.13"/><path class="cls-5" d="M266,244.37l4.52-5.32h.13l-4.53,5.32H266"/><path class="cls-5" d="M266.15,244.38l4.53-5.32.12,0-4.52,5.31h-.13"/><path class="cls-5" d="M266.28,244.39l4.52-5.31.13,0-4.53,5.32-.12,0"/><path class="cls-5" d="M266.4,244.42l4.53-5.32.12,0-4.52,5.31-.13,0"/><path class="cls-5" d="M266.53,244.44l4.52-5.31.13,0-4.53,5.32-.12,0"/><path class="cls-5" d="M266.65,244.48l4.53-5.32.12,0-4.52,5.31-.13,0"/><path class="cls-5" d="M266.78,244.51l4.52-5.31.13,0-4.52,5.32-.13-.05"/><path class="cls-5" d="M266.91,244.56l4.52-5.32.14,0L267,244.61l-.13-.05"/><path class="cls-5" d="M267,244.61l4.53-5.32.13.06-4.52,5.32-.14-.06"/><path class="cls-5" d="M267.18,244.67l4.52-5.32.15.07-4.53,5.31-.14-.06"/><path class="cls-5" d="M267.32,244.73l4.53-5.31.15.08-4.53,5.31-.15-.08"/><path class="cls-5" d="M267.47,244.81,272,239.5l.16.09-4.53,5.32-.16-.1"/><path class="cls-5" d="M267.63,244.91l4.53-5.32.18.12L267.81,245l-.18-.11"/><path class="cls-5" d="M267.81,245l4.53-5.31.22.15L268,245.18l-.22-.16"/><path class="cls-5" d="M268,245.18l4.53-5.32.37.33-4.52,5.32a3.9,3.9,0,0,0-.38-.33"/><path class="cls-5" d="M268.41,245.51l4.52-5.32.22.23-4.53,5.32-.21-.23"/><path class="cls-5" d="M268.62,245.74l4.53-5.32.1.12.21.28-4.53,5.31a2.47,2.47,0,0,0-.21-.27l-.1-.12"/><path class="cls-5" d="M268.93,246.13l4.53-5.31.14.22-4.53,5.32c0-.08-.09-.15-.14-.23"/><path class="cls-5" d="M269.07,246.36,273.6,241l.1.19-4.52,5.32-.11-.19"/><path class="cls-5" d="M269.18,246.55l4.52-5.32a1.19,1.19,0,0,1,.08.16l-4.53,5.32c0-.06-.05-.11-.07-.16"/><path class="cls-5" d="M269.25,246.71l4.53-5.32.06.15-4.52,5.32a1,1,0,0,0-.07-.15"/><path class="cls-5" d="M269.32,246.86l4.52-5.32.06.14L269.37,247l-.05-.14"/><path class="cls-5" d="M269.37,247l4.53-5.32a.74.74,0,0,0,0,.14l-4.53,5.31,0-.13"/><path class="cls-5" d="M269.41,247.13l4.53-5.31,0,.12-4.52,5.32s0-.08,0-.13"/><path class="cls-5" d="M269.45,247.26l4.52-5.32,0,.13-4.53,5.31s0-.08,0-.12"/><path class="cls-5" d="M269.47,247.38l4.53-5.31s0,.08,0,.12l-4.53,5.31a.5.5,0,0,0,0-.12"/><path class="cls-5" d="M269.49,247.5l4.53-5.31s0,.08,0,.12l-4.53,5.31a.5.5,0,0,0,0-.12"/><path class="cls-5" d="M269.51,247.62l4.53-5.31a.45.45,0,0,0,0,.11l-4.53,5.32s0-.08,0-.12"/><path class="cls-5" d="M269.52,247.74l4.53-5.32v.12l-4.53,5.31v-.11"/><path class="cls-5" d="M269.52,247.85l4.53-5.31v.11L269.52,248v-.12"/><path class="cls-5" d="M269.52,248l4.53-5.32s0,.08,0,.12l-4.52,5.31V248"/><path class="cls-5" d="M269.52,248.08l4.52-5.31s0,.07,0,.11l-4.53,5.32s0-.08,0-.12"/><path class="cls-5" d="M269.5,248.2l4.53-5.32s0,.08,0,.12l-4.53,5.32a.5.5,0,0,0,0-.12"/><path class="cls-5" d="M269.48,248.32,274,243l0,.12-4.53,5.32,0-.12"/><path class="cls-5" d="M269.45,248.44l4.53-5.32a.65.65,0,0,1,0,.13l-4.53,5.31a.56.56,0,0,0,0-.12"/><path class="cls-5" d="M269.41,248.56l4.53-5.31a.69.69,0,0,1-.05.13l-4.53,5.32a.78.78,0,0,0,.05-.14"/><path class="cls-5" d="M269.36,248.7l4.53-5.32-.06.12-4.53,5.32a.67.67,0,0,0,.06-.12"/></g></g></g></g><g class="cls-9"><g class="cls-9"><path class="cls-6" d="M517,296.8l18.41.65a37.06,37.06,0,0,0-9.91,1c-1,.25-2,.54-3,.87L504,298.7c1-.33,2-.63,3-.87A36.34,36.34,0,0,1,517,296.8Z"/><g class="cls-58"><g class="cls-9"><path class="cls-6" d="M522.41,299.35,504,298.7c1-.33,2-.63,3-.87s2.18-.48,3.26-.64l18.41.65c-1.07.17-2.16.38-3.25.64s-2,.54-3,.87"/><path class="cls-6" d="M528.7,297.84l-18.41-.65a35.46,35.46,0,0,1,6.38-.4l18.42.65a37.57,37.57,0,0,0-6.39.4"/><path class="cls-6" d="M535.09,297.44l-18.42-.65H517l18.41.65h-.27"/></g></g></g><g class="cls-9"><path class="cls-6" d="M459.74,252l18.41.66a44.3,44.3,0,0,0-11.9,1.23l-18.42-.65A44.35,44.35,0,0,1,459.74,252Z"/><g class="cls-59"><g class="cls-9"><path class="cls-6" d="M466.25,253.92l-18.42-.65c1.32-.32,2.62-.57,3.92-.77l18.42.66c-1.3.19-2.61.45-3.92.76"/><path class="cls-6" d="M470.17,253.16l-18.42-.66a43.44,43.44,0,0,1,7.66-.48l18.42.66a42.45,42.45,0,0,0-7.66.48"/><path class="cls-6" d="M477.83,252.68,459.41,252h.33l18.41.66h-.32"/></g></g></g><g class="cls-9"><path class="cls-6" d="M415.2,338.68,396.78,338c-.15-1.52-.28-3.06-.34-4.63-1.55-37.06,21.45-72.94,51.39-80.13l18.42.65c-29.94,7.19-52.95,43.07-51.39,80.13C414.92,335.62,415.05,337.16,415.2,338.68Z"/><g class="cls-60"><g class="cls-9"><path class="cls-6" d="M415.2,338.68,396.78,338c-.15-1.52-.28-3.06-.34-4.63,0-.65-.05-1.3-.06-1.94l18.42.65c0,.65,0,1.29.06,1.94.06,1.57.19,3.11.34,4.63"/><path class="cls-6" d="M414.8,332.11l-18.42-.65a86.93,86.93,0,0,1,.39-10l18.42.65a84.89,84.89,0,0,0-.39,10"/><path class="cls-6" d="M415.19,322.14l-18.42-.65a88.38,88.38,0,0,1,1.42-9.36l18.41.66a88.18,88.18,0,0,0-1.41,9.35"/><path class="cls-6" d="M416.6,312.79l-18.41-.66a91,91,0,0,1,2.49-9.48l18.42.65a90.55,90.55,0,0,0-2.5,9.49"/><path class="cls-6" d="M419.1,303.3l-18.42-.65a90.88,90.88,0,0,1,4.07-10.38l18.42.65a89.07,89.07,0,0,0-4.07,10.38"/><path class="cls-6" d="M423.17,292.92l-18.42-.65a84.92,84.92,0,0,1,8.1-13.84l18.41.65a85.6,85.6,0,0,0-8.09,13.84"/><path class="cls-6" d="M431.26,279.08l-18.41-.65A70.65,70.65,0,0,1,430.62,261l18.42.66a70.64,70.64,0,0,0-17.78,17.47"/><path class="cls-6" d="M449,261.61,430.62,261a54.81,54.81,0,0,1,12.26-6.21l18.42.65A55.06,55.06,0,0,0,449,261.61"/><path class="cls-6" d="M461.3,255.39l-18.42-.65a48.35,48.35,0,0,1,4.95-1.47l18.42.65a51,51,0,0,0-4.95,1.47"/></g></g></g><g class="cls-9"><path class="cls-6" d="M406.35,438.72l-18.41-.65c-18-.64-32.08-17.09-33.06-40.57-1.14-27.16,15.73-53.46,37.67-58.73a33.81,33.81,0,0,1,4.23-.74l18.42.65a35.38,35.38,0,0,0-4.23.74C389,344.69,372.16,371,373.29,398.15,374.28,421.63,388.38,438.08,406.35,438.72Z"/><g class="cls-61"><g class="cls-9"><path class="cls-6" d="M406.35,438.72l-18.41-.65c-16.12-.58-29.13-13.86-32.35-33.54l18.42.66c3.22,19.67,16.23,33,32.34,33.53"/><path class="cls-6" d="M374,405.19l-18.42-.66a58.49,58.49,0,0,1-.71-7c0-.47,0-.95-.05-1.42l18.42.65c0,.48,0,.95,0,1.42a60.76,60.76,0,0,0,.72,7"/><path class="cls-6" d="M373.25,396.73l-18.42-.65a65.89,65.89,0,0,1,.29-7.31l18.42.66a61.12,61.12,0,0,0-.29,7.3"/><path class="cls-6" d="M373.54,389.43l-18.42-.66a62.51,62.51,0,0,1,1-6.85l18.41.65a65.58,65.58,0,0,0-1,6.86"/><path class="cls-6" d="M374.57,382.57l-18.41-.65A64.48,64.48,0,0,1,358,375l18.42.65a65.14,65.14,0,0,0-1.84,6.95"/><path class="cls-6" d="M376.41,375.62,358,375a65.29,65.29,0,0,1,3-7.61l18.42.65a65.29,65.29,0,0,0-3,7.61"/><path class="cls-6" d="M379.39,368,361,367.36a62.48,62.48,0,0,1,5.94-10.15l18.41.65A62.86,62.86,0,0,0,379.39,368"/><path class="cls-6" d="M385.32,357.86l-18.41-.65a51.74,51.74,0,0,1,13-12.81l18.41.65a51.9,51.9,0,0,0-13,12.81"/><path class="cls-6" d="M398.35,345.05l-18.41-.65a40.19,40.19,0,0,1,9-4.56l18.42.66a40.64,40.64,0,0,0-9,4.55"/><path class="cls-6" d="M407.34,340.5l-18.42-.66a35.13,35.13,0,0,1,3.63-1.07c1-.23,1.91-.42,2.85-.56l18.42.65c-.95.15-1.9.33-2.85.56a37.84,37.84,0,0,0-3.63,1.08"/><path class="cls-6" d="M413.82,338.86l-18.42-.65,1.38-.18,18.42.65-1.38.18"/></g></g></g><path class="cls-62" d="M466.25,253.92c27.53-6.61,51.3,13.36,56.16,45.43,1-.33,2-.62,3-.87,24.91-6,46.16,14.17,47.45,45S555,404.2,530.12,410.18l-115,27.63c-21.94,5.27-40.65-12.48-41.79-39.66S389,344.69,411,339.42a35.38,35.38,0,0,1,4.23-.74c-.15-1.52-.28-3.06-.34-4.63C413.3,297,436.31,261.11,466.25,253.92Z"/></g><g class="cls-9"><g class="cls-9"><path class="cls-7" d="M233.85,80.61l-7.43-4.46a4.8,4.8,0,0,0,2.12-2.71L236,77.9A4.77,4.77,0,0,1,233.85,80.61Z"/><g class="cls-63"><g class="cls-9"><path class="cls-7" d="M233.85,80.61l-7.43-4.46a3,3,0,0,0,.43-.29l7.44,4.46a3,3,0,0,1-.44.29"/><path class="cls-7" d="M234.29,80.32l-7.44-4.46a3.62,3.62,0,0,0,.42-.36L234.71,80a3.62,3.62,0,0,1-.42.36"/><path class="cls-7" d="M234.71,80l-7.44-4.46a3.69,3.69,0,0,0,.38-.41l7.44,4.46a5,5,0,0,1-.38.41"/><path class="cls-7" d="M235.09,79.55l-7.44-4.46a4.21,4.21,0,0,0,.35-.48l7.44,4.46a5.92,5.92,0,0,1-.35.48"/><path class="cls-7" d="M235.44,79.07,228,74.61a4.77,4.77,0,0,0,.34-.63l7.44,4.46a4.77,4.77,0,0,1-.34.63"/><path class="cls-7" d="M235.78,78.44,228.34,74a3.16,3.16,0,0,0,.2-.54L236,77.9a4.3,4.3,0,0,1-.2.54"/></g></g></g><g class="cls-9"><path class="cls-7" d="M244.47,38.72l7.43,4.46a3.43,3.43,0,0,0-1.94-.47l-7.44-4.46A3.49,3.49,0,0,1,244.47,38.72Z"/><g class="cls-64"><g class="cls-9"><path class="cls-7" d="M250,42.71l-7.44-4.46a3.59,3.59,0,0,1,1.31.18l7.44,4.46a3.61,3.61,0,0,0-1.31-.18"/><path class="cls-7" d="M251.27,42.89l-7.44-4.46a3.33,3.33,0,0,1,.61.27l7.44,4.46a3.66,3.66,0,0,0-.61-.27"/><path class="cls-7" d="M251.88,43.16l-7.44-4.46,0,0,7.43,4.46,0,0"/></g></g></g><polygon class="cls-7" points="235.98 77.9 228.54 73.44 238.51 41.54 245.95 46 235.98 77.9"/><g class="cls-9"><path class="cls-7" d="M246,46l-7.44-4.46a4.53,4.53,0,0,1,4-3.29L250,42.71A4.53,4.53,0,0,0,246,46Z"/><g class="cls-65"><g class="cls-9"><path class="cls-7" d="M246,46l-7.44-4.46a5.77,5.77,0,0,1,.22-.58l7.44,4.46A5.77,5.77,0,0,0,246,46"/><path class="cls-7" d="M246.17,45.42,238.73,41a4.1,4.1,0,0,1,.34-.62l7.44,4.46a4.1,4.1,0,0,0-.34.62"/><path class="cls-7" d="M246.51,44.8l-7.44-4.46a4,4,0,0,1,.34-.47l7.44,4.46a3.12,3.12,0,0,0-.34.47"/><path class="cls-7" d="M246.85,44.33l-7.44-4.46a4.48,4.48,0,0,1,.36-.4l7.44,4.46a4.48,4.48,0,0,0-.36.4"/><path class="cls-7" d="M247.21,43.93l-7.44-4.46.41-.35,7.44,4.46-.41.35"/><path class="cls-7" d="M247.62,43.58l-7.44-4.46a3.84,3.84,0,0,1,.5-.32l7.44,4.46a3.84,3.84,0,0,0-.5.32"/><path class="cls-7" d="M248.12,43.26l-7.44-4.46a4.32,4.32,0,0,1,.69-.32l7.43,4.46a4.66,4.66,0,0,0-.68.32"/><path class="cls-7" d="M248.8,42.94l-7.43-4.46a4.27,4.27,0,0,1,1.15-.23L250,42.71a4.26,4.26,0,0,0-1.16.23"/></g></g></g><polygon class="cls-7" points="205.8 97.2 198.36 92.74 226.42 76.15 233.85 80.61 205.8 97.2"/><g class="cls-9"><path class="cls-7" d="M205.13,104.51l-7.44-4.46c-2.4-1.45-2.25-5.58.67-7.31l7.44,4.46C202.88,98.93,202.73,103.06,205.13,104.51Z"/><g class="cls-66"><g class="cls-9"><path class="cls-7" d="M205.13,104.51l-7.44-4.46a4,4,0,0,1-1.26-5.14l7.44,4.46a4,4,0,0,0,1.26,5.14"/><path class="cls-7" d="M203.87,99.37l-7.44-4.46a3.69,3.69,0,0,1,.33-.62l7.44,4.46a4.12,4.12,0,0,0-.33.62"/><path class="cls-7" d="M204.2,98.75l-7.44-4.46a5.09,5.09,0,0,1,.34-.47l7.44,4.46a3.72,3.72,0,0,0-.34.47"/><path class="cls-7" d="M204.54,98.28l-7.44-4.46a4.61,4.61,0,0,1,.37-.4l7.44,4.46a4.61,4.61,0,0,0-.37.4"/><path class="cls-7" d="M204.91,97.88l-7.44-4.46a5.2,5.2,0,0,1,.43-.37l7.44,4.46a5.2,5.2,0,0,0-.43.37"/><path class="cls-7" d="M205.34,97.51l-7.44-4.46.46-.31,7.44,4.46a5.27,5.27,0,0,0-.46.31"/></g></g></g><path class="cls-67" d="M250,42.71a3.32,3.32,0,0,1,3.31,2.07l31.09,71.15a4.67,4.67,0,0,1-3.85,6.3,3.53,3.53,0,0,1-1-.09L206.12,104.9c-3.39-.79-3.6-5.76-.32-7.7l28-16.59A4.77,4.77,0,0,0,236,77.9L246,46A4.53,4.53,0,0,1,250,42.71Z"/></g></svg>
