<svg width="20" height="20" fill="none" xmlns="http://www.w3.org/2000/svg"><path d="M10 1.872a8.334 8.334 0 0 0-2.636 16.24c.417.073.573-.177.573-.396 0-.198-.01-.854-.01-1.552-2.094.385-2.636-.51-2.803-.98a3.03 3.03 0 0 0-.854-1.176c-.291-.157-.708-.542-.01-.553a1.667 1.667 0 0 1 1.281.855 1.781 1.781 0 0 0 2.427.687c.036-.424.225-.82.531-1.114-1.854-.209-3.791-.928-3.791-4.115a3.243 3.243 0 0 1 .854-2.24 2.995 2.995 0 0 1 .083-2.208s.698-.219 2.292.854a7.856 7.856 0 0 1 4.167 0c1.593-1.083 2.291-.854 2.291-.854.309.699.338 1.489.084 2.208.562.61.867 1.411.854 2.24 0 3.198-1.948 3.906-3.802 4.114a1.973 1.973 0 0 1 .562 1.542c0 1.115-.01 2.01-.01 2.292 0 .219.156.479.573.396a8.337 8.337 0 0 0-2.657-16.24Z" fill="#fff"/></svg>