<svg width="80" height="80" fill="none" xmlns="http://www.w3.org/2000/svg">
  <path
    d="m59.122 48.74-8.087 7.435a38.678 38.678 0 0 1-14.328 7.9l2.145 10.01a3.334 3.334 0 0 0 4.898 2.206l13.017-7.343a10.118 10.118 0 0 0 4.584-11.012l-2.23-9.196ZM24.219 29.253l6.962-8.266-8.683-2.095a9.257 9.257 0 0 0-11.289 4.524l-7.334 13a3.333 3.333 0 0 0 2.206 4.897l10.242 2.196a42.953 42.953 0 0 1 7.896-14.256Zm31.56.134a5 5 0 1 0 0-10 5 5 0 0 0 0 10Z"
    fill="url('#paint0_linear_458_5184')"/>
  <path
    d="M75.337 6.873a3.336 3.336 0 0 0-2.376-2.376 37.496 37.496 0 0 0-38.063 12.077l-10.68 12.679a43.12 43.12 0 0 0-9.745 22.37 3.334 3.334 0 0 0 .949 2.788l10.333 10.334a3.332 3.332 0 0 0 2.647.963 39.49 39.49 0 0 0 22.633-9.533l12.21-11.227A37.346 37.346 0 0 0 75.337 6.873ZM55.779 29.387a5 5 0 1 1 0-10 5 5 0 0 1 0 10Z"
    fill="url('#paint1_linear_458_5184')"/>
  <defs>
    <linearGradient id="paint0_linear_458_5184" x1="8.5" y1="26.5" x2="53.5" y2="71" gradientUnits="userSpaceOnUse">
      <stop stop-color="#f3e5c8"/>
      <stop offset=".448" stop-color="#FFF"/>
      <stop offset="1" stop-color="#f3e5c8"/>
    </linearGradient>
    <linearGradient id="paint1_linear_458_5184" x1="45.503" y1="3.291" x2="14" y2="63" gradientUnits="userSpaceOnUse">
      <stop stop-color="#ded3c4"/>
      <stop offset="1" stop-color="#DDD"/>
    </linearGradient>
  </defs>
</svg>
