<svg width="80" height="80" fill="none" xmlns="http://www.w3.org/2000/svg">
  <path fill-rule="evenodd" clip-rule="evenodd"
        d="M28 68v1a6 6 0 0 0 6 6h36a6 6 0 0 0 6-6V25a6 6 0 0 0-6-6H60v41a8 8 0 0 1-8 8H28Z" fill="#f3e5c8"/>
  <rect x="4" y="4" width="52" height="60" rx="8" fill="url('#paint0_linear_453_6208')"/>
  <path
    d="M27.563 31.074a1 1 0 0 1-.466-.115L22 28.279l-5.097 2.68a1 1 0 0 1-1.45-1.054l.973-5.675-4.124-4.02a1 1 0 0 1 .555-1.705l5.698-.828 2.549-5.164a1.041 1.041 0 0 1 1.793 0l2.548 5.164 5.699.828a1 1 0 0 1 .554 1.705l-4.124 4.02.974 5.675a1 1 0 0 1-.985 1.17Z"
    fill="url('#paint1_linear_453_6208')"/>
  <rect x="12" y="36" width="16" height="4" rx="2" fill="#f3e5c8"/>
  <rect x="12" y="44" width="36" height="4" rx="2" fill="#f3e5c8"/>
  <rect x="12" y="52" width="28" height="4" rx="2" fill="#f3e5c8"/>
  <defs>
    <linearGradient id="paint0_linear_453_6208" x1="30" y1="4" x2="18.5" y2="64" gradientUnits="userSpaceOnUse">
      <stop stop-color="#f3e5c8"/>
      <stop offset="1" stop-color="#CCC"/>
    </linearGradient>
    <linearGradient id="paint1_linear_453_6208" x1="22" y1="12" x2="12" y2="38.5" gradientUnits="userSpaceOnUse">
      <stop stop-color="#f3e5c8"/>
      <stop offset="1" stop-color="#777" stop-opacity="0"/>
    </linearGradient>
  </defs>
</svg>
