<svg width="900" height="512" fill="none" xmlns="http://www.w3.org/2000/svg"><g clip-path="url('#clip0_1183_37809')"><rect width="900" height="512" rx="28" fill="#1c1d20"/><path fill="#f3e5c8" d="M0 0h900v52H0z"/><path d="m161.17 25.29 4.24-4.24a1.009 1.009 0 0 1 .71-.296 1.002 1.002 0 0 1 .71 1.706L163.29 26l3.54 3.54a1.001 1.001 0 0 1 0 1.41.994.994 0 0 1-.71.29 1 1 0 0 1-.71-.29l-4.24-4.24a1 1 0 0 1 0-1.42ZM202.83 26.71l-4.24 4.24a1.009 1.009 0 0 1-.71.296 1.002 1.002 0 0 1-.71-1.706l3.54-3.54-3.54-3.54a1.001 1.001 0 0 1 0-1.41.994.994 0 0 1 .71-.29 1 1 0 0 1 .71.29l4.24 4.24a1 1 0 0 1 0 1.42Z" fill="#7F7BB6"/><circle cx="50" cy="26" r="10" fill="#FF5449"/><circle cx="86" cy="26" r="10" fill="#FFB95A"/><circle cx="122" cy="26" r="10" fill="#68BE6C"/></g><defs><clipPath id="clip0_1183_37809"><rect width="900" height="512" rx="28" fill="#fff"/></clipPath></defs></svg>
