<svg id="图层_1" data-name="图层 1" xmlns="http://www.w3.org/2000/svg" xmlns:xlink="http://www.w3.org/1999/xlink" viewBox="0 0 670 530"><defs><style>.cls-1{fill:#62666d;}.cls-2{fill:#fff;}.cls-3{fill:#f5f6f7;}.cls-4{fill:url(#未命名的渐变_58);}.cls-5{fill:url(#未命名的渐变_58-2);}.cls-6{isolation:isolate;}.cls-7{fill:#ddb962;}.cls-8{fill:#3d3f44;}.cls-11,.cls-14,.cls-16,.cls-223,.cls-225,.cls-227,.cls-229,.cls-9{opacity:0.35;}.cls-9{fill:url(#未命名的渐变_14);}.cls-10{fill:url(#未命名的渐变_14-2);}.cls-11{fill:url(#未命名的渐变_14-3);}.cls-12{fill:url(#未命名的渐变_14-4);}.cls-13{fill:url(#未命名的渐变_58-3);}.cls-14{fill:url(#未命名的渐变_14-5);}.cls-15{fill:url(#未命名的渐变_14-6);}.cls-16{fill:url(#未命名的渐变_14-7);}.cls-17{fill:url(#未命名的渐变_14-8);}.cls-18{fill:url(#未命名的渐变_58-4);}.cls-19{fill:url(#未命名的渐变_20);}.cls-20{fill:#48486a;}.cls-21{fill:url(#未命名的渐变_14-9);}.cls-22{fill:url(#未命名的渐变_14-10);}.cls-23{fill:#bec3cc;}.cls-24{fill:url(#未命名的渐变_14-11);}.cls-25{opacity:0.45;}.cls-26{fill:#ddb963;opacity:0.99;}.cls-27{fill:#ddba64;opacity:0.98;}.cls-28{fill:#ddba65;opacity:0.97;}.cls-29{fill:#ddba66;opacity:0.97;}.cls-30{fill:#debb67;opacity:0.96;}.cls-31{fill:#debb68;opacity:0.95;}.cls-32{fill:#debc69;opacity:0.94;}.cls-33{fill:#debc6a;opacity:0.93;}.cls-34{fill:#debc6b;opacity:0.92;}.cls-35{fill:#debd6c;opacity:0.92;}.cls-36{fill:#debd6d;opacity:0.91;}.cls-37{fill:#debd6e;opacity:0.9;}.cls-38{fill:#dfbe6f;opacity:0.89;}.cls-39{fill:#dfbe70;opacity:0.88;}.cls-40{fill:#dfbe71;opacity:0.87;}.cls-41{fill:#dfbf72;opacity:0.86;}.cls-42{fill:#dfbf73;opacity:0.86;}.cls-43{fill:#dfc074;opacity:0.85;}.cls-44{fill:#dfc075;opacity:0.84;}.cls-45{fill:#dfc076;opacity:0.83;}.cls-46{fill:#dfc177;opacity:0.82;}.cls-47{fill:#e0c178;opacity:0.81;}.cls-48{fill:#e0c179;opacity:0.81;}.cls-49{fill:#e0c27a;opacity:0.8;}.cls-50{fill:#e0c27b;opacity:0.79;}.cls-51{fill:#e0c27c;opacity:0.78;}.cls-52{fill:#e0c37d;opacity:0.77;}.cls-53{fill:#e0c37e;opacity:0.76;}.cls-54{fill:#e0c47f;opacity:0.75;}.cls-55{fill:#e1c480;opacity:0.75;}.cls-56{fill:#e1c481;opacity:0.74;}.cls-57{fill:#e1c582;opacity:0.73;}.cls-58{fill:#e1c583;opacity:0.72;}.cls-59{fill:#e1c584;opacity:0.71;}.cls-60{fill:#e1c685;opacity:0.7;}.cls-61{fill:#e1c686;opacity:0.69;}.cls-62{fill:#e1c687;opacity:0.69;}.cls-63{fill:#e2c788;opacity:0.68;}.cls-64{fill:#e2c789;opacity:0.67;}.cls-65{fill:#e2c88a;opacity:0.66;}.cls-66{fill:#e2c88b;opacity:0.65;}.cls-67{fill:#e2c88c;opacity:0.64;}.cls-68{fill:#e2c98d;opacity:0.64;}.cls-69{fill:#e2c98e;opacity:0.63;}.cls-70{fill:#e2c98f;opacity:0.62;}.cls-71{fill:#e2ca90;opacity:0.61;}.cls-72{fill:#e3ca91;opacity:0.6;}.cls-73{fill:#e3ca92;opacity:0.59;}.cls-74{fill:#e3cb93;opacity:0.58;}.cls-75{fill:#e3cb94;opacity:0.58;}.cls-76{fill:#e3cc95;opacity:0.57;}.cls-77{fill:#e3cc96;opacity:0.56;}.cls-78{fill:#e3cc97;opacity:0.55;}.cls-79{fill:#e3cd98;opacity:0.54;}.cls-80{fill:#e4cd99;opacity:0.53;}.cls-81{fill:#e4cd9a;opacity:0.53;}.cls-82{fill:#e4ce9b;opacity:0.52;}.cls-83,.cls-84{fill:#e4ce9c;}.cls-83{opacity:0.51;}.cls-84{opacity:0.5;}.cls-85{fill:#e4cf9d;opacity:0.49;}.cls-86{fill:#e4cf9e;opacity:0.48;}.cls-87{fill:#e4d09f;opacity:0.47;}.cls-88{fill:#e4d0a0;opacity:0.47;}.cls-89{fill:#e5d0a1;opacity:0.46;}.cls-90{fill:#e5d1a2;opacity:0.45;}.cls-91{fill:#e5d1a3;opacity:0.44;}.cls-92{fill:#e5d1a4;opacity:0.43;}.cls-93{fill:#e5d2a5;opacity:0.42;}.cls-94{fill:#e5d2a6;opacity:0.42;}.cls-95{fill:#e5d3a7;opacity:0.41;}.cls-96{fill:#e5d3a8;opacity:0.4;}.cls-97{fill:#e6d3a9;opacity:0.39;}.cls-98{fill:#e6d4aa;opacity:0.38;}.cls-99{fill:#e6d4ab;opacity:0.37;}.cls-100{fill:#e6d4ac;opacity:0.36;}.cls-101{fill:#e6d5ad;opacity:0.36;}.cls-102{fill:#e6d5ae;opacity:0.35;}.cls-103{fill:#e6d5af;opacity:0.34;}.cls-104{fill:#e6d6b0;opacity:0.33;}.cls-105{fill:#e6d6b1;opacity:0.32;}.cls-106{fill:#e7d7b2;opacity:0.31;}.cls-107{fill:#e7d7b3;opacity:0.31;}.cls-108{fill:#e7d7b4;opacity:0.3;}.cls-109{fill:#e7d8b5;opacity:0.29;}.cls-110{fill:#e7d8b6;opacity:0.28;}.cls-111{fill:#e7d8b7;opacity:0.27;}.cls-112{fill:#e7d9b8;opacity:0.26;}.cls-113{fill:#e7d9b9;opacity:0.25;}.cls-114{fill:#e8d9ba;opacity:0.25;}.cls-115{fill:#e8dabb;opacity:0.24;}.cls-116{fill:#e8dabc;opacity:0.23;}.cls-117{fill:#e8dbbd;opacity:0.22;}.cls-118{fill:#e8dbbe;opacity:0.21;}.cls-119{fill:#e8dbbf;opacity:0.2;}.cls-120{fill:#e8dcc0;opacity:0.19;}.cls-121{fill:#e8dcc1;opacity:0.19;}.cls-122{fill:#e9dcc2;opacity:0.18;}.cls-123{fill:#e9ddc3;opacity:0.17;}.cls-124{fill:#e9ddc4;opacity:0.16;}.cls-125{fill:#e9ddc5;opacity:0.15;}.cls-126{fill:#e9dec6;opacity:0.14;}.cls-127{fill:#e9dec7;opacity:0.14;}.cls-128{fill:#e9dfc8;opacity:0.13;}.cls-129{fill:#e9dfc9;opacity:0.12;}.cls-130{fill:#e9dfca;opacity:0.11;}.cls-131{fill:#eae0cb;opacity:0.1;}.cls-132{fill:#eae0cc;opacity:0.09;}.cls-133{fill:#eae0cd;opacity:0.08;}.cls-134{fill:#eae1ce;opacity:0.08;}.cls-135{fill:#eae1cf;opacity:0.07;}.cls-136{fill:#eae1d0;opacity:0.06;}.cls-137{fill:#eae2d1;opacity:0.05;}.cls-138{fill:#eae2d2;opacity:0.04;}.cls-139{fill:#ebe3d3;opacity:0.03;}.cls-140{fill:#ebe3d4;opacity:0.03;}.cls-141{fill:#ebe3d5;opacity:0.02;}.cls-142{fill:#ebe4d6;opacity:0.01;}.cls-143{fill:#ebe4d7;opacity:0;}.cls-144{fill:url(#linear-gradient);}.cls-145{fill:url(#linear-gradient-2);}.cls-146{fill:url(#linear-gradient-3);}.cls-147{fill:url(#linear-gradient-4);}.cls-148{fill:url(#linear-gradient-5);}.cls-149{fill:url(#linear-gradient-6);}.cls-150{fill:url(#linear-gradient-7);}.cls-151{fill:url(#linear-gradient-8);}.cls-152{fill:url(#linear-gradient-9);}.cls-153{fill:url(#linear-gradient-10);}.cls-154{fill:url(#linear-gradient-11);}.cls-155{fill:url(#linear-gradient-12);}.cls-156{fill:url(#linear-gradient-13);}.cls-157{fill:url(#linear-gradient-14);}.cls-158{fill:url(#linear-gradient-15);}.cls-159{fill:url(#linear-gradient-16);}.cls-160{fill:url(#linear-gradient-17);}.cls-161{fill:url(#linear-gradient-18);}.cls-162{fill:url(#linear-gradient-19);}.cls-163{fill:url(#linear-gradient-20);}.cls-164{fill:url(#linear-gradient-21);}.cls-165{fill:url(#linear-gradient-22);}.cls-166{fill:url(#linear-gradient-23);}.cls-167{fill:url(#linear-gradient-24);}.cls-168{fill:url(#linear-gradient-25);}.cls-169{fill:url(#linear-gradient-26);}.cls-170{fill:url(#linear-gradient-27);}.cls-171{fill:url(#linear-gradient-28);}.cls-172{fill:url(#linear-gradient-29);}.cls-173{fill:url(#linear-gradient-30);}.cls-174{fill:url(#linear-gradient-31);}.cls-175{fill:url(#linear-gradient-32);}.cls-176{fill:url(#linear-gradient-33);}.cls-177{fill:url(#linear-gradient-34);}.cls-178{fill:url(#linear-gradient-35);}.cls-179{fill:url(#linear-gradient-36);}.cls-180{fill:url(#linear-gradient-37);}.cls-181{fill:url(#linear-gradient-38);}.cls-182{fill:url(#linear-gradient-39);}.cls-183{fill:url(#linear-gradient-40);}.cls-184{fill:url(#linear-gradient-41);}.cls-185{fill:url(#linear-gradient-42);}.cls-186{fill:url(#linear-gradient-43);}.cls-187{fill:url(#linear-gradient-44);}.cls-188{fill:url(#linear-gradient-45);}.cls-189{fill:url(#linear-gradient-46);}.cls-190{fill:url(#linear-gradient-47);}.cls-191{fill:url(#linear-gradient-48);}.cls-192{fill:url(#linear-gradient-49);}.cls-193{fill:url(#linear-gradient-50);}.cls-194{fill:url(#linear-gradient-51);}.cls-195{fill:url(#linear-gradient-52);}.cls-196{fill:url(#linear-gradient-53);}.cls-197{fill:url(#linear-gradient-54);}.cls-198{fill:url(#linear-gradient-55);}.cls-199{fill:url(#linear-gradient-56);}.cls-200{fill:url(#linear-gradient-57);}.cls-201{fill:url(#linear-gradient-58);}.cls-202{fill:url(#linear-gradient-59);}.cls-203{fill:url(#linear-gradient-60);}.cls-204{fill:url(#linear-gradient-61);}.cls-205{fill:url(#linear-gradient-62);}.cls-206{fill:url(#linear-gradient-63);}.cls-207{fill:url(#linear-gradient-64);}.cls-208{fill:url(#linear-gradient-65);}.cls-209{fill:url(#linear-gradient-66);}.cls-210{fill:url(#linear-gradient-67);}.cls-211{fill:url(#linear-gradient-68);}.cls-212{fill:url(#linear-gradient-69);}.cls-213{fill:url(#linear-gradient-70);}.cls-214{fill:url(#linear-gradient-71);}.cls-215{fill:url(#linear-gradient-72);}.cls-216{fill:url(#linear-gradient-73);}.cls-217{fill:url(#linear-gradient-74);}.cls-218{fill:url(#linear-gradient-75);}.cls-219{fill:url(#linear-gradient-76);}.cls-220{fill:url(#linear-gradient-77);}.cls-221{fill:url(#linear-gradient-78);}.cls-222{fill:url(#linear-gradient-79);}.cls-223{fill:url(#未命名的渐变_14-12);}.cls-224{fill:url(#未命名的渐变_14-13);}.cls-225{fill:url(#未命名的渐变_14-14);}.cls-226{fill:url(#未命名的渐变_14-15);}.cls-227{fill:url(#未命名的渐变_14-16);}.cls-228{fill:url(#未命名的渐变_14-17);}.cls-229{fill:url(#未命名的渐变_14-18);}.cls-230{fill:url(#未命名的渐变_14-19);}.cls-231{fill:url(#未命名的渐变_58-5);}.cls-232{fill:url(#未命名的渐变_58-6);}</style><linearGradient id="未命名的渐变_58" x1="140.35" y1="386.15" x2="515.61" y2="386.15" gradientUnits="userSpaceOnUse"><stop offset="0" stop-color="#bec3cc"/><stop offset="0.42" stop-color="#bec3cc"/><stop offset="0.49" stop-color="#ced2d9"/><stop offset="0.57" stop-color="#e4e6ea"/></linearGradient><linearGradient id="未命名的渐变_58-2" x1="464.31" y1="245.37" x2="609.64" y2="245.37" xlink:href="#未命名的渐变_58"/><linearGradient id="未命名的渐变_14" x1="-5191.74" y1="265.37" x2="-5111.99" y2="265.37" gradientTransform="matrix(-1, 0, 0, 1, -4702.01, 0)" gradientUnits="userSpaceOnUse"><stop offset="0.15" stop-color="#ddb962"/><stop offset="1" stop-color="#ebe4d7"/></linearGradient><linearGradient id="未命名的渐变_14-2" x1="-5189.61" y1="265.37" x2="-5114.13" y2="265.37" xlink:href="#未命名的渐变_14"/><linearGradient id="未命名的渐变_14-3" x1="-5206.19" y1="274.49" x2="-5126.45" y2="274.49" xlink:href="#未命名的渐变_14"/><linearGradient id="未命名的渐变_14-4" x1="-5204.06" y1="274.49" x2="-5128.58" y2="274.49" xlink:href="#未命名的渐变_14"/><linearGradient id="未命名的渐变_58-3" x1="209.34" y1="229.28" x2="64.01" y2="229.28" xlink:href="#未命名的渐变_58"/><linearGradient id="未命名的渐变_14-5" x1="182.28" y1="253.37" x2="262.03" y2="253.37" gradientTransform="matrix(1, 0, 0, 1, 0, 0)" xlink:href="#未命名的渐变_14"/><linearGradient id="未命名的渐变_14-6" x1="184.41" y1="253.37" x2="259.9" y2="253.37" gradientTransform="matrix(1, 0, 0, 1, 0, 0)" xlink:href="#未命名的渐变_14"/><linearGradient id="未命名的渐变_14-7" x1="167.83" y1="262.49" x2="247.58" y2="262.49" gradientTransform="matrix(1, 0, 0, 1, 0, 0)" xlink:href="#未命名的渐变_14"/><linearGradient id="未命名的渐变_14-8" x1="169.96" y1="262.49" x2="245.45" y2="262.49" gradientTransform="matrix(1, 0, 0, 1, 0, 0)" xlink:href="#未命名的渐变_14"/><linearGradient id="未命名的渐变_58-4" x1="204.38" y1="329.17" x2="449.99" y2="329.17" xlink:href="#未命名的渐变_58"/><linearGradient id="未命名的渐变_20" x1="264.72" y1="256.64" x2="389.65" y2="256.64" gradientTransform="matrix(1, 0, 0, 1, 0, 0)" xlink:href="#未命名的渐变_14"/><linearGradient id="未命名的渐变_14-9" x1="225.26" y1="305.15" x2="258.1" y2="305.15" gradientTransform="matrix(1, 0, 0, 1, 0, 0)" xlink:href="#未命名的渐变_14"/><linearGradient id="未命名的渐变_14-10" x1="908.96" y1="338.84" x2="954.42" y2="338.84" gradientTransform="translate(-573.52)" xlink:href="#未命名的渐变_14"/><linearGradient id="未命名的渐变_14-11" x1="418.97" y1="300.72" x2="431.83" y2="300.72" gradientTransform="matrix(1, 0, 0, 1, 0, 0)" xlink:href="#未命名的渐变_14"/><linearGradient id="linear-gradient" x1="290.66" y1="241.33" x2="292.03" y2="241.33" gradientUnits="userSpaceOnUse"><stop offset="0.15" stop-color="#ff9800"/><stop offset="1" stop-color="#ffc107"/></linearGradient><linearGradient id="linear-gradient-2" x1="296.24" y1="239.65" x2="297.8" y2="239.65" xlink:href="#linear-gradient"/><linearGradient id="linear-gradient-3" x1="312.71" y1="226.05" x2="314.88" y2="226.05" xlink:href="#linear-gradient"/><linearGradient id="linear-gradient-4" x1="288.36" y1="194.1" x2="289.57" y2="194.1" xlink:href="#linear-gradient"/><linearGradient id="linear-gradient-5" x1="283.33" y1="188.23" x2="284.55" y2="188.23" xlink:href="#linear-gradient"/><linearGradient id="linear-gradient-6" x1="276.55" y1="178.22" x2="277.92" y2="178.22" xlink:href="#linear-gradient"/><linearGradient id="linear-gradient-7" x1="301.78" y1="151.65" x2="302.3" y2="151.65" xlink:href="#linear-gradient"/><linearGradient id="linear-gradient-8" x1="304.78" y1="151.32" x2="305.31" y2="151.32" xlink:href="#linear-gradient"/><linearGradient id="linear-gradient-9" x1="314.06" y1="166.29" x2="314.59" y2="166.29" xlink:href="#linear-gradient"/><linearGradient id="linear-gradient-10" x1="321.23" y1="160.48" x2="322.14" y2="160.48" xlink:href="#linear-gradient"/><linearGradient id="linear-gradient-11" x1="318.39" y1="164.1" x2="319.09" y2="164.1" xlink:href="#linear-gradient"/><linearGradient id="linear-gradient-12" x1="325.1" y1="172.94" x2="325.96" y2="172.94" xlink:href="#linear-gradient"/><linearGradient id="linear-gradient-13" x1="316.01" y1="187.86" x2="316.9" y2="187.86" xlink:href="#linear-gradient"/><linearGradient id="linear-gradient-14" x1="310.21" y1="193.04" x2="311.3" y2="193.04" xlink:href="#linear-gradient"/><linearGradient id="linear-gradient-15" x1="334.25" y1="194.28" x2="335.08" y2="194.28" xlink:href="#linear-gradient"/><linearGradient id="linear-gradient-16" x1="306.47" y1="205.74" x2="308.1" y2="205.74" xlink:href="#linear-gradient"/><linearGradient id="linear-gradient-17" x1="318.68" y1="201.56" x2="320.13" y2="201.56" xlink:href="#linear-gradient"/><linearGradient id="linear-gradient-18" x1="329.71" y1="215.71" x2="331.24" y2="215.71" xlink:href="#linear-gradient"/><linearGradient id="linear-gradient-19" x1="350.98" y1="215.35" x2="352.02" y2="215.35" xlink:href="#linear-gradient"/><linearGradient id="linear-gradient-20" x1="345.79" y1="207.82" x2="346.62" y2="207.82" xlink:href="#linear-gradient"/><linearGradient id="linear-gradient-21" x1="354.25" y1="202.7" x2="354.83" y2="202.7" xlink:href="#linear-gradient"/><linearGradient id="linear-gradient-22" x1="357.35" y1="216.32" x2="358.4" y2="216.32" xlink:href="#linear-gradient"/><linearGradient id="linear-gradient-23" x1="370.43" y1="199.26" x2="370.91" y2="199.26" xlink:href="#linear-gradient"/><linearGradient id="linear-gradient-24" x1="371.7" y1="194.76" x2="372.18" y2="194.76" xlink:href="#linear-gradient"/><linearGradient id="linear-gradient-25" x1="379.96" y1="226.34" x2="381.54" y2="226.34" xlink:href="#linear-gradient"/><linearGradient id="linear-gradient-26" x1="382.83" y1="201.52" x2="383.43" y2="201.52" xlink:href="#linear-gradient"/><linearGradient id="linear-gradient-27" x1="379.89" y1="198.21" x2="380.38" y2="198.21" xlink:href="#linear-gradient"/><linearGradient id="linear-gradient-28" x1="387.69" y1="191.59" x2="388.33" y2="191.59" xlink:href="#linear-gradient"/><linearGradient id="linear-gradient-29" x1="369.9" y1="179.89" x2="370.7" y2="179.89" xlink:href="#linear-gradient"/><linearGradient id="linear-gradient-30" x1="369.98" y1="160.46" x2="371.25" y2="160.46" xlink:href="#linear-gradient"/><linearGradient id="linear-gradient-31" x1="375.17" y1="158.06" x2="376.48" y2="158.06" xlink:href="#linear-gradient"/><linearGradient id="linear-gradient-32" x1="374.4" y1="165.22" x2="375.65" y2="165.22" xlink:href="#linear-gradient"/><linearGradient id="linear-gradient-33" x1="369.34" y1="140.53" x2="370.41" y2="140.53" xlink:href="#linear-gradient"/><linearGradient id="linear-gradient-34" x1="370.28" y1="128.26" x2="371.3" y2="128.26" xlink:href="#linear-gradient"/><linearGradient id="linear-gradient-35" x1="366.36" y1="110.18" x2="367.29" y2="110.18" xlink:href="#linear-gradient"/><linearGradient id="linear-gradient-36" x1="358.3" y1="101.91" x2="359.21" y2="101.91" xlink:href="#linear-gradient"/><linearGradient id="linear-gradient-37" x1="362.01" y1="92.17" x2="362.92" y2="92.17" xlink:href="#linear-gradient"/><linearGradient id="linear-gradient-38" x1="343.68" y1="85.56" x2="344.27" y2="85.56" xlink:href="#linear-gradient"/><linearGradient id="linear-gradient-39" x1="348.27" y1="74.35" x2="348.93" y2="74.35" xlink:href="#linear-gradient"/><linearGradient id="linear-gradient-40" x1="351.25" y1="72.71" x2="351.97" y2="72.71" xlink:href="#linear-gradient"/><linearGradient id="linear-gradient-41" x1="316.77" y1="126.18" x2="317.78" y2="126.18" xlink:href="#linear-gradient"/><linearGradient id="linear-gradient-42" x1="311.72" y1="93.13" x2="312.73" y2="93.13" xlink:href="#linear-gradient"/><linearGradient id="linear-gradient-43" x1="306.96" y1="85.46" x2="308.28" y2="85.46" xlink:href="#linear-gradient"/><linearGradient id="linear-gradient-44" x1="317.29" y1="71.99" x2="318.52" y2="71.99" xlink:href="#linear-gradient"/><linearGradient id="linear-gradient-45" x1="327.11" y1="58.13" x2="328.57" y2="58.13" xlink:href="#linear-gradient"/><linearGradient id="linear-gradient-46" x1="296.37" y1="53.98" x2="297.22" y2="53.98" xlink:href="#linear-gradient"/><linearGradient id="linear-gradient-47" x1="311.35" y1="36.25" x2="312.82" y2="36.25" xlink:href="#linear-gradient"/><linearGradient id="linear-gradient-48" x1="363.76" y1="60.55" x2="364.8" y2="60.55" xlink:href="#linear-gradient"/><linearGradient id="linear-gradient-49" x1="363.13" y1="41.85" x2="364.67" y2="41.85" xlink:href="#linear-gradient"/><linearGradient id="linear-gradient-50" x1="339.1" y1="24.29" x2="340.24" y2="24.29" xlink:href="#linear-gradient"/><linearGradient id="linear-gradient-51" x1="369.35" y1="23.73" x2="370.71" y2="23.73" xlink:href="#linear-gradient"/><linearGradient id="linear-gradient-52" x1="283.39" y1="87.52" x2="284.95" y2="87.52" xlink:href="#linear-gradient"/><linearGradient id="linear-gradient-53" x1="270.58" y1="115.33" x2="271.61" y2="115.33" xlink:href="#linear-gradient"/><linearGradient id="linear-gradient-54" x1="267.38" y1="122.48" x2="268.54" y2="122.48" xlink:href="#linear-gradient"/><linearGradient id="linear-gradient-55" x1="270.7" y1="102.15" x2="271.9" y2="102.15" xlink:href="#linear-gradient"/><linearGradient id="linear-gradient-56" x1="276.83" y1="150.77" x2="278.1" y2="150.77" xlink:href="#linear-gradient"/><linearGradient id="linear-gradient-57" x1="277.79" y1="165.4" x2="278.97" y2="165.4" xlink:href="#linear-gradient"/><linearGradient id="linear-gradient-58" x1="278.23" y1="160.41" x2="279.33" y2="160.41" xlink:href="#linear-gradient"/><linearGradient id="linear-gradient-59" x1="305.32" y1="109.3" x2="306.12" y2="109.3" xlink:href="#linear-gradient"/><linearGradient id="linear-gradient-60" x1="309.35" y1="110.7" x2="310.15" y2="110.7" xlink:href="#linear-gradient"/><linearGradient id="linear-gradient-61" x1="306.18" y1="113.22" x2="306.96" y2="113.22" xlink:href="#linear-gradient"/><linearGradient id="linear-gradient-62" x1="293.68" y1="120.75" x2="294.36" y2="120.75" xlink:href="#linear-gradient"/><linearGradient id="linear-gradient-63" x1="283.64" y1="102.29" x2="284.64" y2="102.29" xlink:href="#linear-gradient"/><linearGradient id="linear-gradient-64" x1="332.18" y1="92.96" x2="332.79" y2="92.96" xlink:href="#linear-gradient"/><linearGradient id="linear-gradient-65" x1="330.81" y1="101.49" x2="331.66" y2="101.49" xlink:href="#linear-gradient"/><linearGradient id="linear-gradient-66" x1="337.75" y1="100.38" x2="338.57" y2="100.38" xlink:href="#linear-gradient"/><linearGradient id="linear-gradient-67" x1="340.74" y1="96.47" x2="341.43" y2="96.47" xlink:href="#linear-gradient"/><linearGradient id="linear-gradient-68" x1="384.24" y1="62.52" x2="385.19" y2="62.52" xlink:href="#linear-gradient"/><linearGradient id="linear-gradient-69" x1="385.05" y1="66.21" x2="386.07" y2="66.21" xlink:href="#linear-gradient"/><linearGradient id="linear-gradient-70" x1="275.87" y1="55.12" x2="276.84" y2="55.12" xlink:href="#linear-gradient"/><linearGradient id="linear-gradient-71" x1="275.94" y1="49.26" x2="276.88" y2="49.26" xlink:href="#linear-gradient"/><linearGradient id="linear-gradient-72" x1="278" y1="35.33" x2="278.91" y2="35.33" xlink:href="#linear-gradient"/><linearGradient id="linear-gradient-73" x1="277.87" y1="31.38" x2="278.83" y2="31.38" xlink:href="#linear-gradient"/><linearGradient id="linear-gradient-74" x1="286.22" y1="32.35" x2="287.07" y2="32.35" xlink:href="#linear-gradient"/><linearGradient id="linear-gradient-75" x1="269.32" y1="228.3" x2="269.92" y2="228.3" xlink:href="#linear-gradient"/><linearGradient id="linear-gradient-76" x1="281.24" y1="229.7" x2="282" y2="229.7" xlink:href="#linear-gradient"/><linearGradient id="linear-gradient-77" x1="296.24" y1="223.91" x2="297.64" y2="223.91" xlink:href="#linear-gradient"/><linearGradient id="linear-gradient-78" x1="288.15" y1="224.06" x2="289.06" y2="224.06" xlink:href="#linear-gradient"/><linearGradient id="linear-gradient-79" x1="289.63" y1="220.22" x2="290.58" y2="220.22" xlink:href="#linear-gradient"/><linearGradient id="未命名的渐变_14-12" x1="-4925.65" y1="405.42" x2="-4845.9" y2="405.42" xlink:href="#未命名的渐变_14"/><linearGradient id="未命名的渐变_14-13" x1="-4923.51" y1="405.42" x2="-4848.03" y2="405.42" xlink:href="#未命名的渐变_14"/><linearGradient id="未命名的渐变_14-14" x1="-4940.1" y1="414.55" x2="-4860.35" y2="414.55" xlink:href="#未命名的渐变_14"/><linearGradient id="未命名的渐变_14-15" x1="-4937.97" y1="414.55" x2="-4862.48" y2="414.55" xlink:href="#未命名的渐变_14"/><linearGradient id="未命名的渐变_14-16" x1="428.36" y1="407.78" x2="508.1" y2="407.78" gradientTransform="matrix(1, 0, 0, 1, 0, 0)" xlink:href="#未命名的渐变_14"/><linearGradient id="未命名的渐变_14-17" x1="430.49" y1="407.78" x2="505.97" y2="407.78" gradientTransform="matrix(1, 0, 0, 1, 0, 0)" xlink:href="#未命名的渐变_14"/><linearGradient id="未命名的渐变_14-18" x1="413.9" y1="416.9" x2="493.65" y2="416.9" gradientTransform="matrix(1, 0, 0, 1, 0, 0)" xlink:href="#未命名的渐变_14"/><linearGradient id="未命名的渐变_14-19" x1="416.04" y1="416.9" x2="491.52" y2="416.9" gradientTransform="matrix(1, 0, 0, 1, 0, 0)" xlink:href="#未命名的渐变_14"/><linearGradient id="未命名的渐变_58-5" x1="208.23" y1="473.77" x2="62.9" y2="473.77" xlink:href="#未命名的渐变_58"/><linearGradient id="未命名的渐变_58-6" x1="459.29" y1="469.17" x2="604.62" y2="469.17" xlink:href="#未命名的渐变_58"/></defs><title>【插图】页面元素插图</title><path class="cls-1" d="M144.22,341.85c-4.89-2.85-4.92-7.5-.05-10.33l173.4,53.07c4.87-2.85,12.89-2.85,17.82,0l176.53-49.7c4.91,2.83,4.92,7.5,0,10.33L336.07,442.49c-4.9,2.84-12.94,2.84-17.84,0Z"/><path class="cls-2" d="M511.91,327.32c4.92,2.86,4.93,7.5,0,10.37L336.06,435c-4.89,2.83-12.93,2.83-17.84,0l-174-100.68c-4.89-2.83-5-7.51-.05-10.33l176-97.27c4.87-2.89,12.89-2.89,17.8,0Z"/><path class="cls-3" d="M144.22,332.36c-4.89-2.86-4.92-7.49-.05-10.31l176-97.31c4.87-2.87,12.89-2.87,17.82,0l174,100.66c4.91,2.84,4.92,7.47,0,10.33L336.07,433c-4.9,2.86-12.94,2.86-17.84,0Z"/><path class="cls-4" d="M515.59,332.92c0,.1,0,.26,0,.37a1.21,1.21,0,0,1-.1.32,1.88,1.88,0,0,1-.08.44,1.39,1.39,0,0,0-.12.3,2.24,2.24,0,0,0-.2.37,5.51,5.51,0,0,0-.3.5l-.06.11c-.13.17-.3.32-.42.49l-.11.13c-.16.17-.31.34-.51.52s-.28.17-.39.29a2.46,2.46,0,0,0-.33.31l-.46.26a2.79,2.79,0,0,1-.51.36l-175,96.79v-.07c-.32.2-1.64.94-2.06,1.16-.14,0-.26.11-.39.11-.3.14-.63.26-1,.38a2.35,2.35,0,0,0-.37.14,4.61,4.61,0,0,1-.64.16c-.18.05-.35.12-.5.15s-.46.11-.71.2a2.09,2.09,0,0,0-.47.05,8.35,8.35,0,0,1-1.43.18c-.15,0-.31.06-.46.06s-.56,0-.83,0a3.76,3.76,0,0,1-.56,0h-.69a3.89,3.89,0,0,1-.6,0,2.88,2.88,0,0,1-.6,0,2.14,2.14,0,0,1-.62-.06l-.61,0c-.19-.06-.38-.06-.59-.11a5.58,5.58,0,0,1-.68-.1,2.11,2.11,0,0,1-.49-.09c-.28-.09-.54-.14-.79-.21l-.47-.14a12.5,12.5,0,0,1-1.3-.45,4.23,4.23,0,0,1-.64-.25,3.4,3.4,0,0,1-.34-.16c-.32-.12-2-1.15-2.36-1.31v0L144.22,334.28c-2.45-1.43-3.7-3.3-3.68-5.17l-.19,6.13c0,1.87,1.22,3.74,3.67,5.16L318,441.09v0l.9.48.32.12a2,2,0,0,0,.58.29.1.1,0,0,1,.08.05c.42.15.86.28,1.33.43h.08a.77.77,0,0,0,.39.11c.26.07.5.14.77.2.06,0,.11.06.19.06a1.06,1.06,0,0,1,.33.08,5.4,5.4,0,0,1,.63.08c.09,0,.21,0,.28,0h.34a1.48,1.48,0,0,0,.61.08,1.35,1.35,0,0,1,.29.05,1.67,1.67,0,0,1,.32,0c.19,0,.4,0,.59,0h1.86a4.78,4.78,0,0,0,.82-.09h.49c.47-.08.94-.12,1.42-.19h.05c.15,0,.31-.08.47-.1a5.84,5.84,0,0,1,.66-.15,2,2,0,0,1,.48-.11c.23-.11.44-.14.66-.23l.15,0a.33.33,0,0,0,.22-.09,4.37,4.37,0,0,0,1-.36.88.88,0,0,0,.35-.17c.21-.08.71-.34,1.19-.6v0l176-97.29.1-.09.37-.19a5.9,5.9,0,0,1,.47-.37c.09-.06.21-.16.32-.25a1.51,1.51,0,0,1,.39-.3l0-.06a4.62,4.62,0,0,0,.5-.48l.07-.11a1.05,1.05,0,0,0,.24-.27.41.41,0,0,1,.19-.2l0-.1a2,2,0,0,0,.3-.46l0-.08a3.15,3.15,0,0,1,.19-.37c0-.12.07-.19.08-.27l0-.05a3.12,3.12,0,0,0,.15-.39,1.19,1.19,0,0,1,0-.24.15.15,0,0,1,0-.09c0-.13,0-.25,0-.39s0-.15,0-.29v-.05l.16-6.14S515.6,332.78,515.59,332.92Z"/><path class="cls-1" d="M467,244.27c-3.37-1.94-3.39-5.12-.05-7.06l63.79-17.83a13.49,13.49,0,0,1,12.19,0l64.2,17.83c3.37,1.94,3.38,5.12,0,7.06l-63.78,37.06a13.45,13.45,0,0,1-12.2,0Z"/><path class="cls-2" d="M607.11,207.59c3.37,1.94,3.38,5.12,0,7.07l-63.78,37.07a13.48,13.48,0,0,1-12.2,0L467,214.66c-3.37-1.95-3.39-5.13,0-7.07l63.77-37.07a13.51,13.51,0,0,1,12.2,0Z"/><path class="cls-3" d="M467,211.83c-3.37-1.94-3.39-5.13-.05-7.07l63.79-37.06a13.43,13.43,0,0,1,12.19,0l64.2,37.06c3.37,2,3.38,5.13,0,7.07l-63.78,37.06a13.45,13.45,0,0,1-12.2,0Z"/><path class="cls-5" d="M609.62,211.4a2.66,2.66,0,0,1,0,.28.66.66,0,0,1-.06.2,2.29,2.29,0,0,1-.07.28c0,.07-.06.14-.08.21l-.13.27c-.07.12-.14.24-.22.36l0,.06a4.19,4.19,0,0,1-.28.34l-.06.08a4,4,0,0,1-.36.35l-.27.23-.24.18a3.37,3.37,0,0,1-.31.21l-.32.21L544,251.36h0c-.25.14-1.16.64-1.43.76l-.26.12a6.42,6.42,0,0,1-.66.24,1.14,1.14,0,0,1-.26.09l-.43.13-.35.09-.48.1-.32.07c-.32,0-.65.1-1,.13a3.16,3.16,0,0,1-.32,0l-.57,0h-1.26l-.43,0-.4,0-.43,0L535,253a3.54,3.54,0,0,1-.45-.08l-.36-.07-.54-.13-.29-.08c-.32-.09-.63-.2-.92-.31l-.43-.19-.23-.09c-.22-.11-1.41-.78-1.61-.9h0L467,214.66c-1.7-1-2.54-2.27-2.54-3.57l-.13,26.48c0,1.29.84,2.58,2.53,3.56l63.35,36.57h0l.31.18.54.31h0l.63.34.22.09.38.17.06,0c.29.11.6.22.91.31l.08,0,.24.07.52.12a.32.32,0,0,0,.14,0,1.55,1.55,0,0,0,.23,0l.43.07a1.38,1.38,0,0,0,.2,0,1.46,1.46,0,0,0,.22,0,2.71,2.71,0,0,0,.4,0l.22,0h.21l.41,0h1.12l.15,0,.57,0a1,1,0,0,1,.24,0h.08c.33,0,.66-.08,1-.14h.05l.29-.07a3.41,3.41,0,0,0,.46-.1l.35-.08.43-.13.1,0,.17,0c.22-.09.44-.17.65-.27l.25-.1c.15-.06.48-.24.81-.42h0L607,241.13l.1-.06.22-.15a3.37,3.37,0,0,0,.31-.21,1.43,1.43,0,0,0,.24-.19,3,3,0,0,0,.26-.21s0,0,.05-.05.22-.2.32-.3a.55.55,0,0,1,.06-.08,1.46,1.46,0,0,0,.16-.19l.12-.16,0-.06a1.75,1.75,0,0,0,.18-.29l0-.07.12-.26a.71.71,0,0,0,.07-.16.14.14,0,0,0,0-.06c0-.09,0-.18.08-.27a1.42,1.42,0,0,1,.05-.16v-.06a2.13,2.13,0,0,0,0-.25,1.54,1.54,0,0,0,0-.19v-.08l.13-26.47A2.11,2.11,0,0,1,609.62,211.4Z"/><g class="cls-6"><path class="cls-7" d="M556,252.12l3.21-1.86c1-.59,1.84-.11,1.84,1.05a4,4,0,0,1-1.83,3.18L556,256.34c-1,.58-1.84.11-1.84-1.06a4,4,0,0,1,1.83-3.16Z"/></g><g class="cls-6"><path class="cls-8" d="M556,258.94l3.21-1.86c1-.59,1.84-.11,1.84,1.05a4,4,0,0,1-1.83,3.17L556,263.15c-1,.59-1.84.12-1.84-1a4,4,0,0,1,1.83-3.16Z"/></g><g class="cls-6"><path class="cls-8" d="M546.72,257l3.21-1.85c1-.6,1.84-.13,1.84,1a4,4,0,0,1-1.83,3.18l-3.21,1.84c-1,.59-1.84.12-1.84-1a4,4,0,0,1,1.83-3.18Z"/></g><g class="cls-6"><path class="cls-8" d="M546.72,263.77l3.21-1.85c1-.59,1.84-.13,1.84,1a4,4,0,0,1-1.83,3.17L546.73,268c-1,.58-1.84.11-1.84-1.06a4,4,0,0,1,1.83-3.16Z"/></g><g class="cls-6"><path class="cls-8" d="M567.92,244.8l32.44-18.72c1-.59,1.84-.12,1.84,1a4,4,0,0,1-1.83,3.17L567.94,249c-1,.58-1.84.12-1.85-1.05a4.05,4.05,0,0,1,1.83-3.17Z"/></g><g class="cls-6"><path class="cls-8" d="M567.92,252l32.44-18.72c1-.58,1.84-.11,1.84,1.05a4,4,0,0,1-1.83,3.18l-32.43,18.71c-1,.59-1.84.13-1.85-1a4.07,4.07,0,0,1,1.83-3.18Z"/></g><path class="cls-9" d="M413.54,289.52a3.55,3.55,0,0,0,1.75-.46l72.64-41.19a3.56,3.56,0,0,0-3.51-6.19l-72.64,41.19a3.56,3.56,0,0,0,1.76,6.65Z"/><path class="cls-10" d="M413.54,287.39a1.41,1.41,0,0,0,.7-.19L486.88,246a1.42,1.42,0,0,0-.71-2.66,1.44,1.44,0,0,0-.7.19l-72.63,41.19a1.39,1.39,0,0,0-.67.85,1.42,1.42,0,0,0,1.37,1.81Z"/><path class="cls-11" d="M428,298.64a3.55,3.55,0,0,0,1.75-.46L502.38,257a3.56,3.56,0,0,0-3.51-6.19L426.24,292a3.56,3.56,0,0,0,1.75,6.65Z"/><path class="cls-12" d="M428,296.51a1.32,1.32,0,0,0,.7-.19l72.64-41.18a1.44,1.44,0,0,0,.67-.86,1.43,1.43,0,0,0-1.38-1.8,1.46,1.46,0,0,0-.7.18l-72.63,41.19a1.41,1.41,0,0,0-.67.86,1.42,1.42,0,0,0,1.37,1.8Z"/><path class="cls-1" d="M66.68,228.18c-3.37-1.94-3.38-5.12,0-7.06l63.78-17.83a13.51,13.51,0,0,1,12.2,0l64.19,17.83c3.37,1.94,3.39,5.12,0,7.06l-63.77,37.06a13.45,13.45,0,0,1-12.2,0Z"/><path class="cls-2" d="M206.81,191.5c3.37,1.94,3.38,5.12,0,7.07l-63.78,37.07a13.48,13.48,0,0,1-12.2,0L66.68,198.57c-3.37-1.95-3.38-5.13,0-7.07l63.77-37.07a13.54,13.54,0,0,1,12.21,0Z"/><path class="cls-3" d="M66.68,195.74c-3.37-1.94-3.38-5.13,0-7.07l63.78-37.06a13.45,13.45,0,0,1,12.2,0l64.19,37.06c3.37,2,3.39,5.13,0,7.07L143.08,232.8a13.45,13.45,0,0,1-12.2,0Z"/><path class="cls-13" d="M209.33,195.31a2.7,2.7,0,0,1,0,.28,1.17,1.17,0,0,1,0,.2,2.29,2.29,0,0,1-.08.28c0,.07-.06.14-.08.21l-.13.27c-.07.12-.14.24-.22.36l0,.06a2.79,2.79,0,0,1-.28.34l-.06.08a3,3,0,0,1-.36.35c-.08.08-.18.15-.27.23l-.24.18a2.4,2.4,0,0,1-.31.21l-.32.21-63.15,36.7h0c-.25.14-1.15.64-1.43.76l-.25.12a6.61,6.61,0,0,1-.67.24,1.25,1.25,0,0,1-.25.09l-.44.13-.34.09-.48.1-.33.07c-.32,0-.65.1-1,.13a3.16,3.16,0,0,1-.32,0l-.57,0h-1.26l-.43,0-.4,0-.43,0-.39-.06a3.4,3.4,0,0,1-.46-.08l-.35-.07-.55-.13-.29-.08c-.32-.09-.63-.2-.92-.31l-.43-.19-.23-.09c-.22-.11-1.41-.78-1.61-.9h0L66.68,198.57c-1.7-1-2.54-2.27-2.53-3.57L64,221.48c0,1.29.84,2.58,2.54,3.56l63.34,36.57h0l.31.18.54.31h0l.64.34.21.09a3.52,3.52,0,0,0,.39.17l.05,0c.3.11.6.22.92.31l.07,0,.24.07.52.12a.35.35,0,0,0,.14,0,1.55,1.55,0,0,0,.23.05l.44.07a1.08,1.08,0,0,0,.19,0,1.66,1.66,0,0,0,.22,0,2.85,2.85,0,0,0,.4,0l.22,0h.21c.14,0,.28,0,.42,0h1.12l.14,0,.57,0a1.1,1.1,0,0,1,.25,0h.07c.33,0,.66-.08,1-.14h.06l.28-.07a3.41,3.41,0,0,0,.46-.1l.35-.08L141,263l.1,0,.17-.05.66-.27.25-.1c.14-.06.47-.24.8-.42h0L206.72,225l.1-.06.22-.15a3.53,3.53,0,0,0,.32-.21,1.92,1.92,0,0,0,.23-.19,3,3,0,0,0,.26-.21l.06-.05.31-.3a.55.55,0,0,1,.06-.08,1.46,1.46,0,0,0,.16-.19l.12-.16a.21.21,0,0,0,0-.06,2.9,2.9,0,0,0,.19-.29l0-.07.12-.26.08-.16s0,0,0-.06.05-.18.07-.27a1.42,1.42,0,0,1,0-.16v-.06a1.07,1.07,0,0,0,0-.25c0-.07,0-.14,0-.19v-.08l.12-26.47C209.34,195.15,209.33,195.22,209.33,195.31Z"/><g class="cls-6"><path class="cls-7" d="M118.79,236.87,115.57,235c-1-.59-1.83-.12-1.84,1a4,4,0,0,0,1.84,3.18l3.2,1.85c1,.58,1.85.12,1.85-1.06a4.05,4.05,0,0,0-1.83-3.16Z"/></g><g class="cls-6"><path class="cls-8" d="M118.79,243.69l-3.22-1.86c-1-.59-1.83-.11-1.84,1a4,4,0,0,0,1.84,3.17l3.2,1.85c1,.59,1.85.12,1.85-1.05a4,4,0,0,0-1.83-3.16Z"/></g><g class="cls-6"><path class="cls-8" d="M128.06,241.7l-3.21-1.85c-1-.59-1.84-.13-1.84,1a4,4,0,0,0,1.83,3.18l3.21,1.84c1,.59,1.84.12,1.84-1a4,4,0,0,0-1.83-3.18Z"/></g><g class="cls-6"><path class="cls-8" d="M128.06,248.52l-3.21-1.85c-1-.59-1.84-.13-1.84,1a4,4,0,0,0,1.83,3.17l3.21,1.86c1,.58,1.84.11,1.84-1.05a4.05,4.05,0,0,0-1.83-3.17Z"/></g><g class="cls-6"><path class="cls-8" d="M106.85,229.55,74.42,210.83c-1-.59-1.84-.11-1.84,1.06a4,4,0,0,0,1.82,3.16l32.44,18.72c1,.58,1.84.12,1.84-1a4.07,4.07,0,0,0-1.83-3.18Z"/></g><g class="cls-6"><path class="cls-8" d="M106.85,236.76,74.42,218c-1-.58-1.84-.11-1.84,1.05a4,4,0,0,0,1.82,3.18L106.84,241c1,.58,1.84.12,1.84-1a4.07,4.07,0,0,0-1.83-3.17Z"/></g><path class="cls-14" d="M258.47,277.51a3.47,3.47,0,0,1-1.75-.46l-72.64-41.19a3.55,3.55,0,1,1,3.51-6.18l72.64,41.19a3.55,3.55,0,0,1-1.76,6.64Z"/><path class="cls-15" d="M258.47,275.38a1.43,1.43,0,0,1-.7-.18L185.14,234a1.43,1.43,0,0,1-.54-1.94,1.44,1.44,0,0,1,1.24-.72,1.34,1.34,0,0,1,.7.19l72.63,41.18a1.38,1.38,0,0,1,.67.86,1.36,1.36,0,0,1-.13,1.08A1.44,1.44,0,0,1,258.47,275.38Z"/><path class="cls-16" d="M244,286.64a3.55,3.55,0,0,1-1.75-.46L169.63,245a3.56,3.56,0,0,1,3.51-6.19L245.78,280a3.56,3.56,0,0,1-1.76,6.65Z"/><path class="cls-17" d="M244,284.5a1.43,1.43,0,0,1-.7-.18l-72.64-41.19a1.45,1.45,0,0,1-.67-.86,1.41,1.41,0,0,1,.14-1.08,1.41,1.41,0,0,1,1.94-.53l72.63,41.18a1.44,1.44,0,0,1,.67.86,1.42,1.42,0,0,1-1.37,1.8Z"/><path class="cls-18" d="M322.11,256.19l-91.57.45-25.91,71.89a6.65,6.65,0,0,0,3.08,7.58l114.4,66.05a10.18,10.18,0,0,0,10.16,0l114.39-66.05a6.65,6.65,0,0,0,3.08-7.58l-25.91-71.89-91.56-.45A10.14,10.14,0,0,0,322.11,256.19Z"/><path class="cls-8" d="M431,276.17l-99.16,57.25a9.38,9.38,0,0,1-9.39,0l-99.16-57.25-9.37,26a6.15,6.15,0,0,0,2.84,7l105.69,61a9.43,9.43,0,0,0,9.39,0l105.69-61a6.16,6.16,0,0,0,2.85-7Z"/><path class="cls-3" d="M323.31,200.86l-90.85,52.45a3.84,3.84,0,0,0,0,6.65l90.85,52.45a7.74,7.74,0,0,0,7.76,0L421.91,260a3.84,3.84,0,0,0,0-6.65l-90.84-52.45A7.79,7.79,0,0,0,323.31,200.86Z"/><path class="cls-8" d="M324,210.89l-74.51,43a3.14,3.14,0,0,0,0,5.45l74.51,43a6.36,6.36,0,0,0,6.37,0l74.51-43a3.14,3.14,0,0,0,0-5.45l-74.51-43A6.36,6.36,0,0,0,324,210.89Z"/><path class="cls-19" d="M324.68,220.59,266,254.49a2.48,2.48,0,0,0,0,4.29l58.72,33.9a5,5,0,0,0,5,0l58.72-33.9a2.48,2.48,0,0,0,0-4.29l-58.72-33.9A5,5,0,0,0,324.68,220.59Z"/><path class="cls-20" d="M266,255.91,324.68,222a5,5,0,0,1,5,0l58.72,33.9a2.42,2.42,0,0,1,1.13,1.44,2.48,2.48,0,0,0-1.13-2.86l-58.72-33.9a5,5,0,0,0-5,0L266,254.49a2.46,2.46,0,0,0-1.12,2.86A2.44,2.44,0,0,1,266,255.91Z"/><path class="cls-20" d="M404.88,257.23l-74.51,43a6.41,6.41,0,0,1-6.37,0l-74.51-43a3,3,0,0,1-1.36-1.66,3.11,3.11,0,0,0,1.36,3.79l74.51,43a6.36,6.36,0,0,0,6.37,0l74.51-43a3.11,3.11,0,0,0,1.36-3.79A3,3,0,0,1,404.88,257.23Z"/><path class="cls-21" d="M232.55,286.45l3.94,2.27-7.29,20.52L225.26,307Zm-.88,24.22,3.93,2.22,5.62-16-3.94-2.28Zm6.4,3.65,3.94,2.22,4.06-11.39-3.95-2.28Zm6.41,3.65,3.93,2.22,6.41-18-3.94-2.28Zm6.4,3.65,3.94,2.22,3.28-9.12-3.94-2.27Z"/><path class="cls-22" d="M374.79,316.77c0,.3-1.34,1.48-1.57,1.78-.5.64-1,1.28-1.52,1.93-.91,1.23-1.19,2.95-2,4.29a7,7,0,0,1-3.41,3,11.85,11.85,0,0,1-3.14.51,7.47,7.47,0,0,0-3.07.75c-1.91,1.08-2.11,3.89-2.68,5.79a7,7,0,0,1-1.14,2.54,6.54,6.54,0,0,1-2.25,1.54,11.3,11.3,0,0,1-2.42.93c-1.65.38-3.37.12-5,.31a9.38,9.38,0,0,0-6.36,3.64,24.33,24.33,0,0,0-1.49,2.38,36,36,0,0,1-2.52,3.62,3.06,3.06,0,0,0-.71,2.62l0,8.49,45.46-26.7Z"/><polygon class="cls-23" points="269.86 308.02 284.76 316.63 283.75 319.45 268.84 310.84 269.86 308.02"/><polygon class="cls-23" points="267.16 315.4 281.73 323.84 281.2 325.31 266.63 316.86 267.16 315.4"/><polygon class="cls-7" points="283.03 324.58 287.01 326.9 286.49 328.36 282.51 326.03 283.03 324.58"/><polygon class="cls-7" points="290.62 333.26 292.34 334.3 291.82 335.76 290.09 334.72 290.62 333.26"/><polygon class="cls-7" points="293.25 334.86 294.98 335.9 294.46 337.36 292.73 336.32 293.25 334.86"/><polygon class="cls-23" points="265.87 318.92 273.6 323.38 273.07 324.84 265.35 320.38 265.87 318.92"/><polygon class="cls-23" points="275.17 324.3 289.76 332.7 289.23 334.16 274.65 325.76 275.17 324.3"/><polygon class="cls-23" points="281.84 332.43 296.42 340.83 295.9 342.29 281.32 333.89 281.84 332.43"/><polygon class="cls-23" points="297.46 341.42 309.27 348.2 308.75 349.66 296.94 342.88 297.46 341.42"/><polygon class="cls-23" points="296 336.49 310.58 344.89 310.06 346.35 295.48 337.95 296 336.49"/><polygon class="cls-23" points="288.86 327.98 296.59 332.44 296.06 333.9 288.34 329.44 288.86 327.98"/><polygon class="cls-23" points="297.74 333.18 311.77 341.23 311.25 342.69 297.21 334.63 297.74 333.18"/><polygon class="cls-23" points="264.58 322.44 267.77 324.3 267.25 325.76 264.06 323.9 264.58 322.44"/><polygon class="cls-7" points="277.33 329.81 280.51 331.67 279.99 333.13 276.8 331.27 277.33 329.81"/><polygon class="cls-7" points="268.71 324.84 276.44 329.3 275.91 330.76 268.19 326.3 268.71 324.84"/><polygon class="cls-7" points="288.75 340.57 296.47 345.03 295.95 346.49 288.22 342.03 288.75 340.57"/><polygon class="cls-7" points="297.32 345.54 308.04 351.72 307.51 353.18 296.8 347 297.32 345.54"/><polygon class="cls-23" points="263.3 325.96 271.02 330.42 270.5 331.88 262.77 327.42 263.3 325.96"/><polygon class="cls-23" points="272.43 331.2 287.27 339.67 286.75 341.13 271.91 332.65 272.43 331.2"/><polygon class="cls-7" points="412.29 300.26 408.31 302.59 408.83 304.05 412.81 301.72 412.29 300.26"/><polygon class="cls-7" points="404.7 308.95 402.98 309.99 403.5 311.45 405.23 310.41 404.7 308.95"/><polygon class="cls-7" points="402.07 310.55 400.34 311.59 400.86 313.05 402.59 312.01 402.07 310.55"/><polygon class="cls-23" points="413.6 303.73 405.57 308.38 406.09 309.85 414.12 305.18 413.6 303.73"/><polygon class="cls-23" points="414.9 307.37 398.9 316.51 399.42 317.98 415.43 308.82 414.9 307.37"/><polygon class="cls-23" points="397.86 317.11 386.05 323.89 386.57 325.35 398.38 318.57 397.86 317.11"/><polygon class="cls-23" points="399.32 312.18 384.74 320.58 385.26 322.04 399.84 313.64 399.32 312.18"/><polygon class="cls-23" points="406.46 303.67 398.73 308.13 399.26 309.59 406.98 305.13 406.46 303.67"/><polygon class="cls-23" points="397.58 308.86 383.55 316.92 384.07 318.38 398.11 310.32 397.58 308.86"/><polygon class="cls-7" points="407.3 315.84 403.7 317.96 404.22 319.42 407.83 317.3 407.3 315.84"/><polygon class="cls-7" points="402.85 318.46 401.93 318.98 402.45 320.44 403.37 319.92 402.85 318.46"/><polygon class="cls-23" points="400.71 319.61 387.28 327.41 387.81 328.87 401.24 321.07 400.71 319.61"/><polygon class="cls-23" points="416.12 310.72 408.05 315.36 408.57 316.82 416.65 312.18 416.12 310.72"/><path class="cls-23" d="M425.06,308.08a5.76,5.76,0,0,1-2.73-.69,6.87,6.87,0,0,1-3.33-4.51c-.9-3.8,1.11-7.9,4.48-9.15a5.81,5.81,0,0,1,4.81.32,6.79,6.79,0,0,1,3.32,4.5h0c.91,3.8-1.1,7.9-4.48,9.15A6,6,0,0,1,425.06,308.08Zm.5-12.17a3.56,3.56,0,0,0-1.19.21,5.28,5.28,0,0,0-2.88,6.17,4.31,4.31,0,0,0,2,2.85,3.27,3.27,0,0,0,2.72.17c2.2-.82,3.49-3.58,2.88-6.17h0a4.3,4.3,0,0,0-2.05-2.84A3.18,3.18,0,0,0,425.56,295.91Z"/><path class="cls-24" d="M425.06,308.08a5.76,5.76,0,0,1-2.73-.69,6.87,6.87,0,0,1-3.33-4.51,1.28,1.28,0,0,1,2.49-.59,4.31,4.31,0,0,0,2,2.85,3.27,3.27,0,0,0,2.72.17c2.2-.82,3.49-3.58,2.88-6.17a4.3,4.3,0,0,0-2.05-2.84,3.21,3.21,0,0,0-2.71-.18,1.28,1.28,0,1,1-.89-2.39,5.81,5.81,0,0,1,4.81.32,6.79,6.79,0,0,1,3.32,4.5c.91,3.8-1.1,7.9-4.48,9.15A6,6,0,0,1,425.06,308.08Z"/><g class="cls-25"><path class="cls-7" d="M325.33,221.88l-58.71,33.9a2.48,2.48,0,0,0,0,4.29L325.33,294a5,5,0,0,0,5,0l58.71-33.9a2.47,2.47,0,0,0,0-4.29l-58.71-33.9A5,5,0,0,0,325.33,221.88Z"/><path class="cls-26" d="M325.33,220.64l-58.71,33.9a2.48,2.48,0,0,0,0,4.29l58.71,33.9a5,5,0,0,0,5,0l58.71-33.9a2.47,2.47,0,0,0,0-4.29l-58.71-33.9A5,5,0,0,0,325.33,220.64Z"/><path class="cls-27" d="M325.33,219.4l-58.71,33.89a2.49,2.49,0,0,0,0,4.3l58.71,33.9a5.05,5.05,0,0,0,5,0l58.71-33.9a2.48,2.48,0,0,0,0-4.3L330.35,219.4A5,5,0,0,0,325.33,219.4Z"/><path class="cls-28" d="M325.33,218.15l-58.71,33.9a2.49,2.49,0,0,0,0,4.3l58.71,33.9a5.05,5.05,0,0,0,5,0l58.71-33.9a2.48,2.48,0,0,0,0-4.3l-58.71-33.9A5.05,5.05,0,0,0,325.33,218.15Z"/><path class="cls-29" d="M325.33,216.91l-58.71,33.9a2.49,2.49,0,0,0,0,4.3L325.33,289a5.05,5.05,0,0,0,5,0l58.71-33.9a2.48,2.48,0,0,0,0-4.3l-58.71-33.9A5.05,5.05,0,0,0,325.33,216.91Z"/><path class="cls-30" d="M325.33,215.67l-58.71,33.9a2.48,2.48,0,0,0,0,4.29l58.71,33.9a5,5,0,0,0,5,0l58.71-33.9a2.47,2.47,0,0,0,0-4.29l-58.71-33.9A5,5,0,0,0,325.33,215.67Z"/><path class="cls-31" d="M325.33,214.43l-58.71,33.9a2.48,2.48,0,0,0,0,4.29l58.71,33.9a5,5,0,0,0,5,0l58.71-33.9a2.47,2.47,0,0,0,0-4.29l-58.71-33.9A5,5,0,0,0,325.33,214.43Z"/><path class="cls-32" d="M325.33,213.19l-58.71,33.9a2.48,2.48,0,0,0,0,4.29l58.71,33.9a5,5,0,0,0,5,0l58.71-33.9a2.47,2.47,0,0,0,0-4.29l-58.71-33.9A5,5,0,0,0,325.33,213.19Z"/><path class="cls-33" d="M325.33,212l-58.71,33.89a2.49,2.49,0,0,0,0,4.3L325.33,284a5,5,0,0,0,5,0l58.71-33.9a2.48,2.48,0,0,0,0-4.3L330.35,212A5,5,0,0,0,325.33,212Z"/><path class="cls-34" d="M325.33,210.7l-58.71,33.9a2.49,2.49,0,0,0,0,4.3l58.71,33.9a5.05,5.05,0,0,0,5,0l58.71-33.9a2.48,2.48,0,0,0,0-4.3l-58.71-33.9A5.05,5.05,0,0,0,325.33,210.7Z"/><path class="cls-35" d="M325.33,209.46l-58.71,33.9a2.49,2.49,0,0,0,0,4.3l58.71,33.9a5.05,5.05,0,0,0,5,0l58.71-33.9a2.48,2.48,0,0,0,0-4.3l-58.71-33.9A5.05,5.05,0,0,0,325.33,209.46Z"/><path class="cls-36" d="M325.33,208.22l-58.71,33.9a2.49,2.49,0,0,0,0,4.3l58.71,33.89a5,5,0,0,0,5,0l58.71-33.89a2.48,2.48,0,0,0,0-4.3l-58.71-33.9A5.05,5.05,0,0,0,325.33,208.22Z"/><path class="cls-37" d="M325.33,207l-58.71,33.9a2.48,2.48,0,0,0,0,4.29l58.71,33.9a5,5,0,0,0,5,0l58.71-33.9a2.47,2.47,0,0,0,0-4.29L330.35,207A5,5,0,0,0,325.33,207Z"/><path class="cls-38" d="M325.33,205.74l-58.71,33.9a2.48,2.48,0,0,0,0,4.29l58.71,33.9a5,5,0,0,0,5,0l58.71-33.9a2.47,2.47,0,0,0,0-4.29l-58.71-33.9A5,5,0,0,0,325.33,205.74Z"/><path class="cls-39" d="M325.33,204.5l-58.71,33.9a2.48,2.48,0,0,0,0,4.29l58.71,33.9a5,5,0,0,0,5,0l58.71-33.9a2.47,2.47,0,0,0,0-4.29l-58.71-33.9A5,5,0,0,0,325.33,204.5Z"/><path class="cls-40" d="M325.33,203.26l-58.71,33.89a2.49,2.49,0,0,0,0,4.3l58.71,33.9a5.05,5.05,0,0,0,5,0l58.71-33.9a2.48,2.48,0,0,0,0-4.3l-58.71-33.89A5,5,0,0,0,325.33,203.26Z"/><path class="cls-41" d="M325.33,202l-58.71,33.9a2.49,2.49,0,0,0,0,4.3l58.71,33.9a5.05,5.05,0,0,0,5,0l58.71-33.9a2.48,2.48,0,0,0,0-4.3L330.35,202A5.05,5.05,0,0,0,325.33,202Z"/><path class="cls-42" d="M325.33,200.77l-58.71,33.9a2.49,2.49,0,0,0,0,4.3l58.71,33.9a5.05,5.05,0,0,0,5,0L389.06,239a2.48,2.48,0,0,0,0-4.3l-58.71-33.9A5.05,5.05,0,0,0,325.33,200.77Z"/><path class="cls-43" d="M325.33,199.53l-58.71,33.9a2.49,2.49,0,0,0,0,4.3l58.71,33.89a5,5,0,0,0,5,0l58.71-33.89a2.48,2.48,0,0,0,0-4.3l-58.71-33.9A5.05,5.05,0,0,0,325.33,199.53Z"/><path class="cls-44" d="M325.33,198.29l-58.71,33.9a2.48,2.48,0,0,0,0,4.29l58.71,33.9a5,5,0,0,0,5,0l58.71-33.9a2.47,2.47,0,0,0,0-4.29l-58.71-33.9A5,5,0,0,0,325.33,198.29Z"/><path class="cls-45" d="M325.33,197.05,266.62,231a2.48,2.48,0,0,0,0,4.29l58.71,33.9a5,5,0,0,0,5,0l58.71-33.9a2.47,2.47,0,0,0,0-4.29l-58.71-33.9A5,5,0,0,0,325.33,197.05Z"/><path class="cls-46" d="M325.33,195.81l-58.71,33.9a2.48,2.48,0,0,0,0,4.29l58.71,33.9a5,5,0,0,0,5,0L389.06,234a2.47,2.47,0,0,0,0-4.29l-58.71-33.9A5,5,0,0,0,325.33,195.81Z"/><path class="cls-47" d="M325.33,194.57l-58.71,33.89a2.49,2.49,0,0,0,0,4.3l58.71,33.9a5.05,5.05,0,0,0,5,0l58.71-33.9a2.48,2.48,0,0,0,0-4.3l-58.71-33.89A5,5,0,0,0,325.33,194.57Z"/><path class="cls-48" d="M325.33,193.32l-58.71,33.9a2.49,2.49,0,0,0,0,4.3l58.71,33.9a5.05,5.05,0,0,0,5,0l58.71-33.9a2.48,2.48,0,0,0,0-4.3l-58.71-33.9A5.05,5.05,0,0,0,325.33,193.32Z"/><path class="cls-49" d="M325.33,192.08,266.62,226a2.49,2.49,0,0,0,0,4.3l58.71,33.9a5.05,5.05,0,0,0,5,0l58.71-33.9a2.48,2.48,0,0,0,0-4.3l-58.71-33.9A5.05,5.05,0,0,0,325.33,192.08Z"/><path class="cls-50" d="M325.33,190.84l-58.71,33.9a2.49,2.49,0,0,0,0,4.3l58.71,33.89a5,5,0,0,0,5,0L389.06,229a2.48,2.48,0,0,0,0-4.3l-58.71-33.9A5.05,5.05,0,0,0,325.33,190.84Z"/><path class="cls-51" d="M325.33,189.6l-58.71,33.9a2.48,2.48,0,0,0,0,4.29l58.71,33.9a5,5,0,0,0,5,0l58.71-33.9a2.47,2.47,0,0,0,0-4.29l-58.71-33.9A5,5,0,0,0,325.33,189.6Z"/><path class="cls-52" d="M325.33,188.36l-58.71,33.9a2.48,2.48,0,0,0,0,4.29l58.71,33.9a5,5,0,0,0,5,0l58.71-33.9a2.47,2.47,0,0,0,0-4.29l-58.71-33.9A5,5,0,0,0,325.33,188.36Z"/><path class="cls-53" d="M325.33,187.12,266.62,221a2.48,2.48,0,0,0,0,4.29l58.71,33.9a5,5,0,0,0,5,0l58.71-33.9a2.47,2.47,0,0,0,0-4.29l-58.71-33.9A5,5,0,0,0,325.33,187.12Z"/><path class="cls-54" d="M325.33,185.88l-58.71,33.89a2.49,2.49,0,0,0,0,4.3L325.33,258a5.05,5.05,0,0,0,5,0l58.71-33.9a2.48,2.48,0,0,0,0-4.3l-58.71-33.89A5,5,0,0,0,325.33,185.88Z"/><path class="cls-55" d="M325.33,184.63l-58.71,33.9a2.49,2.49,0,0,0,0,4.3l58.71,33.9a5.05,5.05,0,0,0,5,0l58.71-33.9a2.48,2.48,0,0,0,0-4.3l-58.71-33.9A5.05,5.05,0,0,0,325.33,184.63Z"/><path class="cls-56" d="M325.33,183.39l-58.71,33.9a2.49,2.49,0,0,0,0,4.3l58.71,33.9a5.05,5.05,0,0,0,5,0l58.71-33.9a2.48,2.48,0,0,0,0-4.3l-58.71-33.9A5.05,5.05,0,0,0,325.33,183.39Z"/><path class="cls-57" d="M325.33,182.15l-58.71,33.9a2.49,2.49,0,0,0,0,4.3l58.71,33.89a5,5,0,0,0,5,0l58.71-33.89a2.48,2.48,0,0,0,0-4.3l-58.71-33.9A5,5,0,0,0,325.33,182.15Z"/><path class="cls-58" d="M325.33,180.91l-58.71,33.9a2.48,2.48,0,0,0,0,4.29L325.33,253a5,5,0,0,0,5,0l58.71-33.9a2.47,2.47,0,0,0,0-4.29l-58.71-33.9A5,5,0,0,0,325.33,180.91Z"/><path class="cls-59" d="M325.33,179.67l-58.71,33.9a2.48,2.48,0,0,0,0,4.29l58.71,33.9a5,5,0,0,0,5,0l58.71-33.9a2.47,2.47,0,0,0,0-4.29l-58.71-33.9A5,5,0,0,0,325.33,179.67Z"/><path class="cls-60" d="M325.33,178.43l-58.71,33.9a2.48,2.48,0,0,0,0,4.29l58.71,33.9a5,5,0,0,0,5,0l58.71-33.9a2.47,2.47,0,0,0,0-4.29l-58.71-33.9A5,5,0,0,0,325.33,178.43Z"/><path class="cls-61" d="M325.33,177.19l-58.71,33.89a2.49,2.49,0,0,0,0,4.3l58.71,33.9a5.05,5.05,0,0,0,5,0l58.71-33.9a2.48,2.48,0,0,0,0-4.3l-58.71-33.89A5,5,0,0,0,325.33,177.19Z"/><path class="cls-62" d="M325.33,175.94l-58.71,33.9a2.49,2.49,0,0,0,0,4.3L325.33,248a5.05,5.05,0,0,0,5,0l58.71-33.9a2.48,2.48,0,0,0,0-4.3l-58.71-33.9A5.05,5.05,0,0,0,325.33,175.94Z"/><path class="cls-63" d="M325.33,174.7l-58.71,33.9a2.49,2.49,0,0,0,0,4.3l58.71,33.89a5,5,0,0,0,5,0l58.71-33.89a2.48,2.48,0,0,0,0-4.3l-58.71-33.9A5.05,5.05,0,0,0,325.33,174.7Z"/><path class="cls-64" d="M325.33,173.46l-58.71,33.9a2.48,2.48,0,0,0,0,4.29l58.71,33.9a5,5,0,0,0,5,0l58.71-33.9a2.47,2.47,0,0,0,0-4.29l-58.71-33.9A5,5,0,0,0,325.33,173.46Z"/><path class="cls-65" d="M325.33,172.22l-58.71,33.9a2.48,2.48,0,0,0,0,4.29l58.71,33.9a5,5,0,0,0,5,0l58.71-33.9a2.47,2.47,0,0,0,0-4.29l-58.71-33.9A5,5,0,0,0,325.33,172.22Z"/><path class="cls-66" d="M325.33,171l-58.71,33.9a2.48,2.48,0,0,0,0,4.29l58.71,33.9a5,5,0,0,0,5,0l58.71-33.9a2.47,2.47,0,0,0,0-4.29L330.35,171A5,5,0,0,0,325.33,171Z"/><path class="cls-67" d="M325.33,169.74l-58.71,33.89a2.49,2.49,0,0,0,0,4.3l58.71,33.9a5.05,5.05,0,0,0,5,0l58.71-33.9a2.48,2.48,0,0,0,0-4.3l-58.71-33.89A5,5,0,0,0,325.33,169.74Z"/><path class="cls-68" d="M325.33,168.49l-58.71,33.9a2.49,2.49,0,0,0,0,4.3l58.71,33.9a5.05,5.05,0,0,0,5,0l58.71-33.9a2.48,2.48,0,0,0,0-4.3l-58.71-33.9A5.05,5.05,0,0,0,325.33,168.49Z"/><path class="cls-69" d="M325.33,167.25l-58.71,33.9a2.49,2.49,0,0,0,0,4.3l58.71,33.9a5.05,5.05,0,0,0,5,0l58.71-33.9a2.48,2.48,0,0,0,0-4.3l-58.71-33.9A5.05,5.05,0,0,0,325.33,167.25Z"/><path class="cls-70" d="M325.33,166l-58.71,33.9a2.49,2.49,0,0,0,0,4.3l58.71,33.89a5,5,0,0,0,5,0l58.71-33.89a2.48,2.48,0,0,0,0-4.3L330.35,166A5.05,5.05,0,0,0,325.33,166Z"/><path class="cls-71" d="M325.33,164.77l-58.71,33.9a2.48,2.48,0,0,0,0,4.29l58.71,33.9a5,5,0,0,0,5,0L389.06,203a2.47,2.47,0,0,0,0-4.29l-58.71-33.9A5,5,0,0,0,325.33,164.77Z"/><path class="cls-72" d="M325.33,163.53l-58.71,33.9a2.48,2.48,0,0,0,0,4.29l58.71,33.9a5,5,0,0,0,5,0l58.71-33.9a2.47,2.47,0,0,0,0-4.29l-58.71-33.9A5,5,0,0,0,325.33,163.53Z"/><path class="cls-73" d="M325.33,162.29l-58.71,33.9a2.48,2.48,0,0,0,0,4.29l58.71,33.9a5,5,0,0,0,5,0l58.71-33.9a2.47,2.47,0,0,0,0-4.29l-58.71-33.9A5,5,0,0,0,325.33,162.29Z"/><path class="cls-74" d="M325.33,161.05l-58.71,33.89a2.49,2.49,0,0,0,0,4.3l58.71,33.9a5.05,5.05,0,0,0,5,0l58.71-33.9a2.48,2.48,0,0,0,0-4.3l-58.71-33.89A5,5,0,0,0,325.33,161.05Z"/><path class="cls-75" d="M325.33,159.8l-58.71,33.9a2.49,2.49,0,0,0,0,4.3l58.71,33.9a5.05,5.05,0,0,0,5,0L389.06,198a2.48,2.48,0,0,0,0-4.3l-58.71-33.9A5.05,5.05,0,0,0,325.33,159.8Z"/><path class="cls-76" d="M325.33,158.56l-58.71,33.9a2.49,2.49,0,0,0,0,4.3l58.71,33.9a5.05,5.05,0,0,0,5,0l58.71-33.9a2.48,2.48,0,0,0,0-4.3l-58.71-33.9A5.05,5.05,0,0,0,325.33,158.56Z"/><path class="cls-77" d="M325.33,157.32l-58.71,33.9a2.49,2.49,0,0,0,0,4.3l58.71,33.89a5,5,0,0,0,5,0l58.71-33.89a2.48,2.48,0,0,0,0-4.3l-58.71-33.9A5.05,5.05,0,0,0,325.33,157.32Z"/><path class="cls-78" d="M325.33,156.08,266.62,190a2.48,2.48,0,0,0,0,4.29l58.71,33.9a5,5,0,0,0,5,0l58.71-33.9a2.47,2.47,0,0,0,0-4.29l-58.71-33.9A5,5,0,0,0,325.33,156.08Z"/><path class="cls-79" d="M325.33,154.84l-58.71,33.9a2.48,2.48,0,0,0,0,4.29l58.71,33.9a5,5,0,0,0,5,0L389.06,193a2.47,2.47,0,0,0,0-4.29l-58.71-33.9A5,5,0,0,0,325.33,154.84Z"/><path class="cls-80" d="M325.33,153.6l-58.71,33.9a2.48,2.48,0,0,0,0,4.29l58.71,33.9a5,5,0,0,0,5,0l58.71-33.9a2.47,2.47,0,0,0,0-4.29l-58.71-33.9A5,5,0,0,0,325.33,153.6Z"/><path class="cls-81" d="M325.33,152.36l-58.71,33.89a2.49,2.49,0,0,0,0,4.3l58.71,33.9a5.05,5.05,0,0,0,5,0l58.71-33.9a2.48,2.48,0,0,0,0-4.3l-58.71-33.89A5,5,0,0,0,325.33,152.36Z"/><path class="cls-82" d="M325.33,151.11,266.62,185a2.49,2.49,0,0,0,0,4.3l58.71,33.9a5.05,5.05,0,0,0,5,0l58.71-33.9a2.48,2.48,0,0,0,0-4.3l-58.71-33.9A5.05,5.05,0,0,0,325.33,151.11Z"/><path class="cls-83" d="M325.33,149.87l-58.71,33.9a2.49,2.49,0,0,0,0,4.3L325.33,222a5.05,5.05,0,0,0,5,0l58.71-33.9a2.48,2.48,0,0,0,0-4.3l-58.71-33.9A5.05,5.05,0,0,0,325.33,149.87Z"/><path class="cls-84" d="M325.33,148.63l-58.71,33.9a2.49,2.49,0,0,0,0,4.3l58.71,33.89a5,5,0,0,0,5,0l58.71-33.89a2.48,2.48,0,0,0,0-4.3l-58.71-33.9A5,5,0,0,0,325.33,148.63Z"/><path class="cls-85" d="M325.33,147.39l-58.71,33.9a2.48,2.48,0,0,0,0,4.29l58.71,33.9a5,5,0,0,0,5,0l58.71-33.9a2.47,2.47,0,0,0,0-4.29l-58.71-33.9A5,5,0,0,0,325.33,147.39Z"/><path class="cls-86" d="M325.33,146.15l-58.71,33.9a2.48,2.48,0,0,0,0,4.29l58.71,33.9a5,5,0,0,0,5,0l58.71-33.9a2.47,2.47,0,0,0,0-4.29l-58.71-33.9A5,5,0,0,0,325.33,146.15Z"/><path class="cls-87" d="M325.33,144.91l-58.71,33.9a2.48,2.48,0,0,0,0,4.29L325.33,217a5,5,0,0,0,5,0l58.71-33.9a2.47,2.47,0,0,0,0-4.29l-58.71-33.9A5,5,0,0,0,325.33,144.91Z"/><path class="cls-88" d="M325.33,143.67l-58.71,33.89a2.49,2.49,0,0,0,0,4.3l58.71,33.9a5.05,5.05,0,0,0,5,0l58.71-33.9a2.48,2.48,0,0,0,0-4.3l-58.71-33.89A5,5,0,0,0,325.33,143.67Z"/><path class="cls-89" d="M325.33,142.42l-58.71,33.9a2.49,2.49,0,0,0,0,4.3l58.71,33.9a5.05,5.05,0,0,0,5,0l58.71-33.9a2.48,2.48,0,0,0,0-4.3l-58.71-33.9A5.05,5.05,0,0,0,325.33,142.42Z"/><path class="cls-90" d="M325.33,141.18l-58.71,33.9a2.49,2.49,0,0,0,0,4.3l58.71,33.89a5,5,0,0,0,5,0l58.71-33.89a2.48,2.48,0,0,0,0-4.3l-58.71-33.9A5.05,5.05,0,0,0,325.33,141.18Z"/><path class="cls-91" d="M325.33,139.94l-58.71,33.9a2.48,2.48,0,0,0,0,4.29L325.33,212a5,5,0,0,0,5,0l58.71-33.9a2.47,2.47,0,0,0,0-4.29l-58.71-33.9A5,5,0,0,0,325.33,139.94Z"/><path class="cls-92" d="M325.33,138.7l-58.71,33.9a2.48,2.48,0,0,0,0,4.29l58.71,33.9a5,5,0,0,0,5,0l58.71-33.9a2.47,2.47,0,0,0,0-4.29l-58.71-33.9A5,5,0,0,0,325.33,138.7Z"/><path class="cls-93" d="M325.33,137.46l-58.71,33.9a2.48,2.48,0,0,0,0,4.29l58.71,33.9a5,5,0,0,0,5,0l58.71-33.9a2.47,2.47,0,0,0,0-4.29l-58.71-33.9A5,5,0,0,0,325.33,137.46Z"/><path class="cls-94" d="M325.33,136.22l-58.71,33.89a2.49,2.49,0,0,0,0,4.3l58.71,33.9a5,5,0,0,0,5,0l58.71-33.9a2.48,2.48,0,0,0,0-4.3l-58.71-33.89A5,5,0,0,0,325.33,136.22Z"/><path class="cls-95" d="M325.33,135l-58.71,33.9a2.49,2.49,0,0,0,0,4.3l58.71,33.9a5.05,5.05,0,0,0,5,0l58.71-33.9a2.48,2.48,0,0,0,0-4.3L330.35,135A5.05,5.05,0,0,0,325.33,135Z"/><path class="cls-96" d="M325.33,133.73l-58.71,33.9a2.49,2.49,0,0,0,0,4.3l58.71,33.9a5.05,5.05,0,0,0,5,0l58.71-33.9a2.48,2.48,0,0,0,0-4.3l-58.71-33.9A5.05,5.05,0,0,0,325.33,133.73Z"/><path class="cls-97" d="M325.33,132.49l-58.71,33.9a2.49,2.49,0,0,0,0,4.3l58.71,33.89a5,5,0,0,0,5,0l58.71-33.89a2.48,2.48,0,0,0,0-4.3l-58.71-33.9A5.05,5.05,0,0,0,325.33,132.49Z"/><path class="cls-98" d="M325.33,131.25l-58.71,33.9a2.48,2.48,0,0,0,0,4.29l58.71,33.9a5,5,0,0,0,5,0l58.71-33.9a2.47,2.47,0,0,0,0-4.29l-58.71-33.9A5,5,0,0,0,325.33,131.25Z"/><path class="cls-99" d="M325.33,130l-58.71,33.9a2.48,2.48,0,0,0,0,4.29l58.71,33.9a5,5,0,0,0,5,0l58.71-33.9a2.47,2.47,0,0,0,0-4.29L330.35,130A5,5,0,0,0,325.33,130Z"/><path class="cls-100" d="M325.33,128.77l-58.71,33.9a2.48,2.48,0,0,0,0,4.29l58.71,33.9a5,5,0,0,0,5,0L389.06,167a2.47,2.47,0,0,0,0-4.29l-58.71-33.9A5,5,0,0,0,325.33,128.77Z"/><path class="cls-101" d="M325.33,127.53l-58.71,33.89a2.49,2.49,0,0,0,0,4.3l58.71,33.9a5.05,5.05,0,0,0,5,0l58.71-33.9a2.48,2.48,0,0,0,0-4.3l-58.71-33.89A5,5,0,0,0,325.33,127.53Z"/><path class="cls-102" d="M325.33,126.28l-58.71,33.9a2.49,2.49,0,0,0,0,4.3l58.71,33.9a5.05,5.05,0,0,0,5,0l58.71-33.9a2.48,2.48,0,0,0,0-4.3l-58.71-33.9A5.05,5.05,0,0,0,325.33,126.28Z"/><path class="cls-103" d="M325.33,125l-58.71,33.9a2.49,2.49,0,0,0,0,4.3l58.71,33.9a5.05,5.05,0,0,0,5,0l58.71-33.9a2.48,2.48,0,0,0,0-4.3L330.35,125A5.05,5.05,0,0,0,325.33,125Z"/><path class="cls-104" d="M325.33,123.8l-58.71,33.9a2.49,2.49,0,0,0,0,4.3l58.71,33.89a5,5,0,0,0,5,0L389.06,162a2.48,2.48,0,0,0,0-4.3l-58.71-33.9A5.05,5.05,0,0,0,325.33,123.8Z"/><path class="cls-105" d="M325.33,122.56l-58.71,33.9a2.48,2.48,0,0,0,0,4.29l58.71,33.9a5,5,0,0,0,5,0l58.71-33.9a2.47,2.47,0,0,0,0-4.29l-58.71-33.9A5,5,0,0,0,325.33,122.56Z"/><path class="cls-106" d="M325.33,121.32l-58.71,33.9a2.48,2.48,0,0,0,0,4.29l58.71,33.9a5,5,0,0,0,5,0l58.71-33.9a2.47,2.47,0,0,0,0-4.29l-58.71-33.9A5,5,0,0,0,325.33,121.32Z"/><path class="cls-107" d="M325.33,120.08,266.62,154a2.48,2.48,0,0,0,0,4.29l58.71,33.9a5,5,0,0,0,5,0l58.71-33.9a2.47,2.47,0,0,0,0-4.29l-58.71-33.9A5,5,0,0,0,325.33,120.08Z"/><path class="cls-108" d="M325.33,118.84l-58.71,33.89a2.49,2.49,0,0,0,0,4.3l58.71,33.9a5.05,5.05,0,0,0,5,0L389.06,157a2.48,2.48,0,0,0,0-4.3l-58.71-33.89A5,5,0,0,0,325.33,118.84Z"/><path class="cls-109" d="M325.33,117.59l-58.71,33.9a2.49,2.49,0,0,0,0,4.3l58.71,33.9a5.05,5.05,0,0,0,5,0l58.71-33.9a2.48,2.48,0,0,0,0-4.3l-58.71-33.9A5.05,5.05,0,0,0,325.33,117.59Z"/><path class="cls-110" d="M325.33,116.35l-58.71,33.9a2.49,2.49,0,0,0,0,4.3l58.71,33.9a5.05,5.05,0,0,0,5,0l58.71-33.9a2.48,2.48,0,0,0,0-4.3l-58.71-33.9A5.05,5.05,0,0,0,325.33,116.35Z"/><path class="cls-111" d="M325.33,115.11,266.62,149a2.49,2.49,0,0,0,0,4.3l58.71,33.89a5,5,0,0,0,5,0l58.71-33.89a2.48,2.48,0,0,0,0-4.3l-58.71-33.9A5,5,0,0,0,325.33,115.11Z"/><path class="cls-112" d="M325.33,113.87l-58.71,33.9a2.48,2.48,0,0,0,0,4.29L325.33,186a5,5,0,0,0,5,0l58.71-33.9a2.47,2.47,0,0,0,0-4.29l-58.71-33.9A5,5,0,0,0,325.33,113.87Z"/><path class="cls-113" d="M325.33,112.63l-58.71,33.9a2.48,2.48,0,0,0,0,4.29l58.71,33.9a5,5,0,0,0,5,0l58.71-33.9a2.47,2.47,0,0,0,0-4.29l-58.71-33.9A5,5,0,0,0,325.33,112.63Z"/><path class="cls-114" d="M325.33,111.39l-58.71,33.9a2.48,2.48,0,0,0,0,4.29l58.71,33.9a5,5,0,0,0,5,0l58.71-33.9a2.47,2.47,0,0,0,0-4.29l-58.71-33.9A5,5,0,0,0,325.33,111.39Z"/><path class="cls-115" d="M325.33,110.15,266.62,144a2.49,2.49,0,0,0,0,4.3l58.71,33.9a5.05,5.05,0,0,0,5,0l58.71-33.9a2.48,2.48,0,0,0,0-4.3l-58.71-33.89A5,5,0,0,0,325.33,110.15Z"/><path class="cls-116" d="M325.33,108.9l-58.71,33.9a2.49,2.49,0,0,0,0,4.3L325.33,181a5.05,5.05,0,0,0,5,0l58.71-33.9a2.48,2.48,0,0,0,0-4.3l-58.71-33.9A5.05,5.05,0,0,0,325.33,108.9Z"/><path class="cls-117" d="M325.33,107.66l-58.71,33.9a2.49,2.49,0,0,0,0,4.3l58.71,33.89a5,5,0,0,0,5,0l58.71-33.89a2.48,2.48,0,0,0,0-4.3l-58.71-33.9A5.05,5.05,0,0,0,325.33,107.66Z"/><path class="cls-118" d="M325.33,106.42l-58.71,33.9a2.48,2.48,0,0,0,0,4.29l58.71,33.9a5,5,0,0,0,5,0l58.71-33.9a2.47,2.47,0,0,0,0-4.29l-58.71-33.9A5,5,0,0,0,325.33,106.42Z"/><path class="cls-119" d="M325.33,105.18l-58.71,33.9a2.48,2.48,0,0,0,0,4.29l58.71,33.9a5,5,0,0,0,5,0l58.71-33.9a2.47,2.47,0,0,0,0-4.29l-58.71-33.9A5,5,0,0,0,325.33,105.18Z"/><path class="cls-120" d="M325.33,103.94l-58.71,33.9a2.48,2.48,0,0,0,0,4.29L325.33,176a5,5,0,0,0,5,0l58.71-33.9a2.47,2.47,0,0,0,0-4.29l-58.71-33.9A5,5,0,0,0,325.33,103.94Z"/><path class="cls-121" d="M325.33,102.7l-58.71,33.89a2.49,2.49,0,0,0,0,4.3l58.71,33.9a5,5,0,0,0,5,0l58.71-33.9a2.48,2.48,0,0,0,0-4.3L330.35,102.7A5,5,0,0,0,325.33,102.7Z"/><path class="cls-122" d="M325.33,101.45l-58.71,33.9a2.49,2.49,0,0,0,0,4.3l58.71,33.9a5.05,5.05,0,0,0,5,0l58.71-33.9a2.48,2.48,0,0,0,0-4.3l-58.71-33.9A5.05,5.05,0,0,0,325.33,101.45Z"/><path class="cls-123" d="M325.33,100.21l-58.71,33.9a2.49,2.49,0,0,0,0,4.3l58.71,33.9a5.05,5.05,0,0,0,5,0l58.71-33.9a2.48,2.48,0,0,0,0-4.3l-58.71-33.9A5.05,5.05,0,0,0,325.33,100.21Z"/><path class="cls-124" d="M325.33,99l-58.71,33.9a2.49,2.49,0,0,0,0,4.3l58.71,33.89a5,5,0,0,0,5,0l58.71-33.89a2.48,2.48,0,0,0,0-4.3L330.35,99A5.05,5.05,0,0,0,325.33,99Z"/><path class="cls-125" d="M325.33,97.73l-58.71,33.9a2.48,2.48,0,0,0,0,4.29l58.71,33.9a5,5,0,0,0,5,0l58.71-33.9a2.47,2.47,0,0,0,0-4.29l-58.71-33.9A5,5,0,0,0,325.33,97.73Z"/><path class="cls-126" d="M325.33,96.49l-58.71,33.9a2.48,2.48,0,0,0,0,4.29l58.71,33.9a5,5,0,0,0,5,0l58.71-33.9a2.47,2.47,0,0,0,0-4.29l-58.71-33.9A5,5,0,0,0,325.33,96.49Z"/><path class="cls-127" d="M325.33,95.25l-58.71,33.9a2.48,2.48,0,0,0,0,4.29l58.71,33.9a5,5,0,0,0,5,0l58.71-33.9a2.47,2.47,0,0,0,0-4.29l-58.71-33.9A5,5,0,0,0,325.33,95.25Z"/><path class="cls-128" d="M325.33,94,266.62,127.9a2.49,2.49,0,0,0,0,4.3l58.71,33.9a5.05,5.05,0,0,0,5,0l58.71-33.9a2.48,2.48,0,0,0,0-4.3L330.35,94A5,5,0,0,0,325.33,94Z"/><path class="cls-129" d="M325.33,92.76l-58.71,33.9a2.49,2.49,0,0,0,0,4.3l58.71,33.9a5.05,5.05,0,0,0,5,0L389.06,131a2.48,2.48,0,0,0,0-4.3l-58.71-33.9A5.05,5.05,0,0,0,325.33,92.76Z"/><path class="cls-130" d="M325.33,91.52l-58.71,33.9a2.49,2.49,0,0,0,0,4.3l58.71,33.9a5.05,5.05,0,0,0,5,0l58.71-33.9a2.48,2.48,0,0,0,0-4.3l-58.71-33.9A5.05,5.05,0,0,0,325.33,91.52Z"/><path class="cls-131" d="M325.33,90.28l-58.71,33.9a2.49,2.49,0,0,0,0,4.3l58.71,33.89a5,5,0,0,0,5,0l58.71-33.89a2.48,2.48,0,0,0,0-4.3l-58.71-33.9A5.05,5.05,0,0,0,325.33,90.28Z"/><path class="cls-132" d="M325.33,89l-58.71,33.9a2.48,2.48,0,0,0,0,4.29l58.71,33.9a5,5,0,0,0,5,0l58.71-33.9a2.47,2.47,0,0,0,0-4.29L330.35,89A5,5,0,0,0,325.33,89Z"/><path class="cls-133" d="M325.33,87.8l-58.71,33.9a2.48,2.48,0,0,0,0,4.29l58.71,33.9a5,5,0,0,0,5,0L389.06,126a2.47,2.47,0,0,0,0-4.29L330.35,87.8A5,5,0,0,0,325.33,87.8Z"/><path class="cls-134" d="M325.33,86.56l-58.71,33.9a2.48,2.48,0,0,0,0,4.29l58.71,33.9a5,5,0,0,0,5,0l58.71-33.9a2.47,2.47,0,0,0,0-4.29l-58.71-33.9A5,5,0,0,0,325.33,86.56Z"/><path class="cls-135" d="M325.33,85.32l-58.71,33.89a2.49,2.49,0,0,0,0,4.3l58.71,33.9a5.05,5.05,0,0,0,5,0l58.71-33.9a2.48,2.48,0,0,0,0-4.3L330.35,85.32A5,5,0,0,0,325.33,85.32Z"/><path class="cls-136" d="M325.33,84.07,266.62,118a2.49,2.49,0,0,0,0,4.3l58.71,33.9a5.05,5.05,0,0,0,5,0l58.71-33.9a2.48,2.48,0,0,0,0-4.3l-58.71-33.9A5.05,5.05,0,0,0,325.33,84.07Z"/><path class="cls-137" d="M325.33,82.83l-58.71,33.9a2.49,2.49,0,0,0,0,4.3l58.71,33.9a5.05,5.05,0,0,0,5,0L389.06,121a2.48,2.48,0,0,0,0-4.3l-58.71-33.9A5.05,5.05,0,0,0,325.33,82.83Z"/><path class="cls-138" d="M325.33,81.59l-58.71,33.9a2.49,2.49,0,0,0,0,4.3l58.71,33.89a5,5,0,0,0,5,0l58.71-33.89a2.48,2.48,0,0,0,0-4.3l-58.71-33.9A5,5,0,0,0,325.33,81.59Z"/><path class="cls-139" d="M325.33,80.35l-58.71,33.9a2.48,2.48,0,0,0,0,4.29l58.71,33.9a5,5,0,0,0,5,0l58.71-33.9a2.47,2.47,0,0,0,0-4.29l-58.71-33.9A5,5,0,0,0,325.33,80.35Z"/><path class="cls-140" d="M325.33,79.11,266.62,113a2.48,2.48,0,0,0,0,4.29l58.71,33.9a5,5,0,0,0,5,0l58.71-33.9a2.47,2.47,0,0,0,0-4.29l-58.71-33.9A5,5,0,0,0,325.33,79.11Z"/><path class="cls-141" d="M325.33,77.87l-58.71,33.9a2.48,2.48,0,0,0,0,4.29L325.33,150a5,5,0,0,0,5,0l58.71-33.9a2.47,2.47,0,0,0,0-4.29l-58.71-33.9A5,5,0,0,0,325.33,77.87Z"/><path class="cls-142" d="M325.33,76.63l-58.71,33.89a2.49,2.49,0,0,0,0,4.3l58.71,33.9a5.05,5.05,0,0,0,5,0l58.71-33.9a2.48,2.48,0,0,0,0-4.3L330.35,76.63A5,5,0,0,0,325.33,76.63Z"/><path class="cls-143" d="M325.33,75.38l-58.71,33.9a2.49,2.49,0,0,0,0,4.3l58.71,33.9a5.05,5.05,0,0,0,5,0l58.71-33.9a2.48,2.48,0,0,0,0-4.3l-58.71-33.9A5.05,5.05,0,0,0,325.33,75.38Z"/></g><path class="cls-144" d="M292,241.33a.69.69,0,0,1-.69.68.69.69,0,0,1,0-1.37A.69.69,0,0,1,292,241.33Z"/><path class="cls-145" d="M297.8,239.65a.78.78,0,1,1-.78-.78A.78.78,0,0,1,297.8,239.65Z"/><path class="cls-146" d="M314.88,226.05a1.09,1.09,0,0,1-2.17,0,1.09,1.09,0,1,1,2.17,0Z"/><path class="cls-147" d="M289.57,194.1a.61.61,0,1,1-.6-.61A.6.6,0,0,1,289.57,194.1Z"/><path class="cls-148" d="M284.55,188.23a.61.61,0,0,1-1.22,0,.61.61,0,1,1,1.22,0Z"/><path class="cls-149" d="M277.92,178.22a.69.69,0,1,1-.68-.68A.68.68,0,0,1,277.92,178.22Z"/><path class="cls-150" d="M302.3,151.65a.26.26,0,0,1-.52,0,.26.26,0,0,1,.52,0Z"/><path class="cls-151" d="M305.31,151.32a.27.27,0,1,1-.53,0,.27.27,0,0,1,.53,0Z"/><path class="cls-152" d="M314.59,166.29a.27.27,0,0,1-.53,0,.27.27,0,0,1,.53,0Z"/><path class="cls-153" d="M322.14,160.48a.46.46,0,0,1-.45.46.47.47,0,0,1-.46-.46.46.46,0,0,1,.46-.45A.45.45,0,0,1,322.14,160.48Z"/><path class="cls-154" d="M319.09,164.1a.35.35,0,0,1-.35.35.35.35,0,0,1,0-.7A.35.35,0,0,1,319.09,164.1Z"/><path class="cls-155" d="M326,172.94a.43.43,0,1,1-.43-.43A.43.43,0,0,1,326,172.94Z"/><circle class="cls-156" cx="316.46" cy="187.86" r="0.45"/><path class="cls-157" d="M311.3,193a.54.54,0,0,1-.54.54.55.55,0,0,1-.55-.54.55.55,0,0,1,.55-.55A.55.55,0,0,1,311.3,193Z"/><circle class="cls-158" cx="334.66" cy="194.28" r="0.41"/><path class="cls-159" d="M308.1,205.74a.82.82,0,0,1-.82.82.82.82,0,0,1-.81-.82.81.81,0,0,1,.81-.81A.82.82,0,0,1,308.1,205.74Z"/><circle class="cls-160" cx="319.4" cy="201.56" r="0.72"/><path class="cls-161" d="M331.24,215.71a.77.77,0,0,1-.77.76.76.76,0,0,1-.76-.76.77.77,0,0,1,.76-.77A.78.78,0,0,1,331.24,215.71Z"/><path class="cls-162" d="M352,215.35a.52.52,0,0,1-.52.52.52.52,0,1,1,0-1A.52.52,0,0,1,352,215.35Z"/><path class="cls-163" d="M346.62,207.82a.41.41,0,0,1-.41.41.41.41,0,0,1-.42-.41.42.42,0,0,1,.42-.42A.41.41,0,0,1,346.62,207.82Z"/><path class="cls-164" d="M354.83,202.7a.29.29,0,1,1-.29-.29A.29.29,0,0,1,354.83,202.7Z"/><path class="cls-165" d="M358.4,216.32a.53.53,0,1,1-.53-.52A.52.52,0,0,1,358.4,216.32Z"/><path class="cls-166" d="M370.91,199.26a.24.24,0,0,1-.24.24.24.24,0,0,1,0-.48A.24.24,0,0,1,370.91,199.26Z"/><path class="cls-167" d="M372.18,194.76a.23.23,0,0,1-.24.24.24.24,0,0,1-.24-.24.24.24,0,0,1,.24-.24A.24.24,0,0,1,372.18,194.76Z"/><path class="cls-168" d="M381.54,226.34a.79.79,0,1,1-.79-.78A.79.79,0,0,1,381.54,226.34Z"/><path class="cls-169" d="M383.43,201.52a.3.3,0,1,1-.3-.31A.3.3,0,0,1,383.43,201.52Z"/><path class="cls-170" d="M380.38,198.21a.25.25,0,1,1-.24-.24A.25.25,0,0,1,380.38,198.21Z"/><path class="cls-171" d="M388.33,191.59a.32.32,0,0,1-.32.32.33.33,0,0,1-.32-.32.32.32,0,0,1,.32-.32A.32.32,0,0,1,388.33,191.59Z"/><path class="cls-172" d="M370.7,179.89a.4.4,0,0,1-.8,0,.4.4,0,0,1,.8,0Z"/><path class="cls-173" d="M371.25,160.46a.64.64,0,1,1-.63-.63A.63.63,0,0,1,371.25,160.46Z"/><path class="cls-174" d="M376.48,158.06a.66.66,0,1,1-.65-.66A.66.66,0,0,1,376.48,158.06Z"/><circle class="cls-175" cx="375.03" cy="165.22" r="0.62"/><path class="cls-176" d="M370.41,140.53a.54.54,0,1,1-.54-.54A.54.54,0,0,1,370.41,140.53Z"/><circle class="cls-177" cx="370.79" cy="128.26" r="0.51"/><path class="cls-178" d="M367.29,110.18a.47.47,0,1,1-.93,0,.47.47,0,0,1,.93,0Z"/><path class="cls-179" d="M359.21,101.91a.46.46,0,1,1-.91,0,.46.46,0,0,1,.91,0Z"/><circle class="cls-180" cx="362.47" cy="92.17" r="0.45"/><path class="cls-181" d="M344.27,85.56a.3.3,0,1,1-.29-.29A.29.29,0,0,1,344.27,85.56Z"/><path class="cls-182" d="M348.93,74.35a.33.33,0,0,1-.66,0,.33.33,0,1,1,.66,0Z"/><path class="cls-183" d="M352,72.71a.36.36,0,1,1-.36-.36A.36.36,0,0,1,352,72.71Z"/><circle class="cls-184" cx="317.28" cy="126.18" r="0.5"/><path class="cls-185" d="M312.73,93.13a.5.5,0,0,1-.5.51.51.51,0,1,1,0-1A.5.5,0,0,1,312.73,93.13Z"/><path class="cls-186" d="M308.28,85.46a.66.66,0,1,1-1.32,0,.66.66,0,0,1,1.32,0Z"/><path class="cls-187" d="M318.52,72a.61.61,0,0,1-.62.61.61.61,0,0,1-.61-.61.61.61,0,0,1,.61-.62A.62.62,0,0,1,318.52,72Z"/><path class="cls-188" d="M328.57,58.13a.73.73,0,1,1-.73-.73A.73.73,0,0,1,328.57,58.13Z"/><path class="cls-189" d="M297.22,54a.43.43,0,1,1-.85,0,.43.43,0,0,1,.85,0Z"/><path class="cls-190" d="M312.82,36.25a.74.74,0,1,1-.74-.73A.74.74,0,0,1,312.82,36.25Z"/><circle class="cls-191" cx="364.28" cy="60.55" r="0.52"/><path class="cls-192" d="M364.67,41.85a.77.77,0,0,1-1.54,0,.77.77,0,0,1,1.54,0Z"/><path class="cls-193" d="M340.24,24.29a.58.58,0,0,1-.57.57.57.57,0,0,1-.57-.57.56.56,0,0,1,.57-.57A.57.57,0,0,1,340.24,24.29Z"/><circle class="cls-194" cx="370.03" cy="23.73" r="0.68"/><path class="cls-195" d="M285,87.52a.78.78,0,1,1-.78-.78A.78.78,0,0,1,285,87.52Z"/><path class="cls-196" d="M271.61,115.33a.52.52,0,1,1-.51-.51A.51.51,0,0,1,271.61,115.33Z"/><path class="cls-197" d="M268.54,122.48a.58.58,0,1,1-.58-.57A.58.58,0,0,1,268.54,122.48Z"/><path class="cls-198" d="M271.9,102.15a.6.6,0,1,1-.6-.6A.6.6,0,0,1,271.9,102.15Z"/><path class="cls-199" d="M278.1,150.77a.64.64,0,0,1-.63.64.64.64,0,0,1-.64-.64.64.64,0,0,1,.64-.63A.63.63,0,0,1,278.1,150.77Z"/><circle class="cls-200" cx="278.38" cy="165.4" r="0.59"/><path class="cls-201" d="M279.33,160.41a.55.55,0,1,1-1.1,0,.55.55,0,1,1,1.1,0Z"/><circle class="cls-202" cx="305.72" cy="109.3" r="0.4"/><circle class="cls-203" cx="309.75" cy="110.7" r="0.4"/><path class="cls-204" d="M307,113.22a.39.39,0,1,1-.39-.39A.39.39,0,0,1,307,113.22Z"/><path class="cls-205" d="M294.36,120.75a.34.34,0,1,1-.34-.34A.34.34,0,0,1,294.36,120.75Z"/><circle class="cls-206" cx="284.14" cy="102.29" r="0.5"/><path class="cls-207" d="M332.79,93a.31.31,0,0,1-.61,0,.31.31,0,0,1,.61,0Z"/><circle class="cls-208" cx="331.23" cy="101.49" r="0.42"/><path class="cls-209" d="M338.57,100.38a.41.41,0,1,1-.41-.41A.41.41,0,0,1,338.57,100.38Z"/><path class="cls-210" d="M341.43,96.47a.35.35,0,1,1-.35-.34A.35.35,0,0,1,341.43,96.47Z"/><circle class="cls-211" cx="384.72" cy="62.52" r="0.48"/><path class="cls-212" d="M386.07,66.21a.51.51,0,1,1-.51-.51A.51.51,0,0,1,386.07,66.21Z"/><circle class="cls-213" cx="276.35" cy="55.12" r="0.49"/><circle class="cls-214" cx="276.41" cy="49.26" r="0.47"/><path class="cls-215" d="M278.91,35.33a.46.46,0,1,1-.46-.46A.46.46,0,0,1,278.91,35.33Z"/><circle class="cls-216" cx="278.35" cy="31.38" r="0.48"/><path class="cls-217" d="M287.07,32.35a.43.43,0,1,1-.42-.42A.42.42,0,0,1,287.07,32.35Z"/><path class="cls-218" d="M269.92,228.3a.3.3,0,1,1-.6,0,.3.3,0,1,1,.6,0Z"/><path class="cls-219" d="M282,229.7a.38.38,0,1,1-.38-.38A.38.38,0,0,1,282,229.7Z"/><path class="cls-220" d="M297.64,223.91a.7.7,0,1,1-.7-.7A.7.7,0,0,1,297.64,223.91Z"/><circle class="cls-221" cx="288.6" cy="224.06" r="0.45"/><circle class="cls-222" cx="290.11" cy="220.22" r="0.47"/><path class="cls-223" d="M147.45,429.57a3.61,3.61,0,0,0,1.75-.46l72.64-41.19a3.55,3.55,0,0,0-3.51-6.18l-72.64,41.18a3.56,3.56,0,0,0,1.76,6.65Z"/><path class="cls-224" d="M147.45,427.44a1.37,1.37,0,0,0,.7-.19l72.63-41.18a1.42,1.42,0,0,0-1.4-2.48l-72.64,41.19a1.45,1.45,0,0,0-.67.86,1.41,1.41,0,0,0,.14,1.08A1.44,1.44,0,0,0,147.45,427.44Z"/><path class="cls-225" d="M161.9,438.7a3.49,3.49,0,0,0,1.75-.47l72.64-41.18a3.56,3.56,0,1,0-3.51-6.19l-72.64,41.19a3.56,3.56,0,0,0,1.76,6.65Z"/><path class="cls-226" d="M161.9,436.56a1.43,1.43,0,0,0,.7-.18l72.63-41.19a1.43,1.43,0,0,0,.54-1.94,1.44,1.44,0,0,0-1.24-.72,1.34,1.34,0,0,0-.7.19L161.2,433.9a1.38,1.38,0,0,0-.67.86,1.36,1.36,0,0,0,.13,1.08A1.42,1.42,0,0,0,161.9,436.56Z"/><polygon class="cls-8" points="329.03 157.4 359.72 140.22 370.16 140.22 324.54 264.02 314.1 264.02 314.1 196.51 308.78 205.62 298.34 205.62 298.34 133.64 355.5 100.64 365.94 100.64 329.03 157.4"/><polygon class="cls-1" points="339.47 157.4 370.16 140.22 324.54 264.02 324.54 196.51 308.78 205.62 308.78 133.64 365.94 100.64 339.47 157.4"/><path class="cls-227" d="M504.55,431.93a3.52,3.52,0,0,1-1.76-.47l-72.63-41.18a3.56,3.56,0,1,1,3.51-6.19l72.63,41.19a3.56,3.56,0,0,1-1.75,6.65Z"/><path class="cls-228" d="M504.55,429.79a1.4,1.4,0,0,1-.7-.18l-72.64-41.19a1.41,1.41,0,0,1-.67-.86,1.42,1.42,0,0,1,1.38-1.8,1.37,1.37,0,0,1,.7.19l72.63,41.18a1.41,1.41,0,0,1,.67.86,1.45,1.45,0,0,1-.13,1.08A1.43,1.43,0,0,1,504.55,429.79Z"/><path class="cls-229" d="M490.09,441.05a3.61,3.61,0,0,1-1.75-.46L415.71,399.4a3.56,3.56,0,1,1,3.51-6.19l72.63,41.19a3.56,3.56,0,0,1-1.76,6.65Z"/><path class="cls-230" d="M490.09,438.92a1.47,1.47,0,0,1-.7-.19l-72.63-41.19a1.38,1.38,0,0,1-.67-.86,1.42,1.42,0,0,1,1.38-1.8,1.47,1.47,0,0,1,.7.19l72.63,41.19a1.39,1.39,0,0,1,.67.85,1.43,1.43,0,0,1-1.38,1.81Z"/><path class="cls-1" d="M65.57,472.67c-3.37-1.94-3.39-5.12,0-7.06l63.78-17.83a13.51,13.51,0,0,1,12.2,0l64.2,17.83c3.36,1.94,3.38,5.12,0,7.06L142,509.73a13.45,13.45,0,0,1-12.2,0Z"/><path class="cls-2" d="M205.7,436c3.36,1.94,3.38,5.12,0,7.07L142,480.12a13.45,13.45,0,0,1-12.2,0L65.57,443.06c-3.37-1.95-3.39-5.13,0-7.07l63.77-37.07a13.51,13.51,0,0,1,12.2,0Z"/><path class="cls-3" d="M65.57,440.23c-3.37-1.94-3.39-5.13,0-7.07L129.3,396.1a13.45,13.45,0,0,1,12.2,0l64.2,37.06c3.36,1.95,3.38,5.13,0,7.07L142,477.29a13.45,13.45,0,0,1-12.2,0Z"/><path class="cls-231" d="M208.21,439.8a2.23,2.23,0,0,1,0,.27,1.29,1.29,0,0,1-.06.21,2.29,2.29,0,0,1-.07.28l-.09.21c0,.08-.08.17-.12.27s-.14.24-.22.35l-.05.07a2.68,2.68,0,0,1-.27.34l-.06.08-.36.35-.27.23-.24.18-.31.21-.32.21-63.15,36.7h0c-.26.15-1.16.65-1.44.77l-.25.11a6.44,6.44,0,0,1-.66.25,2,2,0,0,1-.26.09l-.43.13-.35.09-.48.1c-.11,0-.21,0-.32.06-.32.06-.65.1-1,.14l-.32,0-.57,0h-1.26l-.43,0-.41,0-.42-.05-.4-.05-.45-.08-.36-.07-.54-.13L132,481c-.32-.1-.63-.2-.93-.32l-.42-.18-.23-.09c-.22-.11-1.42-.78-1.61-.9h0L65.57,443.06c-1.7-1-2.55-2.27-2.54-3.57L62.9,466c0,1.29.84,2.58,2.53,3.56l63.35,36.57h0l.3.17.55.32h0l.63.34.22.09.38.17.06,0c.29.11.6.22.91.31l.08,0,.24.07.52.12a.32.32,0,0,0,.14,0,1.55,1.55,0,0,0,.23.05l.43.07a1.38,1.38,0,0,0,.2,0l.22,0,.4,0,.22,0,.21,0,.41,0h1.26l.58,0h.32c.33,0,.65-.08,1-.14h0l.29-.07.46-.1c.12,0,.23-.06.35-.09l.43-.13.1,0,.16-.06a6.47,6.47,0,0,0,.66-.26L141,507a8.25,8.25,0,0,0,.81-.42v0l63.78-37.06.1-.06.22-.15a3.37,3.37,0,0,0,.31-.21l.24-.19a3,3,0,0,0,.26-.21l0,0a3.14,3.14,0,0,0,.32-.31s0-.05.06-.07.11-.12.16-.19l.12-.16a.13.13,0,0,1,0-.06,2.16,2.16,0,0,0,.18-.3.61.61,0,0,0,0-.06l.12-.27.07-.15a.14.14,0,0,0,0-.07c0-.08.05-.17.08-.26s0-.11,0-.17a.07.07,0,0,0,0,0,2.06,2.06,0,0,0,0-.26,1.23,1.23,0,0,0,0-.19V466l.13-26.48A2.28,2.28,0,0,1,208.21,439.8Z"/><g class="cls-6"><path class="cls-7" d="M117.67,481.36l-3.21-1.86c-1-.59-1.84-.11-1.84,1.05a4,4,0,0,0,1.84,3.18l3.2,1.85c1,.58,1.84.11,1.85-1.06a4,4,0,0,0-1.84-3.16Z"/></g><g class="cls-6"><path class="cls-8" d="M117.67,488.18l-3.21-1.86c-1-.59-1.84-.11-1.84,1.05a4,4,0,0,0,1.84,3.17l3.2,1.85c1,.59,1.84.12,1.85-1.05a4,4,0,0,0-1.84-3.16Z"/></g><g class="cls-6"><path class="cls-8" d="M127,486.19l-3.21-1.85c-1-.6-1.84-.13-1.84,1a4,4,0,0,0,1.82,3.18l3.22,1.84c1,.59,1.84.12,1.84-1a4,4,0,0,0-1.83-3.18Z"/></g><g class="cls-6"><path class="cls-8" d="M127,493l-3.21-1.85c-1-.59-1.84-.13-1.84,1a4,4,0,0,0,1.82,3.17l3.22,1.86c1,.58,1.84.11,1.84-1.06A4.05,4.05,0,0,0,127,493Z"/></g><g class="cls-6"><path class="cls-8" d="M105.74,474,73.3,455.32c-1-.59-1.83-.12-1.84,1.05a4.05,4.05,0,0,0,1.83,3.17l32.44,18.72c1,.58,1.84.12,1.84-1.05a4.05,4.05,0,0,0-1.83-3.17Z"/></g><g class="cls-6"><path class="cls-8" d="M105.74,481.24,73.3,462.52c-1-.58-1.83-.11-1.84,1.05a4.07,4.07,0,0,0,1.83,3.18l32.44,18.72c1,.58,1.84.12,1.84-1.05a4.09,4.09,0,0,0-1.83-3.18Z"/></g><path class="cls-1" d="M462,468.08c-3.37-1.95-3.38-5.12,0-7.07l63.79-17.82a13.45,13.45,0,0,1,12.2,0L602.09,461c3.37,1.95,3.38,5.12,0,7.07l-63.77,37.06a13.47,13.47,0,0,1-12.21,0Z"/><path class="cls-2" d="M602.09,431.4c3.37,1.93,3.38,5.12,0,7.06l-63.78,37.07a13.51,13.51,0,0,1-12.2,0L462,438.46c-3.37-1.95-3.39-5.13,0-7.06l63.77-37.07a13.54,13.54,0,0,1,12.21,0Z"/><path class="cls-3" d="M462,435.64c-3.37-1.95-3.38-5.13,0-7.07l63.79-37.06a13.45,13.45,0,0,1,12.2,0l64.19,37.06c3.37,1.94,3.38,5.12,0,7.07l-63.77,37.05a13.47,13.47,0,0,1-12.21,0Z"/><path class="cls-232" d="M604.6,435.21a1.24,1.24,0,0,1,0,.27,1.6,1.6,0,0,1-.05.21l-.08.28c0,.06-.06.13-.08.2l-.13.27c-.07.12-.14.24-.22.36s0,0,0,.06a2.26,2.26,0,0,1-.28.35l-.06.07a4.08,4.08,0,0,1-.36.36l-.27.22c-.08.06-.15.13-.24.19l-.31.21-.32.2L539,475.17h0c-.25.15-1.15.65-1.43.77l-.25.11c-.21.09-.44.17-.67.25a2.5,2.5,0,0,1-.25.09l-.44.13-.34.09-.48.1-.33.06c-.32.06-.65.1-1,.14l-.32,0-.57,0h-1.26l-.43,0c-.14,0-.27,0-.4,0l-.43-.05-.4-.05-.45-.08-.36-.07-.54-.14-.29-.07c-.32-.1-.63-.2-.92-.32s-.29-.12-.43-.18l-.23-.1c-.22-.1-1.41-.77-1.61-.9h0L462,438.46c-1.7-1-2.54-2.27-2.54-3.56l-.13,26.48c0,1.28.84,2.58,2.53,3.56l63.35,36.56h0l.31.17.54.32v0l.63.34.22.1.38.17h.06a8.85,8.85,0,0,0,.91.31s0,0,.08,0l.24.06.52.13a.7.7,0,0,0,.14,0l.23,0,.43.08.2,0,.22,0a2.73,2.73,0,0,0,.4.05l.22,0,.21,0,.41,0h1.27l.57,0,.24,0h.08c.33,0,.66-.09,1-.15h.06l.28-.07a3.4,3.4,0,0,0,.46-.09l.35-.09.43-.13.1,0a.58.58,0,0,1,.17-.06l.66-.26.25-.11c.14-.06.47-.24.8-.42v0L602,464.94l.1-.06.22-.15.32-.21.23-.19c.09-.08.19-.14.26-.21l0-.05a3.14,3.14,0,0,0,.32-.31l.06-.07c.06-.06.11-.13.16-.19l.12-.17,0-.06a1.75,1.75,0,0,0,.18-.29.61.61,0,0,0,0-.06c0-.1.08-.18.12-.27a.71.71,0,0,0,.07-.16.07.07,0,0,0,0-.06c0-.08.05-.17.08-.26a1.09,1.09,0,0,1,.05-.17V462a2.3,2.3,0,0,0,0-.26,1.23,1.23,0,0,0,0-.19v-.07l.13-26.48A2.28,2.28,0,0,1,604.6,435.21Z"/><g class="cls-6"><path class="cls-7" d="M551,475.92l3.22-1.85c1-.59,1.83-.12,1.83,1.05a4,4,0,0,1-1.83,3.17L551,480.14c-1,.59-1.84.12-1.84-1.05a4,4,0,0,1,1.83-3.17Z"/></g><g class="cls-6"><path class="cls-8" d="M551,482.74l3.22-1.85c1-.59,1.83-.12,1.83,1.05a4,4,0,0,1-1.83,3.17L551,487c-1,.59-1.84.12-1.84-1a4,4,0,0,1,1.83-3.17Z"/></g><g class="cls-6"><path class="cls-8" d="M541.7,480.76l3.21-1.85c1-.6,1.84-.13,1.84,1a4,4,0,0,1-1.83,3.18L541.71,485c-1,.58-1.84.12-1.84-1a4,4,0,0,1,1.83-3.17Z"/></g><g class="cls-6"><path class="cls-8" d="M541.7,487.58l3.21-1.85c1-.59,1.84-.14,1.84,1a4,4,0,0,1-1.83,3.17l-3.21,1.85c-1,.59-1.84.11-1.84-1.05a4,4,0,0,1,1.83-3.16Z"/></g><g class="cls-6"><path class="cls-8" d="M562.91,468.61l32.43-18.73c1-.58,1.84-.11,1.84,1.06a4,4,0,0,1-1.83,3.16l-32.43,18.73c-1,.58-1.84.12-1.85-1.05a4,4,0,0,1,1.84-3.17Z"/></g><g class="cls-6"><path class="cls-8" d="M562.91,475.81l32.43-18.73c1-.58,1.84-.1,1.84,1.06a4,4,0,0,1-1.83,3.17L562.92,480c-1,.59-1.84.12-1.85-1a4.05,4.05,0,0,1,1.84-3.18Z"/></g></svg>