<svg id="图层_1" data-name="图层 1" xmlns="http://www.w3.org/2000/svg" xmlns:xlink="http://www.w3.org/1999/xlink" viewBox="0 0 670 530"><defs><style>.cls-1{fill:#3d3f44;}.cls-2{fill:#fff;}.cls-3{fill:url(#未命名的渐变_15);}.cls-4{fill:url(#未命名的渐变_39);}.cls-5{fill:url(#未命名的渐变_15-2);}.cls-6{fill:url(#未命名的渐变_9);}.cls-7{isolation:isolate;}.cls-8{fill:#ddb962;}.cls-11,.cls-15,.cls-17,.cls-225,.cls-227,.cls-230,.cls-232,.cls-9{opacity:0.35;}.cls-9{fill:url(#未命名的渐变_14);}.cls-10{fill:url(#未命名的渐变_14-2);}.cls-11{fill:url(#未命名的渐变_14-3);}.cls-12{fill:url(#未命名的渐变_14-4);}.cls-13{fill:url(#未命名的渐变_15-3);}.cls-14{fill:url(#未命名的渐变_39-2);}.cls-15{fill:url(#未命名的渐变_14-5);}.cls-16{fill:url(#未命名的渐变_14-6);}.cls-17{fill:url(#未命名的渐变_14-7);}.cls-18{fill:url(#未命名的渐变_14-8);}.cls-19{fill:url(#未命名的渐变_9-2);}.cls-20{fill:url(#未命名的渐变_15-4);}.cls-21{fill:url(#未命名的渐变_20);}.cls-22{fill:#48486a;}.cls-23{fill:url(#未命名的渐变_14-9);}.cls-24{fill:url(#未命名的渐变_14-10);}.cls-25{fill:#bec3cc;}.cls-26{fill:url(#未命名的渐变_14-11);}.cls-27{opacity:0.45;}.cls-28{fill:#ddb963;opacity:0.99;}.cls-29{fill:#ddba64;opacity:0.98;}.cls-30{fill:#ddba65;opacity:0.97;}.cls-31{fill:#ddba66;opacity:0.97;}.cls-32{fill:#debb67;opacity:0.96;}.cls-33{fill:#debb68;opacity:0.95;}.cls-34{fill:#debc69;opacity:0.94;}.cls-35{fill:#debc6a;opacity:0.93;}.cls-36{fill:#debc6b;opacity:0.92;}.cls-37{fill:#debd6c;opacity:0.92;}.cls-38{fill:#debd6d;opacity:0.91;}.cls-39{fill:#debd6e;opacity:0.9;}.cls-40{fill:#dfbe6f;opacity:0.89;}.cls-41{fill:#dfbe70;opacity:0.88;}.cls-42{fill:#dfbe71;opacity:0.87;}.cls-43{fill:#dfbf72;opacity:0.86;}.cls-44{fill:#dfbf73;opacity:0.86;}.cls-45{fill:#dfc074;opacity:0.85;}.cls-46{fill:#dfc075;opacity:0.84;}.cls-47{fill:#dfc076;opacity:0.83;}.cls-48{fill:#dfc177;opacity:0.82;}.cls-49{fill:#e0c178;opacity:0.81;}.cls-50{fill:#e0c179;opacity:0.81;}.cls-51{fill:#e0c27a;opacity:0.8;}.cls-52{fill:#e0c27b;opacity:0.79;}.cls-53{fill:#e0c27c;opacity:0.78;}.cls-54{fill:#e0c37d;opacity:0.77;}.cls-55{fill:#e0c37e;opacity:0.76;}.cls-56{fill:#e0c47f;opacity:0.75;}.cls-57{fill:#e1c480;opacity:0.75;}.cls-58{fill:#e1c481;opacity:0.74;}.cls-59{fill:#e1c582;opacity:0.73;}.cls-60{fill:#e1c583;opacity:0.72;}.cls-61{fill:#e1c584;opacity:0.71;}.cls-62{fill:#e1c685;opacity:0.7;}.cls-63{fill:#e1c686;opacity:0.69;}.cls-64{fill:#e1c687;opacity:0.69;}.cls-65{fill:#e2c788;opacity:0.68;}.cls-66{fill:#e2c789;opacity:0.67;}.cls-67{fill:#e2c88a;opacity:0.66;}.cls-68{fill:#e2c88b;opacity:0.65;}.cls-69{fill:#e2c88c;opacity:0.64;}.cls-70{fill:#e2c98d;opacity:0.64;}.cls-71{fill:#e2c98e;opacity:0.63;}.cls-72{fill:#e2c98f;opacity:0.62;}.cls-73{fill:#e2ca90;opacity:0.61;}.cls-74{fill:#e3ca91;opacity:0.6;}.cls-75{fill:#e3ca92;opacity:0.59;}.cls-76{fill:#e3cb93;opacity:0.58;}.cls-77{fill:#e3cb94;opacity:0.58;}.cls-78{fill:#e3cc95;opacity:0.57;}.cls-79{fill:#e3cc96;opacity:0.56;}.cls-80{fill:#e3cc97;opacity:0.55;}.cls-81{fill:#e3cd98;opacity:0.54;}.cls-82{fill:#e4cd99;opacity:0.53;}.cls-83{fill:#e4cd9a;opacity:0.53;}.cls-84{fill:#e4ce9b;opacity:0.52;}.cls-85,.cls-86{fill:#e4ce9c;}.cls-85{opacity:0.51;}.cls-86{opacity:0.5;}.cls-87{fill:#e4cf9d;opacity:0.49;}.cls-88{fill:#e4cf9e;opacity:0.48;}.cls-89{fill:#e4d09f;opacity:0.47;}.cls-90{fill:#e4d0a0;opacity:0.47;}.cls-91{fill:#e5d0a1;opacity:0.46;}.cls-92{fill:#e5d1a2;opacity:0.45;}.cls-93{fill:#e5d1a3;opacity:0.44;}.cls-94{fill:#e5d1a4;opacity:0.43;}.cls-95{fill:#e5d2a5;opacity:0.42;}.cls-96{fill:#e5d2a6;opacity:0.42;}.cls-97{fill:#e5d3a7;opacity:0.41;}.cls-98{fill:#e5d3a8;opacity:0.4;}.cls-99{fill:#e6d3a9;opacity:0.39;}.cls-100{fill:#e6d4aa;opacity:0.38;}.cls-101{fill:#e6d4ab;opacity:0.37;}.cls-102{fill:#e6d4ac;opacity:0.36;}.cls-103{fill:#e6d5ad;opacity:0.36;}.cls-104{fill:#e6d5ae;opacity:0.35;}.cls-105{fill:#e6d5af;opacity:0.34;}.cls-106{fill:#e6d6b0;opacity:0.33;}.cls-107{fill:#e6d6b1;opacity:0.32;}.cls-108{fill:#e7d7b2;opacity:0.31;}.cls-109{fill:#e7d7b3;opacity:0.31;}.cls-110{fill:#e7d7b4;opacity:0.3;}.cls-111{fill:#e7d8b5;opacity:0.29;}.cls-112{fill:#e7d8b6;opacity:0.28;}.cls-113{fill:#e7d8b7;opacity:0.27;}.cls-114{fill:#e7d9b8;opacity:0.26;}.cls-115{fill:#e7d9b9;opacity:0.25;}.cls-116{fill:#e8d9ba;opacity:0.25;}.cls-117{fill:#e8dabb;opacity:0.24;}.cls-118{fill:#e8dabc;opacity:0.23;}.cls-119{fill:#e8dbbd;opacity:0.22;}.cls-120{fill:#e8dbbe;opacity:0.21;}.cls-121{fill:#e8dbbf;opacity:0.2;}.cls-122{fill:#e8dcc0;opacity:0.19;}.cls-123{fill:#e8dcc1;opacity:0.19;}.cls-124{fill:#e9dcc2;opacity:0.18;}.cls-125{fill:#e9ddc3;opacity:0.17;}.cls-126{fill:#e9ddc4;opacity:0.16;}.cls-127{fill:#e9ddc5;opacity:0.15;}.cls-128{fill:#e9dec6;opacity:0.14;}.cls-129{fill:#e9dec7;opacity:0.14;}.cls-130{fill:#e9dfc8;opacity:0.13;}.cls-131{fill:#e9dfc9;opacity:0.12;}.cls-132{fill:#e9dfca;opacity:0.11;}.cls-133{fill:#eae0cb;opacity:0.1;}.cls-134{fill:#eae0cc;opacity:0.09;}.cls-135{fill:#eae0cd;opacity:0.08;}.cls-136{fill:#eae1ce;opacity:0.08;}.cls-137{fill:#eae1cf;opacity:0.07;}.cls-138{fill:#eae1d0;opacity:0.06;}.cls-139{fill:#eae2d1;opacity:0.05;}.cls-140{fill:#eae2d2;opacity:0.04;}.cls-141{fill:#ebe3d3;opacity:0.03;}.cls-142{fill:#ebe3d4;opacity:0.03;}.cls-143{fill:#ebe3d5;opacity:0.02;}.cls-144{fill:#ebe4d6;opacity:0.01;}.cls-145{fill:#ebe4d7;opacity:0;}.cls-146{fill:url(#linear-gradient);}.cls-147{fill:url(#linear-gradient-2);}.cls-148{fill:url(#linear-gradient-3);}.cls-149{fill:url(#linear-gradient-4);}.cls-150{fill:url(#linear-gradient-5);}.cls-151{fill:url(#linear-gradient-6);}.cls-152{fill:url(#linear-gradient-7);}.cls-153{fill:url(#linear-gradient-8);}.cls-154{fill:url(#linear-gradient-9);}.cls-155{fill:url(#linear-gradient-10);}.cls-156{fill:url(#linear-gradient-11);}.cls-157{fill:url(#linear-gradient-12);}.cls-158{fill:url(#linear-gradient-13);}.cls-159{fill:url(#linear-gradient-14);}.cls-160{fill:url(#linear-gradient-15);}.cls-161{fill:url(#linear-gradient-16);}.cls-162{fill:url(#linear-gradient-17);}.cls-163{fill:url(#linear-gradient-18);}.cls-164{fill:url(#linear-gradient-19);}.cls-165{fill:url(#linear-gradient-20);}.cls-166{fill:url(#linear-gradient-21);}.cls-167{fill:url(#linear-gradient-22);}.cls-168{fill:url(#linear-gradient-23);}.cls-169{fill:url(#linear-gradient-24);}.cls-170{fill:url(#linear-gradient-25);}.cls-171{fill:url(#linear-gradient-26);}.cls-172{fill:url(#linear-gradient-27);}.cls-173{fill:url(#linear-gradient-28);}.cls-174{fill:url(#linear-gradient-29);}.cls-175{fill:url(#linear-gradient-30);}.cls-176{fill:url(#linear-gradient-31);}.cls-177{fill:url(#linear-gradient-32);}.cls-178{fill:url(#linear-gradient-33);}.cls-179{fill:url(#linear-gradient-34);}.cls-180{fill:url(#linear-gradient-35);}.cls-181{fill:url(#linear-gradient-36);}.cls-182{fill:url(#linear-gradient-37);}.cls-183{fill:url(#linear-gradient-38);}.cls-184{fill:url(#linear-gradient-39);}.cls-185{fill:url(#linear-gradient-40);}.cls-186{fill:url(#linear-gradient-41);}.cls-187{fill:url(#linear-gradient-42);}.cls-188{fill:url(#linear-gradient-43);}.cls-189{fill:url(#linear-gradient-44);}.cls-190{fill:url(#linear-gradient-45);}.cls-191{fill:url(#linear-gradient-46);}.cls-192{fill:url(#linear-gradient-47);}.cls-193{fill:url(#linear-gradient-48);}.cls-194{fill:url(#linear-gradient-49);}.cls-195{fill:url(#linear-gradient-50);}.cls-196{fill:url(#linear-gradient-51);}.cls-197{fill:url(#linear-gradient-52);}.cls-198{fill:url(#linear-gradient-53);}.cls-199{fill:url(#linear-gradient-54);}.cls-200{fill:url(#linear-gradient-55);}.cls-201{fill:url(#linear-gradient-56);}.cls-202{fill:url(#linear-gradient-57);}.cls-203{fill:url(#linear-gradient-58);}.cls-204{fill:url(#linear-gradient-59);}.cls-205{fill:url(#linear-gradient-60);}.cls-206{fill:url(#linear-gradient-61);}.cls-207{fill:url(#linear-gradient-62);}.cls-208{fill:url(#linear-gradient-63);}.cls-209{fill:url(#linear-gradient-64);}.cls-210{fill:url(#linear-gradient-65);}.cls-211{fill:url(#linear-gradient-66);}.cls-212{fill:url(#linear-gradient-67);}.cls-213{fill:url(#linear-gradient-68);}.cls-214{fill:url(#linear-gradient-69);}.cls-215{fill:url(#linear-gradient-70);}.cls-216{fill:url(#linear-gradient-71);}.cls-217{fill:url(#linear-gradient-72);}.cls-218{fill:url(#linear-gradient-73);}.cls-219{fill:url(#linear-gradient-74);}.cls-220{fill:url(#linear-gradient-75);}.cls-221{fill:url(#linear-gradient-76);}.cls-222{fill:url(#linear-gradient-77);}.cls-223{fill:url(#linear-gradient-78);}.cls-224{fill:url(#linear-gradient-79);}.cls-225{fill:url(#未命名的渐变_14-12);}.cls-226{fill:url(#未命名的渐变_14-13);}.cls-227{fill:url(#未命名的渐变_14-14);}.cls-228{fill:url(#未命名的渐变_14-15);}.cls-229{fill:#62666d;}.cls-230{fill:url(#未命名的渐变_14-16);}.cls-231{fill:url(#未命名的渐变_14-17);}.cls-232{fill:url(#未命名的渐变_14-18);}.cls-233{fill:url(#未命名的渐变_14-19);}.cls-234{fill:url(#未命名的渐变_15-5);}.cls-235{fill:url(#未命名的渐变_9-3);}.cls-236{fill:url(#未命名的渐变_15-6);}.cls-237{fill:url(#未命名的渐变_9-4);}</style><linearGradient id="未命名的渐变_15" x1="140.9" y1="320.43" x2="515.98" y2="320.43" gradientUnits="userSpaceOnUse"><stop offset="0" stop-color="#838991"/><stop offset="1" stop-color="#d8dade"/></linearGradient><linearGradient id="未命名的渐变_39" x1="515.98" y1="377.72" x2="140.71" y2="377.72" gradientUnits="userSpaceOnUse"><stop offset="0" stop-color="#838991"/><stop offset="0.41" stop-color="#45484c"/><stop offset="0.44" stop-color="#54575c"/><stop offset="0.49" stop-color="#7b7f86"/><stop offset="0.56" stop-color="#bbbfc8"/><stop offset="0.56" stop-color="#bec3cc"/><stop offset="1" stop-color="#e4e6ea"/></linearGradient><linearGradient id="未命名的渐变_15-2" x1="464.8" y1="199.87" x2="610.01" y2="199.87" xlink:href="#未命名的渐变_15"/><linearGradient id="未命名的渐变_9" x1="464.67" y1="236.94" x2="610" y2="236.94" gradientUnits="userSpaceOnUse"><stop offset="0" stop-color="#838991"/><stop offset="0.43" stop-color="#37393d"/><stop offset="0.44" stop-color="#47494d"/><stop offset="0.48" stop-color="#707276"/><stop offset="0.5" stop-color="#989b9f"/><stop offset="1" stop-color="#d8dade"/></linearGradient><linearGradient id="未命名的渐变_14" x1="-5192.11" y1="256.94" x2="-5112.36" y2="256.94" gradientTransform="matrix(-1, 0, 0, 1, -4702.01, 0)" gradientUnits="userSpaceOnUse"><stop offset="0.15" stop-color="#ddb962"/><stop offset="1" stop-color="#ebe4d7"/></linearGradient><linearGradient id="未命名的渐变_14-2" x1="-5189.97" y1="256.94" x2="-5114.49" y2="256.94" xlink:href="#未命名的渐变_14"/><linearGradient id="未命名的渐变_14-3" x1="-5206.56" y1="266.06" x2="-5126.81" y2="266.06" xlink:href="#未命名的渐变_14"/><linearGradient id="未命名的渐变_14-4" x1="-5204.42" y1="266.06" x2="-5128.94" y2="266.06" xlink:href="#未命名的渐变_14"/><linearGradient id="未命名的渐变_15-3" x1="64.51" y1="183.78" x2="209.71" y2="183.78" xlink:href="#未命名的渐变_15"/><linearGradient id="未命名的渐变_39-2" x1="209.71" y1="220.85" x2="64.37" y2="220.85" xlink:href="#未命名的渐变_39"/><linearGradient id="未命名的渐变_14-5" x1="182.64" y1="244.94" x2="262.39" y2="244.94" gradientTransform="matrix(1, 0, 0, 1, 0, 0)" xlink:href="#未命名的渐变_14"/><linearGradient id="未命名的渐变_14-6" x1="184.78" y1="244.94" x2="260.26" y2="244.94" gradientTransform="matrix(1, 0, 0, 1, 0, 0)" xlink:href="#未命名的渐变_14"/><linearGradient id="未命名的渐变_14-7" x1="168.19" y1="254.06" x2="247.94" y2="254.06" gradientTransform="matrix(1, 0, 0, 1, 0, 0)" xlink:href="#未命名的渐变_14"/><linearGradient id="未命名的渐变_14-8" x1="170.33" y1="254.06" x2="245.81" y2="254.06" gradientTransform="matrix(1, 0, 0, 1, 0, 0)" xlink:href="#未命名的渐变_14"/><linearGradient id="未命名的渐变_9-2" x1="450.36" y1="320.74" x2="204.74" y2="320.74" xlink:href="#未命名的渐变_9"/><linearGradient id="未命名的渐变_15-4" x1="424.2" y1="248.21" x2="230.9" y2="248.21" xlink:href="#未命名的渐变_15"/><linearGradient id="未命名的渐变_20" x1="265.09" y1="248.21" x2="390.01" y2="248.21" gradientTransform="matrix(1, 0, 0, 1, 0, 0)" xlink:href="#未命名的渐变_14"/><linearGradient id="未命名的渐变_14-9" x1="225.62" y1="296.72" x2="258.46" y2="296.72" gradientTransform="matrix(1, 0, 0, 1, 0, 0)" xlink:href="#未命名的渐变_14"/><linearGradient id="未命名的渐变_14-10" x1="909.32" y1="330.41" x2="954.78" y2="330.41" gradientTransform="translate(-573.52)" xlink:href="#未命名的渐变_14"/><linearGradient id="未命名的渐变_14-11" x1="419.33" y1="292.29" x2="432.19" y2="292.29" gradientTransform="matrix(1, 0, 0, 1, 0, 0)" xlink:href="#未命名的渐变_14"/><linearGradient id="linear-gradient" x1="291.02" y1="232.9" x2="292.39" y2="232.9" gradientUnits="userSpaceOnUse"><stop offset="0.15" stop-color="#ff9800"/><stop offset="1" stop-color="#ffc107"/></linearGradient><linearGradient id="linear-gradient-2" x1="296.61" y1="231.22" x2="298.17" y2="231.22" xlink:href="#linear-gradient"/><linearGradient id="linear-gradient-3" x1="313.08" y1="217.62" x2="315.25" y2="217.62" xlink:href="#linear-gradient"/><linearGradient id="linear-gradient-4" x1="288.73" y1="185.67" x2="289.93" y2="185.67" xlink:href="#linear-gradient"/><linearGradient id="linear-gradient-5" x1="283.69" y1="179.8" x2="284.91" y2="179.8" xlink:href="#linear-gradient"/><linearGradient id="linear-gradient-6" x1="276.92" y1="169.79" x2="278.28" y2="169.79" xlink:href="#linear-gradient"/><linearGradient id="linear-gradient-7" x1="302.15" y1="143.22" x2="302.66" y2="143.22" xlink:href="#linear-gradient"/><linearGradient id="linear-gradient-8" x1="305.15" y1="142.89" x2="305.67" y2="142.89" xlink:href="#linear-gradient"/><linearGradient id="linear-gradient-9" x1="314.43" y1="157.86" x2="314.95" y2="157.86" xlink:href="#linear-gradient"/><linearGradient id="linear-gradient-10" x1="321.6" y1="152.05" x2="322.51" y2="152.05" xlink:href="#linear-gradient"/><linearGradient id="linear-gradient-11" x1="318.76" y1="155.67" x2="319.46" y2="155.67" xlink:href="#linear-gradient"/><linearGradient id="linear-gradient-12" x1="325.46" y1="164.51" x2="326.32" y2="164.51" xlink:href="#linear-gradient"/><linearGradient id="linear-gradient-13" x1="316.37" y1="179.43" x2="317.26" y2="179.43" xlink:href="#linear-gradient"/><linearGradient id="linear-gradient-14" x1="310.58" y1="184.61" x2="311.66" y2="184.61" xlink:href="#linear-gradient"/><linearGradient id="linear-gradient-15" x1="334.61" y1="185.85" x2="335.44" y2="185.85" xlink:href="#linear-gradient"/><linearGradient id="linear-gradient-16" x1="306.83" y1="197.31" x2="308.46" y2="197.31" xlink:href="#linear-gradient"/><linearGradient id="linear-gradient-17" x1="319.04" y1="193.13" x2="320.49" y2="193.13" xlink:href="#linear-gradient"/><linearGradient id="linear-gradient-18" x1="330.08" y1="207.28" x2="331.6" y2="207.28" xlink:href="#linear-gradient"/><linearGradient id="linear-gradient-19" x1="351.35" y1="206.92" x2="352.38" y2="206.92" xlink:href="#linear-gradient"/><linearGradient id="linear-gradient-20" x1="346.15" y1="199.39" x2="346.99" y2="199.39" xlink:href="#linear-gradient"/><linearGradient id="linear-gradient-21" x1="354.62" y1="194.27" x2="355.19" y2="194.27" xlink:href="#linear-gradient"/><linearGradient id="linear-gradient-22" x1="357.71" y1="207.89" x2="358.77" y2="207.89" xlink:href="#linear-gradient"/><linearGradient id="linear-gradient-23" x1="370.79" y1="190.83" x2="371.28" y2="190.83" xlink:href="#linear-gradient"/><linearGradient id="linear-gradient-24" x1="372.07" y1="186.33" x2="372.55" y2="186.33" xlink:href="#linear-gradient"/><linearGradient id="linear-gradient-25" x1="380.33" y1="217.91" x2="381.9" y2="217.91" xlink:href="#linear-gradient"/><linearGradient id="linear-gradient-26" x1="383.19" y1="193.09" x2="383.79" y2="193.09" xlink:href="#linear-gradient"/><linearGradient id="linear-gradient-27" x1="380.26" y1="189.78" x2="380.75" y2="189.78" xlink:href="#linear-gradient"/><linearGradient id="linear-gradient-28" x1="388.06" y1="183.16" x2="388.69" y2="183.16" xlink:href="#linear-gradient"/><linearGradient id="linear-gradient-29" x1="370.27" y1="171.46" x2="371.06" y2="171.46" xlink:href="#linear-gradient"/><linearGradient id="linear-gradient-30" x1="370.34" y1="152.03" x2="371.62" y2="152.03" xlink:href="#linear-gradient"/><linearGradient id="linear-gradient-31" x1="375.53" y1="149.63" x2="376.85" y2="149.63" xlink:href="#linear-gradient"/><linearGradient id="linear-gradient-32" x1="374.77" y1="156.79" x2="376.01" y2="156.79" xlink:href="#linear-gradient"/><linearGradient id="linear-gradient-33" x1="369.7" y1="132.1" x2="370.77" y2="132.1" xlink:href="#linear-gradient"/><linearGradient id="linear-gradient-34" x1="370.65" y1="119.83" x2="371.66" y2="119.83" xlink:href="#linear-gradient"/><linearGradient id="linear-gradient-35" x1="366.72" y1="101.75" x2="367.65" y2="101.75" xlink:href="#linear-gradient"/><linearGradient id="linear-gradient-36" x1="358.66" y1="93.48" x2="359.57" y2="93.48" xlink:href="#linear-gradient"/><linearGradient id="linear-gradient-37" x1="362.38" y1="83.74" x2="363.29" y2="83.74" xlink:href="#linear-gradient"/><linearGradient id="linear-gradient-38" x1="344.04" y1="77.13" x2="344.64" y2="77.13" xlink:href="#linear-gradient"/><linearGradient id="linear-gradient-39" x1="348.63" y1="65.92" x2="349.3" y2="65.92" xlink:href="#linear-gradient"/><linearGradient id="linear-gradient-40" x1="351.62" y1="64.28" x2="352.34" y2="64.28" xlink:href="#linear-gradient"/><linearGradient id="linear-gradient-41" x1="317.14" y1="117.75" x2="318.14" y2="117.75" xlink:href="#linear-gradient"/><linearGradient id="linear-gradient-42" x1="312.09" y1="84.7" x2="313.09" y2="84.7" xlink:href="#linear-gradient"/><linearGradient id="linear-gradient-43" x1="307.32" y1="77.03" x2="308.65" y2="77.03" xlink:href="#linear-gradient"/><linearGradient id="linear-gradient-44" x1="317.65" y1="63.56" x2="318.88" y2="63.56" xlink:href="#linear-gradient"/><linearGradient id="linear-gradient-45" x1="327.47" y1="49.7" x2="328.94" y2="49.7" xlink:href="#linear-gradient"/><linearGradient id="linear-gradient-46" x1="296.73" y1="45.55" x2="297.58" y2="45.55" xlink:href="#linear-gradient"/><linearGradient id="linear-gradient-47" x1="311.71" y1="27.82" x2="313.18" y2="27.82" xlink:href="#linear-gradient"/><linearGradient id="linear-gradient-48" x1="364.12" y1="52.12" x2="365.17" y2="52.12" xlink:href="#linear-gradient"/><linearGradient id="linear-gradient-49" x1="363.5" y1="33.42" x2="365.03" y2="33.42" xlink:href="#linear-gradient"/><linearGradient id="linear-gradient-50" x1="339.46" y1="15.86" x2="340.6" y2="15.86" xlink:href="#linear-gradient"/><linearGradient id="linear-gradient-51" x1="369.71" y1="15.3" x2="371.08" y2="15.3" xlink:href="#linear-gradient"/><linearGradient id="linear-gradient-52" x1="283.76" y1="79.09" x2="285.31" y2="79.09" xlink:href="#linear-gradient"/><linearGradient id="linear-gradient-53" x1="270.95" y1="106.9" x2="271.97" y2="106.9" xlink:href="#linear-gradient"/><linearGradient id="linear-gradient-54" x1="267.75" y1="114.05" x2="268.9" y2="114.05" xlink:href="#linear-gradient"/><linearGradient id="linear-gradient-55" x1="271.07" y1="93.72" x2="272.26" y2="93.72" xlink:href="#linear-gradient"/><linearGradient id="linear-gradient-56" x1="277.2" y1="142.34" x2="278.47" y2="142.34" xlink:href="#linear-gradient"/><linearGradient id="linear-gradient-57" x1="278.15" y1="156.97" x2="279.33" y2="156.97" xlink:href="#linear-gradient"/><linearGradient id="linear-gradient-58" x1="278.59" y1="151.98" x2="279.69" y2="151.98" xlink:href="#linear-gradient"/><linearGradient id="linear-gradient-59" x1="305.69" y1="100.87" x2="306.48" y2="100.87" xlink:href="#linear-gradient"/><linearGradient id="linear-gradient-60" x1="309.72" y1="102.27" x2="310.52" y2="102.27" xlink:href="#linear-gradient"/><linearGradient id="linear-gradient-61" x1="306.55" y1="104.79" x2="307.32" y2="104.79" xlink:href="#linear-gradient"/><linearGradient id="linear-gradient-62" x1="294.05" y1="112.32" x2="294.72" y2="112.32" xlink:href="#linear-gradient"/><linearGradient id="linear-gradient-63" x1="284" y1="93.86" x2="285" y2="93.86" xlink:href="#linear-gradient"/><linearGradient id="linear-gradient-64" x1="332.55" y1="84.53" x2="333.15" y2="84.53" xlink:href="#linear-gradient"/><linearGradient id="linear-gradient-65" x1="331.18" y1="93.06" x2="332.02" y2="93.06" xlink:href="#linear-gradient"/><linearGradient id="linear-gradient-66" x1="338.11" y1="91.95" x2="338.94" y2="91.95" xlink:href="#linear-gradient"/><linearGradient id="linear-gradient-67" x1="341.11" y1="88.04" x2="341.79" y2="88.04" xlink:href="#linear-gradient"/><linearGradient id="linear-gradient-68" x1="384.61" y1="54.09" x2="385.56" y2="54.09" xlink:href="#linear-gradient"/><linearGradient id="linear-gradient-69" x1="385.42" y1="57.78" x2="386.43" y2="57.78" xlink:href="#linear-gradient"/><linearGradient id="linear-gradient-70" x1="276.23" y1="46.69" x2="277.21" y2="46.69" xlink:href="#linear-gradient"/><linearGradient id="linear-gradient-71" x1="276.3" y1="40.83" x2="277.24" y2="40.83" xlink:href="#linear-gradient"/><linearGradient id="linear-gradient-72" x1="278.36" y1="26.9" x2="279.27" y2="26.9" xlink:href="#linear-gradient"/><linearGradient id="linear-gradient-73" x1="278.24" y1="22.95" x2="279.19" y2="22.95" xlink:href="#linear-gradient"/><linearGradient id="linear-gradient-74" x1="286.59" y1="23.92" x2="287.43" y2="23.92" xlink:href="#linear-gradient"/><linearGradient id="linear-gradient-75" x1="269.68" y1="219.87" x2="270.29" y2="219.87" xlink:href="#linear-gradient"/><linearGradient id="linear-gradient-76" x1="281.61" y1="221.27" x2="282.37" y2="221.27" xlink:href="#linear-gradient"/><linearGradient id="linear-gradient-77" x1="296.6" y1="215.48" x2="298" y2="215.48" xlink:href="#linear-gradient"/><linearGradient id="linear-gradient-78" x1="288.51" y1="215.63" x2="289.42" y2="215.63" xlink:href="#linear-gradient"/><linearGradient id="linear-gradient-79" x1="290" y1="211.79" x2="290.95" y2="211.79" xlink:href="#linear-gradient"/><linearGradient id="未命名的渐变_14-12" x1="-4926.01" y1="396.99" x2="-4846.26" y2="396.99" xlink:href="#未命名的渐变_14"/><linearGradient id="未命名的渐变_14-13" x1="-4923.88" y1="396.99" x2="-4848.4" y2="396.99" xlink:href="#未命名的渐变_14"/><linearGradient id="未命名的渐变_14-14" x1="-4940.46" y1="406.12" x2="-4860.71" y2="406.12" xlink:href="#未命名的渐变_14"/><linearGradient id="未命名的渐变_14-15" x1="-4938.33" y1="406.12" x2="-4862.85" y2="406.12" xlink:href="#未命名的渐变_14"/><linearGradient id="未命名的渐变_14-16" x1="428.72" y1="399.35" x2="508.47" y2="399.35" gradientTransform="matrix(1, 0, 0, 1, 0, 0)" xlink:href="#未命名的渐变_14"/><linearGradient id="未命名的渐变_14-17" x1="430.85" y1="399.35" x2="506.34" y2="399.35" gradientTransform="matrix(1, 0, 0, 1, 0, 0)" xlink:href="#未命名的渐变_14"/><linearGradient id="未命名的渐变_14-18" x1="414.27" y1="408.47" x2="494.02" y2="408.47" gradientTransform="matrix(1, 0, 0, 1, 0, 0)" xlink:href="#未命名的渐变_14"/><linearGradient id="未命名的渐变_14-19" x1="416.4" y1="408.47" x2="491.88" y2="408.47" gradientTransform="matrix(1, 0, 0, 1, 0, 0)" xlink:href="#未命名的渐变_14"/><linearGradient id="未命名的渐变_15-5" x1="63.39" y1="428.26" x2="208.6" y2="428.26" xlink:href="#未命名的渐变_15"/><linearGradient id="未命名的渐变_9-3" x1="208.59" y1="465.34" x2="63.26" y2="465.34" xlink:href="#未命名的渐变_9"/><linearGradient id="未命名的渐变_15-6" x1="459.79" y1="423.67" x2="604.99" y2="423.67" xlink:href="#未命名的渐变_15"/><linearGradient id="未命名的渐变_9-4" x1="459.65" y1="460.74" x2="604.98" y2="460.74" xlink:href="#未命名的渐变_9"/></defs><title>【插图】页面元素插图</title><path class="cls-1" d="M144.58,333.42c-4.89-2.85-4.91-7.5-.05-10.33l173.4,53.07c4.87-2.85,12.89-2.85,17.82,0l176.54-49.7c4.9,2.83,4.92,7.5,0,10.33l-175.9,97.27c-4.89,2.84-12.94,2.84-17.84,0Z"/><path class="cls-2" d="M512.27,318.89c4.92,2.86,4.94,7.5.06,10.37L336.42,426.53c-4.88,2.83-12.93,2.83-17.84,0l-174-100.68c-4.89-2.83-5-7.51-.05-10.33l176-97.27c4.87-2.89,12.89-2.89,17.8,0Z"/><path class="cls-3" d="M144.58,323.93c-4.89-2.86-4.91-7.49-.05-10.31l176-97.31c4.87-2.87,12.89-2.87,17.83,0L512.29,317c4.9,2.84,4.92,7.47,0,10.33l-175.9,97.26c-4.89,2.86-12.94,2.86-17.84,0Z"/><path class="cls-4" d="M516,324.49c0,.1,0,.26,0,.37a1.2,1.2,0,0,1-.11.32,1.47,1.47,0,0,1-.08.44,1.51,1.51,0,0,0-.11.3,2,2,0,0,0-.21.37,5.51,5.51,0,0,0-.3.5l-.06.11c-.13.17-.3.32-.41.49l-.12.13a6.16,6.16,0,0,1-.51.52c-.13.13-.27.17-.39.29a3.26,3.26,0,0,0-.33.31l-.46.26a2.43,2.43,0,0,1-.5.36l-175,96.79V426c-.32.2-1.64.94-2.06,1.16-.14,0-.25.11-.39.11-.3.14-.63.26-1,.38a2.24,2.24,0,0,0-.36.14,5.13,5.13,0,0,1-.65.16c-.18.05-.35.12-.5.15s-.45.11-.7.2a2.17,2.17,0,0,0-.48.05,8.22,8.22,0,0,1-1.43.18c-.15,0-.3.06-.46.06s-.55,0-.82,0a4,4,0,0,1-.57,0h-.68a4,4,0,0,1-.61,0,2.93,2.93,0,0,1-.6,0,2.14,2.14,0,0,1-.62-.06l-.61,0c-.19-.06-.38-.06-.58-.11a5.74,5.74,0,0,1-.69-.1,2.11,2.11,0,0,1-.49-.09c-.28-.09-.54-.14-.78-.21l-.48-.14a11.58,11.58,0,0,1-1.29-.45,3.86,3.86,0,0,1-.64-.25,3.52,3.52,0,0,1-.35-.16c-.32-.12-2-1.15-2.36-1.31v0L144.58,325.85c-2.45-1.43-3.7-3.3-3.67-5.17l-.2,6.13c0,1.87,1.23,3.74,3.67,5.16l174,100.69v0l.9.48.33.12a2,2,0,0,0,.58.29.08.08,0,0,1,.07.05c.43.15.86.28,1.33.43h.08a.78.78,0,0,0,.4.11c.25.07.49.14.76.2.07,0,.12.06.19.06a1.06,1.06,0,0,1,.33.08,5.4,5.4,0,0,1,.63.08c.09,0,.22,0,.28,0h.35a1.46,1.46,0,0,0,.6.08,1.26,1.26,0,0,1,.29.05,1.67,1.67,0,0,1,.32,0c.19,0,.4,0,.6,0h1.85a4.79,4.79,0,0,0,.83-.09h.49c.46-.08.94-.12,1.41-.19h.06c.14,0,.3-.08.47-.1a5.65,5.65,0,0,1,.65-.15,2.08,2.08,0,0,1,.48-.11c.23-.11.44-.14.66-.23l.15,0a.31.31,0,0,0,.22-.09,4.19,4.19,0,0,0,1-.36.92.92,0,0,0,.36-.17c.2-.08.7-.34,1.19-.6v0l175.94-97.29.1-.09.37-.19c.15-.13.32-.25.47-.37a3.14,3.14,0,0,0,.32-.25,1.51,1.51,0,0,1,.39-.3l.06-.06c.19-.17.34-.32.49-.48l.07-.11a1.05,1.05,0,0,0,.24-.27.43.43,0,0,1,.2-.2l0-.1a1.92,1.92,0,0,0,.3-.46l0-.08a3.15,3.15,0,0,1,.19-.37c0-.12.07-.19.08-.27l0,0a3,3,0,0,0,.14-.39,2.35,2.35,0,0,1,0-.24.15.15,0,0,1,0-.09,2.85,2.85,0,0,1,.06-.39c0-.06,0-.15,0-.29v-.05l.17-6.14S516,324.35,516,324.49Z"/><path class="cls-1" d="M467.34,235.84c-3.37-1.94-3.38-5.12,0-7.06L531.08,211a13.51,13.51,0,0,1,12.2,0l64.19,17.83c3.37,1.94,3.39,5.12,0,7.06L543.74,272.9a13.45,13.45,0,0,1-12.2,0Z"/><path class="cls-2" d="M607.47,199.16c3.37,1.94,3.38,5.12,0,7.07L543.74,243.3a13.48,13.48,0,0,1-12.2,0l-64.2-37.06c-3.37-1.95-3.38-5.13,0-7.07l63.77-37.07a13.54,13.54,0,0,1,12.21,0Z"/><path class="cls-5" d="M467.34,203.4c-3.37-1.94-3.38-5.13,0-7.07l63.78-37.06a13.45,13.45,0,0,1,12.2,0l64.19,37.06c3.37,1.95,3.39,5.13,0,7.07l-63.77,37.06a13.45,13.45,0,0,1-12.2,0Z"/><path class="cls-6" d="M610,203a2.19,2.19,0,0,1,0,.27,1.08,1.08,0,0,1-.05.21,2.29,2.29,0,0,1-.08.28,1.8,1.8,0,0,1-.08.21l-.13.27c-.07.12-.14.24-.22.36l0,.06a2.79,2.79,0,0,1-.28.34l-.06.08a3,3,0,0,1-.36.35c-.08.08-.18.15-.27.23l-.23.18a3.53,3.53,0,0,1-.32.21l-.32.21-63.15,36.7h0c-.25.14-1.15.64-1.43.76l-.25.12a6.61,6.61,0,0,1-.67.24,1.06,1.06,0,0,1-.25.09l-.44.13-.34.09-.48.1-.32.07c-.33.05-.65.1-1,.13l-.31,0-.58,0h-1.25l-.44,0-.4,0-.43,0-.39-.06a3.4,3.4,0,0,1-.46-.08l-.35-.07-.55-.13-.29-.08c-.32-.09-.63-.2-.92-.31l-.43-.19-.23-.09-1.61-.9h0l-63.21-36.49c-1.7-1-2.54-2.27-2.53-3.57l-.14,26.48c0,1.29.85,2.58,2.54,3.56l63.34,36.57h0l.31.18.54.31h0l.64.34.21.09a3.52,3.52,0,0,0,.39.17l.05,0c.3.11.6.22.92.31l.07,0,.25.07.51.12.14,0a1.89,1.89,0,0,0,.23.05l.44.07a1.08,1.08,0,0,0,.19,0,1.6,1.6,0,0,0,.23,0,2.58,2.58,0,0,0,.39,0l.22,0h.21l.42,0H538l.14,0,.57,0a1.1,1.1,0,0,1,.25,0h.07c.33,0,.66-.08,1-.14h.06l.29-.07a3.78,3.78,0,0,0,.46-.1l.34-.08.44-.13.1,0,.16,0c.23-.09.44-.17.66-.27l.25-.1c.14-.06.48-.24.8-.42h0l63.78-37.06.1-.06.23-.15c.1-.07.21-.13.31-.21a2,2,0,0,0,.24-.19l.26-.21s0,0,.05,0l.31-.3a.55.55,0,0,1,.06-.08,1.46,1.46,0,0,0,.16-.19l.12-.16a.21.21,0,0,0,0-.06,2.9,2.9,0,0,0,.19-.29l0-.07c0-.09.08-.18.12-.26s.06-.11.08-.16,0,0,0-.06,0-.18.07-.27a.75.75,0,0,0,.05-.16v-.06a1.07,1.07,0,0,0,0-.25,1.81,1.81,0,0,0,0-.19v-.08l.12-26.47C610,202.81,610,202.88,610,203Z"/><g class="cls-7"><path class="cls-8" d="M556.35,243.69l3.22-1.86c1-.59,1.83-.11,1.84,1a4,4,0,0,1-1.84,3.18l-3.2,1.85c-1,.58-1.85.11-1.85-1.06a4.05,4.05,0,0,1,1.83-3.16Z"/></g><g class="cls-7"><path class="cls-1" d="M556.35,250.51l3.22-1.86c1-.59,1.83-.11,1.84,1a4,4,0,0,1-1.84,3.17l-3.2,1.85c-1,.59-1.85.12-1.85-1.05a4,4,0,0,1,1.83-3.16Z"/></g><g class="cls-7"><path class="cls-1" d="M547.08,248.52l3.21-1.85c1-.6,1.84-.13,1.84,1a4,4,0,0,1-1.83,3.18l-3.21,1.84c-1,.59-1.84.12-1.84-1a4,4,0,0,1,1.83-3.17Z"/></g><g class="cls-7"><path class="cls-1" d="M547.08,255.34l3.21-1.85c1-.59,1.84-.13,1.84,1a4,4,0,0,1-1.83,3.17l-3.21,1.86c-1,.58-1.84.11-1.84-1.06a4.05,4.05,0,0,1,1.83-3.16Z"/></g><g class="cls-7"><path class="cls-1" d="M568.29,236.37l32.43-18.72c1-.59,1.84-.12,1.84,1a4,4,0,0,1-1.82,3.16L568.3,240.59c-1,.58-1.84.12-1.84-1.05a4,4,0,0,1,1.83-3.17Z"/></g><g class="cls-7"><path class="cls-1" d="M568.29,243.57l32.43-18.72c1-.58,1.84-.11,1.84,1.05a4,4,0,0,1-1.82,3.18L568.3,247.79c-1,.59-1.84.13-1.84-1a4,4,0,0,1,1.83-3.18Z"/></g><path class="cls-9" d="M413.91,281.09a3.61,3.61,0,0,0,1.75-.46l72.63-41.19a3.56,3.56,0,0,0-3.51-6.19l-72.63,41.19a3.56,3.56,0,0,0,1.76,6.65Z"/><path class="cls-10" d="M413.91,279a1.47,1.47,0,0,0,.7-.19l72.63-41.19a1.38,1.38,0,0,0,.67-.86,1.42,1.42,0,0,0-1.38-1.8,1.47,1.47,0,0,0-.7.19L413.2,276.3a1.39,1.39,0,0,0-.67.85,1.43,1.43,0,0,0,1.38,1.81Z"/><path class="cls-11" d="M428.36,290.21a3.61,3.61,0,0,0,1.75-.46l72.63-41.19a3.56,3.56,0,0,0-3.5-6.19L426.6,283.56a3.56,3.56,0,0,0,1.76,6.65Z"/><path class="cls-12" d="M428.36,288.08a1.37,1.37,0,0,0,.7-.19l72.63-41.18a1.44,1.44,0,0,0,.67-.86,1.43,1.43,0,0,0-2.07-1.62l-72.64,41.19a1.42,1.42,0,0,0,.71,2.66Z"/><path class="cls-1" d="M67,219.75c-3.36-1.94-3.38-5.12,0-7.06l63.78-17.83a13.51,13.51,0,0,1,12.2,0l64.2,17.83c3.36,1.94,3.38,5.12,0,7.06l-63.77,37.06a13.45,13.45,0,0,1-12.2,0Z"/><path class="cls-2" d="M207.17,183.07c3.37,1.94,3.39,5.12,0,7.07l-63.77,37.07a13.48,13.48,0,0,1-12.2,0L67,190.14c-3.36-1.95-3.38-5.13,0-7.07L130.78,146a13.51,13.51,0,0,1,12.2,0Z"/><path class="cls-13" d="M67,187.31c-3.36-1.94-3.38-5.13,0-7.07l63.78-37.06a13.45,13.45,0,0,1,12.2,0l64.2,37.06c3.36,1.95,3.38,5.13,0,7.07l-63.77,37.06a13.45,13.45,0,0,1-12.2,0Z"/><path class="cls-14" d="M209.69,186.88a1.35,1.35,0,0,1,0,.28,1.17,1.17,0,0,1-.05.2,1.29,1.29,0,0,1-.08.28,1.8,1.8,0,0,1-.08.21l-.13.27a2.32,2.32,0,0,1-.22.36l0,.06a4,4,0,0,1-.27.34l-.07.08a3,3,0,0,1-.36.35l-.26.23-.24.18a3.53,3.53,0,0,1-.32.21l-.32.21-63.14,36.7h0c-.26.14-1.16.64-1.44.76l-.25.12c-.21.09-.44.17-.66.24a1.34,1.34,0,0,1-.26.09l-.44.13-.34.09-.48.1-.32.07c-.32.05-.65.1-1,.13-.11,0-.21,0-.32,0l-.58,0h-1.25l-.43,0-.41,0-.43,0-.39-.06a3.4,3.4,0,0,1-.46-.08l-.35-.07-.54-.13-.3-.08c-.31-.09-.62-.2-.92-.31l-.43-.19-.22-.09c-.22-.11-1.42-.78-1.62-.9h0L67,190.14c-1.69-1-2.54-2.27-2.53-3.57l-.14,26.48c0,1.29.85,2.58,2.54,3.56l63.34,36.57h0l.31.18.55.31h0l.63.34.21.09c.13.06.25.12.39.17l0,0c.3.11.6.22.92.31l.07,0,.25.07.51.12.15,0a1.74,1.74,0,0,0,.22,0l.44.07.19,0,.23,0a2.58,2.58,0,0,0,.4,0l.21,0h.21c.15,0,.28,0,.42,0h1.12l.14,0,.58,0a1,1,0,0,1,.24,0h.08c.33,0,.65-.08,1-.14h.05l.29-.07a3.41,3.41,0,0,0,.46-.1l.34-.08.44-.13.1,0,.16-.05c.23-.09.45-.17.66-.27l.25-.1c.14-.06.48-.24.81-.42h0l63.78-37.06.1-.06.22-.15c.1-.07.21-.13.31-.21A2,2,0,0,0,208,216l.26-.21.05,0,.31-.3a.55.55,0,0,1,.06-.08,1.46,1.46,0,0,0,.16-.19,1,1,0,0,0,.12-.16L209,215l.18-.29,0-.07.13-.26c0-.06.05-.11.07-.16s0,0,0-.06a2.68,2.68,0,0,0,.07-.27.75.75,0,0,0,.05-.16v-.06a2.17,2.17,0,0,0,0-.25c0-.07,0-.14,0-.19v-.08l.13-26.47C209.71,186.72,209.69,186.79,209.69,186.88Z"/><g class="cls-7"><path class="cls-8" d="M119.15,228.44l-3.22-1.85c-1-.59-1.83-.12-1.83,1a4,4,0,0,0,1.83,3.18l3.21,1.85c1,.58,1.84.12,1.84-1.06a4,4,0,0,0-1.83-3.16Z"/></g><g class="cls-7"><path class="cls-1" d="M119.15,235.26l-3.22-1.86c-1-.59-1.83-.11-1.83,1a4,4,0,0,0,1.83,3.17l3.21,1.85c1,.59,1.84.12,1.84-1.05a4,4,0,0,0-1.83-3.16Z"/></g><g class="cls-7"><path class="cls-1" d="M128.42,233.27l-3.21-1.85c-1-.59-1.84-.13-1.84,1a4,4,0,0,0,1.83,3.18l3.21,1.84c1,.59,1.84.12,1.84-1a4,4,0,0,0-1.83-3.18Z"/></g><g class="cls-7"><path class="cls-1" d="M128.42,240.09l-3.21-1.85c-1-.59-1.84-.13-1.84,1a4,4,0,0,0,1.83,3.17l3.21,1.86c1,.58,1.84.11,1.84-1.05a4,4,0,0,0-1.83-3.17Z"/></g><g class="cls-7"><path class="cls-1" d="M107.22,221.12,74.78,202.4c-1-.59-1.84-.11-1.84,1.06a4,4,0,0,0,1.83,3.16l32.43,18.72c1,.58,1.84.12,1.85-1a4.07,4.07,0,0,0-1.83-3.18Z"/></g><g class="cls-7"><path class="cls-1" d="M107.22,228.33,74.78,209.6c-1-.58-1.84-.11-1.84,1.05a4,4,0,0,0,1.83,3.18l32.43,18.72c1,.58,1.84.12,1.85-1.05a4.07,4.07,0,0,0-1.83-3.17Z"/></g><path class="cls-15" d="M258.83,269.08a3.5,3.5,0,0,1-1.75-.46l-72.63-41.19a3.55,3.55,0,1,1,3.51-6.18l72.63,41.19a3.55,3.55,0,0,1-1.76,6.64Z"/><path class="cls-16" d="M258.83,267a1.46,1.46,0,0,1-.7-.18L185.5,225.58a1.41,1.41,0,0,1-.67-.86,1.42,1.42,0,0,1,1.38-1.8,1.37,1.37,0,0,1,.7.19l72.63,41.18a1.42,1.42,0,0,1-.71,2.66Z"/><path class="cls-17" d="M244.38,278.21a3.51,3.51,0,0,1-1.75-.47L170,236.56a3.56,3.56,0,0,1,3.5-6.19l72.64,41.19a3.56,3.56,0,0,1-1.76,6.65Z"/><path class="cls-18" d="M244.38,276.07a1.46,1.46,0,0,1-.7-.18L171.05,234.7a1.43,1.43,0,0,1-.54-1.94,1.44,1.44,0,0,1,1.24-.72,1.41,1.41,0,0,1,.7.19l72.64,41.18a1.48,1.48,0,0,1,.67.86,1.43,1.43,0,0,1-1.38,1.8Z"/><path class="cls-19" d="M322.47,247.76l-91.57.45L205,320.1a6.67,6.67,0,0,0,3.08,7.58l114.4,66.05a10.18,10.18,0,0,0,10.16,0L447,327.68a6.67,6.67,0,0,0,3.08-7.58L424.2,248.21l-91.57-.45A10.14,10.14,0,0,0,322.47,247.76Z"/><path class="cls-1" d="M431.4,267.74,332.24,325a9.36,9.36,0,0,1-9.38,0L223.7,267.74l-9.38,26a6.16,6.16,0,0,0,2.85,7l105.69,61a9.41,9.41,0,0,0,9.38,0l105.69-61a6.16,6.16,0,0,0,2.85-7Z"/><path class="cls-20" d="M323.67,192.43l-90.85,52.45a3.84,3.84,0,0,0,0,6.65L323.67,304a7.74,7.74,0,0,0,7.76,0l90.85-52.45a3.84,3.84,0,0,0,0-6.65l-90.85-52.45A7.74,7.74,0,0,0,323.67,192.43Z"/><path class="cls-1" d="M324.37,202.46l-74.51,43a3.14,3.14,0,0,0,0,5.45l74.51,43a6.34,6.34,0,0,0,6.36,0l74.51-43a3.14,3.14,0,0,0,0-5.45l-74.51-43A6.34,6.34,0,0,0,324.37,202.46Z"/><path class="cls-21" d="M325,212.16l-58.71,33.9a2.47,2.47,0,0,0,0,4.29L325,284.25a5,5,0,0,0,5,0l58.71-33.9a2.47,2.47,0,0,0,0-4.29l-58.71-33.9A5,5,0,0,0,325,212.16Z"/><path class="cls-22" d="M266.33,247.48,325,213.58a5.05,5.05,0,0,1,5,0l58.71,33.9a2.42,2.42,0,0,1,1.13,1.44,2.46,2.46,0,0,0-1.13-2.86l-58.71-33.9a5,5,0,0,0-5,0l-58.71,33.9a2.46,2.46,0,0,0-1.13,2.86A2.42,2.42,0,0,1,266.33,247.48Z"/><path class="cls-23" d="M232.91,278l4,2.27-7.3,20.52-3.94-2.23ZM232,302.24l3.93,2.22,5.63-16-3.94-2.28Zm6.4,3.65,3.94,2.22,4.06-11.39-3.94-2.28Zm6.41,3.65,3.94,2.22,6.41-18-3.95-2.28Zm6.4,3.65,3.94,2.22,3.28-9.12L254.52,304Z"/><path class="cls-24" d="M375.15,308.34c0,.3-1.34,1.48-1.57,1.78-.5.64-1,1.28-1.52,1.93-.91,1.23-1.19,2.95-2,4.29a7,7,0,0,1-3.42,3,11.85,11.85,0,0,1-3.14.51,7.51,7.51,0,0,0-3.07.75c-1.91,1.08-2.11,3.89-2.67,5.79a6.86,6.86,0,0,1-1.15,2.53,6.48,6.48,0,0,1-2.24,1.55,11.38,11.38,0,0,1-2.43.93c-1.64.38-3.36.12-5,.31a9.38,9.38,0,0,0-6.36,3.64,26.39,26.39,0,0,0-1.49,2.38,34.45,34.45,0,0,1-2.52,3.62,3.12,3.12,0,0,0-.71,2.62v8.49l45.46-26.7Z"/><polygon class="cls-25" points="270.22 299.6 285.12 308.2 284.11 311.02 269.21 302.41 270.22 299.6"/><polygon class="cls-25" points="267.52 306.97 282.09 315.41 281.57 316.88 266.99 308.43 267.52 306.97"/><polygon class="cls-8" points="283.4 316.14 287.37 318.47 286.85 319.93 282.87 317.6 283.4 316.14"/><polygon class="cls-8" points="290.98 324.83 292.71 325.87 292.19 327.33 290.46 326.29 290.98 324.83"/><polygon class="cls-8" points="293.62 326.43 295.35 327.47 294.82 328.93 293.09 327.89 293.62 326.43"/><polygon class="cls-25" points="266.23 310.49 273.96 314.95 273.44 316.41 265.71 311.95 266.23 310.49"/><polygon class="cls-25" points="275.54 315.87 290.12 324.27 289.6 325.73 275.01 317.33 275.54 315.87"/><polygon class="cls-25" points="282.2 324 296.79 332.39 296.26 333.86 281.68 325.46 282.2 324"/><polygon class="cls-25" points="297.83 332.99 309.63 339.77 309.11 341.23 297.3 334.45 297.83 332.99"/><polygon class="cls-25" points="296.37 328.06 310.95 336.46 310.43 337.92 295.84 329.52 296.37 328.06"/><polygon class="cls-25" points="289.23 319.55 296.95 324.01 296.43 325.47 288.7 321.01 289.23 319.55"/><polygon class="cls-25" points="298.1 324.75 312.13 332.8 311.61 334.26 297.57 326.2 298.1 324.75"/><polygon class="cls-25" points="264.95 314.01 268.13 315.87 267.61 317.33 264.42 315.47 264.95 314.01"/><polygon class="cls-8" points="277.69 321.38 280.88 323.24 280.35 324.7 277.16 322.84 277.69 321.38"/><polygon class="cls-8" points="269.07 316.41 276.8 320.87 276.27 322.33 268.55 317.87 269.07 316.41"/><polygon class="cls-8" points="289.11 332.14 296.83 336.6 296.31 338.06 288.58 333.6 289.11 332.14"/><polygon class="cls-8" points="297.69 337.11 308.4 343.29 307.88 344.75 297.16 338.57 297.69 337.11"/><polygon class="cls-25" points="263.66 317.53 271.39 321.99 270.87 323.45 263.14 318.99 263.66 317.53"/><polygon class="cls-25" points="272.8 322.77 287.64 331.24 287.11 332.7 272.27 324.22 272.8 322.77"/><polygon class="cls-8" points="412.65 291.83 408.68 294.16 409.2 295.62 413.18 293.29 412.65 291.83"/><polygon class="cls-8" points="405.07 300.52 403.34 301.56 403.86 303.02 405.59 301.98 405.07 300.52"/><polygon class="cls-8" points="402.43 302.12 400.7 303.15 401.23 304.62 402.96 303.58 402.43 302.12"/><polygon class="cls-25" points="413.96 295.3 405.93 299.95 406.45 301.42 414.49 296.75 413.96 295.3"/><polygon class="cls-25" points="415.27 298.94 399.26 308.08 399.79 309.55 415.79 300.39 415.27 298.94"/><polygon class="cls-25" points="398.22 308.68 386.42 315.46 386.94 316.92 398.75 310.14 398.22 308.68"/><polygon class="cls-25" points="399.68 303.75 385.1 312.15 385.62 313.61 400.21 305.21 399.68 303.75"/><polygon class="cls-25" points="406.82 295.24 399.1 299.7 399.62 301.16 407.35 296.7 406.82 295.24"/><polygon class="cls-25" points="397.95 300.43 383.91 308.49 384.44 309.95 398.47 301.89 397.95 300.43"/><polygon class="cls-8" points="407.66 307.41 404.06 309.53 404.59 310.99 408.19 308.87 407.66 307.41"/><polygon class="cls-8" points="403.21 310.03 402.29 310.55 402.81 312.01 403.74 311.49 403.21 310.03"/><polygon class="cls-25" points="401.08 311.18 387.65 318.98 388.17 320.44 401.6 312.64 401.08 311.18"/><polygon class="cls-25" points="416.49 302.29 408.41 306.93 408.94 308.39 417.01 303.75 416.49 302.29"/><path class="cls-25" d="M425.42,299.65a5.76,5.76,0,0,1-2.73-.69,6.83,6.83,0,0,1-3.32-4.51c-.91-3.8,1.1-7.9,4.48-9.15a5.79,5.79,0,0,1,4.8.32,6.79,6.79,0,0,1,3.32,4.5h0c.91,3.8-1.1,7.9-4.48,9.15A6,6,0,0,1,425.42,299.65Zm.5-12.17a3.6,3.6,0,0,0-1.19.21,5.3,5.3,0,0,0-2.88,6.17,4.29,4.29,0,0,0,2,2.85,3.25,3.25,0,0,0,2.71.17,5.29,5.29,0,0,0,2.88-6.17h0a4.29,4.29,0,0,0-2-2.84A3.25,3.25,0,0,0,425.92,287.48Z"/><path class="cls-26" d="M425.42,299.65a5.76,5.76,0,0,1-2.73-.69,6.83,6.83,0,0,1-3.32-4.51,1.27,1.27,0,0,1,2.48-.59,4.29,4.29,0,0,0,2,2.85,3.25,3.25,0,0,0,2.71.17,5.29,5.29,0,0,0,2.88-6.17,4.29,4.29,0,0,0-2-2.84,3.23,3.23,0,0,0-2.72-.18,1.27,1.27,0,1,1-.88-2.39,5.79,5.79,0,0,1,4.8.32,6.79,6.79,0,0,1,3.32,4.5c.91,3.8-1.1,7.9-4.48,9.15A6,6,0,0,1,425.42,299.65Z"/><g class="cls-27"><path class="cls-8" d="M325.7,213.45,267,247.35a2.48,2.48,0,0,0,0,4.29l58.72,33.9a5,5,0,0,0,5,0l58.72-33.9a2.48,2.48,0,0,0,0-4.29l-58.72-33.9A5,5,0,0,0,325.7,213.45Z"/><path class="cls-28" d="M325.7,212.21,267,246.11a2.48,2.48,0,0,0,0,4.29l58.72,33.9a5,5,0,0,0,5,0l58.72-33.9a2.48,2.48,0,0,0,0-4.29l-58.72-33.9A5,5,0,0,0,325.7,212.21Z"/><path class="cls-29" d="M325.7,211,267,244.86a2.49,2.49,0,0,0,0,4.3l58.72,33.9a5,5,0,0,0,5,0l58.72-33.9a2.49,2.49,0,0,0,0-4.3L330.71,211A5,5,0,0,0,325.7,211Z"/><path class="cls-30" d="M325.7,209.72,267,243.62a2.49,2.49,0,0,0,0,4.3l58.72,33.9a5,5,0,0,0,5,0l58.72-33.9a2.49,2.49,0,0,0,0-4.3l-58.72-33.9A5,5,0,0,0,325.7,209.72Z"/><path class="cls-31" d="M325.7,208.48,267,242.38a2.49,2.49,0,0,0,0,4.3l58.72,33.89a5,5,0,0,0,5,0l58.72-33.89a2.49,2.49,0,0,0,0-4.3l-58.72-33.9A5,5,0,0,0,325.7,208.48Z"/><path class="cls-32" d="M325.7,207.24,267,241.14a2.48,2.48,0,0,0,0,4.29l58.72,33.9a5,5,0,0,0,5,0l58.72-33.9a2.48,2.48,0,0,0,0-4.29l-58.72-33.9A5,5,0,0,0,325.7,207.24Z"/><path class="cls-33" d="M325.7,206,267,239.9a2.48,2.48,0,0,0,0,4.29l58.72,33.9a5,5,0,0,0,5,0l58.72-33.9a2.48,2.48,0,0,0,0-4.29L330.71,206A5,5,0,0,0,325.7,206Z"/><path class="cls-34" d="M325.7,204.76,267,238.66a2.48,2.48,0,0,0,0,4.29l58.72,33.9a5,5,0,0,0,5,0L389.43,243a2.48,2.48,0,0,0,0-4.29l-58.72-33.9A5,5,0,0,0,325.7,204.76Z"/><path class="cls-35" d="M325.7,203.52,267,237.41a2.49,2.49,0,0,0,0,4.3l58.72,33.9a5,5,0,0,0,5,0l58.72-33.9a2.49,2.49,0,0,0,0-4.3l-58.72-33.89A5,5,0,0,0,325.7,203.52Z"/><path class="cls-36" d="M325.7,202.27,267,236.17a2.49,2.49,0,0,0,0,4.3l58.72,33.9a5,5,0,0,0,5,0l58.72-33.9a2.49,2.49,0,0,0,0-4.3l-58.72-33.9A5,5,0,0,0,325.7,202.27Z"/><path class="cls-37" d="M325.7,201,267,234.93a2.49,2.49,0,0,0,0,4.3l58.72,33.9a5,5,0,0,0,5,0l58.72-33.9a2.49,2.49,0,0,0,0-4.3L330.71,201A5,5,0,0,0,325.7,201Z"/><path class="cls-38" d="M325.7,199.79,267,233.69a2.49,2.49,0,0,0,0,4.3l58.72,33.89a5,5,0,0,0,5,0L389.43,238a2.49,2.49,0,0,0,0-4.3l-58.72-33.9A5,5,0,0,0,325.7,199.79Z"/><path class="cls-39" d="M325.7,198.55,267,232.45a2.48,2.48,0,0,0,0,4.29l58.72,33.9a5,5,0,0,0,5,0l58.72-33.9a2.48,2.48,0,0,0,0-4.29l-58.72-33.9A5,5,0,0,0,325.7,198.55Z"/><path class="cls-40" d="M325.7,197.31,267,231.21a2.48,2.48,0,0,0,0,4.29l58.72,33.9a5,5,0,0,0,5,0l58.72-33.9a2.48,2.48,0,0,0,0-4.29l-58.72-33.9A5,5,0,0,0,325.7,197.31Z"/><path class="cls-41" d="M325.7,196.07,267,230a2.48,2.48,0,0,0,0,4.29l58.72,33.9a5,5,0,0,0,5,0l58.72-33.9a2.48,2.48,0,0,0,0-4.29l-58.72-33.9A5,5,0,0,0,325.7,196.07Z"/><path class="cls-42" d="M325.7,194.83,267,228.72a2.49,2.49,0,0,0,0,4.3l58.72,33.9a5,5,0,0,0,5,0L389.43,233a2.49,2.49,0,0,0,0-4.3l-58.72-33.89A5,5,0,0,0,325.7,194.83Z"/><path class="cls-43" d="M325.7,193.58,267,227.48a2.49,2.49,0,0,0,0,4.3l58.72,33.9a5,5,0,0,0,5,0l58.72-33.9a2.49,2.49,0,0,0,0-4.3l-58.72-33.9A5,5,0,0,0,325.7,193.58Z"/><path class="cls-44" d="M325.7,192.34,267,226.24a2.49,2.49,0,0,0,0,4.3l58.72,33.9a5,5,0,0,0,5,0l58.72-33.9a2.49,2.49,0,0,0,0-4.3l-58.72-33.9A5,5,0,0,0,325.7,192.34Z"/><path class="cls-45" d="M325.7,191.1,267,225a2.49,2.49,0,0,0,0,4.3l58.72,33.89a5,5,0,0,0,5,0l58.72-33.89a2.49,2.49,0,0,0,0-4.3l-58.72-33.9A5,5,0,0,0,325.7,191.1Z"/><path class="cls-46" d="M325.7,189.86,267,223.76a2.48,2.48,0,0,0,0,4.29L325.7,262a5,5,0,0,0,5,0l58.72-33.9a2.48,2.48,0,0,0,0-4.29l-58.72-33.9A5,5,0,0,0,325.7,189.86Z"/><path class="cls-47" d="M325.7,188.62,267,222.52a2.48,2.48,0,0,0,0,4.29l58.72,33.9a5,5,0,0,0,5,0l58.72-33.9a2.48,2.48,0,0,0,0-4.29l-58.72-33.9A5,5,0,0,0,325.7,188.62Z"/><path class="cls-48" d="M325.7,187.38,267,221.28a2.48,2.48,0,0,0,0,4.29l58.72,33.9a5,5,0,0,0,5,0l58.72-33.9a2.48,2.48,0,0,0,0-4.29l-58.72-33.9A5,5,0,0,0,325.7,187.38Z"/><path class="cls-49" d="M325.7,186.14,267,220a2.49,2.49,0,0,0,0,4.3l58.72,33.9a5,5,0,0,0,5,0l58.72-33.9a2.49,2.49,0,0,0,0-4.3l-58.72-33.89A5,5,0,0,0,325.7,186.14Z"/><path class="cls-50" d="M325.7,184.89,267,218.79a2.49,2.49,0,0,0,0,4.3L325.7,257a5,5,0,0,0,5,0l58.72-33.9a2.49,2.49,0,0,0,0-4.3l-58.72-33.9A5,5,0,0,0,325.7,184.89Z"/><path class="cls-51" d="M325.7,183.65,267,217.55a2.49,2.49,0,0,0,0,4.3l58.72,33.9a5,5,0,0,0,5,0l58.72-33.9a2.49,2.49,0,0,0,0-4.3l-58.72-33.9A5,5,0,0,0,325.7,183.65Z"/><path class="cls-52" d="M325.7,182.41,267,216.31a2.49,2.49,0,0,0,0,4.3L325.7,254.5a5,5,0,0,0,5,0l58.72-33.89a2.49,2.49,0,0,0,0-4.3l-58.72-33.9A5,5,0,0,0,325.7,182.41Z"/><path class="cls-53" d="M325.7,181.17,267,215.07a2.48,2.48,0,0,0,0,4.29l58.72,33.9a5,5,0,0,0,5,0l58.72-33.9a2.48,2.48,0,0,0,0-4.29l-58.72-33.9A5,5,0,0,0,325.7,181.17Z"/><path class="cls-54" d="M325.7,179.93,267,213.83a2.48,2.48,0,0,0,0,4.29L325.7,252a5,5,0,0,0,5,0l58.72-33.9a2.48,2.48,0,0,0,0-4.29l-58.72-33.9A5,5,0,0,0,325.7,179.93Z"/><path class="cls-55" d="M325.7,178.69,267,212.59a2.48,2.48,0,0,0,0,4.29l58.72,33.9a5,5,0,0,0,5,0l58.72-33.9a2.48,2.48,0,0,0,0-4.29l-58.72-33.9A5,5,0,0,0,325.7,178.69Z"/><path class="cls-56" d="M325.7,177.45,267,211.34a2.49,2.49,0,0,0,0,4.3l58.72,33.9a5,5,0,0,0,5,0l58.72-33.9a2.49,2.49,0,0,0,0-4.3l-58.72-33.89A5,5,0,0,0,325.7,177.45Z"/><path class="cls-57" d="M325.7,176.2,267,210.1a2.49,2.49,0,0,0,0,4.3l58.72,33.9a5,5,0,0,0,5,0l58.72-33.9a2.49,2.49,0,0,0,0-4.3l-58.72-33.9A5,5,0,0,0,325.7,176.2Z"/><path class="cls-58" d="M325.7,175,267,208.86a2.49,2.49,0,0,0,0,4.3l58.72,33.89a5,5,0,0,0,5,0l58.72-33.89a2.49,2.49,0,0,0,0-4.3L330.71,175A5,5,0,0,0,325.7,175Z"/><path class="cls-59" d="M325.7,173.72,267,207.62a2.48,2.48,0,0,0,0,4.29l58.72,33.9a5,5,0,0,0,5,0l58.72-33.9a2.48,2.48,0,0,0,0-4.29l-58.72-33.9A5,5,0,0,0,325.7,173.72Z"/><path class="cls-60" d="M325.7,172.48,267,206.38a2.48,2.48,0,0,0,0,4.29l58.72,33.9a5,5,0,0,0,5,0l58.72-33.9a2.48,2.48,0,0,0,0-4.29l-58.72-33.9A5,5,0,0,0,325.7,172.48Z"/><path class="cls-61" d="M325.7,171.24,267,205.14a2.48,2.48,0,0,0,0,4.29l58.72,33.9a5,5,0,0,0,5,0l58.72-33.9a2.48,2.48,0,0,0,0-4.29l-58.72-33.9A5,5,0,0,0,325.7,171.24Z"/><path class="cls-62" d="M325.7,170,267,203.89a2.49,2.49,0,0,0,0,4.3l58.72,33.9a5,5,0,0,0,5,0l58.72-33.9a2.49,2.49,0,0,0,0-4.3L330.71,170A5,5,0,0,0,325.7,170Z"/><path class="cls-63" d="M325.7,168.75,267,202.65a2.49,2.49,0,0,0,0,4.3l58.72,33.9a5,5,0,0,0,5,0L389.43,207a2.49,2.49,0,0,0,0-4.3l-58.72-33.9A5,5,0,0,0,325.7,168.75Z"/><path class="cls-64" d="M325.7,167.51,267,201.41a2.49,2.49,0,0,0,0,4.3l58.72,33.9a5,5,0,0,0,5,0l58.72-33.9a2.49,2.49,0,0,0,0-4.3l-58.72-33.9A5,5,0,0,0,325.7,167.51Z"/><path class="cls-65" d="M325.7,166.27,267,200.17a2.49,2.49,0,0,0,0,4.3l58.72,33.89a5,5,0,0,0,5,0l58.72-33.89a2.49,2.49,0,0,0,0-4.3l-58.72-33.9A5,5,0,0,0,325.7,166.27Z"/><path class="cls-66" d="M325.7,165,267,198.93a2.48,2.48,0,0,0,0,4.29l58.72,33.9a5,5,0,0,0,5,0l58.72-33.9a2.48,2.48,0,0,0,0-4.29L330.71,165A5,5,0,0,0,325.7,165Z"/><path class="cls-67" d="M325.7,163.79,267,197.69a2.48,2.48,0,0,0,0,4.29l58.72,33.9a5,5,0,0,0,5,0L389.43,202a2.48,2.48,0,0,0,0-4.29l-58.72-33.9A5,5,0,0,0,325.7,163.79Z"/><path class="cls-68" d="M325.7,162.55,267,196.45a2.48,2.48,0,0,0,0,4.29l58.72,33.9a5,5,0,0,0,5,0l58.72-33.9a2.48,2.48,0,0,0,0-4.29l-58.72-33.9A5,5,0,0,0,325.7,162.55Z"/><path class="cls-69" d="M325.7,161.31,267,195.2a2.49,2.49,0,0,0,0,4.3l58.72,33.9a5,5,0,0,0,5,0l58.72-33.9a2.49,2.49,0,0,0,0-4.3l-58.72-33.89A5,5,0,0,0,325.7,161.31Z"/><path class="cls-70" d="M325.7,160.06,267,194a2.49,2.49,0,0,0,0,4.3l58.72,33.9a5,5,0,0,0,5,0l58.72-33.9a2.49,2.49,0,0,0,0-4.3l-58.72-33.9A5,5,0,0,0,325.7,160.06Z"/><path class="cls-71" d="M325.7,158.82,267,192.72a2.49,2.49,0,0,0,0,4.3l58.72,33.9a5,5,0,0,0,5,0L389.43,197a2.49,2.49,0,0,0,0-4.3l-58.72-33.9A5,5,0,0,0,325.7,158.82Z"/><path class="cls-72" d="M325.7,157.58,267,191.48a2.49,2.49,0,0,0,0,4.3l58.72,33.89a5,5,0,0,0,5,0l58.72-33.89a2.49,2.49,0,0,0,0-4.3l-58.72-33.9A5,5,0,0,0,325.7,157.58Z"/><path class="cls-73" d="M325.7,156.34,267,190.24a2.48,2.48,0,0,0,0,4.29l58.72,33.9a5,5,0,0,0,5,0l58.72-33.9a2.48,2.48,0,0,0,0-4.29l-58.72-33.9A5,5,0,0,0,325.7,156.34Z"/><path class="cls-74" d="M325.7,155.1,267,189a2.48,2.48,0,0,0,0,4.29l58.72,33.9a5,5,0,0,0,5,0l58.72-33.9a2.48,2.48,0,0,0,0-4.29l-58.72-33.9A5,5,0,0,0,325.7,155.1Z"/><path class="cls-75" d="M325.7,153.86,267,187.76a2.48,2.48,0,0,0,0,4.29L325.7,226a5,5,0,0,0,5,0l58.72-33.9a2.48,2.48,0,0,0,0-4.29l-58.72-33.9A5,5,0,0,0,325.7,153.86Z"/><path class="cls-76" d="M325.7,152.62,267,186.51a2.49,2.49,0,0,0,0,4.3l58.72,33.9a5,5,0,0,0,5,0l58.72-33.9a2.49,2.49,0,0,0,0-4.3l-58.72-33.89A5,5,0,0,0,325.7,152.62Z"/><path class="cls-77" d="M325.7,151.37,267,185.27a2.49,2.49,0,0,0,0,4.3l58.72,33.9a5,5,0,0,0,5,0l58.72-33.9a2.49,2.49,0,0,0,0-4.3l-58.72-33.9A5,5,0,0,0,325.7,151.37Z"/><path class="cls-78" d="M325.7,150.13,267,184a2.49,2.49,0,0,0,0,4.3l58.72,33.9a5,5,0,0,0,5,0l58.72-33.9a2.49,2.49,0,0,0,0-4.3l-58.72-33.9A5,5,0,0,0,325.7,150.13Z"/><path class="cls-79" d="M325.7,148.89,267,182.79a2.49,2.49,0,0,0,0,4.3L325.7,221a5,5,0,0,0,5,0l58.72-33.89a2.49,2.49,0,0,0,0-4.3l-58.72-33.9A5,5,0,0,0,325.7,148.89Z"/><path class="cls-80" d="M325.7,147.65,267,181.55a2.48,2.48,0,0,0,0,4.29l58.72,33.9a5,5,0,0,0,5,0l58.72-33.9a2.48,2.48,0,0,0,0-4.29l-58.72-33.9A5,5,0,0,0,325.7,147.65Z"/><path class="cls-81" d="M325.7,146.41,267,180.31a2.48,2.48,0,0,0,0,4.29l58.72,33.9a5,5,0,0,0,5,0l58.72-33.9a2.48,2.48,0,0,0,0-4.29l-58.72-33.9A5,5,0,0,0,325.7,146.41Z"/><path class="cls-82" d="M325.7,145.17,267,179.07a2.48,2.48,0,0,0,0,4.29l58.72,33.9a5,5,0,0,0,5,0l58.72-33.9a2.48,2.48,0,0,0,0-4.29l-58.72-33.9A5,5,0,0,0,325.7,145.17Z"/><path class="cls-83" d="M325.7,143.93,267,177.82a2.49,2.49,0,0,0,0,4.3L325.7,216a5,5,0,0,0,5,0l58.72-33.9a2.49,2.49,0,0,0,0-4.3l-58.72-33.89A5,5,0,0,0,325.7,143.93Z"/><path class="cls-84" d="M325.7,142.68,267,176.58a2.49,2.49,0,0,0,0,4.3l58.72,33.9a5,5,0,0,0,5,0l58.72-33.9a2.49,2.49,0,0,0,0-4.3l-58.72-33.9A5,5,0,0,0,325.7,142.68Z"/><path class="cls-85" d="M325.7,141.44,267,175.34a2.49,2.49,0,0,0,0,4.3l58.72,33.9a5,5,0,0,0,5,0l58.72-33.9a2.49,2.49,0,0,0,0-4.3l-58.72-33.9A5,5,0,0,0,325.7,141.44Z"/><path class="cls-86" d="M325.7,140.2,267,174.1a2.48,2.48,0,0,0,0,4.29l58.72,33.9a5,5,0,0,0,5,0l58.72-33.9a2.48,2.48,0,0,0,0-4.29l-58.72-33.9A5,5,0,0,0,325.7,140.2Z"/><path class="cls-87" d="M325.7,139,267,172.86a2.48,2.48,0,0,0,0,4.29l58.72,33.9a5,5,0,0,0,5,0l58.72-33.9a2.48,2.48,0,0,0,0-4.29L330.71,139A5,5,0,0,0,325.7,139Z"/><path class="cls-88" d="M325.7,137.72,267,171.62a2.48,2.48,0,0,0,0,4.29l58.72,33.9a5,5,0,0,0,5,0l58.72-33.9a2.48,2.48,0,0,0,0-4.29l-58.72-33.9A5,5,0,0,0,325.7,137.72Z"/><path class="cls-89" d="M325.7,136.48,267,170.37a2.49,2.49,0,0,0,0,4.3l58.72,33.9a5,5,0,0,0,5,0l58.72-33.9a2.49,2.49,0,0,0,0-4.3l-58.72-33.89A5,5,0,0,0,325.7,136.48Z"/><path class="cls-90" d="M325.7,135.23,267,169.13a2.49,2.49,0,0,0,0,4.3l58.72,33.9a5,5,0,0,0,5,0l58.72-33.9a2.49,2.49,0,0,0,0-4.3l-58.72-33.9A5,5,0,0,0,325.7,135.23Z"/><path class="cls-91" d="M325.7,134,267,167.89a2.49,2.49,0,0,0,0,4.3l58.72,33.9a5,5,0,0,0,5,0l58.72-33.9a2.49,2.49,0,0,0,0-4.3L330.71,134A5,5,0,0,0,325.7,134Z"/><path class="cls-92" d="M325.7,132.75,267,166.65a2.49,2.49,0,0,0,0,4.3l58.72,33.89a5,5,0,0,0,5,0L389.43,171a2.49,2.49,0,0,0,0-4.3l-58.72-33.9A5,5,0,0,0,325.7,132.75Z"/><path class="cls-93" d="M325.7,131.51,267,165.41a2.48,2.48,0,0,0,0,4.29l58.72,33.9a5,5,0,0,0,5,0l58.72-33.9a2.48,2.48,0,0,0,0-4.29l-58.72-33.9A5,5,0,0,0,325.7,131.51Z"/><path class="cls-94" d="M325.7,130.27,267,164.17a2.48,2.48,0,0,0,0,4.29l58.72,33.9a5,5,0,0,0,5,0l58.72-33.9a2.48,2.48,0,0,0,0-4.29l-58.72-33.9A5,5,0,0,0,325.7,130.27Z"/><path class="cls-95" d="M325.7,129,267,162.93a2.48,2.48,0,0,0,0,4.29l58.72,33.9a5,5,0,0,0,5,0l58.72-33.9a2.48,2.48,0,0,0,0-4.29L330.71,129A5,5,0,0,0,325.7,129Z"/><path class="cls-96" d="M325.7,127.79,267,161.68a2.49,2.49,0,0,0,0,4.3l58.72,33.9a5,5,0,0,0,5,0L389.43,166a2.49,2.49,0,0,0,0-4.3l-58.72-33.89A5,5,0,0,0,325.7,127.79Z"/><path class="cls-97" d="M325.7,126.54,267,160.44a2.49,2.49,0,0,0,0,4.3l58.72,33.9a5,5,0,0,0,5,0l58.72-33.9a2.49,2.49,0,0,0,0-4.3l-58.72-33.9A5,5,0,0,0,325.7,126.54Z"/><path class="cls-98" d="M325.7,125.3,267,159.2a2.49,2.49,0,0,0,0,4.3l58.72,33.9a5,5,0,0,0,5,0l58.72-33.9a2.49,2.49,0,0,0,0-4.3l-58.72-33.9A5,5,0,0,0,325.7,125.3Z"/><path class="cls-99" d="M325.7,124.06,267,158a2.49,2.49,0,0,0,0,4.3l58.72,33.89a5,5,0,0,0,5,0l58.72-33.89a2.49,2.49,0,0,0,0-4.3l-58.72-33.9A5,5,0,0,0,325.7,124.06Z"/><path class="cls-100" d="M325.7,122.82,267,156.72a2.48,2.48,0,0,0,0,4.29l58.72,33.9a5,5,0,0,0,5,0L389.43,161a2.48,2.48,0,0,0,0-4.29l-58.72-33.9A5,5,0,0,0,325.7,122.82Z"/><path class="cls-101" d="M325.7,121.58,267,155.48a2.48,2.48,0,0,0,0,4.29l58.72,33.9a5,5,0,0,0,5,0l58.72-33.9a2.48,2.48,0,0,0,0-4.29l-58.72-33.9A5,5,0,0,0,325.7,121.58Z"/><path class="cls-102" d="M325.7,120.34,267,154.24a2.48,2.48,0,0,0,0,4.29l58.72,33.9a5,5,0,0,0,5,0l58.72-33.9a2.48,2.48,0,0,0,0-4.29l-58.72-33.9A5,5,0,0,0,325.7,120.34Z"/><path class="cls-103" d="M325.7,119.1,267,153a2.49,2.49,0,0,0,0,4.3l58.72,33.9a5,5,0,0,0,5,0l58.72-33.9a2.49,2.49,0,0,0,0-4.3L330.71,119.1A5,5,0,0,0,325.7,119.1Z"/><path class="cls-104" d="M325.7,117.85,267,151.75a2.49,2.49,0,0,0,0,4.3L325.7,190a5,5,0,0,0,5,0l58.72-33.9a2.49,2.49,0,0,0,0-4.3l-58.72-33.9A5,5,0,0,0,325.7,117.85Z"/><path class="cls-105" d="M325.7,116.61,267,150.51a2.49,2.49,0,0,0,0,4.3l58.72,33.9a5,5,0,0,0,5,0l58.72-33.9a2.49,2.49,0,0,0,0-4.3l-58.72-33.9A5,5,0,0,0,325.7,116.61Z"/><path class="cls-106" d="M325.7,115.37,267,149.27a2.49,2.49,0,0,0,0,4.3l58.72,33.89a5,5,0,0,0,5,0l58.72-33.89a2.49,2.49,0,0,0,0-4.3l-58.72-33.9A5,5,0,0,0,325.7,115.37Z"/><path class="cls-107" d="M325.7,114.13,267,148a2.48,2.48,0,0,0,0,4.29l58.72,33.9a5,5,0,0,0,5,0l58.72-33.9a2.48,2.48,0,0,0,0-4.29l-58.72-33.9A5,5,0,0,0,325.7,114.13Z"/><path class="cls-108" d="M325.7,112.89,267,146.79a2.48,2.48,0,0,0,0,4.29L325.7,185a5,5,0,0,0,5,0l58.72-33.9a2.48,2.48,0,0,0,0-4.29l-58.72-33.9A5,5,0,0,0,325.7,112.89Z"/><path class="cls-109" d="M325.7,111.65,267,145.55a2.48,2.48,0,0,0,0,4.29l58.72,33.9a5,5,0,0,0,5,0l58.72-33.9a2.48,2.48,0,0,0,0-4.29l-58.72-33.9A5,5,0,0,0,325.7,111.65Z"/><path class="cls-110" d="M325.7,110.41,267,144.3a2.49,2.49,0,0,0,0,4.3l58.72,33.9a5,5,0,0,0,5,0l58.72-33.9a2.49,2.49,0,0,0,0-4.3l-58.72-33.89A5,5,0,0,0,325.7,110.41Z"/><path class="cls-111" d="M325.7,109.16,267,143.06a2.49,2.49,0,0,0,0,4.3l58.72,33.9a5,5,0,0,0,5,0l58.72-33.9a2.49,2.49,0,0,0,0-4.3l-58.72-33.9A5,5,0,0,0,325.7,109.16Z"/><path class="cls-112" d="M325.7,107.92,267,141.82a2.49,2.49,0,0,0,0,4.3L325.7,180a5,5,0,0,0,5,0l58.72-33.9a2.49,2.49,0,0,0,0-4.3l-58.72-33.9A5,5,0,0,0,325.7,107.92Z"/><path class="cls-113" d="M325.7,106.68,267,140.58a2.49,2.49,0,0,0,0,4.3l58.72,33.89a5,5,0,0,0,5,0l58.72-33.89a2.49,2.49,0,0,0,0-4.3l-58.72-33.9A5,5,0,0,0,325.7,106.68Z"/><path class="cls-114" d="M325.7,105.44,267,139.34a2.48,2.48,0,0,0,0,4.29l58.72,33.9a5,5,0,0,0,5,0l58.72-33.9a2.48,2.48,0,0,0,0-4.29l-58.72-33.9A5,5,0,0,0,325.7,105.44Z"/><path class="cls-115" d="M325.7,104.2,267,138.1a2.48,2.48,0,0,0,0,4.29l58.72,33.9a5,5,0,0,0,5,0l58.72-33.9a2.48,2.48,0,0,0,0-4.29l-58.72-33.9A5,5,0,0,0,325.7,104.2Z"/><path class="cls-116" d="M325.7,103,267,136.86a2.48,2.48,0,0,0,0,4.29l58.72,33.9a5,5,0,0,0,5,0l58.72-33.9a2.48,2.48,0,0,0,0-4.29L330.71,103A5,5,0,0,0,325.7,103Z"/><path class="cls-117" d="M325.7,101.71,267,135.61a2.49,2.49,0,0,0,0,4.3l58.72,33.9a5,5,0,0,0,5,0l58.72-33.9a2.49,2.49,0,0,0,0-4.3l-58.72-33.9A5,5,0,0,0,325.7,101.71Z"/><path class="cls-118" d="M325.7,100.47,267,134.37a2.49,2.49,0,0,0,0,4.3l58.72,33.9a5,5,0,0,0,5,0l58.72-33.9a2.49,2.49,0,0,0,0-4.3l-58.72-33.9A5,5,0,0,0,325.7,100.47Z"/><path class="cls-119" d="M325.7,99.23,267,133.13a2.49,2.49,0,0,0,0,4.3l58.72,33.89a5,5,0,0,0,5,0l58.72-33.89a2.49,2.49,0,0,0,0-4.3l-58.72-33.9A5,5,0,0,0,325.7,99.23Z"/><path class="cls-120" d="M325.7,98,267,131.89a2.48,2.48,0,0,0,0,4.29l58.72,33.9a5,5,0,0,0,5,0l58.72-33.9a2.48,2.48,0,0,0,0-4.29L330.71,98A5,5,0,0,0,325.7,98Z"/><path class="cls-121" d="M325.7,96.75,267,130.65a2.48,2.48,0,0,0,0,4.29l58.72,33.9a5,5,0,0,0,5,0l58.72-33.9a2.48,2.48,0,0,0,0-4.29l-58.72-33.9A5,5,0,0,0,325.7,96.75Z"/><path class="cls-122" d="M325.7,95.51,267,129.41a2.48,2.48,0,0,0,0,4.29l58.72,33.9a5,5,0,0,0,5,0l58.72-33.9a2.48,2.48,0,0,0,0-4.29l-58.72-33.9A5,5,0,0,0,325.7,95.51Z"/><path class="cls-123" d="M325.7,94.27,267,128.16a2.49,2.49,0,0,0,0,4.3l58.72,33.9a5,5,0,0,0,5,0l58.72-33.9a2.49,2.49,0,0,0,0-4.3L330.71,94.27A5,5,0,0,0,325.7,94.27Z"/><path class="cls-124" d="M325.7,93,267,126.92a2.49,2.49,0,0,0,0,4.3l58.72,33.9a5,5,0,0,0,5,0l58.72-33.9a2.49,2.49,0,0,0,0-4.3L330.71,93A5,5,0,0,0,325.7,93Z"/><path class="cls-125" d="M325.7,91.78,267,125.68a2.49,2.49,0,0,0,0,4.3l58.72,33.9a5,5,0,0,0,5,0L389.43,130a2.49,2.49,0,0,0,0-4.3l-58.72-33.9A5,5,0,0,0,325.7,91.78Z"/><path class="cls-126" d="M325.7,90.54,267,124.44a2.49,2.49,0,0,0,0,4.3l58.72,33.89a5,5,0,0,0,5,0l58.72-33.89a2.49,2.49,0,0,0,0-4.3l-58.72-33.9A5,5,0,0,0,325.7,90.54Z"/><path class="cls-127" d="M325.7,89.3,267,123.2a2.48,2.48,0,0,0,0,4.29l58.72,33.9a5,5,0,0,0,5,0l58.72-33.9a2.48,2.48,0,0,0,0-4.29L330.71,89.3A5,5,0,0,0,325.7,89.3Z"/><path class="cls-128" d="M325.7,88.06,267,122a2.48,2.48,0,0,0,0,4.29l58.72,33.9a5,5,0,0,0,5,0l58.72-33.9a2.48,2.48,0,0,0,0-4.29l-58.72-33.9A5,5,0,0,0,325.7,88.06Z"/><path class="cls-129" d="M325.7,86.82,267,120.72a2.48,2.48,0,0,0,0,4.29l58.72,33.9a5,5,0,0,0,5,0L389.43,125a2.48,2.48,0,0,0,0-4.29l-58.72-33.9A5,5,0,0,0,325.7,86.82Z"/><path class="cls-130" d="M325.7,85.58,267,119.47a2.49,2.49,0,0,0,0,4.3l58.72,33.9a5,5,0,0,0,5,0l58.72-33.9a2.49,2.49,0,0,0,0-4.3L330.71,85.58A5,5,0,0,0,325.7,85.58Z"/><path class="cls-131" d="M325.7,84.33,267,118.23a2.49,2.49,0,0,0,0,4.3l58.72,33.9a5,5,0,0,0,5,0l58.72-33.9a2.49,2.49,0,0,0,0-4.3l-58.72-33.9A5,5,0,0,0,325.7,84.33Z"/><path class="cls-132" d="M325.7,83.09,267,117a2.49,2.49,0,0,0,0,4.3l58.72,33.9a5,5,0,0,0,5,0l58.72-33.9a2.49,2.49,0,0,0,0-4.3l-58.72-33.9A5,5,0,0,0,325.7,83.09Z"/><path class="cls-133" d="M325.7,81.85,267,115.75a2.49,2.49,0,0,0,0,4.3l58.72,33.89a5,5,0,0,0,5,0l58.72-33.89a2.49,2.49,0,0,0,0-4.3l-58.72-33.9A5,5,0,0,0,325.7,81.85Z"/><path class="cls-134" d="M325.7,80.61,267,114.51a2.48,2.48,0,0,0,0,4.29l58.72,33.9a5,5,0,0,0,5,0l58.72-33.9a2.48,2.48,0,0,0,0-4.29l-58.72-33.9A5,5,0,0,0,325.7,80.61Z"/><path class="cls-135" d="M325.7,79.37,267,113.27a2.48,2.48,0,0,0,0,4.29l58.72,33.9a5,5,0,0,0,5,0l58.72-33.9a2.48,2.48,0,0,0,0-4.29l-58.72-33.9A5,5,0,0,0,325.7,79.37Z"/><path class="cls-136" d="M325.7,78.13,267,112a2.48,2.48,0,0,0,0,4.29l58.72,33.9a5,5,0,0,0,5,0l58.72-33.9a2.48,2.48,0,0,0,0-4.29l-58.72-33.9A5,5,0,0,0,325.7,78.13Z"/><path class="cls-137" d="M325.7,76.89,267,110.78a2.49,2.49,0,0,0,0,4.3L325.7,149a5,5,0,0,0,5,0l58.72-33.9a2.49,2.49,0,0,0,0-4.3L330.71,76.89A5,5,0,0,0,325.7,76.89Z"/><path class="cls-138" d="M325.7,75.64,267,109.54a2.49,2.49,0,0,0,0,4.3l58.72,33.9a5,5,0,0,0,5,0l58.72-33.9a2.49,2.49,0,0,0,0-4.3l-58.72-33.9A5,5,0,0,0,325.7,75.64Z"/><path class="cls-139" d="M325.7,74.4,267,108.3a2.49,2.49,0,0,0,0,4.3l58.72,33.9a5,5,0,0,0,5,0l58.72-33.9a2.49,2.49,0,0,0,0-4.3L330.71,74.4A5,5,0,0,0,325.7,74.4Z"/><path class="cls-140" d="M325.7,73.16,267,107.06a2.49,2.49,0,0,0,0,4.3l58.72,33.89a5,5,0,0,0,5,0l58.72-33.89a2.49,2.49,0,0,0,0-4.3l-58.72-33.9A5,5,0,0,0,325.7,73.16Z"/><path class="cls-141" d="M325.7,71.92,267,105.82a2.48,2.48,0,0,0,0,4.29L325.7,144a5,5,0,0,0,5,0l58.72-33.9a2.48,2.48,0,0,0,0-4.29l-58.72-33.9A5,5,0,0,0,325.7,71.92Z"/><path class="cls-142" d="M325.7,70.68,267,104.58a2.48,2.48,0,0,0,0,4.29l58.72,33.9a5,5,0,0,0,5,0l58.72-33.9a2.48,2.48,0,0,0,0-4.29l-58.72-33.9A5,5,0,0,0,325.7,70.68Z"/><path class="cls-143" d="M325.7,69.44,267,103.34a2.48,2.48,0,0,0,0,4.29l58.72,33.9a5,5,0,0,0,5,0l58.72-33.9a2.48,2.48,0,0,0,0-4.29l-58.72-33.9A5,5,0,0,0,325.7,69.44Z"/><path class="cls-144" d="M325.7,68.2,267,102.09a2.49,2.49,0,0,0,0,4.3l58.72,33.9a5,5,0,0,0,5,0l58.72-33.9a2.49,2.49,0,0,0,0-4.3L330.71,68.2A5,5,0,0,0,325.7,68.2Z"/><path class="cls-145" d="M325.7,67,267,100.85a2.49,2.49,0,0,0,0,4.3l58.72,33.9a5,5,0,0,0,5,0l58.72-33.9a2.49,2.49,0,0,0,0-4.3L330.71,67A5,5,0,0,0,325.7,67Z"/></g><path class="cls-146" d="M292.39,232.9a.69.69,0,1,1-.68-.69A.69.69,0,0,1,292.39,232.9Z"/><path class="cls-147" d="M298.17,231.22a.78.78,0,1,1-.78-.78A.78.78,0,0,1,298.17,231.22Z"/><path class="cls-148" d="M315.25,217.62a1.09,1.09,0,1,1-1.09-1.09A1.08,1.08,0,0,1,315.25,217.62Z"/><path class="cls-149" d="M289.93,185.67a.6.6,0,1,1-.6-.61A.6.6,0,0,1,289.93,185.67Z"/><path class="cls-150" d="M284.91,179.8a.61.61,0,0,1-1.22,0,.61.61,0,0,1,1.22,0Z"/><path class="cls-151" d="M278.28,169.79a.68.68,0,1,1-1.36,0,.68.68,0,0,1,1.36,0Z"/><path class="cls-152" d="M302.66,143.22a.26.26,0,1,1-.51,0,.26.26,0,1,1,.51,0Z"/><path class="cls-153" d="M305.67,142.89a.27.27,0,0,1-.26.27.27.27,0,0,1,0-.53A.26.26,0,0,1,305.67,142.89Z"/><path class="cls-154" d="M315,157.86a.26.26,0,0,1-.26.26.25.25,0,0,1-.26-.26.26.26,0,0,1,.26-.26A.26.26,0,0,1,315,157.86Z"/><path class="cls-155" d="M322.51,152.05a.47.47,0,0,1-.46.46.46.46,0,0,1-.45-.46.45.45,0,0,1,.45-.45A.46.46,0,0,1,322.51,152.05Z"/><path class="cls-156" d="M319.46,155.67a.35.35,0,0,1-.35.35.35.35,0,1,1,0-.7A.35.35,0,0,1,319.46,155.67Z"/><path class="cls-157" d="M326.32,164.51a.43.43,0,0,1-.43.43.43.43,0,0,1,0-.86A.43.43,0,0,1,326.32,164.51Z"/><circle class="cls-158" cx="316.82" cy="179.43" r="0.45"/><path class="cls-159" d="M311.66,184.61a.54.54,0,1,1-1.08,0,.54.54,0,1,1,1.08,0Z"/><circle class="cls-160" cx="335.03" cy="185.85" r="0.41"/><path class="cls-161" d="M308.46,197.31a.82.82,0,0,1-.81.82.82.82,0,0,1-.82-.82.82.82,0,0,1,.82-.81A.81.81,0,0,1,308.46,197.31Z"/><circle class="cls-162" cx="319.77" cy="193.13" r="0.72"/><path class="cls-163" d="M331.6,207.28a.76.76,0,0,1-1.52,0,.76.76,0,1,1,1.52,0Z"/><path class="cls-164" d="M352.38,206.92a.52.52,0,1,1-.51-.52A.51.51,0,0,1,352.38,206.92Z"/><path class="cls-165" d="M347,199.39a.42.42,0,0,1-.84,0,.42.42,0,1,1,.84,0Z"/><path class="cls-166" d="M355.19,194.27a.29.29,0,1,1-.29-.29A.29.29,0,0,1,355.19,194.27Z"/><path class="cls-167" d="M358.77,207.89a.53.53,0,1,1-.53-.52A.53.53,0,0,1,358.77,207.89Z"/><path class="cls-168" d="M371.28,190.83a.25.25,0,1,1-.25-.24A.25.25,0,0,1,371.28,190.83Z"/><path class="cls-169" d="M372.55,186.33a.24.24,0,0,1-.24.24.23.23,0,0,1-.24-.24.24.24,0,0,1,.24-.24A.24.24,0,0,1,372.55,186.33Z"/><path class="cls-170" d="M381.9,217.91a.79.79,0,1,1-.78-.78A.78.78,0,0,1,381.9,217.91Z"/><path class="cls-171" d="M383.79,193.09a.3.3,0,0,1-.3.3.31.31,0,0,1,0-.61A.3.3,0,0,1,383.79,193.09Z"/><path class="cls-172" d="M380.75,189.78a.25.25,0,1,1-.49,0,.25.25,0,0,1,.49,0Z"/><path class="cls-173" d="M388.69,183.16a.32.32,0,1,1-.63,0,.32.32,0,1,1,.63,0Z"/><path class="cls-174" d="M371.06,171.46a.39.39,0,0,1-.4.39.38.38,0,0,1-.39-.39.39.39,0,0,1,.39-.4A.4.4,0,0,1,371.06,171.46Z"/><path class="cls-175" d="M371.62,152a.64.64,0,0,1-1.28,0,.64.64,0,0,1,1.28,0Z"/><path class="cls-176" d="M376.85,149.63a.66.66,0,1,1-.66-.66A.67.67,0,0,1,376.85,149.63Z"/><circle class="cls-177" cx="375.39" cy="156.79" r="0.62"/><path class="cls-178" d="M370.77,132.1a.54.54,0,1,1-.53-.54A.53.53,0,0,1,370.77,132.1Z"/><circle class="cls-179" cx="371.16" cy="119.83" r="0.51"/><path class="cls-180" d="M367.65,101.75a.46.46,0,0,1-.46.47.47.47,0,0,1-.47-.47.46.46,0,0,1,.47-.46A.45.45,0,0,1,367.65,101.75Z"/><path class="cls-181" d="M359.57,93.48a.46.46,0,0,1-.45.46.47.47,0,0,1-.46-.46.46.46,0,0,1,.46-.45A.45.45,0,0,1,359.57,93.48Z"/><circle class="cls-182" cx="362.83" cy="83.74" r="0.45"/><path class="cls-183" d="M344.64,77.13a.3.3,0,1,1-.3-.29A.3.3,0,0,1,344.64,77.13Z"/><path class="cls-184" d="M349.3,65.92a.34.34,0,1,1-.34-.33A.34.34,0,0,1,349.3,65.92Z"/><path class="cls-185" d="M352.34,64.28a.36.36,0,0,1-.36.36.36.36,0,1,1,0-.72A.36.36,0,0,1,352.34,64.28Z"/><circle class="cls-186" cx="317.64" cy="117.75" r="0.5"/><path class="cls-187" d="M313.09,84.7a.5.5,0,1,1-.5-.5A.5.5,0,0,1,313.09,84.7Z"/><path class="cls-188" d="M308.65,77a.67.67,0,0,1-1.33,0,.67.67,0,0,1,1.33,0Z"/><path class="cls-189" d="M318.88,63.56a.61.61,0,0,1-.61.61.61.61,0,0,1-.62-.61.62.62,0,0,1,.62-.62A.61.61,0,0,1,318.88,63.56Z"/><path class="cls-190" d="M328.94,49.7a.74.74,0,1,1-.73-.73A.73.73,0,0,1,328.94,49.7Z"/><path class="cls-191" d="M297.58,45.55a.43.43,0,1,1-.42-.42A.42.42,0,0,1,297.58,45.55Z"/><path class="cls-192" d="M313.18,27.82a.74.74,0,1,1-.73-.73A.74.74,0,0,1,313.18,27.82Z"/><circle class="cls-193" cx="364.64" cy="52.12" r="0.52"/><path class="cls-194" d="M365,33.42a.77.77,0,1,1-.76-.77A.76.76,0,0,1,365,33.42Z"/><path class="cls-195" d="M340.6,15.86a.57.57,0,0,1-.57.57.58.58,0,0,1-.57-.57.57.57,0,0,1,.57-.57A.56.56,0,0,1,340.6,15.86Z"/><circle class="cls-196" cx="370.39" cy="15.3" r="0.68"/><path class="cls-197" d="M285.31,79.09a.78.78,0,1,1-.78-.78A.78.78,0,0,1,285.31,79.09Z"/><path class="cls-198" d="M272,106.9a.51.51,0,1,1-.51-.51A.51.51,0,0,1,272,106.9Z"/><path class="cls-199" d="M268.9,114.05a.58.58,0,0,1-.58.58.58.58,0,0,1,0-1.15A.58.58,0,0,1,268.9,114.05Z"/><path class="cls-200" d="M272.26,93.72a.6.6,0,0,1-.6.6.6.6,0,0,1,0-1.2A.6.6,0,0,1,272.26,93.72Z"/><path class="cls-201" d="M278.47,142.34a.64.64,0,0,1-.64.64.64.64,0,0,1-.63-.64.63.63,0,0,1,.63-.63A.64.64,0,0,1,278.47,142.34Z"/><circle class="cls-202" cx="278.74" cy="156.97" r="0.59"/><path class="cls-203" d="M279.69,152a.55.55,0,1,1-1.1,0,.55.55,0,1,1,1.1,0Z"/><circle class="cls-204" cx="306.08" cy="100.87" r="0.4"/><circle class="cls-205" cx="310.12" cy="102.27" r="0.4"/><path class="cls-206" d="M307.32,104.79a.39.39,0,1,1-.39-.39A.38.38,0,0,1,307.32,104.79Z"/><path class="cls-207" d="M294.72,112.32a.34.34,0,1,1-.34-.34A.34.34,0,0,1,294.72,112.32Z"/><circle class="cls-208" cx="284.5" cy="93.86" r="0.5"/><path class="cls-209" d="M333.15,84.53a.31.31,0,0,1-.3.3.3.3,0,0,1-.3-.3.29.29,0,0,1,.3-.3A.3.3,0,0,1,333.15,84.53Z"/><circle class="cls-210" cx="331.6" cy="93.06" r="0.42"/><path class="cls-211" d="M338.94,92a.41.41,0,0,1-.42.41.41.41,0,1,1,0-.82A.41.41,0,0,1,338.94,92Z"/><path class="cls-212" d="M341.79,88a.34.34,0,1,1-.34-.34A.34.34,0,0,1,341.79,88Z"/><circle class="cls-213" cx="385.08" cy="54.09" r="0.48"/><path class="cls-214" d="M386.43,57.78a.51.51,0,0,1-.51.51.51.51,0,0,1,0-1A.51.51,0,0,1,386.43,57.78Z"/><circle class="cls-215" cx="276.72" cy="46.69" r="0.49"/><circle class="cls-216" cx="276.77" cy="40.83" r="0.47"/><path class="cls-217" d="M279.27,26.9a.46.46,0,0,1-.45.46.46.46,0,0,1,0-.92A.46.46,0,0,1,279.27,26.9Z"/><circle class="cls-218" cx="278.71" cy="22.95" r="0.48"/><path class="cls-219" d="M287.43,23.92a.42.42,0,1,1-.42-.42A.42.42,0,0,1,287.43,23.92Z"/><path class="cls-220" d="M270.29,219.87a.31.31,0,0,1-.31.31.3.3,0,0,1-.3-.31.29.29,0,0,1,.3-.3A.3.3,0,0,1,270.29,219.87Z"/><path class="cls-221" d="M282.37,221.27a.38.38,0,1,1-.38-.38A.38.38,0,0,1,282.37,221.27Z"/><path class="cls-222" d="M298,215.48a.7.7,0,1,1-.7-.7A.7.7,0,0,1,298,215.48Z"/><circle class="cls-223" cx="288.97" cy="215.63" r="0.45"/><circle class="cls-224" cx="290.47" cy="211.79" r="0.47"/><path class="cls-225" d="M147.81,421.14a3.55,3.55,0,0,0,1.75-.46l72.64-41.19a3.55,3.55,0,1,0-3.51-6.18l-72.64,41.18a3.56,3.56,0,0,0-1.33,4.85A3.52,3.52,0,0,0,147.81,421.14Z"/><path class="cls-226" d="M147.81,419a1.34,1.34,0,0,0,.7-.19l72.64-41.18a1.45,1.45,0,0,0,.67-.86,1.43,1.43,0,0,0-1.38-1.8,1.43,1.43,0,0,0-.7.18l-72.63,41.19a1.43,1.43,0,0,0-.54,1.94A1.44,1.44,0,0,0,147.81,419Z"/><path class="cls-227" d="M162.26,430.27a3.46,3.46,0,0,0,1.75-.47l72.64-41.18a3.56,3.56,0,1,0-3.51-6.19l-72.63,41.19a3.56,3.56,0,0,0,1.75,6.65Z"/><path class="cls-228" d="M162.26,428.13a1.4,1.4,0,0,0,.7-.18l72.64-41.19a1.42,1.42,0,0,0-.71-2.66,1.34,1.34,0,0,0-.7.19l-72.63,41.18a1.43,1.43,0,0,0-.54,1.94A1.43,1.43,0,0,0,162.26,428.13Z"/><polygon class="cls-1" points="329.39 148.97 360.09 131.79 370.53 131.79 324.91 255.59 314.47 255.59 314.47 188.08 309.14 197.18 298.7 197.18 298.7 125.21 355.86 92.21 366.3 92.21 329.39 148.97"/><polygon class="cls-229" points="339.83 148.97 370.53 131.79 324.91 255.59 324.91 188.08 309.14 197.18 309.14 125.21 366.3 92.21 339.83 148.97"/><path class="cls-230" d="M504.91,423.5a3.46,3.46,0,0,1-1.75-.47l-72.64-41.18a3.56,3.56,0,0,1,3.51-6.19l72.64,41.19a3.56,3.56,0,0,1-1.76,6.65Z"/><path class="cls-231" d="M504.91,421.36a1.43,1.43,0,0,1-.7-.18L431.57,380a1.4,1.4,0,0,1-.66-.86,1.37,1.37,0,0,1,.13-1.08,1.44,1.44,0,0,1,1.24-.72,1.34,1.34,0,0,1,.7.19l72.63,41.18a1.42,1.42,0,0,1-.7,2.66Z"/><path class="cls-232" d="M490.46,432.62a3.55,3.55,0,0,1-1.75-.46L416.07,391a3.56,3.56,0,0,1,3.51-6.19L492.21,426a3.56,3.56,0,0,1-1.75,6.65Z"/><path class="cls-233" d="M490.46,430.49a1.41,1.41,0,0,1-.7-.19l-72.64-41.19a1.42,1.42,0,0,1,.71-2.66,1.44,1.44,0,0,1,.7.19l72.63,41.19a1.39,1.39,0,0,1,.67.85,1.42,1.42,0,0,1-1.37,1.81Z"/><path class="cls-1" d="M65.93,464.24c-3.37-1.94-3.38-5.12,0-7.06l63.78-17.83a13.51,13.51,0,0,1,12.2,0l64.19,17.83c3.37,1.94,3.39,5.12,0,7.06L142.33,501.3a13.45,13.45,0,0,1-12.2,0Z"/><path class="cls-2" d="M206.06,427.56c3.37,1.94,3.38,5.12,0,7.07l-63.78,37.06a13.45,13.45,0,0,1-12.2,0L65.93,434.63c-3.37-1.95-3.38-5.13,0-7.07l63.77-37.07a13.54,13.54,0,0,1,12.21,0Z"/><path class="cls-234" d="M65.93,431.8c-3.37-1.94-3.38-5.13,0-7.07l63.78-37.06a13.45,13.45,0,0,1,12.2,0l64.19,37.06c3.37,1.95,3.39,5.13,0,7.07l-63.77,37.06a13.51,13.51,0,0,1-12.2,0Z"/><path class="cls-235" d="M208.58,431.37a2.19,2.19,0,0,1,0,.27,1.29,1.29,0,0,1,0,.21,2.29,2.29,0,0,1-.08.28c0,.07-.06.14-.08.21l-.13.27c-.07.12-.14.24-.22.35s0,0,0,.07a2.79,2.79,0,0,1-.28.34l-.06.08a4,4,0,0,1-.36.35c-.08.08-.18.15-.27.23l-.24.18-.31.21-.32.21L143,471.33h0c-.25.15-1.15.65-1.43.77l-.25.11a6.63,6.63,0,0,1-.67.25,1.84,1.84,0,0,1-.25.09l-.44.13-.34.09-.48.1c-.12,0-.21.05-.33.06-.32.06-.65.1-1,.14l-.32,0-.57,0h-1.26l-.43,0-.4,0-.43-.05-.39,0-.46-.08-.35-.07-.55-.13-.29-.08c-.32-.1-.63-.2-.92-.32a3.25,3.25,0,0,1-.43-.18l-.23-.09c-.22-.11-1.41-.78-1.61-.9h0L65.93,434.63c-1.7-1-2.54-2.27-2.53-3.57l-.14,26.48c0,1.29.84,2.58,2.54,3.56l63.34,36.57h0l.31.17.54.32h0l.64.34.21.09a3.52,3.52,0,0,0,.39.17l.05,0c.3.11.6.22.92.31l.07,0,.24.07.52.12a.35.35,0,0,0,.14,0,1.55,1.55,0,0,0,.23.05l.44.07.19,0,.22,0,.4,0,.22,0,.21,0c.14,0,.28,0,.42,0h1.26l.57,0h.32c.33,0,.66-.08,1-.14h.06l.28-.07.46-.1a3.58,3.58,0,0,0,.35-.09,4.38,4.38,0,0,0,.43-.13l.11,0,.16-.06c.22-.08.44-.16.66-.26l.25-.11c.14-.06.47-.23.8-.42v0L206,461.1l.1-.06.22-.15a3.53,3.53,0,0,0,.32-.21l.23-.19a3,3,0,0,0,.26-.21l.06,0,.31-.31.06-.07a1.46,1.46,0,0,0,.16-.19l.12-.16,0-.06a2.2,2.2,0,0,0,.19-.3l0-.06.12-.27a1.09,1.09,0,0,0,.08-.15.64.64,0,0,0,0-.07c0-.08.05-.17.07-.26a1.09,1.09,0,0,1,0-.17v-.05a1.09,1.09,0,0,0,0-.26l0-.19v-.07l.12-26.48C208.59,431.2,208.58,431.28,208.58,431.37Z"/><g class="cls-7"><path class="cls-8" d="M118,472.93l-3.22-1.86c-1-.59-1.83-.11-1.84,1.05a4,4,0,0,0,1.84,3.18l3.2,1.85c1,.58,1.85.11,1.85-1.06a4.05,4.05,0,0,0-1.83-3.16Z"/></g><g class="cls-7"><path class="cls-1" d="M118,479.75l-3.22-1.86c-1-.59-1.83-.11-1.84,1.05a4,4,0,0,0,1.84,3.17L118,484c1,.59,1.85.12,1.85-1a4,4,0,0,0-1.83-3.16Z"/></g><g class="cls-7"><path class="cls-1" d="M127.31,477.76l-3.21-1.85c-1-.6-1.84-.13-1.84,1a4,4,0,0,0,1.83,3.18L127.3,482c1,.59,1.84.12,1.84-1a4,4,0,0,0-1.83-3.18Z"/></g><g class="cls-7"><path class="cls-1" d="M127.31,484.58l-3.21-1.85c-1-.59-1.84-.13-1.84,1a4,4,0,0,0,1.83,3.17l3.21,1.86c1,.58,1.84.11,1.84-1.06a4.05,4.05,0,0,0-1.83-3.16Z"/></g><g class="cls-7"><path class="cls-1" d="M106.1,465.61,73.67,446.89c-1-.59-1.84-.12-1.84,1.05a4,4,0,0,0,1.82,3.17l32.44,18.72c1,.58,1.84.12,1.84-1.05a4,4,0,0,0-1.83-3.17Z"/></g><g class="cls-7"><path class="cls-1" d="M106.1,472.81,73.67,454.09c-1-.58-1.84-.11-1.84,1.05a4,4,0,0,0,1.82,3.18L106.09,477c1,.59,1.84.13,1.84-1a4,4,0,0,0-1.83-3.18Z"/></g><path class="cls-1" d="M462.32,459.65c-3.37-1.95-3.38-5.12,0-7.07l63.78-17.82a13.45,13.45,0,0,1,12.2,0l64.19,17.82c3.37,1.95,3.39,5.12,0,7.07l-63.77,37.06a13.45,13.45,0,0,1-12.2,0Z"/><path class="cls-2" d="M602.45,423c3.37,1.93,3.38,5.12,0,7.06L538.72,467.1a13.51,13.51,0,0,1-12.2,0L462.32,430c-3.37-1.95-3.38-5.13,0-7.06l63.77-37.07a13.54,13.54,0,0,1,12.21,0Z"/><path class="cls-236" d="M462.32,427.21c-3.37-1.95-3.38-5.13,0-7.07l63.78-37.06a13.45,13.45,0,0,1,12.2,0l64.19,37.06c3.37,1.94,3.39,5.12,0,7.07l-63.77,37.05a13.45,13.45,0,0,1-12.2,0Z"/><path class="cls-237" d="M605,426.78a2.51,2.51,0,0,1,0,.27,1.6,1.6,0,0,1,0,.21,1.47,1.47,0,0,1-.08.28l-.08.2-.13.27c-.07.12-.14.24-.22.36s0,0,0,.06a2.26,2.26,0,0,1-.28.35l-.06.07a4.08,4.08,0,0,1-.36.36,3.2,3.2,0,0,1-.27.22l-.23.19-.32.21-.32.2-63.15,36.71h0c-.25.15-1.15.65-1.43.77l-.25.11c-.21.09-.44.17-.67.25a1.84,1.84,0,0,1-.25.09l-.44.13-.34.09-.48.1-.32.06c-.33.06-.65.1-1,.14l-.32,0-.58,0H532l-.44,0-.4,0-.43-.05-.39-.05-.46-.08-.35-.07-.54-.14-.3-.07c-.32-.1-.63-.2-.92-.32s-.29-.12-.43-.18l-.23-.1c-.21-.1-1.41-.77-1.61-.9h0L462.32,430c-1.69-1-2.54-2.27-2.53-3.56L459.65,453c0,1.28.85,2.58,2.54,3.55l63.34,36.57h0l.31.17.54.32v0c.28.16.54.3.64.34l.21.1c.13.05.25.12.39.17h0a9,9,0,0,0,.92.31.15.15,0,0,0,.07,0l.25.06.51.13.14,0,.23,0,.44.08.19,0,.23,0a2.6,2.6,0,0,0,.39.05l.22,0,.21,0,.42,0h1.26l.57,0,.25,0h.08l1-.15h.05l.29-.07a3.4,3.4,0,0,0,.46-.09l.34-.09.44-.13.1,0a.52.52,0,0,1,.16-.06c.23-.08.45-.17.66-.26l.25-.11c.14-.06.48-.24.81-.42v0l63.77-37.06.1-.06.23-.15c.1-.07.21-.13.31-.21l.24-.19.26-.21,0-.05c.11-.1.21-.2.31-.31l.06-.07c.06-.06.11-.13.16-.19l.12-.17,0-.06a2.9,2.9,0,0,0,.19-.29l0-.06.13-.27c0-.06,0-.11.07-.16s0,0,0-.06.05-.17.07-.26a1.09,1.09,0,0,0,0-.17v-.05a2.34,2.34,0,0,0,0-.26c0-.06,0-.13,0-.19V453l.12-26.48C605,426.61,605,426.69,605,426.78Z"/><g class="cls-7"><path class="cls-8" d="M551.33,467.49l3.22-1.85c1-.59,1.83-.12,1.84,1.05a4,4,0,0,1-1.84,3.17l-3.2,1.85c-1,.59-1.84.12-1.85-1a4.07,4.07,0,0,1,1.83-3.17Z"/></g><g class="cls-7"><path class="cls-1" d="M551.33,474.31l3.22-1.85c1-.59,1.83-.12,1.84,1.05a4,4,0,0,1-1.84,3.17l-3.2,1.84c-1,.59-1.84.12-1.85-1a4.05,4.05,0,0,1,1.83-3.17Z"/></g><g class="cls-7"><path class="cls-1" d="M542.06,472.33l3.21-1.85c1-.6,1.84-.13,1.84,1a4,4,0,0,1-1.82,3.18l-3.22,1.85c-1,.58-1.84.12-1.84-1a4,4,0,0,1,1.83-3.17Z"/></g><g class="cls-7"><path class="cls-1" d="M542.06,479.15l3.21-1.85c1-.59,1.84-.14,1.84,1a4,4,0,0,1-1.82,3.17l-3.22,1.85c-1,.59-1.84.11-1.84-1.05a4,4,0,0,1,1.83-3.16Z"/></g><g class="cls-7"><path class="cls-1" d="M563.27,460.18l32.43-18.73c1-.58,1.84-.11,1.85,1.06a4,4,0,0,1-1.83,3.16L563.28,464.4c-1,.58-1.84.12-1.84-1a4.05,4.05,0,0,1,1.83-3.17Z"/></g><g class="cls-7"><path class="cls-1" d="M563.27,467.38l32.43-18.73c1-.58,1.84-.1,1.85,1.06a4.07,4.07,0,0,1-1.83,3.17L563.28,471.6c-1,.59-1.84.12-1.84-1a4.07,4.07,0,0,1,1.83-3.18Z"/></g></svg>