<svg id="图层_1" data-name="图层 1" xmlns="http://www.w3.org/2000/svg" xmlns:xlink="http://www.w3.org/1999/xlink" viewBox="0 0 144 144"><defs><style>.cls-1{fill:#ebe4d7;opacity:0.65;}.cls-2{fill:url(#未命名的渐变_56);}.cls-3{fill:#fff;}.cls-4{fill:#3d3f44;}.cls-5{fill:#aa893f;}.cls-6{fill:#ead098;}</style><linearGradient id="未命名的渐变_56" x1="-88.34" y1="567.47" x2="-5.62" y2="618.69" gradientTransform="matrix(1.06, -0.26, 0.02, 0.94, 122.99, -491.94)" gradientUnits="userSpaceOnUse"><stop offset="0.49" stop-color="#bec3cc"/><stop offset="0.79" stop-color="#e4e6ea"/></linearGradient></defs><title>【插图】页面元素插图</title><circle class="cls-1" cx="72" cy="72" r="71"/><path class="cls-2" d="M104.15,40.3a10.47,10.47,0,0,1,7.45,9.31l1.07,62.28a5.86,5.86,0,0,1-3.3,4.92l-3.62,2a5.24,5.24,0,0,1-3.67.57L39.86,103.52a10.48,10.48,0,0,1-7.46-9.3L31.33,31.68a5.15,5.15,0,0,1,1.93-3.83l1.06-.91A10,10,0,0,1,43,24.52Z"/><path class="cls-3" d="M99.15,43.73A10.48,10.48,0,0,1,106.61,53l1,61c.07,4-3.18,6.5-7.21,5.44l-60.59-16a10.48,10.48,0,0,1-7.46-9.3l-1-61c-.07-4.06,3.17-6.51,7.2-5.45Z"/><path class="cls-4" d="M99.15,43.73l-60.6-16c-4-1.06-7.27,1.39-7.2,5.45l.21,12.14L106.83,66l-.22-13A10.48,10.48,0,0,0,99.15,43.73Z"/><path class="cls-5" d="M53.15,74.09,42,65V61.75l11.14-2.57V63l-7.78,1.32,7.78,6Z"/><path class="cls-5" d="M55.39,77.31l4-19.12,2.92.86-4,19.1Z"/><path class="cls-5" d="M65,77.55V73.77l7.79-1.43L65,66.42V62.66l11.17,9.07v3.21Z"/><polygon class="cls-4" points="96.08 81.01 79.55 76.11 79.57 72.5 96.09 77.4 96.08 81.01"/><polygon class="cls-4" points="96.03 94.85 41.65 78.74 41.66 75.13 96.05 91.24 96.03 94.85"/><polygon class="cls-4" points="77.26 101.85 41.61 91.29 41.62 87.68 77.27 98.24 77.26 101.85"/><ellipse class="cls-6" cx="41.24" cy="39.15" rx="2.61" ry="2.99" transform="matrix(0.36, -0.93, 0.93, 0.36, -10.04, 63.72)"/><ellipse class="cls-6" cx="51.73" cy="41.81" rx="2.61" ry="2.99" transform="translate(-5.78 75.24) rotate(-69.11)"/><ellipse class="cls-6" cx="62.22" cy="44.48" rx="2.61" ry="2.99" transform="translate(-1.52 86.75) rotate(-69.11)"/></svg>