<svg xmlns="http://www.w3.org/2000/svg" xmlns:xlink="http://www.w3.org/1999/xlink" viewBox="0 0 670 530"><defs><style>.cls-1{fill:#aa893f;}.cls-2{fill:#ead098;}.cls-3{isolation:isolate;}.cls-4{fill:#62666d;}.cls-30,.cls-5{fill:#fff;}.cls-6{fill:url(#未命名的渐变_15);}.cls-7{fill:url(#未命名的渐变_39);}.cls-8{fill:#ebedf7;}.cls-9{fill:url(#未命名的渐变_9);}.cls-10{fill:#ddb962;}.cls-11{fill:#3d3f44;}.cls-12{fill:url(#未命名的渐变_15-2);}.cls-13{fill:url(#未命名的渐变_9-2);}.cls-14{clip-path:url(#clip-path);}.cls-15{clip-path:url(#clip-path-2);}.cls-16{clip-path:url(#clip-path-3);}.cls-17{clip-path:url(#clip-path-4);}.cls-18{clip-path:url(#clip-path-5);}.cls-19{clip-path:url(#clip-path-6);}.cls-20{clip-path:url(#clip-path-7);}.cls-21{clip-path:url(#clip-path-8);}.cls-22{clip-path:url(#clip-path-9);}.cls-23{clip-path:url(#clip-path-10);}.cls-24{clip-path:url(#clip-path-11);}.cls-25{clip-path:url(#clip-path-12);}.cls-26{clip-path:url(#clip-path-13);}.cls-27{clip-path:url(#clip-path-14);}.cls-28{clip-path:url(#clip-path-15);}.cls-29{opacity:0.18;}.cls-199,.cls-30{opacity:0;}.cls-31{fill:#fbfbfb;opacity:0.02;}.cls-32{fill:#f6f6f8;opacity:0.05;}.cls-33{fill:#f2f2f4;opacity:0.07;}.cls-34{fill:#ededf0;opacity:0.1;}.cls-35{fill:#e9e9ed;opacity:0.12;}.cls-36{fill:#e4e4e9;opacity:0.15;}.cls-37{fill:#e0e0e6;opacity:0.17;}.cls-38{fill:#dbdbe2;opacity:0.2;}.cls-39{fill:#d7d7de;opacity:0.22;}.cls-40{fill:#d2d2db;opacity:0.24;}.cls-41{fill:#ceced7;opacity:0.27;}.cls-42{fill:#c9c9d3;opacity:0.29;}.cls-43{fill:#c5c5d0;opacity:0.32;}.cls-44{fill:#c1c1cc;opacity:0.34;}.cls-45{fill:#bcbcc8;opacity:0.37;}.cls-46{fill:#b8b8c5;opacity:0.39;}.cls-47{fill:#b3b3c1;opacity:0.41;}.cls-48{fill:#afafbe;opacity:0.44;}.cls-49{fill:#aaaaba;opacity:0.46;}.cls-50{fill:#a6a6b6;opacity:0.49;}.cls-51{fill:#a1a1b3;opacity:0.51;}.cls-52{fill:#9d9daf;opacity:0.54;}.cls-53{fill:#9898ab;opacity:0.56;}.cls-54{fill:#9494a8;opacity:0.59;}.cls-55{fill:#8f8fa4;opacity:0.61;}.cls-56{fill:#8b8ba1;opacity:0.63;}.cls-57{fill:#86869d;opacity:0.66;}.cls-58{fill:#828299;opacity:0.68;}.cls-59{fill:#7e7e96;opacity:0.71;}.cls-60{fill:#797992;opacity:0.73;}.cls-61{fill:#75758e;opacity:0.76;}.cls-62{fill:#70708b;opacity:0.78;}.cls-63{fill:#6c6c87;opacity:0.8;}.cls-64{fill:#676783;opacity:0.83;}.cls-65{fill:#636380;opacity:0.85;}.cls-66{fill:#5e5e7c;opacity:0.88;}.cls-67{fill:#5a5a79;opacity:0.9;}.cls-68{fill:#555575;opacity:0.93;}.cls-69{fill:#515171;opacity:0.95;}.cls-70{fill:#4c4c6e;opacity:0.98;}.cls-71{fill:#48486a;}.cls-72{fill:#777a82;}.cls-73{fill:#5c5f66;}.cls-74{fill:#e4e6ea;}.cls-75{fill:#f5f6f7;}.cls-76{fill:#bec3cc;}.cls-77{opacity:0.44;mix-blend-mode:multiply;fill:url(#radial-gradient);}.cls-78{fill:url(#未命名的渐变_15-3);}.cls-79{fill:url(#linear-gradient);}.cls-80{fill:url(#未命名的渐变_20);}.cls-81{opacity:0.45;}.cls-82{fill:#ddb963;opacity:0.99;}.cls-83{fill:#ddba64;opacity:0.98;}.cls-84{fill:#ddba65;opacity:0.97;}.cls-85{fill:#ddba66;opacity:0.97;}.cls-86{fill:#debb67;opacity:0.96;}.cls-87{fill:#debb68;opacity:0.95;}.cls-88{fill:#debc69;opacity:0.94;}.cls-89{fill:#debc6a;opacity:0.93;}.cls-90{fill:#debc6b;opacity:0.92;}.cls-91{fill:#debd6c;opacity:0.92;}.cls-92{fill:#debd6d;opacity:0.91;}.cls-93{fill:#debd6e;opacity:0.9;}.cls-94{fill:#dfbe6f;opacity:0.89;}.cls-95{fill:#dfbe70;opacity:0.88;}.cls-96{fill:#dfbe71;opacity:0.87;}.cls-97{fill:#dfbf72;opacity:0.86;}.cls-98{fill:#dfbf73;opacity:0.86;}.cls-99{fill:#dfc074;opacity:0.85;}.cls-100{fill:#dfc075;opacity:0.84;}.cls-101{fill:#dfc076;opacity:0.83;}.cls-102{fill:#dfc177;opacity:0.82;}.cls-103{fill:#e0c178;opacity:0.81;}.cls-104{fill:#e0c179;opacity:0.81;}.cls-105{fill:#e0c27a;opacity:0.8;}.cls-106{fill:#e0c27b;opacity:0.79;}.cls-107{fill:#e0c27c;opacity:0.78;}.cls-108{fill:#e0c37d;opacity:0.77;}.cls-109{fill:#e0c37e;opacity:0.76;}.cls-110{fill:#e0c47f;opacity:0.75;}.cls-111{fill:#e1c480;opacity:0.75;}.cls-112{fill:#e1c481;opacity:0.74;}.cls-113{fill:#e1c582;opacity:0.73;}.cls-114{fill:#e1c583;opacity:0.72;}.cls-115{fill:#e1c584;opacity:0.71;}.cls-116{fill:#e1c685;opacity:0.7;}.cls-117{fill:#e1c686;opacity:0.69;}.cls-118{fill:#e1c687;opacity:0.69;}.cls-119{fill:#e2c788;opacity:0.68;}.cls-120{fill:#e2c789;opacity:0.67;}.cls-121{fill:#e2c88a;opacity:0.66;}.cls-122{fill:#e2c88b;opacity:0.65;}.cls-123{fill:#e2c88c;opacity:0.64;}.cls-124{fill:#e2c98d;opacity:0.64;}.cls-125{fill:#e2c98e;opacity:0.63;}.cls-126{fill:#e2c98f;opacity:0.62;}.cls-127{fill:#e2ca90;opacity:0.61;}.cls-128{fill:#e3ca91;opacity:0.6;}.cls-129{fill:#e3ca92;opacity:0.59;}.cls-130{fill:#e3cb93;opacity:0.58;}.cls-131{fill:#e3cb94;opacity:0.58;}.cls-132{fill:#e3cc95;opacity:0.57;}.cls-133{fill:#e3cc96;opacity:0.56;}.cls-134{fill:#e3cc97;opacity:0.55;}.cls-135{fill:#e3cd98;opacity:0.54;}.cls-136{fill:#e4cd99;opacity:0.53;}.cls-137{fill:#e4cd9a;opacity:0.53;}.cls-138{fill:#e4ce9b;opacity:0.52;}.cls-139,.cls-140{fill:#e4ce9c;}.cls-139{opacity:0.51;}.cls-140{opacity:0.5;}.cls-141{fill:#e4cf9d;opacity:0.49;}.cls-142{fill:#e4cf9e;opacity:0.48;}.cls-143{fill:#e4d09f;opacity:0.47;}.cls-144{fill:#e4d0a0;opacity:0.47;}.cls-145{fill:#e5d0a1;opacity:0.46;}.cls-146{fill:#e5d1a2;opacity:0.45;}.cls-147{fill:#e5d1a3;opacity:0.44;}.cls-148{fill:#e5d1a4;opacity:0.43;}.cls-149{fill:#e5d2a5;opacity:0.42;}.cls-150{fill:#e5d2a6;opacity:0.42;}.cls-151{fill:#e5d3a7;opacity:0.41;}.cls-152{fill:#e5d3a8;opacity:0.4;}.cls-153{fill:#e6d3a9;opacity:0.39;}.cls-154{fill:#e6d4aa;opacity:0.38;}.cls-155{fill:#e6d4ab;opacity:0.37;}.cls-156{fill:#e6d4ac;opacity:0.36;}.cls-157{fill:#e6d5ad;opacity:0.36;}.cls-158{fill:#e6d5ae;opacity:0.35;}.cls-159{fill:#e6d5af;opacity:0.34;}.cls-160{fill:#e6d6b0;opacity:0.33;}.cls-161{fill:#e6d6b1;opacity:0.32;}.cls-162{fill:#e7d7b2;opacity:0.31;}.cls-163{fill:#e7d7b3;opacity:0.31;}.cls-164{fill:#e7d7b4;opacity:0.3;}.cls-165{fill:#e7d8b5;opacity:0.29;}.cls-166{fill:#e7d8b6;opacity:0.28;}.cls-167{fill:#e7d8b7;opacity:0.27;}.cls-168{fill:#e7d9b8;opacity:0.26;}.cls-169{fill:#e7d9b9;opacity:0.25;}.cls-170{fill:#e8d9ba;opacity:0.25;}.cls-171{fill:#e8dabb;opacity:0.24;}.cls-172{fill:#e8dabc;opacity:0.23;}.cls-173{fill:#e8dbbd;opacity:0.22;}.cls-174{fill:#e8dbbe;opacity:0.21;}.cls-175{fill:#e8dbbf;opacity:0.2;}.cls-176{fill:#e8dcc0;opacity:0.19;}.cls-177{fill:#e8dcc1;opacity:0.19;}.cls-178{fill:#e9dcc2;opacity:0.18;}.cls-179{fill:#e9ddc3;opacity:0.17;}.cls-180{fill:#e9ddc4;opacity:0.16;}.cls-181{fill:#e9ddc5;opacity:0.15;}.cls-182{fill:#e9dec6;opacity:0.14;}.cls-183{fill:#e9dec7;opacity:0.14;}.cls-184{fill:#e9dfc8;opacity:0.13;}.cls-185{fill:#e9dfc9;opacity:0.12;}.cls-186{fill:#e9dfca;opacity:0.11;}.cls-187{fill:#eae0cb;opacity:0.1;}.cls-188{fill:#eae0cc;opacity:0.09;}.cls-189{fill:#eae0cd;opacity:0.08;}.cls-190{fill:#eae1ce;opacity:0.08;}.cls-191{fill:#eae1cf;opacity:0.07;}.cls-192{fill:#eae1d0;opacity:0.06;}.cls-193{fill:#eae2d1;opacity:0.05;}.cls-194{fill:#eae2d2;opacity:0.04;}.cls-195{fill:#ebe3d3;opacity:0.03;}.cls-196{fill:#ebe3d4;opacity:0.03;}.cls-197{fill:#ebe3d5;opacity:0.02;}.cls-198{fill:#ebe4d6;opacity:0.01;}.cls-199,.cls-205{fill:#ebe4d7;}.cls-200{clip-path:url(#clip-path-16);}.cls-201{clip-path:url(#clip-path-17);}.cls-202{clip-path:url(#clip-path-18);}.cls-203{clip-path:url(#clip-path-19);}.cls-204{fill:#fffbf3;}</style><linearGradient id="未命名的渐变_15" x1="36.88" y1="334.84" x2="640.41" y2="334.84" gradientUnits="userSpaceOnUse"><stop offset="0" stop-color="#838991"/><stop offset="1" stop-color="#d8dade"/></linearGradient><linearGradient id="未命名的渐变_39" x1="640.41" y1="427.02" x2="36.57" y2="427.02" gradientUnits="userSpaceOnUse"><stop offset="0" stop-color="#838991"/><stop offset="0.41" stop-color="#45484c"/><stop offset="0.44" stop-color="#54575c"/><stop offset="0.49" stop-color="#7b7f86"/><stop offset="0.56" stop-color="#bbbfc8"/><stop offset="0.56" stop-color="#bec3cc"/><stop offset="1" stop-color="#e4e6ea"/></linearGradient><linearGradient id="未命名的渐变_9" x1="223.87" y1="362.22" x2="451.03" y2="362.22" gradientUnits="userSpaceOnUse"><stop offset="0" stop-color="#838991"/><stop offset="0.43" stop-color="#37393d"/><stop offset="0.44" stop-color="#47494d"/><stop offset="0.48" stop-color="#707276"/><stop offset="0.5" stop-color="#989b9f"/><stop offset="1" stop-color="#d8dade"/></linearGradient><linearGradient id="未命名的渐变_15-2" x1="224.18" y1="253.91" x2="451.15" y2="253.91" xlink:href="#未命名的渐变_15"/><linearGradient id="未命名的渐变_9-2" x1="223.97" y1="311.86" x2="451.14" y2="311.86" xlink:href="#未命名的渐变_9"/><clipPath id="clip-path"><path class="cls-1" d="M485.05,224.33l-8.73-4.75-.09-.05,8.73,4.74Z"/></clipPath><clipPath id="clip-path-2"><path class="cls-1" d="M484.82,224.23l-8.73-4.75a.55.55,0,0,1-.19-.21,1.29,1.29,0,0,1,0-1l8.72,4.75a1.33,1.33,0,0,0,.06,1A.55.55,0,0,0,484.82,224.23Z"/></clipPath><clipPath id="clip-path-3"><path class="cls-1" d="M500.55,152.68l8.73,4.75a2.18,2.18,0,0,0-.77-.25l-8.73-4.75A2.18,2.18,0,0,1,500.55,152.68Z"/></clipPath><clipPath id="clip-path-4"><path class="cls-1" d="M484.57,223.05l-8.72-4.75c3.82-12,5-20.75,3.15-26.15a40.45,40.45,0,0,0-7-13.26l8.73,4.75a40.53,40.53,0,0,1,7,13.26C489.55,202.3,488.4,211,484.57,223.05Z"/></clipPath><clipPath id="clip-path-5"><path class="cls-1" d="M467.93,192.2l-8.72-4.75a1.64,1.64,0,0,1-.22-.14l8.73,4.75Z"/></clipPath><clipPath id="clip-path-6"><path class="cls-1" d="M467.72,192.06,459,187.31a2.14,2.14,0,0,1-.78-2.46l8.73,4.74A2.14,2.14,0,0,0,467.72,192.06Z"/></clipPath><clipPath id="clip-path-7"><path class="cls-1" d="M478.1,153.57l-8.72-4.74a1.74,1.74,0,0,1,.51,0l8.73,4.75A2.26,2.26,0,0,0,478.1,153.57Z"/></clipPath><clipPath id="clip-path-8"><path class="cls-1" d="M476,155.58l-8.73-4.75a2.6,2.6,0,0,1,2.07-2l8.72,4.74A2.62,2.62,0,0,0,476,155.58Z"/></clipPath><clipPath id="clip-path-9"><path class="cls-1" d="M195.48,179l8.72,4.75a1.63,1.63,0,0,0-1-.17,2.47,2.47,0,0,0-1.18.52l-8.73-4.75a2.51,2.51,0,0,1,1.18-.52A1.67,1.67,0,0,1,195.48,179Z"/></clipPath><clipPath id="clip-path-10"><path class="cls-1" d="M162.86,218.55l-8.72-4.75a1.75,1.75,0,0,1-.95-1.49l8.72,4.75A1.81,1.81,0,0,0,162.86,218.55Z"/></clipPath><clipPath id="clip-path-11"><path class="cls-1" d="M161.91,217.06l-8.72-4.75a2.64,2.64,0,0,1,1.07-2.53l8.72,4.75A2.69,2.69,0,0,0,161.91,217.06Z"/></clipPath><clipPath id="clip-path-12"><path class="cls-1" d="M178.58,147l8.73,4.75a.29.29,0,0,0-.14,0L178.45,147A.28.28,0,0,1,178.58,147Z"/></clipPath><clipPath id="clip-path-13"><path class="cls-1" d="M178.36,146.89l8.73,4.75a.85.85,0,0,0-.53-.07l-8.73-4.75A.85.85,0,0,1,178.36,146.89Z"/></clipPath><clipPath id="clip-path-14"><path class="cls-1" d="M185.89,151.84l-8.72-4.75a1.44,1.44,0,0,1,.66-.27l8.73,4.75A1.42,1.42,0,0,0,185.89,151.84Z"/></clipPath><clipPath id="clip-path-15"><path class="cls-1" d="M172.82,206.86l-8.73-4.75c-4.54-8.22-5.57-17.47-3.15-27.53a55.15,55.15,0,0,1,16.23-27.49l8.72,4.75a55.2,55.2,0,0,0-16.22,27.49C167.25,189.39,168.28,198.64,172.82,206.86Z"/></clipPath><radialGradient id="radial-gradient" cx="552.76" cy="8134.16" r="77.35" gradientTransform="translate(0 -3866.94) scale(1 0.52)" gradientUnits="userSpaceOnUse"><stop offset="0.09" stop-color="#48486a"/><stop offset="0.12" stop-color="#505070"/><stop offset="0.35" stop-color="#8d8da3"/><stop offset="0.56" stop-color="#bebeca"/><stop offset="0.75" stop-color="#e2e2e7"/><stop offset="0.9" stop-color="#f7f7f9"/><stop offset="1" stop-color="#fff"/></radialGradient><linearGradient id="未命名的渐变_15-3" x1="467.38" y1="337.55" x2="596.24" y2="337.55" xlink:href="#未命名的渐变_15"/><linearGradient id="linear-gradient" x1="290.1" y1="238.27" x2="384.91" y2="238.27" gradientUnits="userSpaceOnUse"><stop offset="0" stop-color="#99a7d8"/><stop offset="0.3" stop-color="#a6b3dd"/><stop offset="0.86" stop-color="#c9d2ea"/><stop offset="1" stop-color="#d3daed"/></linearGradient><linearGradient id="未命名的渐变_20" x1="290.09" y1="251.43" x2="384.92" y2="251.43" gradientUnits="userSpaceOnUse"><stop offset="0.15" stop-color="#ddb962"/><stop offset="1" stop-color="#ebe4d7"/></linearGradient><clipPath id="clip-path-16"><path class="cls-2" d="M401.84,70.85l29.17,13a47.14,47.14,0,0,0-12.65-3.6l-29.18-13A47.22,47.22,0,0,1,401.84,70.85Z"/></clipPath><clipPath id="clip-path-17"><path class="cls-2" d="M354.3,10.31l29.18,13a64.22,64.22,0,0,0-36.62-4.41l-29.18-13A64.38,64.38,0,0,1,354.3,10.31Z"/></clipPath><clipPath id="clip-path-18"><path class="cls-2" d="M282.17,100,253,87a12.84,12.84,0,0,0,0-2.7C251.16,47.07,280.11,12,317.68,5.9l29.18,13C309.29,25,280.33,60.05,282.2,97.25A12.84,12.84,0,0,1,282.17,100Z"/></clipPath><clipPath id="clip-path-19"><path class="cls-2" d="M259.18,200.33l-29.18-13c-15.24-6.78-25.89-21.47-26.82-40C201.74,118.67,224.05,91.64,253,87l29.18,13c-29,4.68-51.25,31.71-49.81,60.36C233.29,178.86,243.94,193.54,259.18,200.33Z"/></clipPath></defs><title>【插图】页面元素插图</title><g class="cls-3"><g id="图层_1" data-name="图层 1"><path class="cls-4" d="M42.81,355.74c-7.88-4.59-7.91-12.08-.08-16.63l279,85.4c7.83-4.59,20.74-4.59,28.68,0l284.06-80c7.88,4.55,7.91,12.07.06,16.62l-283,156.52c-7.88,4.57-20.82,4.57-28.71,0Z"/><path class="cls-5" d="M634.45,332.36c7.91,4.61,7.94,12.08.09,16.68l-283,156.52c-7.86,4.55-20.8,4.55-28.71,0l-280-162c-7.88-4.55-8-12.09-.08-16.62L325.86,170.42c7.83-4.64,20.74-4.64,28.64,0Z"/><path class="cls-6" d="M42.81,340.47c-7.88-4.61-7.91-12.06-.08-16.59L325.86,167.3c7.83-4.62,20.74-4.62,28.68,0l279.94,162c7.88,4.57,7.91,12,.06,16.62l-283,156.5c-7.88,4.61-20.82,4.61-28.71,0Z"/><path class="cls-7" d="M640.37,341.37c0,.17,0,.42-.06.6a1.92,1.92,0,0,1-.16.51,3.08,3.08,0,0,1-.13.71,2.94,2.94,0,0,0-.19.48,3.93,3.93,0,0,0-.33.6c-.17.28-.36.55-.48.8l-.09.18c-.22.27-.49.51-.67.78l-.19.22c-.25.27-.5.54-.82.83s-.44.27-.63.47a6.52,6.52,0,0,0-.53.49l-.73.42a3.86,3.86,0,0,1-.82.58L352.89,504.79v-.11c-.51.32-2.63,1.52-3.31,1.86a4,4,0,0,1-.63.18c-.48.22-1,.42-1.54.62a2.76,2.76,0,0,0-.59.22,6.55,6.55,0,0,1-1,.25c-.29.09-.56.2-.8.25s-.73.17-1.14.31a3.12,3.12,0,0,0-.76.09,12.47,12.47,0,0,1-2.31.29c-.24,0-.48.09-.73.09-.45,0-.9.08-1.33.08s-.67,0-.91,0h-1.1c-.31,0-.69,0-1,0a3.82,3.82,0,0,1-1-.08,3.66,3.66,0,0,1-1-.09c-.29,0-.65,0-1,0s-.62-.09-.94-.18a7.28,7.28,0,0,1-1.11-.17,3.29,3.29,0,0,1-.79-.14c-.44-.15-.86-.22-1.26-.33s-.47-.14-.76-.23a17.09,17.09,0,0,1-2.08-.73,6.35,6.35,0,0,1-1-.4,4.32,4.32,0,0,1-.55-.25c-.52-.2-3.26-1.85-3.8-2.1v0L42.81,343.56c-4-2.3-6-5.31-5.92-8.32l-.32,9.86c0,3,2,6,5.91,8.3l280,162v0c.64.35,1.24.67,1.45.76l.52.2a3.7,3.7,0,0,0,.93.47.16.16,0,0,1,.13.07c.68.24,1.38.46,2.14.69h.13a1.22,1.22,0,0,0,.63.18l1.23.33c.1,0,.19.09.3.09a2.23,2.23,0,0,1,.54.13c.37,0,.71.07,1,.12.15,0,.35.08.46.08l.55,0a2.51,2.51,0,0,0,1,.12,3.84,3.84,0,0,1,.47.07,2.19,2.19,0,0,1,.51,0c.31,0,.65,0,1,0h3a7.71,7.71,0,0,0,1.33-.14,5.82,5.82,0,0,0,.6,0h.19c.75-.12,1.52-.2,2.28-.31h.09c.23,0,.49-.12.75-.16a7.74,7.74,0,0,1,1.05-.23,2.7,2.7,0,0,1,.78-.19c.37-.18.71-.21,1.06-.36l.24,0a.58.58,0,0,0,.36-.15,7,7,0,0,0,1.56-.58,1.43,1.43,0,0,0,.57-.27c.33-.13,1.14-.55,1.91-1v.06L634.27,358.88l.16-.14c.24-.13.4-.22.6-.31s.51-.4.75-.6a3.46,3.46,0,0,0,.52-.4,3,3,0,0,1,.63-.49l.08-.09a7.45,7.45,0,0,0,.8-.78l.11-.16a1.84,1.84,0,0,0,.39-.44.66.66,0,0,1,.32-.32l0-.17a2.49,2.49,0,0,0,.48-.74l.06-.13a6.43,6.43,0,0,1,.3-.59c0-.19.12-.31.13-.44l0-.07a4.93,4.93,0,0,0,.24-.64A2.34,2.34,0,0,1,640,352a.23.23,0,0,1,0-.14,5.17,5.17,0,0,1,.09-.64c0-.09,0-.23,0-.45v-.09l.27-9.88S640.4,341.15,640.37,341.37Z"/><path class="cls-4" d="M228,360.5c-5.27-3-5.29-8-.07-11l99.7-27.87c5.22-3,13.8-3,19.07,0l100.34,27.87c5.26,3,5.29,8,.06,11l-99.69,57.93c-5.23,3.05-13.81,3.05-19.07,0Z"/><path class="cls-5" d="M447.07,303.17c5.27,3,5.29,8,.07,11l-99.69,57.94c-5.23,3-13.81,3-19.07,0L228,314.21c-5.27-3-5.29-8-.07-11l99.69-57.94c5.23-3,13.81-3,19.08,0Z"/><path class="cls-8" d="M228,309.8c-5.27-3-5.29-8-.07-11.06l99.7-57.92c5.22-3,13.8-3,19.07,0l100.34,57.92c5.26,3.05,5.29,8,.06,11.06l-99.69,57.92c-5.23,3-13.81,3-19.07,0Z"/><path class="cls-9" d="M451,309.12a3.18,3.18,0,0,1-.06.43,1.67,1.67,0,0,1-.08.32,3.17,3.17,0,0,1-.12.44c0,.1-.09.21-.13.32s-.12.27-.2.42a4.65,4.65,0,0,1-.34.56.86.86,0,0,1-.07.1,4.24,4.24,0,0,1-.43.54l-.1.12a7.3,7.3,0,0,1-.56.55c-.13.12-.28.23-.42.35s-.24.2-.37.29-.32.23-.49.33l-.5.32-98.71,57.37h0c-.39.23-1.8,1-2.24,1.2l-.39.18c-.33.14-.69.27-1,.39l-.4.14c-.23.07-.45.12-.68.2l-.54.14-.75.16-.5.1c-.51.08-1,.15-1.54.21l-.5,0c-.3,0-.59.05-.89.06h-.6c-.25,0-.49,0-.74,0s-.42,0-.63,0l-.67,0-.63-.05-.67-.08-.62-.08c-.24,0-.48-.07-.71-.13l-.56-.11-.84-.21-.46-.11c-.5-.16-1-.31-1.44-.5a6.76,6.76,0,0,1-.67-.29c-.13,0-.25-.1-.36-.14-.34-.17-2.21-1.22-2.52-1.41h0L228,314.21c-2.65-1.53-4-3.55-4-5.57L223.87,350c0,2,1.31,4,4,5.56l99,57.16h0l.48.27.85.49v0l1,.53a3.49,3.49,0,0,0,.34.15l.6.27.09,0c.46.17.94.35,1.43.48a.25.25,0,0,0,.12,0l.38.1c.26.07.52.14.8.2l.23,0c.11,0,.23,0,.35.07l.68.11.3.05.36,0a4.2,4.2,0,0,0,.62.07c.12,0,.23,0,.34,0l.33,0,.65,0h1.75l.22,0,.9,0a1.71,1.71,0,0,1,.38,0h.12c.51-.06,1-.13,1.53-.23h.08l.45-.1q.38-.06.72-.15l.54-.14.68-.2.16,0,.25-.09c.36-.13.7-.26,1-.41l.4-.17c.22-.09.74-.37,1.26-.65v0l99.69-57.93.15-.09.35-.23c.17-.12.33-.21.49-.33a3.47,3.47,0,0,0,.37-.3c.14-.12.29-.22.41-.33s.06,0,.08-.07c.18-.16.33-.32.49-.49l.09-.11a2.21,2.21,0,0,0,.25-.3,1.74,1.74,0,0,0,.19-.26l.07-.09a3.52,3.52,0,0,0,.28-.46s0-.07.06-.09l.19-.42a1.74,1.74,0,0,0,.11-.25.17.17,0,0,0,0-.1c.05-.12.08-.27.12-.4s.06-.17.08-.27v-.08a2.73,2.73,0,0,0,.05-.4c0-.1,0-.21,0-.3v-.11l.19-41.39C451,308.86,451,309,451,309.12Z"/><g class="cls-3"><path class="cls-10" d="M367.17,372.76l5-2.89c1.58-.92,2.86-.18,2.87,1.63a6.29,6.29,0,0,1-2.87,5l-5,2.89c-1.59.91-2.88.18-2.88-1.65a6.34,6.34,0,0,1,2.86-4.95Z"/></g><g class="cls-3"><path class="cls-11" d="M367.17,383.42l5-2.9c1.58-.92,2.86-.17,2.87,1.65a6.22,6.22,0,0,1-2.87,4.95l-5,2.89c-1.59.92-2.88.18-2.88-1.64a6.31,6.31,0,0,1,2.86-4.95Z"/></g><g class="cls-3"><path class="cls-11" d="M352.68,380.32l5-2.89c1.58-.93,2.87-.2,2.87,1.62a6.33,6.33,0,0,1-2.85,5l-5,2.88c-1.58.92-2.87.19-2.87-1.62a6.27,6.27,0,0,1,2.86-5Z"/></g><g class="cls-3"><path class="cls-11" d="M352.68,391l5-2.89c1.58-.92,2.87-.21,2.87,1.63a6.29,6.29,0,0,1-2.85,4.95l-5,2.9c-1.58.91-2.87.17-2.87-1.65a6.26,6.26,0,0,1,2.86-4.94Z"/></g><g class="cls-3"><path class="cls-11" d="M385.83,361.33l50.7-29.27c1.59-.91,2.87-.18,2.88,1.65a6.27,6.27,0,0,1-2.86,4.94l-50.7,29.28c-1.58.9-2.88.18-2.88-1.64a6.31,6.31,0,0,1,2.86-5Z"/></g><g class="cls-3"><path class="cls-11" d="M385.83,372.59l50.7-29.27c1.59-.91,2.87-.17,2.88,1.64a6.33,6.33,0,0,1-2.86,5l-50.7,29.25c-1.58.92-2.88.2-2.88-1.63a6.32,6.32,0,0,1,2.86-5Z"/></g><path class="cls-4" d="M228.14,310.15c-5.26-3-5.29-8-.07-11l99.7-27.87c5.22-3,13.81-3,19.07,0l100.34,27.87c5.26,3,5.29,8,.06,11l-99.68,57.93c-5.23,3.05-13.82,3.05-19.08,0Z"/><path class="cls-5" d="M447.18,252.82c5.26,3,5.29,8,.06,11L347.55,321.8c-5.22,3-13.81,3-19.07,0L228.14,263.86c-5.26-3.05-5.29-8-.06-11.05l99.68-57.94c5.23-3,13.82-3,19.08,0Z"/><path class="cls-12" d="M228.14,259.44c-5.26-3-5.29-8-.07-11.05l99.7-57.92c5.22-3.05,13.81-3.05,19.07,0l100.34,57.92c5.26,3,5.29,8,.06,11.05l-99.68,57.93c-5.23,3-13.82,3-19.08,0Z"/><path class="cls-13" d="M451.11,258.77a3.15,3.15,0,0,1-.05.43,1.68,1.68,0,0,1-.09.32,3.17,3.17,0,0,1-.12.44,2.69,2.69,0,0,1-.13.32,3.9,3.9,0,0,1-.2.42,4.65,4.65,0,0,1-.34.56l-.06.1a5.22,5.22,0,0,1-.44.54l-.09.12c-.18.18-.37.38-.57.55l-.41.35-.38.29-.49.33c-.16.1-.32.22-.5.32l-98.71,57.37h0c-.39.23-1.8,1-2.24,1.2l-.39.18c-.33.14-.68.27-1,.39l-.4.14c-.23.07-.45.12-.68.2l-.54.14-.75.16c-.17,0-.33.07-.5.09-.51.09-1,.16-1.53.22l-.5,0-.9.06h-.6c-.24,0-.49,0-.73,0s-.42,0-.63,0-.46,0-.68,0-.42,0-.63-.06l-.67-.07c-.21,0-.41-.06-.62-.09s-.47-.07-.71-.12l-.55-.11c-.29-.06-.57-.13-.85-.21s-.31-.07-.46-.12c-.5-.15-1-.31-1.44-.49-.23-.09-.45-.18-.67-.29l-.35-.15c-.35-.16-2.22-1.21-2.52-1.4h0l-98.81-57c-2.65-1.53-4-3.55-4-5.58l-.21,41.4c0,2,1.32,4,4,5.56l99,57.16h0l.48.26.85.5v0c.43.24.84.46,1,.53l.33.15c.2.09.39.18.61.26,0,0,.05,0,.08,0,.46.17.94.34,1.43.48a.25.25,0,0,0,.12,0l.38.1c.26.07.53.14.81.19a.79.79,0,0,0,.22.06l.35.07.68.11.31.05.35,0a4.36,4.36,0,0,0,.62.07l.34,0,.33,0,.65,0h1.75l.22,0,.9-.06a2.55,2.55,0,0,1,.38,0h.12c.52-.06,1-.13,1.53-.23h.09l.45-.11a5.72,5.72,0,0,0,.72-.14l.54-.14c.23-.07.46-.13.68-.21l.15,0,.26-.08c.35-.13.69-.26,1-.41l.39-.17c.22-.09.74-.37,1.26-.65v0L447,305.24l.16-.09.35-.24c.16-.11.33-.2.48-.32s.25-.19.38-.3.28-.22.4-.33a.6.6,0,0,0,.08-.08,4.45,4.45,0,0,0,.49-.48.55.55,0,0,1,.1-.11l.25-.3.19-.26.06-.09a5.16,5.16,0,0,0,.29-.46s0-.07.05-.1.13-.28.19-.41.09-.17.12-.25a.29.29,0,0,0,0-.1c0-.12.08-.27.11-.4s.06-.18.08-.27v-.08a2.73,2.73,0,0,0,0-.4,1.65,1.65,0,0,0,0-.3v-.12l.2-41.38C451.14,258.51,451.12,258.63,451.11,258.77Z"/><g class="cls-3"><path class="cls-10" d="M367.27,322.41l5-2.89c1.58-.93,2.87-.19,2.87,1.63a6.27,6.27,0,0,1-2.86,5l-5,2.9c-1.6.91-2.88.18-2.89-1.65a6.32,6.32,0,0,1,2.86-4.95Z"/></g><g class="cls-3"><path class="cls-11" d="M367.27,333.07l5-2.9c1.58-.92,2.87-.18,2.87,1.64a6.26,6.26,0,0,1-2.86,5l-5,2.88c-1.6.93-2.88.19-2.89-1.63a6.31,6.31,0,0,1,2.86-4.95Z"/></g><g class="cls-3"><path class="cls-11" d="M352.78,330l5-2.9c1.59-.93,2.87-.2,2.87,1.63a6.3,6.3,0,0,1-2.85,5l-5,2.88c-1.59.92-2.88.19-2.88-1.62a6.3,6.3,0,0,1,2.86-5Z"/></g><g class="cls-3"><path class="cls-11" d="M352.78,340.63l5-2.89c1.59-.93,2.87-.21,2.87,1.62a6.29,6.29,0,0,1-2.85,5l-5,2.9c-1.59.91-2.88.17-2.88-1.65a6.3,6.3,0,0,1,2.86-4.94Z"/></g><g class="cls-3"><path class="cls-11" d="M385.93,311l50.7-29.27c1.6-.91,2.87-.18,2.88,1.65a6.27,6.27,0,0,1-2.86,4.94L386,317.57c-1.57.91-2.88.19-2.88-1.63a6.32,6.32,0,0,1,2.86-5Z"/></g><g class="cls-3"><path class="cls-11" d="M385.93,322.24,436.63,293c1.6-.91,2.87-.17,2.88,1.64a6.33,6.33,0,0,1-2.86,5L386,328.83c-1.57.92-2.88.2-2.88-1.63a6.35,6.35,0,0,1,2.86-5Z"/></g><g class="cls-3"><g class="cls-3"><path class="cls-1" d="M485.05,224.33l-8.73-4.75-.09-.05,8.73,4.74Z"/><g class="cls-14"><g class="cls-3"><path class="cls-1" d="M485.05,224.33l-8.73-4.75-.09-.05,8.73,4.74.09.06"/></g></g></g><g class="cls-3"><path class="cls-1" d="M484.82,224.23l-8.73-4.75a.55.55,0,0,1-.19-.21,1.29,1.29,0,0,1,0-1l8.72,4.75a1.33,1.33,0,0,0,.06,1A.55.55,0,0,0,484.82,224.23Z"/><g class="cls-15"><g class="cls-3"><path class="cls-1" d="M484.82,224.23l-8.73-4.75a.55.55,0,0,1-.19-.21,1.29,1.29,0,0,1,0-1l8.72,4.75a1.33,1.33,0,0,0,.06,1,.55.55,0,0,0,.19.21"/></g></g></g><g class="cls-3"><path class="cls-1" d="M500.55,152.68l8.73,4.75a2.18,2.18,0,0,0-.77-.25l-8.73-4.75A2.18,2.18,0,0,1,500.55,152.68Z"/><g class="cls-16"><g class="cls-3"><path class="cls-1" d="M508.51,157.18l-8.73-4.75a2.3,2.3,0,0,1,.28.06l8.73,4.75a1.4,1.4,0,0,0-.28-.06"/><path class="cls-1" d="M508.79,157.24l-8.73-4.75a2.19,2.19,0,0,1,.41.15l8.73,4.75a1.44,1.44,0,0,0-.41-.15"/><path class="cls-1" d="M509.2,157.39l-8.73-4.75.08,0,8.73,4.75-.08,0"/></g></g></g><g class="cls-3"><path class="cls-1" d="M484.57,223.05l-8.72-4.75c3.82-12,5-20.75,3.15-26.15a40.45,40.45,0,0,0-7-13.26l8.73,4.75a40.53,40.53,0,0,1,7,13.26C489.55,202.3,488.4,211,484.57,223.05Z"/><g class="cls-17"><g class="cls-3"><path class="cls-1" d="M484.57,223.05l-8.72-4.75c3.82-12,5-20.75,3.15-26.15a40.45,40.45,0,0,0-7-13.26l8.73,4.75a40.53,40.53,0,0,1,7,13.26c1.82,5.4.67,14.13-3.16,26.15"/></g></g></g><g class="cls-3"><path class="cls-1" d="M467.93,192.2l-8.72-4.75a1.64,1.64,0,0,1-.22-.14l8.73,4.75Z"/><g class="cls-18"><g class="cls-3"><path class="cls-1" d="M467.93,192.2l-8.72-4.75a1.64,1.64,0,0,1-.22-.14l8.73,4.75.21.14"/></g></g></g><g class="cls-3"><path class="cls-1" d="M467.72,192.06,459,187.31a2.14,2.14,0,0,1-.78-2.46l8.73,4.74A2.14,2.14,0,0,0,467.72,192.06Z"/><g class="cls-19"><g class="cls-3"><path class="cls-1" d="M467.72,192.06,459,187.31a2.14,2.14,0,0,1-.78-2.46l8.73,4.74a2.14,2.14,0,0,0,.78,2.47"/></g></g></g><polygon class="cls-1" points="478.62 153.57 469.89 148.82 499.78 152.43 508.51 157.18 478.62 153.57"/><g class="cls-3"><path class="cls-1" d="M478.1,153.57l-8.72-4.74a1.74,1.74,0,0,1,.51,0l8.73,4.75A2.26,2.26,0,0,0,478.1,153.57Z"/><g class="cls-20"><g class="cls-3"><path class="cls-1" d="M478.1,153.57l-8.72-4.74a1.74,1.74,0,0,1,.51,0l8.73,4.75a2.26,2.26,0,0,0-.52,0"/></g></g></g><polygon class="cls-1" points="466.94 189.59 458.21 184.85 467.31 150.83 476.04 155.58 466.94 189.59"/><path class="cls-2" d="M478.1,153.57a2.26,2.26,0,0,1,.52,0l29.89,3.61a1.85,1.85,0,0,1,1.71,1.73,2.65,2.65,0,0,1-1.07,2.53l-9.83,7.67c4.54,8.23,5.57,17.47,3.15,27.54a55.08,55.08,0,0,1-16.23,27.48,1.38,1.38,0,0,1-.66.27.81.81,0,0,1-.62-.13.4.4,0,0,1-.33-.25,1.33,1.33,0,0,1-.06-1c3.83-12,5-20.75,3.16-26.15a40.53,40.53,0,0,0-7-13.26l-10.55,8.22a2.54,2.54,0,0,1-1.17.52,1.66,1.66,0,0,1-1.27-.32,2.14,2.14,0,0,1-.78-2.47l9.1-34A2.62,2.62,0,0,1,478.1,153.57Z"/><g class="cls-3"><path class="cls-1" d="M476,155.58l-8.73-4.75a2.6,2.6,0,0,1,2.07-2l8.72,4.74A2.62,2.62,0,0,0,476,155.58Z"/><g class="cls-21"><g class="cls-3"><path class="cls-1" d="M476,155.58l-8.73-4.75a1.58,1.58,0,0,1,.09-.31l8.73,4.75a1.58,1.58,0,0,0-.09.31"/><path class="cls-1" d="M476.13,155.27l-8.73-4.75a3.73,3.73,0,0,1,.16-.35l8.73,4.75a2.21,2.21,0,0,0-.16.35"/><path class="cls-1" d="M476.29,154.92l-8.73-4.75a2.61,2.61,0,0,1,.17-.28l8.73,4.75a2.61,2.61,0,0,0-.17.28"/><path class="cls-1" d="M476.46,154.64l-8.73-4.75a1.55,1.55,0,0,1,.19-.24l8.73,4.74a2.35,2.35,0,0,0-.19.25"/><path class="cls-1" d="M476.65,154.39l-8.73-4.74.22-.23,8.73,4.75-.22.22"/><path class="cls-1" d="M476.87,154.17l-8.73-4.75a2.69,2.69,0,0,1,.27-.2l8.72,4.74-.26.21"/><path class="cls-1" d="M477.13,154l-8.72-4.74a2.5,2.5,0,0,1,.35-.21l8.73,4.75-.36.2"/><path class="cls-1" d="M477.49,153.76,468.76,149a2.21,2.21,0,0,1,.62-.18l8.72,4.74a2.27,2.27,0,0,0-.61.19"/></g></g></g></g><g class="cls-3"><g class="cls-3"><path class="cls-1" d="M195.48,179l8.72,4.75a1.63,1.63,0,0,0-1-.17,2.47,2.47,0,0,0-1.18.52l-8.73-4.75a2.51,2.51,0,0,1,1.18-.52A1.67,1.67,0,0,1,195.48,179Z"/><g class="cls-22"><g class="cls-3"><path class="cls-1" d="M202,184.12l-8.73-4.75.15-.11,8.73,4.75-.15.11"/><path class="cls-1" d="M202.12,184l-8.73-4.75a3.72,3.72,0,0,1,.38-.22l8.73,4.75a3.72,3.72,0,0,0-.38.22"/><path class="cls-1" d="M202.5,183.79,193.77,179a2.38,2.38,0,0,1,.65-.19,1.64,1.64,0,0,1,.7,0l8.73,4.75a1.64,1.64,0,0,0-.7,0,2.29,2.29,0,0,0-.65.19"/><path class="cls-1" d="M203.85,183.63l-8.73-4.75.3.11,8.73,4.75a1.82,1.82,0,0,0-.3-.11"/><path class="cls-1" d="M204.15,183.74,195.42,179l.06,0,8.72,4.75,0,0"/></g></g></g><polygon class="cls-1" points="191.43 192.34 182.7 187.59 193.24 179.37 201.97 184.12 191.43 192.34"/><g class="cls-3"><path class="cls-1" d="M162.86,218.55l-8.72-4.75a1.75,1.75,0,0,1-.95-1.49l8.72,4.75A1.81,1.81,0,0,0,162.86,218.55Z"/><g class="cls-23"><g class="cls-3"><path class="cls-1" d="M162.86,218.55l-8.72-4.75a1.75,1.75,0,0,1-.95-1.49l8.72,4.75a1.81,1.81,0,0,0,1,1.49"/></g></g></g><polygon class="cls-1" points="162.98 214.53 154.26 209.78 164.09 202.11 172.82 206.85 162.98 214.53"/><g class="cls-3"><path class="cls-1" d="M161.91,217.06l-8.72-4.75a2.64,2.64,0,0,1,1.07-2.53l8.72,4.75A2.69,2.69,0,0,0,161.91,217.06Z"/><g class="cls-24"><g class="cls-3"><path class="cls-1" d="M161.91,217.06l-8.72-4.75a2.26,2.26,0,0,1,.11-1.23l8.73,4.74a2.31,2.31,0,0,0-.12,1.24"/><path class="cls-1" d="M162,215.82l-8.73-4.74a2,2,0,0,1,.16-.36l8.73,4.75a2.21,2.21,0,0,0-.16.35"/><path class="cls-1" d="M162.19,215.47l-8.73-4.75.18-.3,8.73,4.75c-.06.1-.13.2-.18.3"/><path class="cls-1" d="M162.37,215.17l-8.73-4.75.21-.26,8.73,4.75-.21.26"/><path class="cls-1" d="M162.58,214.91l-8.73-4.75.25-.25,8.73,4.75a3,3,0,0,0-.25.25"/><path class="cls-1" d="M162.83,214.66l-8.73-4.75.16-.13,8.72,4.75-.15.13"/></g></g></g><g class="cls-3"><path class="cls-1" d="M178.58,147l8.73,4.75a.29.29,0,0,0-.14,0L178.45,147A.28.28,0,0,1,178.58,147Z"/><g class="cls-25"><g class="cls-3"><path class="cls-1" d="M187.17,151.7,178.45,147h.05l8.73,4.75h-.06"/><path class="cls-1" d="M187.23,151.71,178.5,147l.07,0,8.73,4.75-.07,0"/><path class="cls-1" d="M187.3,151.73,178.57,147h0l8.73,4.75h0"/></g></g></g><g class="cls-3"><path class="cls-1" d="M178.36,146.89l8.73,4.75a.85.85,0,0,0-.53-.07l-8.73-4.75A.85.85,0,0,1,178.36,146.89Z"/><g class="cls-26"><g class="cls-3"><path class="cls-1" d="M186.56,151.57l-8.73-4.75a1,1,0,0,1,.38,0l8.73,4.75a1,1,0,0,0-.38,0"/><path class="cls-1" d="M186.94,151.58l-8.73-4.75.13,0,8.73,4.75-.13,0"/><path class="cls-1" d="M187.07,151.63l-8.73-4.75h0l8.73,4.75h0"/></g></g></g><g class="cls-3"><path class="cls-1" d="M185.89,151.84l-8.72-4.75a1.44,1.44,0,0,1,.66-.27l8.73,4.75A1.42,1.42,0,0,0,185.89,151.84Z"/><g class="cls-27"><g class="cls-3"><path class="cls-1" d="M185.89,151.84l-8.72-4.75.05,0,8.73,4.75-.06,0"/><path class="cls-1" d="M186,151.81l-8.73-4.75.19-.12,8.73,4.75a1.22,1.22,0,0,0-.19.12"/><path class="cls-1" d="M186.14,151.69l-8.73-4.75a1.55,1.55,0,0,1,.42-.12l8.73,4.75a1.55,1.55,0,0,0-.42.12"/></g></g></g><path class="cls-2" d="M186.56,151.57a.74.74,0,0,1,.61.13.4.4,0,0,1,.33.26,1.27,1.27,0,0,1,.06,1c-3.82,12-5,20.75-3.15,26.14a40.31,40.31,0,0,0,7,13.27L202,184.12a2.47,2.47,0,0,1,1.18-.52,1.61,1.61,0,0,1,1.27.31,2.17,2.17,0,0,1,.78,2.47l-9.1,34a2.63,2.63,0,0,1-2.07,2,1.74,1.74,0,0,1-.51,0l-29.89-3.61a1.88,1.88,0,0,1-1.72-1.74,2.69,2.69,0,0,1,1.07-2.53l9.84-7.67c-4.54-8.22-5.57-17.47-3.15-27.53a55.2,55.2,0,0,1,16.22-27.49A1.42,1.42,0,0,1,186.56,151.57Z"/><g class="cls-3"><path class="cls-1" d="M172.82,206.86l-8.73-4.75c-4.54-8.22-5.57-17.47-3.15-27.53a55.15,55.15,0,0,1,16.23-27.49l8.72,4.75a55.2,55.2,0,0,0-16.22,27.49C167.25,189.39,168.28,198.64,172.82,206.86Z"/><g class="cls-28"><g class="cls-3"><path class="cls-1" d="M172.82,206.86l-8.73-4.75c-4.54-8.22-5.57-17.47-3.15-27.53a52.81,52.81,0,0,1,1.82-6l8.72,4.74a52.94,52.94,0,0,0-1.81,6c-2.42,10.06-1.39,19.31,3.15,27.53"/><path class="cls-1" d="M171.48,173.31l-8.72-4.74a51.63,51.63,0,0,1,3.07-6.83l8.73,4.75a53.51,53.51,0,0,0-3.08,6.82"/><path class="cls-1" d="M174.56,166.49l-8.73-4.75a54.93,54.93,0,0,1,3.39-5.5L178,161a53.15,53.15,0,0,0-3.39,5.5"/><path class="cls-1" d="M178,161l-8.73-4.75a58.27,58.27,0,0,1,4-5.09L182,155.9a58.27,58.27,0,0,0-4,5.09"/><path class="cls-1" d="M182,155.9l-8.73-4.75c1.23-1.39,2.54-2.75,3.93-4.06l8.72,4.75q-2.07,2-3.92,4.06"/></g></g></g></g><g class="cls-29"><polygon class="cls-30" points="142.45 378.18 170.27 394.08 196.13 379.15 168.42 363.16 142.45 378.18"/><polygon class="cls-31" points="142.45 378.18 169.63 393.71 195.49 378.78 168.42 363.16 142.45 378.18"/><polygon class="cls-32" points="142.45 378.18 168.99 393.35 194.84 378.41 168.42 363.16 142.45 378.18"/><polygon class="cls-33" points="142.45 378.18 168.34 392.98 194.2 378.04 168.42 363.16 142.45 378.18"/><polygon class="cls-34" points="142.45 378.18 167.7 392.61 193.56 377.67 168.42 363.16 142.45 378.18"/><polygon class="cls-35" points="142.45 378.18 167.06 392.24 192.92 377.3 168.42 363.16 142.45 378.18"/><polygon class="cls-36" points="142.45 378.18 166.41 391.87 192.28 376.93 168.42 363.16 142.45 378.18"/><polygon class="cls-37" points="142.45 378.18 165.77 391.51 191.63 376.56 168.42 363.16 142.45 378.18"/><polygon class="cls-38" points="142.45 378.18 165.13 391.14 190.99 376.19 168.42 363.16 142.45 378.18"/><polygon class="cls-39" points="142.45 378.18 164.48 390.77 190.35 375.82 168.42 363.16 142.45 378.18"/><polygon class="cls-40" points="142.45 378.18 163.84 390.4 189.71 375.45 168.42 363.16 142.45 378.18"/><polygon class="cls-41" points="142.45 378.18 163.2 390.04 189.07 375.08 168.42 363.16 142.45 378.18"/><polygon class="cls-42" points="142.45 378.18 162.55 389.67 188.43 374.71 168.42 363.16 142.45 378.18"/><polygon class="cls-43" points="142.45 378.18 161.91 389.3 187.78 374.34 168.42 363.16 142.45 378.18"/><polygon class="cls-44" points="142.45 378.18 161.27 388.93 187.14 373.96 168.42 363.16 142.45 378.18"/><polygon class="cls-45" points="142.45 378.18 160.62 388.56 186.5 373.6 168.42 363.16 142.45 378.18"/><polygon class="cls-46" points="142.45 378.18 159.98 388.2 185.86 373.22 168.42 363.16 142.45 378.18"/><polygon class="cls-47" points="142.45 378.18 159.34 387.83 185.22 372.85 168.42 363.16 142.45 378.18"/><polygon class="cls-48" points="142.45 378.18 158.69 387.46 184.57 372.48 168.42 363.16 142.45 378.18"/><polygon class="cls-49" points="142.45 378.18 158.05 387.09 183.93 372.11 168.42 363.16 142.45 378.18"/><polygon class="cls-50" points="142.45 378.18 157.41 386.73 183.29 371.74 168.42 363.16 142.45 378.18"/><polygon class="cls-51" points="142.45 378.18 156.76 386.36 182.65 371.37 168.42 363.16 142.45 378.18"/><polygon class="cls-52" points="142.45 378.18 156.12 385.99 182 371 168.42 363.16 142.45 378.18"/><polygon class="cls-53" points="142.45 378.18 155.48 385.62 181.36 370.63 168.42 363.16 142.45 378.18"/><polygon class="cls-54" points="142.45 378.18 154.84 385.25 180.72 370.26 168.42 363.16 142.45 378.18"/><polygon class="cls-55" points="142.45 378.18 154.19 384.89 180.08 369.89 168.42 363.16 142.45 378.18"/><polygon class="cls-56" points="142.45 378.18 153.55 384.52 179.44 369.52 168.42 363.16 142.45 378.18"/><polygon class="cls-57" points="142.45 378.18 152.91 384.15 178.79 369.15 168.42 363.16 142.45 378.18"/><polygon class="cls-58" points="142.45 378.18 152.26 383.78 178.15 368.78 168.42 363.16 142.45 378.18"/><polygon class="cls-59" points="142.45 378.18 151.62 383.42 177.51 368.41 168.42 363.16 142.45 378.18"/><polygon class="cls-60" points="142.45 378.18 150.97 383.05 176.87 368.04 168.42 363.16 142.45 378.18"/><polygon class="cls-61" points="142.45 378.18 150.33 382.68 176.23 367.67 168.42 363.16 142.45 378.18"/><polygon class="cls-62" points="142.45 378.18 149.69 382.31 175.59 367.29 168.42 363.16 142.45 378.18"/><polygon class="cls-63" points="142.45 378.18 149.04 381.94 174.94 366.92 168.42 363.16 142.45 378.18"/><polygon class="cls-64" points="142.45 378.18 148.4 381.58 174.3 366.55 168.42 363.16 142.45 378.18"/><polygon class="cls-65" points="142.45 378.18 147.76 381.21 173.66 366.18 168.42 363.16 142.45 378.18"/><polygon class="cls-66" points="142.45 378.18 147.12 380.84 173.02 365.81 168.42 363.16 142.45 378.18"/><polygon class="cls-67" points="142.45 378.18 146.47 380.48 172.38 365.44 168.42 363.16 142.45 378.18"/><polygon class="cls-68" points="142.45 378.18 145.83 380.11 171.73 365.07 168.42 363.16 142.45 378.18"/><polygon class="cls-69" points="142.45 378.18 145.19 379.74 171.09 364.7 168.42 363.16 142.45 378.18"/><polygon class="cls-70" points="142.45 378.18 144.54 379.37 170.45 364.33 168.42 363.16 142.45 378.18"/><polygon class="cls-71" points="142.45 378.18 143.9 379 169.81 363.96 168.42 363.16 142.45 378.18"/></g><polygon class="cls-72" points="173.59 254.15 147.18 238.9 121.42 254.15 147.18 269.39 173.59 254.15"/><polygon class="cls-11" points="173.59 254.15 173.59 366.7 147.18 381.12 147.18 269.39 173.59 254.15"/><polygon class="cls-73" points="121.42 254.15 121.42 365.87 147.18 381.12 147.18 269.39 121.42 254.15"/><g class="cls-29"><polygon class="cls-30" points="172.74 396.16 200.56 412.07 226.41 397.14 198.71 381.14 172.74 396.16"/><polygon class="cls-31" points="172.74 396.16 199.92 411.7 225.77 396.77 198.71 381.14 172.74 396.16"/><polygon class="cls-32" points="172.74 396.16 199.27 411.33 225.13 396.4 198.71 381.14 172.74 396.16"/><polygon class="cls-33" points="172.74 396.16 198.63 410.96 224.49 396.03 198.71 381.14 172.74 396.16"/><polygon class="cls-34" points="172.74 396.16 197.99 410.6 223.85 395.66 198.71 381.14 172.74 396.16"/><polygon class="cls-35" points="172.74 396.16 197.34 410.23 223.2 395.29 198.71 381.14 172.74 396.16"/><polygon class="cls-36" points="172.74 396.16 196.7 409.86 222.56 394.92 198.71 381.14 172.74 396.16"/><polygon class="cls-37" points="172.74 396.16 196.06 409.49 221.92 394.55 198.71 381.14 172.74 396.16"/><polygon class="cls-38" points="172.74 396.16 195.41 409.13 221.28 394.18 198.71 381.14 172.74 396.16"/><polygon class="cls-39" points="172.74 396.16 194.77 408.76 220.64 393.81 198.71 381.14 172.74 396.16"/><polygon class="cls-40" points="172.74 396.16 194.13 408.39 220 393.44 198.71 381.14 172.74 396.16"/><polygon class="cls-41" points="172.74 396.16 193.48 408.02 219.35 393.06 198.71 381.14 172.74 396.16"/><polygon class="cls-42" points="172.74 396.16 192.84 407.66 218.71 392.69 198.71 381.14 172.74 396.16"/><polygon class="cls-43" points="172.74 396.16 192.2 407.29 218.07 392.32 198.71 381.14 172.74 396.16"/><polygon class="cls-44" points="172.74 396.16 191.55 406.92 217.43 391.95 198.71 381.14 172.74 396.16"/><polygon class="cls-45" points="172.74 396.16 190.91 406.55 216.78 391.58 198.71 381.14 172.74 396.16"/><polygon class="cls-46" points="172.74 396.16 190.27 406.19 216.14 391.21 198.71 381.14 172.74 396.16"/><polygon class="cls-47" points="172.74 396.16 189.62 405.82 215.5 390.84 198.71 381.14 172.74 396.16"/><polygon class="cls-48" points="172.74 396.16 188.98 405.45 214.86 390.47 198.71 381.14 172.74 396.16"/><polygon class="cls-49" points="172.74 396.16 188.34 405.08 214.22 390.1 198.71 381.14 172.74 396.16"/><polygon class="cls-50" points="172.74 396.16 187.69 404.71 213.57 389.73 198.71 381.14 172.74 396.16"/><polygon class="cls-51" points="172.74 396.16 187.05 404.35 212.93 389.36 198.71 381.14 172.74 396.16"/><polygon class="cls-52" points="172.74 396.16 186.41 403.98 212.29 388.99 198.71 381.14 172.74 396.16"/><polygon class="cls-53" points="172.74 396.16 185.76 403.61 211.65 388.62 198.71 381.14 172.74 396.16"/><polygon class="cls-54" points="172.74 396.16 185.12 403.24 211.01 388.25 198.71 381.14 172.74 396.16"/><polygon class="cls-55" points="172.74 396.16 184.48 402.88 210.37 387.88 198.71 381.14 172.74 396.16"/><polygon class="cls-56" points="172.74 396.16 183.83 402.51 209.72 387.5 198.71 381.14 172.74 396.16"/><polygon class="cls-57" points="172.74 396.16 183.19 402.14 209.08 387.13 198.71 381.14 172.74 396.16"/><polygon class="cls-58" points="172.74 396.16 182.55 401.77 208.44 386.76 198.71 381.14 172.74 396.16"/><polygon class="cls-59" points="172.74 396.16 181.9 401.4 207.8 386.39 198.71 381.14 172.74 396.16"/><polygon class="cls-60" points="172.74 396.16 181.26 401.04 207.16 386.02 198.71 381.14 172.74 396.16"/><polygon class="cls-61" points="172.74 396.16 180.62 400.67 206.51 385.65 198.71 381.14 172.74 396.16"/><polygon class="cls-62" points="172.74 396.16 179.97 400.3 205.87 385.28 198.71 381.14 172.74 396.16"/><polygon class="cls-63" points="172.74 396.16 179.33 399.93 205.23 384.91 198.71 381.14 172.74 396.16"/><polygon class="cls-64" points="172.74 396.16 178.69 399.56 204.59 384.54 198.71 381.14 172.74 396.16"/><polygon class="cls-65" points="172.74 396.16 178.04 399.2 203.95 384.17 198.71 381.14 172.74 396.16"/><polygon class="cls-66" points="172.74 396.16 177.4 398.83 203.3 383.8 198.71 381.14 172.74 396.16"/><polygon class="cls-67" points="172.74 396.16 176.76 398.46 202.66 383.43 198.71 381.14 172.74 396.16"/><polygon class="cls-68" points="172.74 396.16 176.12 398.09 202.02 383.06 198.71 381.14 172.74 396.16"/><polygon class="cls-69" points="172.74 396.16 175.47 397.73 201.38 382.69 198.71 381.14 172.74 396.16"/><polygon class="cls-70" points="172.74 396.16 174.83 397.36 200.74 382.32 198.71 381.14 172.74 396.16"/><polygon class="cls-71" points="172.74 396.16 174.19 396.99 200.09 381.95 198.71 381.14 172.74 396.16"/></g><polygon class="cls-10" points="206.65 306.12 180.24 290.87 154.48 306.12 180.24 321.37 206.65 306.12"/><polygon class="cls-1" points="206.65 306.12 206.65 385.97 180.24 400.39 180.24 321.37 206.65 306.12"/><polygon class="cls-2" points="154.48 306.12 154.48 385.15 180.24 400.39 180.24 321.37 154.48 306.12"/><g class="cls-29"><polygon class="cls-30" points="215.03 420.48 242.85 436.38 268.71 421.46 241 405.46 215.03 420.48"/><polygon class="cls-31" points="215.03 420.48 242.21 436.01 268.06 421.08 241 405.46 215.03 420.48"/><polygon class="cls-32" points="215.03 420.48 241.57 435.65 267.42 420.71 241 405.46 215.03 420.48"/><polygon class="cls-33" points="215.03 420.48 240.92 435.28 266.78 420.34 241 405.46 215.03 420.48"/><polygon class="cls-34" points="215.03 420.48 240.28 434.91 266.14 419.97 241 405.46 215.03 420.48"/><polygon class="cls-35" points="215.03 420.48 239.64 434.54 265.5 419.6 241 405.46 215.03 420.48"/><polygon class="cls-36" points="215.03 420.48 238.99 434.18 264.86 419.23 241 405.46 215.03 420.48"/><polygon class="cls-37" points="215.03 420.48 238.35 433.81 264.21 418.86 241 405.46 215.03 420.48"/><polygon class="cls-38" points="215.03 420.48 237.71 433.44 263.57 418.49 241 405.46 215.03 420.48"/><polygon class="cls-39" points="215.03 420.48 237.06 433.07 262.93 418.12 241 405.46 215.03 420.48"/><polygon class="cls-40" points="215.03 420.48 236.42 432.7 262.29 417.75 241 405.46 215.03 420.48"/><polygon class="cls-41" points="215.03 420.48 235.78 432.34 261.64 417.38 241 405.46 215.03 420.48"/><polygon class="cls-42" points="215.03 420.48 235.13 431.97 261 417.01 241 405.46 215.03 420.48"/><polygon class="cls-43" points="215.03 420.48 234.49 431.6 260.36 416.64 241 405.46 215.03 420.48"/><polygon class="cls-44" points="215.03 420.48 233.85 431.24 259.72 416.27 241 405.46 215.03 420.48"/><polygon class="cls-45" points="215.03 420.48 233.2 430.87 259.08 415.9 241 405.46 215.03 420.48"/><polygon class="cls-46" points="215.03 420.48 232.56 430.5 258.44 415.53 241 405.46 215.03 420.48"/><polygon class="cls-47" points="215.03 420.48 231.92 430.13 257.79 415.15 241 405.46 215.03 420.48"/><polygon class="cls-48" points="215.03 420.48 231.27 429.76 257.15 414.79 241 405.46 215.03 420.48"/><polygon class="cls-49" points="215.03 420.48 230.63 429.4 256.51 414.41 241 405.46 215.03 420.48"/><polygon class="cls-50" points="215.03 420.48 229.99 429.03 255.87 414.04 241 405.46 215.03 420.48"/><polygon class="cls-51" points="215.03 420.48 229.34 428.66 255.23 413.67 241 405.46 215.03 420.48"/><polygon class="cls-52" points="215.03 420.48 228.7 428.29 254.58 413.3 241 405.46 215.03 420.48"/><polygon class="cls-53" points="215.03 420.48 228.06 427.93 253.94 412.93 241 405.46 215.03 420.48"/><polygon class="cls-54" points="215.03 420.48 227.41 427.56 253.3 412.56 241 405.46 215.03 420.48"/><polygon class="cls-55" points="215.03 420.48 226.77 427.19 252.66 412.19 241 405.46 215.03 420.48"/><polygon class="cls-56" points="215.03 420.48 226.13 426.82 252.02 411.82 241 405.46 215.03 420.48"/><polygon class="cls-57" points="215.03 420.48 225.48 426.45 251.37 411.45 241 405.46 215.03 420.48"/><polygon class="cls-58" points="215.03 420.48 224.84 426.09 250.73 411.08 241 405.46 215.03 420.48"/><polygon class="cls-59" points="215.03 420.48 224.2 425.72 250.09 410.71 241 405.46 215.03 420.48"/><polygon class="cls-60" points="215.03 420.48 223.55 425.35 249.45 410.34 241 405.46 215.03 420.48"/><polygon class="cls-61" points="215.03 420.48 222.91 424.98 248.81 409.97 241 405.46 215.03 420.48"/><polygon class="cls-62" points="215.03 420.48 222.27 424.62 248.16 409.6 241 405.46 215.03 420.48"/><polygon class="cls-63" points="215.03 420.48 221.62 424.25 247.52 409.23 241 405.46 215.03 420.48"/><polygon class="cls-64" points="215.03 420.48 220.98 423.88 246.88 408.86 241 405.46 215.03 420.48"/><polygon class="cls-65" points="215.03 420.48 220.34 423.51 246.24 408.48 241 405.46 215.03 420.48"/><polygon class="cls-66" points="215.03 420.48 219.69 423.14 245.6 408.11 241 405.46 215.03 420.48"/><polygon class="cls-67" points="215.03 420.48 219.05 422.78 244.96 407.74 241 405.46 215.03 420.48"/><polygon class="cls-68" points="215.03 420.48 218.41 422.41 244.31 407.37 241 405.46 215.03 420.48"/><polygon class="cls-69" points="215.03 420.48 217.76 422.04 243.67 407 241 405.46 215.03 420.48"/><polygon class="cls-70" points="215.03 420.48 217.12 421.67 243.03 406.63 241 405.46 215.03 420.48"/><polygon class="cls-71" points="215.03 420.48 216.48 421.31 242.39 406.26 241 405.46 215.03 420.48"/></g><polygon class="cls-74" points="241.87 349.3 215.46 334.7 189.7 349.3 215.46 364.54 241.87 349.3"/><polygon class="cls-75" points="241.87 349.3 241.87 406.3 215.46 420.72 215.46 364.54 241.87 349.3"/><polygon class="cls-76" points="189.7 349.3 189.7 405.47 215.46 420.72 215.46 364.54 189.7 349.3"/><path class="cls-77" d="M498.58,308.77c29.8-17.2,78.55-17.2,108.35,0s29.8,45.36,0,62.56-78.55,17.2-108.35,0S468.78,326,498.58,308.77Z"/><path class="cls-78" d="M596.24,320.37H589a46.89,46.89,0,0,0-11.6-9.16c-25.08-14.48-66.13-14.48-91.22,0a47.08,47.08,0,0,0-11.6,9.16h-7.22v17h0c-.06,9.59,6.21,19.19,18.81,26.47,25.09,14.48,66.14,14.48,91.22,0C590,356.6,596.29,347,596.23,337.41h0Z"/><path class="cls-1" d="M486.2,311.21a47.08,47.08,0,0,0-11.6,9.16h-7.22v17h0c-.06,9.59,6.21,19.19,18.81,26.47l1.18.65V347.35l12.39-42.11A72.2,72.2,0,0,0,486.2,311.21Z"/><path class="cls-74" d="M486.2,294c25.09-14.48,66.14-14.48,91.22,0s25.09,38.19,0,52.67-66.13,14.49-91.22,0S461.11,308.52,486.2,294Z"/><path class="cls-10" d="M531.81,283.17c-16.53,0-33.07,3.62-45.61,10.86-25.09,14.49-25.09,38.19,0,52.67.39.23.79.44,1.18.65l44.43-21.14Z"/><path class="cls-11" d="M468.24,326.21h63.57v-43c-16.53,0-33.07,3.62-45.61,10.86C471.09,302.76,465.15,314.82,468.24,326.21Z"/><path class="cls-79" d="M291,253a.71.71,0,0,1,.09-.07l44.56-25.73a3.81,3.81,0,0,1,3.81,0L384,252.92l.08.07a1.87,1.87,0,0,0-.08-3.19l-44.57-25.73a3.81,3.81,0,0,0-3.81,0L291,249.8A1.87,1.87,0,0,0,291,253Z"/><path class="cls-11" d="M334.83,215.56l-62.74,36.23a2.65,2.65,0,0,0,0,4.59l62.74,36.22a5.35,5.35,0,0,0,5.36,0l62.74-36.22a2.66,2.66,0,0,0,0-4.59l-62.74-36.23A5.4,5.4,0,0,0,334.83,215.56Z"/><path class="cls-11" d="M402.93,253.43l-62.74,36.22a5.35,5.35,0,0,1-5.36,0l-62.74-36.22a2.51,2.51,0,0,1-.86-.82,2.64,2.64,0,0,0,.86,3.77l62.74,36.22a5.35,5.35,0,0,0,5.36,0l62.74-36.22a2.64,2.64,0,0,0,.85-3.77A2.48,2.48,0,0,1,402.93,253.43Z"/><path class="cls-80" d="M335.6,224.07,291,249.8a1.88,1.88,0,0,0,0,3.26l44.56,25.73a3.81,3.81,0,0,0,3.81,0L384,253.06a1.89,1.89,0,0,0,0-3.26l-44.57-25.73A3.81,3.81,0,0,0,335.6,224.07Z"/><g class="cls-81"><path class="cls-10" d="M336.71,225,295,249a1.76,1.76,0,0,0,0,3.05l41.71,24.08a3.56,3.56,0,0,0,3.57,0L382,252.09a1.76,1.76,0,0,0,0-3.05L340.28,225A3.56,3.56,0,0,0,336.71,225Z"/><path class="cls-82" d="M336.71,224.07,295,248.15a1.76,1.76,0,0,0,0,3l41.71,24.09a3.56,3.56,0,0,0,3.57,0L382,251.2a1.76,1.76,0,0,0,0-3l-41.71-24.08A3.56,3.56,0,0,0,336.71,224.07Z"/><path class="cls-83" d="M336.71,223.19,295,247.27a1.76,1.76,0,0,0,0,3l41.71,24.09a3.61,3.61,0,0,0,3.57,0L382,250.32a1.76,1.76,0,0,0,0-3l-41.71-24.08A3.56,3.56,0,0,0,336.71,223.19Z"/><path class="cls-84" d="M336.71,222.3,295,246.39a1.76,1.76,0,0,0,0,3.05l41.71,24.08a3.56,3.56,0,0,0,3.57,0L382,249.44a1.76,1.76,0,0,0,0-3.05L340.28,222.3A3.61,3.61,0,0,0,336.71,222.3Z"/><path class="cls-85" d="M336.71,221.42,295,245.51a1.76,1.76,0,0,0,0,3.05l41.71,24.08a3.56,3.56,0,0,0,3.57,0L382,248.56a1.76,1.76,0,0,0,0-3.05l-41.71-24.09A3.61,3.61,0,0,0,336.71,221.42Z"/><path class="cls-86" d="M336.71,220.54,295,244.62a1.77,1.77,0,0,0,0,3.06l41.71,24.08a3.56,3.56,0,0,0,3.57,0L382,247.68a1.77,1.77,0,0,0,0-3.06l-41.71-24.08A3.56,3.56,0,0,0,336.71,220.54Z"/><path class="cls-87" d="M336.71,219.66,295,243.74a1.76,1.76,0,0,0,0,3l41.71,24.09a3.56,3.56,0,0,0,3.57,0L382,246.79a1.76,1.76,0,0,0,0-3l-41.71-24.08A3.56,3.56,0,0,0,336.71,219.66Z"/><path class="cls-88" d="M336.71,218.78,295,242.86a1.76,1.76,0,0,0,0,3L336.71,270a3.61,3.61,0,0,0,3.57,0L382,245.91a1.76,1.76,0,0,0,0-3l-41.71-24.08A3.56,3.56,0,0,0,336.71,218.78Z"/><path class="cls-89" d="M336.71,217.89,295,242a1.76,1.76,0,0,0,0,3.05l41.71,24.08a3.56,3.56,0,0,0,3.57,0L382,245a1.76,1.76,0,0,0,0-3.05l-41.71-24.09A3.61,3.61,0,0,0,336.71,217.89Z"/><path class="cls-90" d="M336.71,217,295,241.1a1.76,1.76,0,0,0,0,3.05l41.71,24.08a3.56,3.56,0,0,0,3.57,0L382,244.15a1.76,1.76,0,0,0,0-3.05L340.28,217A3.61,3.61,0,0,0,336.71,217Z"/><path class="cls-91" d="M336.71,216.13,295,240.21a1.77,1.77,0,0,0,0,3.06l41.71,24.08a3.56,3.56,0,0,0,3.57,0L382,243.27a1.77,1.77,0,0,0,0-3.06l-41.71-24.08A3.56,3.56,0,0,0,336.71,216.13Z"/><path class="cls-92" d="M336.71,215.25,295,239.33a1.76,1.76,0,0,0,0,3l41.71,24.09a3.56,3.56,0,0,0,3.57,0L382,242.38a1.76,1.76,0,0,0,0-3l-41.71-24.08A3.56,3.56,0,0,0,336.71,215.25Z"/><path class="cls-93" d="M336.71,214.37,295,238.45a1.76,1.76,0,0,0,0,3.05l41.71,24.09a3.61,3.61,0,0,0,3.57,0L382,241.5a1.76,1.76,0,0,0,0-3.05l-41.71-24.08A3.56,3.56,0,0,0,336.71,214.37Z"/><path class="cls-94" d="M336.71,213.48,295,237.57a1.76,1.76,0,0,0,0,3.05l41.71,24.08a3.56,3.56,0,0,0,3.57,0L382,240.62a1.76,1.76,0,0,0,0-3.05l-41.71-24.09A3.61,3.61,0,0,0,336.71,213.48Z"/><path class="cls-95" d="M336.71,212.6,295,236.69a1.76,1.76,0,0,0,0,3.05l41.71,24.08a3.56,3.56,0,0,0,3.57,0L382,239.74a1.76,1.76,0,0,0,0-3.05L340.28,212.6A3.61,3.61,0,0,0,336.71,212.6Z"/><path class="cls-96" d="M336.71,211.72,295,235.8a1.77,1.77,0,0,0,0,3.06l41.71,24.08a3.56,3.56,0,0,0,3.57,0L382,238.86a1.77,1.77,0,0,0,0-3.06l-41.71-24.08A3.56,3.56,0,0,0,336.71,211.72Z"/><path class="cls-97" d="M336.71,210.84,295,234.92a1.76,1.76,0,0,0,0,3.05l41.71,24.09a3.56,3.56,0,0,0,3.57,0L382,238a1.76,1.76,0,0,0,0-3.05l-41.71-24.08A3.56,3.56,0,0,0,336.71,210.84Z"/><path class="cls-98" d="M336.71,210,295,234a1.76,1.76,0,0,0,0,3.05l41.71,24.09a3.61,3.61,0,0,0,3.57,0L382,237.09a1.76,1.76,0,0,0,0-3.05L340.28,210A3.56,3.56,0,0,0,336.71,210Z"/><path class="cls-99" d="M336.71,209.07,295,233.16a1.76,1.76,0,0,0,0,3.05l41.71,24.08a3.56,3.56,0,0,0,3.57,0L382,236.21a1.76,1.76,0,0,0,0-3.05l-41.71-24.09A3.61,3.61,0,0,0,336.71,209.07Z"/><path class="cls-100" d="M336.71,208.19,295,232.28a1.76,1.76,0,0,0,0,3.05l41.71,24.08a3.56,3.56,0,0,0,3.57,0L382,235.33a1.76,1.76,0,0,0,0-3.05l-41.71-24.09A3.61,3.61,0,0,0,336.71,208.19Z"/><path class="cls-101" d="M336.71,207.31,295,231.39a1.77,1.77,0,0,0,0,3.06l41.71,24.08a3.56,3.56,0,0,0,3.57,0L382,234.45a1.77,1.77,0,0,0,0-3.06l-41.71-24.08A3.56,3.56,0,0,0,336.71,207.31Z"/><path class="cls-102" d="M336.71,206.43,295,230.51a1.76,1.76,0,0,0,0,3.05l41.71,24.09a3.61,3.61,0,0,0,3.57,0L382,233.56a1.76,1.76,0,0,0,0-3.05l-41.71-24.08A3.56,3.56,0,0,0,336.71,206.43Z"/><path class="cls-103" d="M336.71,205.55,295,229.63a1.76,1.76,0,0,0,0,3.05l41.71,24.09a3.61,3.61,0,0,0,3.57,0L382,232.68a1.76,1.76,0,0,0,0-3.05l-41.71-24.08A3.56,3.56,0,0,0,336.71,205.55Z"/><path class="cls-104" d="M336.71,204.66,295,228.75a1.76,1.76,0,0,0,0,3.05l41.71,24.08a3.56,3.56,0,0,0,3.57,0L382,231.8a1.76,1.76,0,0,0,0-3.05l-41.71-24.09A3.61,3.61,0,0,0,336.71,204.66Z"/><path class="cls-105" d="M336.71,203.78,295,227.87a1.76,1.76,0,0,0,0,3L336.71,255a3.56,3.56,0,0,0,3.57,0L382,230.92a1.76,1.76,0,0,0,0-3l-41.71-24.09A3.61,3.61,0,0,0,336.71,203.78Z"/><path class="cls-106" d="M336.71,202.9,295,227a1.77,1.77,0,0,0,0,3.06l41.71,24.08a3.56,3.56,0,0,0,3.57,0L382,230a1.77,1.77,0,0,0,0-3.06L340.28,202.9A3.56,3.56,0,0,0,336.71,202.9Z"/><path class="cls-107" d="M336.71,202,295,226.1a1.76,1.76,0,0,0,0,3.05l41.71,24.09a3.61,3.61,0,0,0,3.57,0L382,229.15a1.76,1.76,0,0,0,0-3.05L340.28,202A3.56,3.56,0,0,0,336.71,202Z"/><path class="cls-108" d="M336.71,201.14,295,225.22a1.76,1.76,0,0,0,0,3.05l41.71,24.09a3.61,3.61,0,0,0,3.57,0L382,228.27a1.76,1.76,0,0,0,0-3.05l-41.71-24.08A3.56,3.56,0,0,0,336.71,201.14Z"/><path class="cls-109" d="M336.71,200.25,295,224.34a1.76,1.76,0,0,0,0,3l41.71,24.08a3.56,3.56,0,0,0,3.57,0L382,227.39a1.76,1.76,0,0,0,0-3l-41.71-24.09A3.61,3.61,0,0,0,336.71,200.25Z"/><path class="cls-110" d="M336.71,199.37,295,223.46a1.76,1.76,0,0,0,0,3l41.71,24.08a3.56,3.56,0,0,0,3.57,0L382,226.51a1.76,1.76,0,0,0,0-3l-41.71-24.09A3.56,3.56,0,0,0,336.71,199.37Z"/><path class="cls-111" d="M336.71,198.49,295,222.57a1.77,1.77,0,0,0,0,3.06l41.71,24.08a3.56,3.56,0,0,0,3.57,0L382,225.63a1.77,1.77,0,0,0,0-3.06l-41.71-24.08A3.56,3.56,0,0,0,336.71,198.49Z"/><path class="cls-112" d="M336.71,197.61,295,221.69a1.76,1.76,0,0,0,0,3.05l41.71,24.09a3.61,3.61,0,0,0,3.57,0L382,224.74a1.76,1.76,0,0,0,0-3.05l-41.71-24.08A3.56,3.56,0,0,0,336.71,197.61Z"/><path class="cls-113" d="M336.71,196.73,295,220.81a1.76,1.76,0,0,0,0,3.05L336.71,248a3.61,3.61,0,0,0,3.57,0L382,223.86a1.76,1.76,0,0,0,0-3.05l-41.71-24.08A3.56,3.56,0,0,0,336.71,196.73Z"/><path class="cls-114" d="M336.71,195.84,295,219.93a1.76,1.76,0,0,0,0,3l41.71,24.08a3.56,3.56,0,0,0,3.57,0L382,223a1.76,1.76,0,0,0,0-3l-41.71-24.09A3.61,3.61,0,0,0,336.71,195.84Z"/><path class="cls-115" d="M336.71,195,295,219.05a1.76,1.76,0,0,0,0,3l41.71,24.08a3.56,3.56,0,0,0,3.57,0L382,222.1a1.76,1.76,0,0,0,0-3L340.28,195A3.56,3.56,0,0,0,336.71,195Z"/><path class="cls-116" d="M336.71,194.08,295,218.16a1.77,1.77,0,0,0,0,3.06l41.71,24.08a3.56,3.56,0,0,0,3.57,0L382,221.22a1.77,1.77,0,0,0,0-3.06l-41.71-24.08A3.56,3.56,0,0,0,336.71,194.08Z"/><path class="cls-117" d="M336.71,193.2,295,217.28a1.76,1.76,0,0,0,0,3.05l41.71,24.09a3.61,3.61,0,0,0,3.57,0L382,220.33a1.76,1.76,0,0,0,0-3.05L340.28,193.2A3.56,3.56,0,0,0,336.71,193.2Z"/><path class="cls-118" d="M336.71,192.32,295,216.4a1.76,1.76,0,0,0,0,3l41.71,24.09a3.61,3.61,0,0,0,3.57,0L382,219.45a1.76,1.76,0,0,0,0-3l-41.71-24.08A3.56,3.56,0,0,0,336.71,192.32Z"/><path class="cls-119" d="M336.71,191.43,295,215.52a1.76,1.76,0,0,0,0,3l41.71,24.08a3.56,3.56,0,0,0,3.57,0L382,218.57a1.76,1.76,0,0,0,0-3l-41.71-24.09A3.61,3.61,0,0,0,336.71,191.43Z"/><path class="cls-120" d="M336.71,190.55,295,214.64a1.76,1.76,0,0,0,0,3.05l41.71,24.08a3.56,3.56,0,0,0,3.57,0L382,217.69a1.76,1.76,0,0,0,0-3.05l-41.71-24.09A3.56,3.56,0,0,0,336.71,190.55Z"/><path class="cls-121" d="M336.71,189.67,295,213.75a1.77,1.77,0,0,0,0,3.06l41.71,24.08a3.56,3.56,0,0,0,3.57,0L382,216.81a1.77,1.77,0,0,0,0-3.06l-41.71-24.08A3.56,3.56,0,0,0,336.71,189.67Z"/><path class="cls-122" d="M336.71,188.79,295,212.87a1.76,1.76,0,0,0,0,3L336.71,240a3.61,3.61,0,0,0,3.57,0L382,215.92a1.76,1.76,0,0,0,0-3l-41.71-24.08A3.56,3.56,0,0,0,336.71,188.79Z"/><path class="cls-123" d="M336.71,187.91,295,212a1.76,1.76,0,0,0,0,3l41.71,24.09a3.61,3.61,0,0,0,3.57,0L382,215a1.76,1.76,0,0,0,0-3l-41.71-24.08A3.56,3.56,0,0,0,336.71,187.91Z"/><path class="cls-124" d="M336.71,187,295,211.11a1.76,1.76,0,0,0,0,3l41.71,24.08a3.56,3.56,0,0,0,3.57,0L382,214.16a1.76,1.76,0,0,0,0-3L340.28,187A3.61,3.61,0,0,0,336.71,187Z"/><path class="cls-125" d="M336.71,186.14,295,210.23a1.76,1.76,0,0,0,0,3.05l41.71,24.08a3.56,3.56,0,0,0,3.57,0L382,213.28a1.76,1.76,0,0,0,0-3.05l-41.71-24.09A3.56,3.56,0,0,0,336.71,186.14Z"/><path class="cls-126" d="M336.71,185.26,295,209.34a1.77,1.77,0,0,0,0,3.06l41.71,24.08a3.56,3.56,0,0,0,3.57,0L382,212.4a1.77,1.77,0,0,0,0-3.06l-41.71-24.08A3.56,3.56,0,0,0,336.71,185.26Z"/><path class="cls-127" d="M336.71,184.38,295,208.46a1.76,1.76,0,0,0,0,3l41.71,24.09a3.61,3.61,0,0,0,3.57,0L382,211.51a1.76,1.76,0,0,0,0-3l-41.71-24.08A3.56,3.56,0,0,0,336.71,184.38Z"/><path class="cls-128" d="M336.71,183.49,295,207.58a1.76,1.76,0,0,0,0,3l41.71,24.09a3.61,3.61,0,0,0,3.57,0L382,210.63a1.76,1.76,0,0,0,0-3l-41.71-24.09A3.61,3.61,0,0,0,336.71,183.49Z"/><path class="cls-129" d="M336.71,182.61,295,206.7a1.76,1.76,0,0,0,0,3.05l41.71,24.08a3.56,3.56,0,0,0,3.57,0L382,209.75a1.76,1.76,0,0,0,0-3.05l-41.71-24.09A3.61,3.61,0,0,0,336.71,182.61Z"/><path class="cls-130" d="M336.71,181.73,295,205.81a1.77,1.77,0,0,0,0,3.06L336.71,233a3.56,3.56,0,0,0,3.57,0L382,208.87a1.77,1.77,0,0,0,0-3.06l-41.71-24.08A3.56,3.56,0,0,0,336.71,181.73Z"/><path class="cls-131" d="M336.71,180.85,295,204.93a1.76,1.76,0,0,0,0,3l41.71,24.09a3.56,3.56,0,0,0,3.57,0L382,208a1.76,1.76,0,0,0,0-3l-41.71-24.08A3.56,3.56,0,0,0,336.71,180.85Z"/><path class="cls-132" d="M336.71,180,295,204.05a1.76,1.76,0,0,0,0,3l41.71,24.09a3.61,3.61,0,0,0,3.57,0L382,207.1a1.76,1.76,0,0,0,0-3L340.28,180A3.56,3.56,0,0,0,336.71,180Z"/><path class="cls-133" d="M336.71,179.08,295,203.17a1.76,1.76,0,0,0,0,3.05l41.71,24.08a3.56,3.56,0,0,0,3.57,0L382,206.22a1.76,1.76,0,0,0,0-3.05l-41.71-24.09A3.61,3.61,0,0,0,336.71,179.08Z"/><path class="cls-134" d="M336.71,178.2,295,202.29a1.76,1.76,0,0,0,0,3.05l41.71,24.08a3.56,3.56,0,0,0,3.57,0L382,205.34a1.76,1.76,0,0,0,0-3.05L340.28,178.2A3.61,3.61,0,0,0,336.71,178.2Z"/><path class="cls-135" d="M336.71,177.32,295,201.4a1.77,1.77,0,0,0,0,3.06l41.71,24.08a3.56,3.56,0,0,0,3.57,0L382,204.46a1.77,1.77,0,0,0,0-3.06l-41.71-24.08A3.56,3.56,0,0,0,336.71,177.32Z"/><path class="cls-136" d="M336.71,176.44,295,200.52a1.76,1.76,0,0,0,0,3l41.71,24.09a3.56,3.56,0,0,0,3.57,0L382,203.57a1.76,1.76,0,0,0,0-3l-41.71-24.08A3.56,3.56,0,0,0,336.71,176.44Z"/><path class="cls-137" d="M336.71,175.56,295,199.64a1.76,1.76,0,0,0,0,3.05l41.71,24.09a3.61,3.61,0,0,0,3.57,0L382,202.69a1.76,1.76,0,0,0,0-3.05l-41.71-24.08A3.56,3.56,0,0,0,336.71,175.56Z"/><path class="cls-138" d="M336.71,174.67,295,198.76a1.76,1.76,0,0,0,0,3.05l41.71,24.08a3.56,3.56,0,0,0,3.57,0L382,201.81a1.76,1.76,0,0,0,0-3.05l-41.71-24.09A3.61,3.61,0,0,0,336.71,174.67Z"/><path class="cls-139" d="M336.71,173.79,295,197.88a1.76,1.76,0,0,0,0,3.05L336.71,225a3.56,3.56,0,0,0,3.57,0L382,200.93a1.76,1.76,0,0,0,0-3.05l-41.71-24.09A3.61,3.61,0,0,0,336.71,173.79Z"/><path class="cls-140" d="M336.71,172.91,295,197a1.77,1.77,0,0,0,0,3.06l41.71,24.08a3.56,3.56,0,0,0,3.57,0L382,200.05a1.77,1.77,0,0,0,0-3.06l-41.71-24.08A3.56,3.56,0,0,0,336.71,172.91Z"/><path class="cls-141" d="M336.71,172,295,196.11a1.76,1.76,0,0,0,0,3l41.71,24.09a3.56,3.56,0,0,0,3.57,0L382,199.16a1.76,1.76,0,0,0,0-3L340.28,172A3.56,3.56,0,0,0,336.71,172Z"/><path class="cls-142" d="M336.71,171.15,295,195.23a1.76,1.76,0,0,0,0,3.05l41.71,24.09a3.61,3.61,0,0,0,3.57,0L382,198.28a1.76,1.76,0,0,0,0-3.05l-41.71-24.08A3.56,3.56,0,0,0,336.71,171.15Z"/><path class="cls-143" d="M336.71,170.26,295,194.35a1.76,1.76,0,0,0,0,3.05l41.71,24.08a3.56,3.56,0,0,0,3.57,0L382,197.4a1.76,1.76,0,0,0,0-3.05l-41.71-24.09A3.61,3.61,0,0,0,336.71,170.26Z"/><path class="cls-144" d="M336.71,169.38,295,193.47a1.76,1.76,0,0,0,0,3.05l41.71,24.08a3.56,3.56,0,0,0,3.57,0L382,196.52a1.76,1.76,0,0,0,0-3.05l-41.71-24.09A3.61,3.61,0,0,0,336.71,169.38Z"/><path class="cls-145" d="M336.71,168.5,295,192.58a1.77,1.77,0,0,0,0,3.06l41.71,24.08a3.56,3.56,0,0,0,3.57,0L382,195.64a1.77,1.77,0,0,0,0-3.06L340.28,168.5A3.56,3.56,0,0,0,336.71,168.5Z"/><path class="cls-146" d="M336.71,167.62,295,191.7a1.76,1.76,0,0,0,0,3.05l41.71,24.09a3.56,3.56,0,0,0,3.57,0L382,194.75a1.76,1.76,0,0,0,0-3.05l-41.71-24.08A3.56,3.56,0,0,0,336.71,167.62Z"/><path class="cls-147" d="M336.71,166.74,295,190.82a1.76,1.76,0,0,0,0,3.05L336.71,218a3.61,3.61,0,0,0,3.57,0L382,193.87a1.76,1.76,0,0,0,0-3.05l-41.71-24.08A3.56,3.56,0,0,0,336.71,166.74Z"/><path class="cls-148" d="M336.71,165.85,295,189.94a1.76,1.76,0,0,0,0,3.05l41.71,24.08a3.56,3.56,0,0,0,3.57,0L382,193a1.76,1.76,0,0,0,0-3.05l-41.71-24.09A3.61,3.61,0,0,0,336.71,165.85Z"/><path class="cls-149" d="M336.71,165,295,189.06a1.76,1.76,0,0,0,0,3.05l41.71,24.08a3.56,3.56,0,0,0,3.57,0L382,192.11a1.76,1.76,0,0,0,0-3.05L340.28,165A3.61,3.61,0,0,0,336.71,165Z"/><path class="cls-150" d="M336.71,164.09,295,188.17a1.77,1.77,0,0,0,0,3.06l41.71,24.08a3.56,3.56,0,0,0,3.57,0L382,191.23a1.77,1.77,0,0,0,0-3.06l-41.71-24.08A3.56,3.56,0,0,0,336.71,164.09Z"/><path class="cls-151" d="M336.71,163.21,295,187.29a1.76,1.76,0,0,0,0,3.05l41.71,24.09a3.61,3.61,0,0,0,3.57,0L382,190.34a1.76,1.76,0,0,0,0-3.05l-41.71-24.08A3.56,3.56,0,0,0,336.71,163.21Z"/><path class="cls-152" d="M336.71,162.33,295,186.41a1.76,1.76,0,0,0,0,3.05l41.71,24.09a3.61,3.61,0,0,0,3.57,0L382,189.46a1.76,1.76,0,0,0,0-3.05l-41.71-24.08A3.56,3.56,0,0,0,336.71,162.33Z"/><path class="cls-153" d="M336.71,161.44,295,185.53a1.76,1.76,0,0,0,0,3.05l41.71,24.08a3.56,3.56,0,0,0,3.57,0L382,188.58a1.76,1.76,0,0,0,0-3.05l-41.71-24.09A3.61,3.61,0,0,0,336.71,161.44Z"/><path class="cls-154" d="M336.71,160.56,295,184.65a1.76,1.76,0,0,0,0,3l41.71,24.08a3.56,3.56,0,0,0,3.57,0L382,187.7a1.76,1.76,0,0,0,0-3l-41.71-24.09A3.61,3.61,0,0,0,336.71,160.56Z"/><path class="cls-155" d="M336.71,159.68,295,183.76a1.77,1.77,0,0,0,0,3.06l41.71,24.08a3.56,3.56,0,0,0,3.57,0L382,186.82a1.77,1.77,0,0,0,0-3.06l-41.71-24.08A3.56,3.56,0,0,0,336.71,159.68Z"/><path class="cls-156" d="M336.71,158.8,295,182.88a1.76,1.76,0,0,0,0,3.05L336.71,210a3.61,3.61,0,0,0,3.57,0L382,185.93a1.76,1.76,0,0,0,0-3.05L340.28,158.8A3.56,3.56,0,0,0,336.71,158.8Z"/><path class="cls-157" d="M336.71,157.92,295,182a1.76,1.76,0,0,0,0,3.05l41.71,24.09a3.61,3.61,0,0,0,3.57,0L382,185.05a1.76,1.76,0,0,0,0-3.05l-41.71-24.08A3.56,3.56,0,0,0,336.71,157.92Z"/><path class="cls-158" d="M336.71,157,295,181.12a1.76,1.76,0,0,0,0,3l41.71,24.08a3.56,3.56,0,0,0,3.57,0L382,184.17a1.76,1.76,0,0,0,0-3L340.28,157A3.61,3.61,0,0,0,336.71,157Z"/><path class="cls-159" d="M336.71,156.15,295,180.24a1.76,1.76,0,0,0,0,3l41.71,24.08a3.56,3.56,0,0,0,3.57,0L382,183.29a1.76,1.76,0,0,0,0-3l-41.71-24.09A3.56,3.56,0,0,0,336.71,156.15Z"/><path class="cls-160" d="M336.71,155.27,295,179.35a1.77,1.77,0,0,0,0,3.06l41.71,24.08a3.56,3.56,0,0,0,3.57,0L382,182.41a1.77,1.77,0,0,0,0-3.06l-41.71-24.08A3.56,3.56,0,0,0,336.71,155.27Z"/><path class="cls-161" d="M336.71,154.39,295,178.47a1.76,1.76,0,0,0,0,3.05l41.71,24.09a3.61,3.61,0,0,0,3.57,0L382,181.52a1.76,1.76,0,0,0,0-3.05l-41.71-24.08A3.56,3.56,0,0,0,336.71,154.39Z"/><path class="cls-162" d="M336.71,153.51,295,177.59a1.76,1.76,0,0,0,0,3l41.71,24.09a3.61,3.61,0,0,0,3.57,0L382,180.64a1.76,1.76,0,0,0,0-3l-41.71-24.08A3.56,3.56,0,0,0,336.71,153.51Z"/><path class="cls-163" d="M336.71,152.62,295,176.71a1.76,1.76,0,0,0,0,3l41.71,24.08a3.56,3.56,0,0,0,3.57,0L382,179.76a1.76,1.76,0,0,0,0-3l-41.71-24.09A3.61,3.61,0,0,0,336.71,152.62Z"/><path class="cls-164" d="M336.71,151.74,295,175.83a1.76,1.76,0,0,0,0,3L336.71,203a3.56,3.56,0,0,0,3.57,0L382,178.88a1.76,1.76,0,0,0,0-3l-41.71-24.09A3.56,3.56,0,0,0,336.71,151.74Z"/><path class="cls-165" d="M336.71,150.86,295,174.94a1.77,1.77,0,0,0,0,3.06l41.71,24.08a3.56,3.56,0,0,0,3.57,0L382,178a1.77,1.77,0,0,0,0-3.06l-41.71-24.08A3.56,3.56,0,0,0,336.71,150.86Z"/><path class="cls-166" d="M336.71,150,295,174.06a1.76,1.76,0,0,0,0,3.05l41.71,24.09a3.61,3.61,0,0,0,3.57,0L382,177.11a1.76,1.76,0,0,0,0-3.05L340.28,150A3.56,3.56,0,0,0,336.71,150Z"/><path class="cls-167" d="M336.71,149.1,295,173.18a1.76,1.76,0,0,0,0,3l41.71,24.09a3.61,3.61,0,0,0,3.57,0L382,176.23a1.76,1.76,0,0,0,0-3L340.28,149.1A3.56,3.56,0,0,0,336.71,149.1Z"/><path class="cls-168" d="M336.71,148.21,295,172.3a1.76,1.76,0,0,0,0,3l41.71,24.08a3.56,3.56,0,0,0,3.57,0L382,175.35a1.76,1.76,0,0,0,0-3l-41.71-24.09A3.61,3.61,0,0,0,336.71,148.21Z"/><path class="cls-169" d="M336.71,147.33,295,171.42a1.76,1.76,0,0,0,0,3.05l41.71,24.08a3.56,3.56,0,0,0,3.57,0L382,174.47a1.76,1.76,0,0,0,0-3.05l-41.71-24.09A3.56,3.56,0,0,0,336.71,147.33Z"/><path class="cls-170" d="M336.71,146.45,295,170.53a1.77,1.77,0,0,0,0,3.06l41.71,24.08a3.56,3.56,0,0,0,3.57,0L382,173.59a1.77,1.77,0,0,0,0-3.06l-41.71-24.08A3.56,3.56,0,0,0,336.71,146.45Z"/><path class="cls-171" d="M336.71,145.57,295,169.65a1.76,1.76,0,0,0,0,3l41.71,24.09a3.61,3.61,0,0,0,3.57,0L382,172.7a1.76,1.76,0,0,0,0-3l-41.71-24.08A3.56,3.56,0,0,0,336.71,145.57Z"/><path class="cls-172" d="M336.71,144.69,295,168.77a1.76,1.76,0,0,0,0,3l41.71,24.09a3.61,3.61,0,0,0,3.57,0L382,171.82a1.76,1.76,0,0,0,0-3l-41.71-24.08A3.56,3.56,0,0,0,336.71,144.69Z"/><path class="cls-173" d="M336.71,143.8,295,167.89a1.76,1.76,0,0,0,0,3.05L336.71,195a3.56,3.56,0,0,0,3.57,0L382,170.94a1.76,1.76,0,0,0,0-3.05L340.28,143.8A3.61,3.61,0,0,0,336.71,143.8Z"/><path class="cls-174" d="M336.71,142.92,295,167a1.76,1.76,0,0,0,0,3.05l41.71,24.08a3.56,3.56,0,0,0,3.57,0L382,170.06a1.76,1.76,0,0,0,0-3.05l-41.71-24.09A3.56,3.56,0,0,0,336.71,142.92Z"/><path class="cls-175" d="M336.71,142,295,166.12a1.76,1.76,0,0,0,0,3l41.71,24.09a3.56,3.56,0,0,0,3.57,0L382,169.17a1.76,1.76,0,0,0,0-3L340.28,142A3.56,3.56,0,0,0,336.71,142Z"/><path class="cls-176" d="M336.71,141.16,295,165.24a1.76,1.76,0,0,0,0,3l41.71,24.09a3.61,3.61,0,0,0,3.57,0L382,168.29a1.76,1.76,0,0,0,0-3l-41.71-24.08A3.56,3.56,0,0,0,336.71,141.16Z"/><path class="cls-177" d="M336.71,140.27,295,164.36a1.76,1.76,0,0,0,0,3l41.71,24.08a3.56,3.56,0,0,0,3.57,0L382,167.41a1.76,1.76,0,0,0,0-3l-41.71-24.09A3.61,3.61,0,0,0,336.71,140.27Z"/><path class="cls-178" d="M336.71,139.39,295,163.48a1.76,1.76,0,0,0,0,3.05l41.71,24.08a3.56,3.56,0,0,0,3.57,0L382,166.53a1.76,1.76,0,0,0,0-3.05l-41.71-24.09A3.61,3.61,0,0,0,336.71,139.39Z"/><path class="cls-179" d="M336.71,138.51,295,162.59a1.77,1.77,0,0,0,0,3.06l41.71,24.08a3.56,3.56,0,0,0,3.57,0L382,165.65a1.77,1.77,0,0,0,0-3.06l-41.71-24.08A3.56,3.56,0,0,0,336.71,138.51Z"/><path class="cls-180" d="M336.71,137.63,295,161.71a1.76,1.76,0,0,0,0,3l41.71,24.09a3.56,3.56,0,0,0,3.57,0L382,164.76a1.76,1.76,0,0,0,0-3l-41.71-24.08A3.56,3.56,0,0,0,336.71,137.63Z"/><path class="cls-181" d="M336.71,136.75,295,160.83a1.76,1.76,0,0,0,0,3L336.71,188a3.61,3.61,0,0,0,3.57,0L382,163.88a1.76,1.76,0,0,0,0-3l-41.71-24.08A3.56,3.56,0,0,0,336.71,136.75Z"/><path class="cls-182" d="M336.71,135.86,295,160a1.76,1.76,0,0,0,0,3.05l41.71,24.08a3.56,3.56,0,0,0,3.57,0L382,163a1.76,1.76,0,0,0,0-3.05l-41.71-24.09A3.61,3.61,0,0,0,336.71,135.86Z"/><path class="cls-183" d="M336.71,135,295,159.07a1.76,1.76,0,0,0,0,3.05l41.71,24.08a3.56,3.56,0,0,0,3.57,0L382,162.12a1.76,1.76,0,0,0,0-3.05L340.28,135A3.61,3.61,0,0,0,336.71,135Z"/><path class="cls-184" d="M336.71,134.1,295,158.18a1.77,1.77,0,0,0,0,3.06l41.71,24.08a3.56,3.56,0,0,0,3.57,0L382,161.24a1.77,1.77,0,0,0,0-3.06L340.28,134.1A3.56,3.56,0,0,0,336.71,134.1Z"/><path class="cls-185" d="M336.71,133.22,295,157.3a1.76,1.76,0,0,0,0,3l41.71,24.09a3.56,3.56,0,0,0,3.57,0L382,160.35a1.76,1.76,0,0,0,0-3l-41.71-24.08A3.56,3.56,0,0,0,336.71,133.22Z"/><path class="cls-186" d="M336.71,132.34,295,156.42a1.76,1.76,0,0,0,0,3.05l41.71,24.09a3.61,3.61,0,0,0,3.57,0L382,159.47a1.76,1.76,0,0,0,0-3.05l-41.71-24.08A3.56,3.56,0,0,0,336.71,132.34Z"/><path class="cls-187" d="M336.71,131.45,295,155.54a1.76,1.76,0,0,0,0,3.05l41.71,24.08a3.56,3.56,0,0,0,3.57,0L382,158.59a1.76,1.76,0,0,0,0-3.05l-41.71-24.09A3.61,3.61,0,0,0,336.71,131.45Z"/><path class="cls-188" d="M336.71,130.57,295,154.66a1.76,1.76,0,0,0,0,3.05l41.71,24.08a3.56,3.56,0,0,0,3.57,0L382,157.71a1.76,1.76,0,0,0,0-3.05l-41.71-24.09A3.61,3.61,0,0,0,336.71,130.57Z"/><path class="cls-189" d="M336.71,129.69,295,153.77a1.77,1.77,0,0,0,0,3.06l41.71,24.08a3.56,3.56,0,0,0,3.57,0L382,156.83a1.77,1.77,0,0,0,0-3.06l-41.71-24.08A3.56,3.56,0,0,0,336.71,129.69Z"/><path class="cls-190" d="M336.71,128.81,295,152.89a1.76,1.76,0,0,0,0,3.05L336.71,180a3.56,3.56,0,0,0,3.57,0L382,155.94a1.76,1.76,0,0,0,0-3.05l-41.71-24.08A3.56,3.56,0,0,0,336.71,128.81Z"/><path class="cls-191" d="M336.71,127.93,295,152a1.76,1.76,0,0,0,0,3.05l41.71,24.09a3.61,3.61,0,0,0,3.57,0L382,155.06a1.76,1.76,0,0,0,0-3.05l-41.71-24.08A3.56,3.56,0,0,0,336.71,127.93Z"/><path class="cls-192" d="M336.71,127,295,151.13a1.76,1.76,0,0,0,0,3.05l41.71,24.08a3.56,3.56,0,0,0,3.57,0L382,154.18a1.76,1.76,0,0,0,0-3.05L340.28,127A3.61,3.61,0,0,0,336.71,127Z"/><path class="cls-193" d="M336.71,126.16,295,150.25a1.76,1.76,0,0,0,0,3.05l41.71,24.08a3.56,3.56,0,0,0,3.57,0L382,153.3a1.76,1.76,0,0,0,0-3.05l-41.71-24.09A3.61,3.61,0,0,0,336.71,126.16Z"/><path class="cls-194" d="M336.71,125.28,295,149.36a1.77,1.77,0,0,0,0,3.06l41.71,24.08a3.56,3.56,0,0,0,3.57,0L382,152.42a1.77,1.77,0,0,0,0-3.06l-41.71-24.08A3.56,3.56,0,0,0,336.71,125.28Z"/><path class="cls-195" d="M336.71,124.4,295,148.48a1.76,1.76,0,0,0,0,3.05l41.71,24.09a3.61,3.61,0,0,0,3.57,0L382,151.53a1.76,1.76,0,0,0,0-3.05L340.28,124.4A3.56,3.56,0,0,0,336.71,124.4Z"/><path class="cls-196" d="M336.71,123.52,295,147.6a1.76,1.76,0,0,0,0,3.05l41.71,24.09a3.61,3.61,0,0,0,3.57,0L382,150.65a1.76,1.76,0,0,0,0-3.05l-41.71-24.08A3.56,3.56,0,0,0,336.71,123.52Z"/><path class="cls-197" d="M336.71,122.63,295,146.72a1.76,1.76,0,0,0,0,3.05l41.71,24.08a3.56,3.56,0,0,0,3.57,0L382,149.77a1.76,1.76,0,0,0,0-3.05l-41.71-24.09A3.61,3.61,0,0,0,336.71,122.63Z"/><path class="cls-198" d="M336.71,121.75,295,145.84a1.76,1.76,0,0,0,0,3L336.71,173a3.56,3.56,0,0,0,3.57,0L382,148.89a1.76,1.76,0,0,0,0-3l-41.71-24.09A3.61,3.61,0,0,0,336.71,121.75Z"/><path class="cls-199" d="M336.71,120.87,295,145a1.77,1.77,0,0,0,0,3.06l41.71,24.08a3.56,3.56,0,0,0,3.57,0L382,148a1.77,1.77,0,0,0,0-3.06l-41.71-24.08A3.56,3.56,0,0,0,336.71,120.87Z"/></g><g class="cls-3"><path class="cls-2" d="M401.84,70.85l29.17,13a47.14,47.14,0,0,0-12.65-3.6l-29.18-13A47.22,47.22,0,0,1,401.84,70.85Z"/><g class="cls-200"><path class="cls-2" d="M418.36,80.23l-29.18-13a48.53,48.53,0,0,1,8.75,2.08l29.17,13a47.38,47.38,0,0,0-8.74-2.07"/><path class="cls-2" d="M427.1,82.3l-29.17-13c1.33.45,2.63,1,3.91,1.53l29.17,13c-1.27-.56-2.57-1.07-3.91-1.53"/></g></g><g class="cls-3"><path class="cls-2" d="M354.3,10.31l29.18,13a64.22,64.22,0,0,0-36.62-4.41l-29.18-13A64.38,64.38,0,0,1,354.3,10.31Z"/><g class="cls-201"><g class="cls-3"><path class="cls-2" d="M346.86,18.89l-29.18-13A69.84,69.84,0,0,1,329.53,5l29.18,13a68.68,68.68,0,0,0-11.85.9"/><path class="cls-2" d="M358.71,18,329.53,5a63.57,63.57,0,0,1,19.73,3.33l29.17,13A62.93,62.93,0,0,0,358.71,18"/><path class="cls-2" d="M378.43,21.32l-29.17-13q2.58.88,5,2l29.18,13c-1.64-.73-3.33-1.39-5.05-2"/></g></g></g><g class="cls-3"><path class="cls-2" d="M282.17,100,253,87a12.84,12.84,0,0,0,0-2.7C251.16,47.07,280.11,12,317.68,5.9l29.18,13C309.29,25,280.33,60.05,282.2,97.25A12.84,12.84,0,0,1,282.17,100Z"/><g class="cls-202"><g class="cls-3"><path class="cls-2" d="M282.17,100,253,87a12.84,12.84,0,0,0,0-2.7,71.4,71.4,0,0,1,5.59-31.12l29.18,13a71.3,71.3,0,0,0-5.59,31.13,12.84,12.84,0,0,1,0,2.7"/><path class="cls-2" d="M287.79,66.12l-29.18-13A78,78,0,0,1,264.36,42l29.18,13a77.9,77.9,0,0,0-5.75,11.11"/><path class="cls-2" d="M293.54,55,264.36,42a80.8,80.8,0,0,1,6.27-8.69l29.18,13a80.92,80.92,0,0,0-6.27,8.7"/><path class="cls-2" d="M299.81,46.31l-29.18-13a81.31,81.31,0,0,1,7-7.47l29.18,13a81.31,81.31,0,0,0-7,7.47"/><path class="cls-2" d="M306.84,38.84l-29.18-13a79.39,79.39,0,0,1,8.22-6.74l29.18,13a80.71,80.71,0,0,0-8.22,6.74"/><path class="cls-2" d="M315.06,32.1l-29.18-13a78.68,78.68,0,0,1,10.43-6.29l29.18,13a78.61,78.61,0,0,0-10.43,6.28"/><path class="cls-2" d="M325.49,25.82l-29.18-13A74.15,74.15,0,0,1,316.53,6.1l29.18,13a74.51,74.51,0,0,0-20.22,6.74"/><path class="cls-2" d="M345.71,19.08l-29.18-13,1.15-.2,29.18,13-1.15.19"/></g></g></g><g class="cls-3"><path class="cls-2" d="M259.18,200.33l-29.18-13c-15.24-6.78-25.89-21.47-26.82-40C201.74,118.67,224.05,91.64,253,87l29.18,13c-29,4.68-51.25,31.71-49.81,60.36C233.29,178.86,243.94,193.54,259.18,200.33Z"/><g class="cls-203"><g class="cls-3"><path class="cls-2" d="M259.18,200.33l-29.18-13c-15.24-6.78-25.89-21.47-26.82-40a54.87,54.87,0,0,1,4.31-24l29.18,13a54.9,54.9,0,0,0-4.31,24c.93,18.55,11.58,33.23,26.82,40"/><path class="cls-2" d="M236.67,136.33l-29.18-13a58.78,58.78,0,0,1,4.43-8.56l29.17,13a60.8,60.8,0,0,0-4.42,8.56"/><path class="cls-2" d="M241.09,127.77l-29.17-13a62.08,62.08,0,0,1,4.82-6.7l29.18,13a62.05,62.05,0,0,0-4.83,6.69"/><path class="cls-2" d="M245.92,121.08l-29.18-13a62.71,62.71,0,0,1,5.42-5.76l29.18,13a61.45,61.45,0,0,0-5.42,5.76"/><path class="cls-2" d="M251.34,115.32l-29.18-13a63,63,0,0,1,6.33-5.19l29.18,13a60.65,60.65,0,0,0-6.33,5.19"/><path class="cls-2" d="M257.67,110.13l-29.18-13a61,61,0,0,1,8-4.84l29.18,13a58.91,58.91,0,0,0-8,4.84"/><path class="cls-2" d="M265.71,105.29l-29.18-13a57.6,57.6,0,0,1,15.58-5.19l29.17,13a56.86,56.86,0,0,0-15.57,5.19"/><path class="cls-2" d="M281.28,100.1l-29.17-13L253,87l29.18,13c-.3,0-.59.09-.89.15"/></g></g></g><path class="cls-204" d="M346.86,18.89C384.45,12.81,416.43,38,418.3,75.23c.08,1.67.09,3.34.06,5,21.73,3,38.3,20.28,39.48,43.62C459.28,152.5,437,179.53,408,184.22l-120.63,19.5c-28.94,4.69-53.58-14.75-55-43.41s20.86-55.68,49.81-60.36a12.84,12.84,0,0,0,0-2.7C280.33,60.05,309.29,25,346.86,18.89Z"/><path class="cls-205" d="M348.78,20.81c37.59-6.08,69.57,19.15,71.44,56.35.09,1.67.1,3.33.06,5,21.74,3,38.31,20.28,39.48,43.62,1.44,28.65-20.87,55.68-49.83,60.37L289.31,205.65c-28.95,4.68-53.59-14.76-55-43.41s20.87-55.69,49.81-60.37a12.84,12.84,0,0,0,0-2.7C282.26,62,311.21,26.89,348.78,20.81Z"/></g></g></svg>