<svg id="图层_1" data-name="图层 1" xmlns="http://www.w3.org/2000/svg" xmlns:xlink="http://www.w3.org/1999/xlink" viewBox="0 0 144 144"><defs><style>.cls-1{fill:none;}.cls-2{fill:#ebe4d7;opacity:0.65;}.cls-3{fill:#e4e6ea;}.cls-4{fill:url(#linear-gradient);}.cls-5{isolation:isolate;}.cls-6{clip-path:url(#clip-path);}.cls-7{fill:#ccc;}.cls-8{fill:#c7c7c7;}.cls-9{fill:#c2c2c2;}.cls-10{fill:#bdbdbd;}.cls-11{fill:#b8b8b8;}.cls-12{fill:#b3b3b3;}.cls-13{fill:#adadad;}.cls-14{fill:#a8a8a8;}.cls-15{fill:#a3a3a3;}.cls-16{fill:#9e9e9e;}.cls-17{fill:#bec3cc;}.cls-18{clip-path:url(#clip-path-2);}.cls-19{fill:#858585;}.cls-20{fill:#8a8a8a;}.cls-21{fill:#8f8f8f;}.cls-22{fill:#949494;}.cls-23{fill:#999;}.cls-24{fill:#dadef2;}.cls-25{fill:#fff;}.cls-26{fill:#3d3f44;}.cls-27{fill:url(#未命名的渐变_56);}.cls-28{fill:url(#linear-gradient-2);}.cls-29{fill:#ddb962;}</style><linearGradient id="linear-gradient" x1="-47.39" y1="1385.57" x2="-52.8" y2="1370.72" gradientTransform="matrix(1.08, -0.29, 0, 1.07, 128.5, -1394.51)" gradientUnits="userSpaceOnUse"><stop offset="0" stop-color="#f1f4fe"/><stop offset="0.58" stop-color="#f7f9fe"/><stop offset="1" stop-color="#fff"/></linearGradient><clipPath id="clip-path"><path class="cls-1" d="M61.51,81.32l17.73,5.49a.89.89,0,0,0-.76.28L60.75,81.6A.89.89,0,0,1,61.51,81.32Z"/></clipPath><clipPath id="clip-path-2"><path class="cls-1" d="M77.54,89.66,59.81,84.17c-.28-.36-.08-1.26.44-2a3,3,0,0,1,.5-.55l17.73,5.49a3,3,0,0,0-.49.55C77.46,88.4,77.26,89.3,77.54,89.66Z"/></clipPath><linearGradient id="未命名的渐变_56" x1="62.97" y1="10.89" x2="115.7" y2="102.21" gradientUnits="userSpaceOnUse"><stop offset="0.49" stop-color="#bec3cc"/><stop offset="0.79" stop-color="#e4e6ea"/></linearGradient><linearGradient id="linear-gradient-2" x1="67.82" y1="975.1" x2="39.11" y2="975.1" gradientTransform="matrix(1, -0.27, 0, 1, 14.67, -850.78)" xlink:href="#linear-gradient"/></defs><title>【插图】页面元素插图</title><circle class="cls-2" cx="72" cy="72.02" r="71"/><path class="cls-3" d="M54.1,106.74a2.15,2.15,0,0,0-.18.24l-.09.13a.41.41,0,0,0-.07.11s0,.08-.06.11a.53.53,0,0,0-.06.1.54.54,0,0,0,0,.11s0,.07-.05.1a.42.42,0,0,1,0,.1s0,.07,0,.11a.49.49,0,0,1,0,.11s0,.07,0,.12l0,.12a.88.88,0,0,0,0,.16,1.49,1.49,0,0,0,0,.21c0,.33.12.53.31.59l17.91,5.69a1,1,0,0,1-.49-.79,1.49,1.49,0,0,1,0-.21.77.77,0,0,1,0-.15l0-.14a.76.76,0,0,1,0-.11l0-.11s0-.07,0-.11a.42.42,0,0,0,0-.1s0-.07,0-.1a.93.93,0,0,1,.05-.1l.06-.11.06-.11a1.27,1.27,0,0,0,.07-.12l.09-.12.2-.26Z"/><path class="cls-4" d="M65.9,96.9c0,.08,0,.3-.06.39s0,.12,0,.18,0,.1,0,.15a.56.56,0,0,0,0,.12l0,.11a.42.42,0,0,1,0,.1l0,.1a.93.93,0,0,0,0,.1.41.41,0,0,1-.05.09l-.06.1a.41.41,0,0,1-.07.11.57.57,0,0,1-.08.13c0,.06-.25.31-.3.36l17.76,5.47c0-.06.23-.28.27-.33l.09-.13a.75.75,0,0,1,.07-.12l0-.1a.41.41,0,0,0,0-.09.47.47,0,0,0,0-.1.3.3,0,0,0,0-.1l0-.1a.49.49,0,0,1,0-.11s0-.08,0-.12a.83.83,0,0,1,0-.15c0-.06,0-.12,0-.18s.05-.3.06-.38Z"/><path class="cls-3" d="M83.61,102.53,65.88,97a3.8,3.8,0,0,0,0-.89c-.12-1.25-.57-2.77-2.32-6a51.44,51.44,0,0,0-3.76-5.93l17.73,5.49a51.44,51.44,0,0,1,3.76,5.93c1.75,3.27,2.2,4.79,2.32,6a3.81,3.81,0,0,1,0,.89Z"/><g class="cls-5"><g class="cls-6"><g class="cls-5"><path class="cls-7" d="M78.48,87.09,60.75,81.6l.15-.11L78.63,87l-.15.11Z"/><path class="cls-8" d="M78.63,87,60.9,81.49a.57.57,0,0,1,.13-.08L78.76,86.9a.57.57,0,0,0-.13.08Z"/><path class="cls-9" d="M78.76,86.9,61,81.41l.09,0,17.73,5.49-.09.05Z"/><path class="cls-10" d="M78.85,86.85,61.12,81.36l.08,0,17.73,5.49-.08,0Z"/><path class="cls-11" d="M78.93,86.83,61.2,81.34l.07,0L79,86.81l-.07,0Z"/><path class="cls-12" d="M79,86.81,61.27,81.32h.07L79.07,86.8Z"/><path class="cls-13" d="M79.07,86.8,61.34,81.31h.06l17.73,5.49Z"/><path class="cls-14" d="M79.13,86.79,61.4,81.3h.05L79.19,86.8Z"/><path class="cls-15" d="M79.19,86.8,61.45,81.31h.06l17.73,5.49Z"/><polygon class="cls-16" points="79.24 86.81 61.51 81.32 61.51 81.32 79.24 86.81 79.24 86.81 79.24 86.81"/></g></g></g><path class="cls-17" d="M78.48,87.09c.39-.32.76-.4,1-.14a51.76,51.76,0,0,1,3.74,5.85c3.27,6,3.37,9.37,2.71,11.16a8.35,8.35,0,0,1-2.37,3l-11.33,7.72c-.59.5-1.12.08-1.13-.59a3.23,3.23,0,0,1,1.07-2.12c.61-.51,9-6.11,10.19-7.12a3.52,3.52,0,0,0,1.31-3.18c-.12-1.26-.57-2.78-2.32-6a51.44,51.44,0,0,0-3.76-5.93c-.28-.36-.08-1.26.45-2A3,3,0,0,1,78.48,87.09Z"/><g class="cls-5"><g class="cls-18"><g class="cls-5"><path class="cls-19" d="M77.54,89.66,59.81,84.17a.92.92,0,0,1-.11-.67L77.43,89a.94.94,0,0,0,.11.66Z"/><path class="cls-20" d="M77.43,89,59.7,83.5a.77.77,0,0,1,0-.15l17.74,5.49a.9.9,0,0,0,0,.16Z"/><path class="cls-21" d="M77.46,88.84,59.72,83.35a.65.65,0,0,1,0-.13l17.73,5.49a.61.61,0,0,0,0,.13Z"/><path class="cls-22" d="M77.49,88.71,59.76,83.22a.53.53,0,0,1,0-.12l17.73,5.49,0,.12Z"/><path class="cls-23" d="M77.52,88.59,59.79,83.1l0-.11,17.74,5.49s0,.08,0,.11Z"/><path class="cls-16" d="M77.56,88.48,59.82,83a.49.49,0,0,0,0-.11l17.73,5.5,0,.1Z"/><path class="cls-15" d="M77.59,88.38l-17.73-5.5a.93.93,0,0,0,0-.1l17.73,5.49,0,.11Z"/><path class="cls-14" d="M77.64,88.27,59.91,82.78l0-.1,17.73,5.49,0,.1Z"/><path class="cls-13" d="M77.68,88.17,60,82.68a.93.93,0,0,0,0-.1l17.73,5.49,0,.1Z"/><path class="cls-12" d="M77.73,88.07,60,82.58l.06-.11L77.79,88l-.06.11Z"/><path class="cls-11" d="M77.79,88,60.06,82.47l.06-.11,17.73,5.5-.06.1Z"/><path class="cls-10" d="M77.85,87.86l-17.73-5.5.07-.11,17.73,5.49-.07.12Z"/><path class="cls-9" d="M77.92,87.74,60.19,82.25l.06-.1,0,0L78,87.62s0,0,0,0l-.07.1Z"/><path class="cls-8" d="M78,87.62,60.27,82.13l.12-.16,17.73,5.49a.91.91,0,0,0-.11.16Z"/><path class="cls-7" d="M78.12,87.46,60.39,82a2.55,2.55,0,0,1,.36-.37l17.73,5.49a3.18,3.18,0,0,0-.36.37Z"/></g></g></g><path class="cls-24" d="M81.3,95.59a51.44,51.44,0,0,0-3.76-5.93L59.81,84.17a51.44,51.44,0,0,1,3.76,5.93c.35.65.81,1.62,1.07,2.14l17.75,5.57C82.15,97.31,81.63,96.21,81.3,95.59Z"/><path class="cls-25" d="M111.74,44c2.35.72,3.78,3.84,3.16,7l-1.37,49.93c-.61,3.11-3,5.05-5.39,4.34l-71-21.74c-2.35-.72-3.78-3.84-3.17-7l.81-46.86c.61-3.11,3-5.06,5.4-4.34Z"/><path class="cls-26" d="M37,75.12a2.64,2.64,0,0,1-.82-2.46s0-41.86.22-42.93c.56-2.65,3.72-2.5,3.72-2.5L110.57,45.6c2,.82,2.6,1.59,2.6,5.17,0,0-.46,40.75-.88,42.73-.85,4-3.86,3.47-3.86,3.47Z"/><path class="cls-27" d="M117.44,48v-.06a2.64,2.64,0,0,1,0-.28,1.49,1.49,0,0,1,0-.21.06.06,0,0,0,0,0v0c0-.11,0-.21,0-.32s0-.07,0-.11a.43.43,0,0,1,0-.11l0-.14-.06-.25,0-.11a.11.11,0,0,1,0-.05,1.42,1.42,0,0,1,0-.16c-.05-.12-.08-.24-.13-.36a.14.14,0,0,0,0-.06,1.12,1.12,0,0,1,0-.13c0-.12-.11-.23-.16-.34s-.07-.14-.1-.2l-.18-.32s0-.09-.07-.12l0-.05c-.09-.14-.2-.28-.3-.41l0,0a4.12,4.12,0,0,0-.28-.31l0,0,0-.06-.15-.13-.14-.12,0,0,0,0-.21-.15-.1-.06,0,0,0,0-.2-.11-.12,0h0a.05.05,0,0,0,0,0l-.19-.08-.19-.06h0L42.54,24.05,42.35,24l-.13,0h0l-.19,0h-.6l-.21,0h0L41,24l-.07,0-.1,0h-.07l-.15.05-.08,0h0l-.17.07-.12.05h0l-.29.14-2.4,1.28.31-.14.1-.05.21-.07.08,0,.23-.06.09,0,.28,0h0l.31,0h.41l.3,0h0l.32.08L111.74,44h0l.4.16h0a2.08,2.08,0,0,1,.36.2s0,0,0,0a1.94,1.94,0,0,1,.33.23.1.1,0,0,1,.06,0,3.11,3.11,0,0,1,.28.23l.06.06a3.58,3.58,0,0,1,.26.29l0,.05h0c.12.14.23.3.34.45a1.4,1.4,0,0,0,.1.16l.19.33.09.19c.06.12.11.23.16.35l.08.2c.05.12.08.24.12.37l.06.18a.83.83,0,0,1,0,.15,3.59,3.59,0,0,1,.08.35.5.5,0,0,1,0,.12c0,.16.06.31.08.47v.06c0,.17,0,.34,0,.52v0a4.51,4.51,0,0,1,0,.52v0c0,.17,0,.35,0,.52a.43.43,0,0,1,0,0,5,5,0,0,1-.09.56l-1.37,49.93a6.37,6.37,0,0,1-.16.66s0,0,0,0c-.07.21-.14.41-.22.61,0,0,0,0,0,0a5.52,5.52,0,0,1-.26.55l0,.06c-.08.14-.16.28-.25.41l-.1.14a1.86,1.86,0,0,1-.21.28,1.56,1.56,0,0,1-.16.2l-.23.24-.17.17-.27.22-.16.13a4.34,4.34,0,0,1-.46.28l2.4-1.28a3.89,3.89,0,0,0,.46-.29l.14-.11.29-.23.15-.16.25-.25.15-.2a1.73,1.73,0,0,0,.17-.21l0-.07L115,102c0-.06.09-.12.13-.19l.12-.22a.43.43,0,0,0,0-.07l0,0,.15-.3.09-.21,0,0a.08.08,0,0,1,0,0c0-.08.07-.17.1-.26l.09-.25a.13.13,0,0,1,0-.06l0,0c0-.05,0-.1,0-.15l.06-.24.06-.25v0l1.37-49.93c0-.08,0-.16,0-.23s0-.17,0-.25,0,0,0-.08v0s0-.08,0-.12,0-.17,0-.25v-.16s0,0,0,0V48Z"/><path class="cls-28" d="M71.76,112.31,54,106.82a3.17,3.17,0,0,1,.36-.37c.61-.51,9-6.11,10.19-7.13a3.34,3.34,0,0,0,.56-.57l17.74,5.5a5.11,5.11,0,0,1-.57.57c-1.21,1-9.58,6.61-10.19,7.12a4.25,4.25,0,0,0-.36.37Z"/><path class="cls-29" d="M79.4,66.1,66.17,62.37a2.82,2.82,0,0,1-1.79-2.65l.05-16.95c0-1.18.81-1.92,1.8-1.65l13.22,3.73a2.82,2.82,0,0,1,1.79,2.66l0,16.95C81.19,65.64,80.38,66.38,79.4,66.1Z"/><path class="cls-17" d="M56.71,75.09l-13.49-3.8a2.63,2.63,0,0,1-1.66-2.46L41.65,37c0-1.1.75-1.79,1.67-1.53l13.48,3.8a2.62,2.62,0,0,1,1.66,2.46l-.09,31.86C58.37,74.66,57.62,75.35,56.71,75.09Z"/><path class="cls-3" d="M100.12,87.94l-33-9.3a2.74,2.74,0,0,1-1.73-2.58l0-7.46c0-1.15.79-1.87,1.75-1.6l33,9.3a2.74,2.74,0,0,1,1.74,2.58l0,7.46C101.86,87.49,101.08,88.21,100.12,87.94Z"/><path class="cls-17" d="M101.25,59.84,88,56.1a2.79,2.79,0,0,1-1.79-2.64l0-4.76c0-1.18.81-1.92,1.79-1.64l13.24,3.73a2.82,2.82,0,0,1,1.78,2.64V58.2C103,59.38,102.24,60.11,101.25,59.84Z"/><path class="cls-17" d="M101.22,71.94,88,68.21a2.82,2.82,0,0,1-1.78-2.65V60.8c0-1.18.81-1.91,1.8-1.64l13.23,3.73A2.82,2.82,0,0,1,103,65.54l0,4.76C103,71.48,102.2,72.22,101.22,71.94Z"/></svg>