<svg xmlns="http://www.w3.org/2000/svg" xmlns:xlink="http://www.w3.org/1999/xlink" viewBox="0 0 670 530"><defs><style>.cls-1{fill:#aa893f;}.cls-2{fill:#ead098;}.cls-3{isolation:isolate;}.cls-4{fill:#62666d;}.cls-29,.cls-5{fill:#fff;}.cls-6{fill:#f0f1f2;}.cls-7{fill:url(#未命名的渐变_58);}.cls-8{fill:#ebedf7;}.cls-9{fill:url(#未命名的渐变_58-2);}.cls-10{fill:#ddb962;}.cls-11{fill:#3d3f44;}.cls-12{fill:url(#未命名的渐变_58-3);}.cls-13{clip-path:url(#clip-path);}.cls-14{clip-path:url(#clip-path-2);}.cls-15{clip-path:url(#clip-path-3);}.cls-16{clip-path:url(#clip-path-4);}.cls-17{clip-path:url(#clip-path-5);}.cls-18{clip-path:url(#clip-path-6);}.cls-19{clip-path:url(#clip-path-7);}.cls-20{clip-path:url(#clip-path-8);}.cls-21{clip-path:url(#clip-path-9);}.cls-22{clip-path:url(#clip-path-10);}.cls-23{clip-path:url(#clip-path-11);}.cls-24{clip-path:url(#clip-path-12);}.cls-25{clip-path:url(#clip-path-13);}.cls-26{clip-path:url(#clip-path-14);}.cls-27{clip-path:url(#clip-path-15);}.cls-28{opacity:0.18;}.cls-199,.cls-29{opacity:0;}.cls-30{fill:#fbfbfb;opacity:0.02;}.cls-31{fill:#f6f6f8;opacity:0.05;}.cls-32{fill:#f2f2f4;opacity:0.07;}.cls-33{fill:#ededf0;opacity:0.1;}.cls-34{fill:#e9e9ed;opacity:0.12;}.cls-35{fill:#e4e4e9;opacity:0.15;}.cls-36{fill:#e0e0e6;opacity:0.17;}.cls-37{fill:#dbdbe2;opacity:0.2;}.cls-38{fill:#d7d7de;opacity:0.22;}.cls-39{fill:#d2d2db;opacity:0.24;}.cls-40{fill:#ceced7;opacity:0.27;}.cls-41{fill:#c9c9d3;opacity:0.29;}.cls-42{fill:#c5c5d0;opacity:0.32;}.cls-43{fill:#c1c1cc;opacity:0.34;}.cls-44{fill:#bcbcc8;opacity:0.37;}.cls-45{fill:#b8b8c5;opacity:0.39;}.cls-46{fill:#b3b3c1;opacity:0.41;}.cls-47{fill:#afafbe;opacity:0.44;}.cls-48{fill:#aaaaba;opacity:0.46;}.cls-49{fill:#a6a6b6;opacity:0.49;}.cls-50{fill:#a1a1b3;opacity:0.51;}.cls-51{fill:#9d9daf;opacity:0.54;}.cls-52{fill:#9898ab;opacity:0.56;}.cls-53{fill:#9494a8;opacity:0.59;}.cls-54{fill:#8f8fa4;opacity:0.61;}.cls-55{fill:#8b8ba1;opacity:0.63;}.cls-56{fill:#86869d;opacity:0.66;}.cls-57{fill:#828299;opacity:0.68;}.cls-58{fill:#7e7e96;opacity:0.71;}.cls-59{fill:#797992;opacity:0.73;}.cls-60{fill:#75758e;opacity:0.76;}.cls-61{fill:#70708b;opacity:0.78;}.cls-62{fill:#6c6c87;opacity:0.8;}.cls-63{fill:#676783;opacity:0.83;}.cls-64{fill:#636380;opacity:0.85;}.cls-65{fill:#5e5e7c;opacity:0.88;}.cls-66{fill:#5a5a79;opacity:0.9;}.cls-67{fill:#555575;opacity:0.93;}.cls-68{fill:#515171;opacity:0.95;}.cls-69{fill:#4c4c6e;opacity:0.98;}.cls-70{fill:#48486a;}.cls-71{fill:#777a82;}.cls-72{fill:#5c5f66;}.cls-73{fill:#eff1f9;}.cls-74{fill:#c2cae8;}.cls-75{fill:#d6dcef;}.cls-76{opacity:0.44;mix-blend-mode:multiply;fill:url(#radial-gradient);}.cls-77{fill:#e5e9f4;}.cls-78{fill:#fafbfd;}.cls-79{fill:url(#linear-gradient);}.cls-80{fill:url(#未命名的渐变_20);}.cls-81{opacity:0.45;}.cls-82{fill:#ddb963;opacity:0.99;}.cls-83{fill:#ddba64;opacity:0.98;}.cls-84{fill:#ddba65;opacity:0.97;}.cls-85{fill:#ddba66;opacity:0.97;}.cls-86{fill:#debb67;opacity:0.96;}.cls-87{fill:#debb68;opacity:0.95;}.cls-88{fill:#debc69;opacity:0.94;}.cls-89{fill:#debc6a;opacity:0.93;}.cls-90{fill:#debc6b;opacity:0.92;}.cls-91{fill:#debd6c;opacity:0.92;}.cls-92{fill:#debd6d;opacity:0.91;}.cls-93{fill:#debd6e;opacity:0.9;}.cls-94{fill:#dfbe6f;opacity:0.89;}.cls-95{fill:#dfbe70;opacity:0.88;}.cls-96{fill:#dfbe71;opacity:0.87;}.cls-97{fill:#dfbf72;opacity:0.86;}.cls-98{fill:#dfbf73;opacity:0.86;}.cls-99{fill:#dfc074;opacity:0.85;}.cls-100{fill:#dfc075;opacity:0.84;}.cls-101{fill:#dfc076;opacity:0.83;}.cls-102{fill:#dfc177;opacity:0.82;}.cls-103{fill:#e0c178;opacity:0.81;}.cls-104{fill:#e0c179;opacity:0.81;}.cls-105{fill:#e0c27a;opacity:0.8;}.cls-106{fill:#e0c27b;opacity:0.79;}.cls-107{fill:#e0c27c;opacity:0.78;}.cls-108{fill:#e0c37d;opacity:0.77;}.cls-109{fill:#e0c37e;opacity:0.76;}.cls-110{fill:#e0c47f;opacity:0.75;}.cls-111{fill:#e1c480;opacity:0.75;}.cls-112{fill:#e1c481;opacity:0.74;}.cls-113{fill:#e1c582;opacity:0.73;}.cls-114{fill:#e1c583;opacity:0.72;}.cls-115{fill:#e1c584;opacity:0.71;}.cls-116{fill:#e1c685;opacity:0.7;}.cls-117{fill:#e1c686;opacity:0.69;}.cls-118{fill:#e1c687;opacity:0.69;}.cls-119{fill:#e2c788;opacity:0.68;}.cls-120{fill:#e2c789;opacity:0.67;}.cls-121{fill:#e2c88a;opacity:0.66;}.cls-122{fill:#e2c88b;opacity:0.65;}.cls-123{fill:#e2c88c;opacity:0.64;}.cls-124{fill:#e2c98d;opacity:0.64;}.cls-125{fill:#e2c98e;opacity:0.63;}.cls-126{fill:#e2c98f;opacity:0.62;}.cls-127{fill:#e2ca90;opacity:0.61;}.cls-128{fill:#e3ca91;opacity:0.6;}.cls-129{fill:#e3ca92;opacity:0.59;}.cls-130{fill:#e3cb93;opacity:0.58;}.cls-131{fill:#e3cb94;opacity:0.58;}.cls-132{fill:#e3cc95;opacity:0.57;}.cls-133{fill:#e3cc96;opacity:0.56;}.cls-134{fill:#e3cc97;opacity:0.55;}.cls-135{fill:#e3cd98;opacity:0.54;}.cls-136{fill:#e4cd99;opacity:0.53;}.cls-137{fill:#e4cd9a;opacity:0.53;}.cls-138{fill:#e4ce9b;opacity:0.52;}.cls-139,.cls-140{fill:#e4ce9c;}.cls-139{opacity:0.51;}.cls-140{opacity:0.5;}.cls-141{fill:#e4cf9d;opacity:0.49;}.cls-142{fill:#e4cf9e;opacity:0.48;}.cls-143{fill:#e4d09f;opacity:0.47;}.cls-144{fill:#e4d0a0;opacity:0.47;}.cls-145{fill:#e5d0a1;opacity:0.46;}.cls-146{fill:#e5d1a2;opacity:0.45;}.cls-147{fill:#e5d1a3;opacity:0.44;}.cls-148{fill:#e5d1a4;opacity:0.43;}.cls-149{fill:#e5d2a5;opacity:0.42;}.cls-150{fill:#e5d2a6;opacity:0.42;}.cls-151{fill:#e5d3a7;opacity:0.41;}.cls-152{fill:#e5d3a8;opacity:0.4;}.cls-153{fill:#e6d3a9;opacity:0.39;}.cls-154{fill:#e6d4aa;opacity:0.38;}.cls-155{fill:#e6d4ab;opacity:0.37;}.cls-156{fill:#e6d4ac;opacity:0.36;}.cls-157{fill:#e6d5ad;opacity:0.36;}.cls-158{fill:#e6d5ae;opacity:0.35;}.cls-159{fill:#e6d5af;opacity:0.34;}.cls-160{fill:#e6d6b0;opacity:0.33;}.cls-161{fill:#e6d6b1;opacity:0.32;}.cls-162{fill:#e7d7b2;opacity:0.31;}.cls-163{fill:#e7d7b3;opacity:0.31;}.cls-164{fill:#e7d7b4;opacity:0.3;}.cls-165{fill:#e7d8b5;opacity:0.29;}.cls-166{fill:#e7d8b6;opacity:0.28;}.cls-167{fill:#e7d8b7;opacity:0.27;}.cls-168{fill:#e7d9b8;opacity:0.26;}.cls-169{fill:#e7d9b9;opacity:0.25;}.cls-170{fill:#e8d9ba;opacity:0.25;}.cls-171{fill:#e8dabb;opacity:0.24;}.cls-172{fill:#e8dabc;opacity:0.23;}.cls-173{fill:#e8dbbd;opacity:0.22;}.cls-174{fill:#e8dbbe;opacity:0.21;}.cls-175{fill:#e8dbbf;opacity:0.2;}.cls-176{fill:#e8dcc0;opacity:0.19;}.cls-177{fill:#e8dcc1;opacity:0.19;}.cls-178{fill:#e9dcc2;opacity:0.18;}.cls-179{fill:#e9ddc3;opacity:0.17;}.cls-180{fill:#e9ddc4;opacity:0.16;}.cls-181{fill:#e9ddc5;opacity:0.15;}.cls-182{fill:#e9dec6;opacity:0.14;}.cls-183{fill:#e9dec7;opacity:0.14;}.cls-184{fill:#e9dfc8;opacity:0.13;}.cls-185{fill:#e9dfc9;opacity:0.12;}.cls-186{fill:#e9dfca;opacity:0.11;}.cls-187{fill:#eae0cb;opacity:0.1;}.cls-188{fill:#eae0cc;opacity:0.09;}.cls-189{fill:#eae0cd;opacity:0.08;}.cls-190{fill:#eae1ce;opacity:0.08;}.cls-191{fill:#eae1cf;opacity:0.07;}.cls-192{fill:#eae1d0;opacity:0.06;}.cls-193{fill:#eae2d1;opacity:0.05;}.cls-194{fill:#eae2d2;opacity:0.04;}.cls-195{fill:#ebe3d3;opacity:0.03;}.cls-196{fill:#ebe3d4;opacity:0.03;}.cls-197{fill:#ebe3d5;opacity:0.02;}.cls-198{fill:#ebe4d6;opacity:0.01;}.cls-199,.cls-205{fill:#ebe4d7;}.cls-200{clip-path:url(#clip-path-16);}.cls-201{clip-path:url(#clip-path-17);}.cls-202{clip-path:url(#clip-path-18);}.cls-203{clip-path:url(#clip-path-19);}.cls-204{fill:#fffbf3;}</style><linearGradient id="未命名的渐变_58" x1="33.08" y1="433.29" x2="636.92" y2="433.29" gradientUnits="userSpaceOnUse"><stop offset="0" stop-color="#bec3cc"/><stop offset="0.42" stop-color="#bec3cc"/><stop offset="0.49" stop-color="#ced2d9"/><stop offset="0.57" stop-color="#e4e6ea"/></linearGradient><linearGradient id="未命名的渐变_58-2" x1="220.37" y1="368.49" x2="447.54" y2="368.49" xlink:href="#未命名的渐变_58"/><linearGradient id="未命名的渐变_58-3" x1="220.48" y1="318.14" x2="447.64" y2="318.14" xlink:href="#未命名的渐变_58"/><clipPath id="clip-path"><path class="cls-1" d="M481.55,230.6l-8.73-4.75-.08,0,8.73,4.75Z"/></clipPath><clipPath id="clip-path-2"><path class="cls-1" d="M481.32,230.5l-8.72-4.74a.55.55,0,0,1-.19-.21,1.31,1.31,0,0,1-.06-1l8.73,4.75a1.31,1.31,0,0,0,.06,1A.49.49,0,0,0,481.32,230.5Z"/></clipPath><clipPath id="clip-path-3"><path class="cls-1" d="M497.06,159l8.72,4.75a2.4,2.4,0,0,0-.77-.25l-8.72-4.74A2.17,2.17,0,0,1,497.06,159Z"/></clipPath><clipPath id="clip-path-4"><path class="cls-1" d="M481.08,229.32l-8.73-4.75c3.83-12,5-20.75,3.15-26.14a40.4,40.4,0,0,0-7-13.27l8.73,4.75a40.45,40.45,0,0,1,7,13.26C486.06,208.57,484.9,217.3,481.08,229.32Z"/></clipPath><clipPath id="clip-path-5"><path class="cls-1" d="M464.44,198.47l-8.73-4.74a1.59,1.59,0,0,1-.21-.15l8.72,4.75A1,1,0,0,0,464.44,198.47Z"/></clipPath><clipPath id="clip-path-6"><path class="cls-1" d="M464.22,198.33l-8.72-4.75a2.14,2.14,0,0,1-.78-2.46l8.73,4.75A2.15,2.15,0,0,0,464.22,198.33Z"/></clipPath><clipPath id="clip-path-7"><path class="cls-1" d="M474.61,159.85l-8.73-4.75a1.46,1.46,0,0,1,.51,0l8.73,4.74A1.74,1.74,0,0,0,474.61,159.85Z"/></clipPath><clipPath id="clip-path-8"><path class="cls-1" d="M472.54,161.85l-8.73-4.75a2.63,2.63,0,0,1,2.07-2l8.73,4.75A2.62,2.62,0,0,0,472.54,161.85Z"/></clipPath><clipPath id="clip-path-9"><path class="cls-1" d="M192,185.29l8.73,4.75a1.72,1.72,0,0,0-1.06-.17,2.37,2.37,0,0,0-1.17.53l-8.73-4.75a2.45,2.45,0,0,1,1.18-.53A1.71,1.71,0,0,1,192,185.29Z"/></clipPath><clipPath id="clip-path-10"><path class="cls-1" d="M159.37,224.82l-8.73-4.74a1.81,1.81,0,0,1-.95-1.5l8.73,4.75A1.77,1.77,0,0,0,159.37,224.82Z"/></clipPath><clipPath id="clip-path-11"><path class="cls-1" d="M158.42,223.33l-8.73-4.75a2.7,2.7,0,0,1,1.07-2.53l8.73,4.75A2.69,2.69,0,0,0,158.42,223.33Z"/></clipPath><clipPath id="clip-path-12"><path class="cls-1" d="M175.09,153.26l8.72,4.75a.4.4,0,0,0-.13,0L175,153.22Z"/></clipPath><clipPath id="clip-path-13"><path class="cls-1" d="M174.87,153.16l8.73,4.75a.88.88,0,0,0-.54-.07l-8.73-4.75A.88.88,0,0,1,174.87,153.16Z"/></clipPath><clipPath id="clip-path-14"><path class="cls-1" d="M182.4,158.12l-8.73-4.75a1.56,1.56,0,0,1,.66-.28l8.73,4.75A1.4,1.4,0,0,0,182.4,158.12Z"/></clipPath><clipPath id="clip-path-15"><path class="cls-1" d="M169.33,213.13l-8.73-4.75c-4.54-8.22-5.57-17.46-3.16-27.53a55.15,55.15,0,0,1,16.23-27.48l8.73,4.75a55.08,55.08,0,0,0-16.23,27.48C163.75,195.66,164.79,204.91,169.33,213.13Z"/></clipPath><radialGradient id="radial-gradient" cx="549.26" cy="8146.29" r="77.35" gradientTransform="translate(0 -3866.94) scale(1 0.52)" gradientUnits="userSpaceOnUse"><stop offset="0.09" stop-color="#48486a"/><stop offset="0.12" stop-color="#505070"/><stop offset="0.35" stop-color="#8d8da3"/><stop offset="0.56" stop-color="#bebeca"/><stop offset="0.75" stop-color="#e2e2e7"/><stop offset="0.9" stop-color="#f7f7f9"/><stop offset="1" stop-color="#fff"/></radialGradient><linearGradient id="linear-gradient" x1="286.61" y1="244.55" x2="381.42" y2="244.55" gradientUnits="userSpaceOnUse"><stop offset="0" stop-color="#99a7d8"/><stop offset="0.3" stop-color="#a6b3dd"/><stop offset="0.86" stop-color="#c9d2ea"/><stop offset="1" stop-color="#d3daed"/></linearGradient><linearGradient id="未命名的渐变_20" x1="286.6" y1="257.7" x2="381.42" y2="257.7" gradientUnits="userSpaceOnUse"><stop offset="0.15" stop-color="#ddb962"/><stop offset="1" stop-color="#ebe4d7"/></linearGradient><clipPath id="clip-path-16"><path class="cls-2" d="M398.34,77.12l29.18,13a47.11,47.11,0,0,0-12.66-3.61l-29.18-13A47.1,47.1,0,0,1,398.34,77.12Z"/></clipPath><clipPath id="clip-path-17"><path class="cls-2" d="M350.81,16.58l29.18,13a64.31,64.31,0,0,0-36.62-4.41l-29.18-13A64.39,64.39,0,0,1,350.81,16.58Z"/></clipPath><clipPath id="clip-path-18"><path class="cls-2" d="M278.68,106.22l-29.18-13a14.34,14.34,0,0,0,0-2.7c-1.87-37.19,27.09-72.28,64.66-78.36l29.18,13c-37.58,6.08-66.53,41.17-64.66,78.36A14.35,14.35,0,0,1,278.68,106.22Z"/></clipPath><clipPath id="clip-path-19"><path class="cls-2" d="M255.69,206.6l-29.18-13c-15.24-6.78-25.89-21.46-26.82-40C198.25,125,220.55,97.91,249.5,93.23l29.18,13c-29,4.68-51.26,31.71-49.82,60.37C229.8,185.13,240.44,199.82,255.69,206.6Z"/></clipPath></defs><title>【插图】页面元素插图</title><g class="cls-3"><g id="图层_1" data-name="图层 1"><path class="cls-4" d="M39.32,362c-7.88-4.59-7.92-12.07-.08-16.62l279,85.39c7.83-4.59,20.74-4.59,28.67,0l284.06-80c7.89,4.55,7.92,12.07.07,16.62L348,524c-7.87,4.57-20.82,4.57-28.7,0Z"/><path class="cls-5" d="M631,338.64c7.92,4.6,7.95,12.07.1,16.67L348,511.84c-7.85,4.55-20.8,4.55-28.7,0l-280-162c-7.88-4.55-8-12.1-.08-16.63L322.37,176.69c7.83-4.64,20.74-4.64,28.64,0Z"/><path class="cls-6" d="M39.32,346.74c-7.88-4.6-7.92-12.05-.08-16.59L322.37,173.58c7.83-4.63,20.74-4.63,28.68,0L631,335.54c7.89,4.57,7.92,12,.07,16.62L348,508.67c-7.87,4.6-20.82,4.6-28.7,0Z"/><path class="cls-7" d="M636.87,347.65c0,.16,0,.41,0,.59a1.92,1.92,0,0,1-.16.51,3.21,3.21,0,0,1-.14.71,3.37,3.37,0,0,0-.18.49,3.56,3.56,0,0,0-.34.6c-.17.27-.35.54-.48.79l-.09.18c-.21.28-.49.51-.67.78l-.19.22c-.24.27-.5.54-.81.84s-.45.27-.63.47a4.21,4.21,0,0,0-.53.49l-.74.41a3.57,3.57,0,0,1-.81.58L349.4,511.06V511c-.52.32-2.64,1.52-3.32,1.87-.22,0-.41.18-.62.18-.48.21-1,.41-1.54.61a3.43,3.43,0,0,0-.59.22,6.41,6.41,0,0,1-1.05.25c-.29.09-.56.2-.79.26a10,10,0,0,0-1.15.31,2.74,2.74,0,0,0-.76.09,14.17,14.17,0,0,1-2.3.29c-.24,0-.49.09-.73.09-.46,0-.9.07-1.34.07a7.4,7.4,0,0,1-.9,0H333.2a7.63,7.63,0,0,1-1,0,4.35,4.35,0,0,1-1-.07,3.73,3.73,0,0,1-1-.09c-.28,0-.65,0-1,0s-.62-.09-1-.18a8.84,8.84,0,0,1-1.1-.16,3.15,3.15,0,0,1-.79-.15c-.45-.14-.86-.22-1.26-.33s-.47-.14-.76-.23a17.24,17.24,0,0,1-2.09-.73,5.17,5.17,0,0,1-1-.39c-.18-.08-.35-.15-.55-.26-.52-.2-3.27-1.85-3.8-2.1v0L39.32,349.84c-4-2.31-6-5.32-5.92-8.32l-.32,9.85c0,3,2,6,5.91,8.31l280,162v-.06c.64.35,1.23.67,1.45.76a5,5,0,0,0,.52.2,3.39,3.39,0,0,0,.93.47.16.16,0,0,1,.13.08c.68.23,1.37.45,2.14.69h.12a1.39,1.39,0,0,0,.64.18l1.23.32c.1,0,.18.09.3.09a2.16,2.16,0,0,1,.53.13c.38,0,.71.07,1,.13.14,0,.34.07.45.07l.56,0a2.46,2.46,0,0,0,1,.12,3,3,0,0,1,.47.08,2.74,2.74,0,0,1,.5,0c.31,0,.66,0,1,.06h3a8.88,8.88,0,0,0,1.33-.15,5.82,5.82,0,0,0,.6,0H337c.75-.12,1.51-.19,2.27-.3h.09c.24,0,.49-.13.76-.17a7.74,7.74,0,0,1,1.05-.23A3,3,0,0,1,342,524c.37-.18.7-.22,1.06-.37l.23,0a.53.53,0,0,0,.37-.15,6.32,6.32,0,0,0,1.55-.58,1.54,1.54,0,0,0,.58-.27c.33-.13,1.13-.55,1.91-1v.07l283.1-156.55.17-.14c.23-.13.4-.22.6-.31s.5-.4.75-.6a5,5,0,0,0,.51-.39,2.66,2.66,0,0,1,.64-.49l.08-.09a10,10,0,0,0,.8-.78,1.14,1.14,0,0,1,.11-.17,1.81,1.81,0,0,0,.39-.43c.09-.15.12-.24.31-.33l0-.16a3.22,3.22,0,0,0,.48-.75l.06-.12a5.65,5.65,0,0,1,.29-.6c0-.18.12-.31.14-.44l0-.07a4,4,0,0,0,.23-.63,2.18,2.18,0,0,1,.07-.38.31.31,0,0,1,0-.15c0-.22,0-.4.09-.63s0-.24,0-.46v-.09l.27-9.87S636.9,347.43,636.87,347.65Z"/><path class="cls-4" d="M224.55,366.78c-5.27-3-5.29-8-.07-11l99.69-27.87c5.22-3,13.81-3,19.07,0l100.35,27.87c5.26,3,5.29,8,.05,11L344,424.7c-5.23,3.05-13.81,3.05-19.07,0Z"/><path class="cls-5" d="M443.58,309.44c5.27,3,5.29,8,.06,11L344,378.42c-5.23,3-13.81,3-19.07,0L224.55,320.48c-5.27-3.05-5.3-8-.07-11l99.68-57.94c5.24-3,13.82-3,19.08,0Z"/><path class="cls-8" d="M224.55,316.07c-5.27-3-5.29-8-.07-11.06l99.69-57.92c5.22-3.05,13.81-3.05,19.07,0L443.59,305c5.26,3.05,5.29,8,.05,11.06L344,374c-5.23,3-13.81,3-19.07,0Z"/><path class="cls-9" d="M447.52,315.4c0,.14,0,.27-.06.42a3,3,0,0,1-.08.32c0,.16-.07.3-.12.44s-.09.22-.13.32-.13.27-.2.43-.22.37-.35.56a.7.7,0,0,1-.06.09,4.24,4.24,0,0,1-.43.54l-.1.12a7.23,7.23,0,0,1-.56.55l-.42.36-.37.28-.49.33c-.17.11-.33.22-.51.32l-98.7,57.37h0c-.4.22-1.81,1-2.24,1.19l-.4.18c-.32.14-.68.27-1,.39a3,3,0,0,1-.39.14l-.69.2-.53.14-.75.16-.51.1c-.5.09-1,.15-1.53.21a4,4,0,0,1-.5,0c-.3,0-.59.06-.9.07h-2l-.68,0-.63-.05-.67-.08c-.2,0-.41-.05-.61-.08s-.48-.07-.72-.12l-.55-.11c-.29-.06-.56-.14-.85-.21l-.45-.12c-.5-.15-1-.31-1.45-.5-.22-.08-.45-.18-.67-.28l-.35-.15c-.34-.16-2.21-1.22-2.52-1.41h0l-98.8-57c-2.66-1.53-4-3.54-4-5.57l-.21,41.39c0,2,1.32,4,4,5.56l99,57.16h0l.48.27.85.49v0c.44.24.84.47,1,.54l.33.15c.2.08.39.18.61.26l.08,0c.46.17.94.35,1.43.49l.12,0,.38.1.81.19a.59.59,0,0,0,.22.05,1.91,1.91,0,0,0,.36.07c.22.05.45.08.68.12l.3,0,.35,0c.21,0,.41.06.62.08s.23,0,.35,0l.32,0,.65,0,.37,0H335l.23,0,.89-.06.38,0h.12c.52-.07,1-.14,1.54-.23h.08l.45-.11q.38-.06.72-.15l.54-.14.68-.2.16,0a2.5,2.5,0,0,1,.25-.09c.35-.13.7-.26,1-.41l.39-.16c.22-.1.75-.38,1.26-.66v0l99.7-57.92.15-.1.35-.23c.16-.12.33-.21.49-.33l.37-.3c.14-.12.29-.22.4-.33s.06,0,.08-.07c.18-.16.34-.31.5-.48a.54.54,0,0,1,.09-.12,3.47,3.47,0,0,0,.25-.29l.19-.26.06-.1a2.89,2.89,0,0,0,.29-.45.44.44,0,0,1,.06-.1c.06-.15.12-.28.19-.42s.08-.17.11-.24a.54.54,0,0,0,0-.1l.12-.41c0-.09.05-.17.07-.26a.22.22,0,0,0,0-.08,2.87,2.87,0,0,0,.05-.41c0-.1,0-.21,0-.3v-.11l.2-41.39C447.54,315.14,447.52,315.25,447.52,315.4Z"/><g class="cls-3"><path class="cls-10" d="M363.68,379l5-2.9c1.58-.92,2.87-.18,2.88,1.64a6.3,6.3,0,0,1-2.87,5l-5,2.89c-1.59.92-2.88.19-2.88-1.64a6.28,6.28,0,0,1,2.86-4.95Z"/></g><g class="cls-3"><path class="cls-11" d="M363.68,389.69l5-2.89c1.58-.93,2.87-.18,2.88,1.64a6.23,6.23,0,0,1-2.87,4.95l-5,2.89c-1.59.92-2.88.19-2.88-1.64a6.28,6.28,0,0,1,2.86-4.95Z"/></g><g class="cls-3"><path class="cls-11" d="M349.18,386.59l5-2.89c1.59-.93,2.88-.2,2.88,1.62a6.3,6.3,0,0,1-2.86,5l-5,2.88c-1.58.92-2.88.19-2.88-1.62a6.32,6.32,0,0,1,2.86-5Z"/></g><g class="cls-3"><path class="cls-11" d="M349.18,397.25l5-2.89c1.59-.92,2.88-.21,2.88,1.63a6.26,6.26,0,0,1-2.86,4.95l-5,2.91c-1.58.91-2.88.17-2.88-1.65a6.32,6.32,0,0,1,2.86-4.95Z"/></g><g class="cls-3"><path class="cls-11" d="M382.33,367.6,433,338.33c1.6-.91,2.88-.17,2.88,1.66a6.25,6.25,0,0,1-2.86,4.94l-50.7,29.27c-1.57.91-2.87.18-2.88-1.64a6.35,6.35,0,0,1,2.86-5Z"/></g><g class="cls-3"><path class="cls-11" d="M382.33,378.86,433,349.59c1.6-.91,2.88-.17,2.88,1.64a6.3,6.3,0,0,1-2.86,5l-50.7,29.26c-1.57.92-2.87.19-2.88-1.63a6.35,6.35,0,0,1,2.86-5Z"/></g><path class="cls-4" d="M224.65,316.43c-5.27-3.05-5.29-8-.07-11.05l99.7-27.87c5.21-3,13.8-3,19.06,0l100.35,27.87c5.26,3,5.29,8,.06,11.05l-99.69,57.92c-5.23,3-13.81,3-19.07,0Z"/><path class="cls-5" d="M443.68,259.09c5.27,3,5.29,8,.07,11l-99.69,57.94c-5.23,3-13.81,3-19.07,0L224.65,270.13c-5.27-3.05-5.29-8-.07-11l99.69-57.94c5.23-3,13.81-3,19.07,0Z"/><path class="cls-8" d="M224.65,265.72c-5.27-3-5.29-8-.07-11.06l99.7-57.92c5.21-3.05,13.8-3.05,19.06,0l100.35,57.92c5.26,3,5.29,8,.06,11.06l-99.69,57.92c-5.23,3-13.81,3-19.07,0Z"/><path class="cls-12" d="M447.62,265a3.18,3.18,0,0,1-.06.43,1.67,1.67,0,0,1-.08.32,3.17,3.17,0,0,1-.12.44c0,.1-.09.21-.13.32s-.13.27-.2.42a6.42,6.42,0,0,1-.34.56.86.86,0,0,1-.07.1,4.24,4.24,0,0,1-.43.54l-.1.12a4.85,4.85,0,0,1-.56.55c-.13.13-.28.23-.42.36l-.37.28c-.15.11-.32.23-.49.33l-.5.32L345,327.5h0c-.4.23-1.8,1-2.24,1.2l-.39.18c-.33.14-.69.27-1,.39l-.4.14-.68.2-.54.14-.75.16-.5.1c-.51.09-1,.15-1.54.21a4,4,0,0,1-.5,0l-.89.07h-2l-.67,0-.63,0-.67-.08-.62-.08c-.24,0-.48-.07-.71-.12s-.38-.08-.56-.12l-.84-.2c-.16-.05-.31-.07-.46-.12A15.22,15.22,0,0,1,327,329a6.72,6.72,0,0,1-.67-.28l-.36-.15c-.34-.17-2.21-1.22-2.52-1.41h0l-98.8-57.05c-2.66-1.53-4-3.54-4-5.57L220.48,306c0,2,1.31,4,4,5.56l99,57.16h0l.48.27.85.49v0l1,.53a2.07,2.07,0,0,0,.34.15l.6.27.08,0c.47.17.95.35,1.44.48a.21.21,0,0,0,.12,0l.38.1.8.2a.87.87,0,0,0,.22.05c.12,0,.24,0,.36.07l.68.12.3,0,.35,0a4.5,4.5,0,0,0,.63.07,2.09,2.09,0,0,0,.34,0l.32,0,.66,0,.36,0h1.39l.22,0,.9-.05.38,0h.12c.51-.06,1-.13,1.53-.23h.08l.45-.1q.38-.06.72-.15l.54-.14.68-.2.16,0,.25-.09c.36-.13.7-.26,1-.41l.39-.17c.23-.09.75-.37,1.26-.65v0l99.7-57.93.15-.09.35-.23c.17-.12.33-.21.49-.33a3.47,3.47,0,0,0,.37-.3c.14-.12.29-.22.41-.33s.06,0,.08-.07c.18-.16.33-.31.49-.48l.09-.12a3.31,3.31,0,0,0,.25-.3,1.74,1.74,0,0,0,.19-.26l.07-.09a3.4,3.4,0,0,0,.28-.45s0-.08.06-.1l.19-.42.11-.24a.54.54,0,0,0,0-.1c0-.13.08-.27.12-.41s.05-.17.07-.26a.28.28,0,0,0,0-.09,2.73,2.73,0,0,0,.05-.4c0-.1,0-.21,0-.3V306l.19-41.39C447.64,264.78,447.62,264.9,447.62,265Z"/><g class="cls-3"><path class="cls-10" d="M363.78,328.68l5-2.89c1.58-.92,2.86-.18,2.87,1.63a6.31,6.31,0,0,1-2.87,5l-5,2.89c-1.59.91-2.88.18-2.88-1.65a6.34,6.34,0,0,1,2.86-4.95Z"/></g><g class="cls-3"><path class="cls-11" d="M363.78,339.34l5-2.9c1.58-.92,2.86-.17,2.87,1.65a6.25,6.25,0,0,1-2.87,5l-5,2.89c-1.59.92-2.88.19-2.88-1.64a6.31,6.31,0,0,1,2.86-5Z"/></g><g class="cls-3"><path class="cls-11" d="M349.29,336.24l5-2.89c1.58-.93,2.87-.2,2.87,1.62a6.32,6.32,0,0,1-2.85,5l-5,2.88c-1.58.92-2.87.19-2.87-1.62a6.27,6.27,0,0,1,2.86-5Z"/></g><g class="cls-3"><path class="cls-11" d="M349.29,346.9l5-2.89c1.58-.92,2.87-.21,2.87,1.63a6.29,6.29,0,0,1-2.85,4.95l-5,2.91c-1.58.9-2.87.17-2.87-1.65a6.26,6.26,0,0,1,2.86-5Z"/></g><g class="cls-3"><path class="cls-11" d="M382.44,317.25,433.14,288c1.59-.91,2.87-.17,2.88,1.65a6.28,6.28,0,0,1-2.86,4.94l-50.7,29.28c-1.58.91-2.88.18-2.89-1.64a6.33,6.33,0,0,1,2.87-5Z"/></g><g class="cls-3"><path class="cls-11" d="M382.44,328.51l50.7-29.27c1.59-.91,2.87-.17,2.88,1.64a6.35,6.35,0,0,1-2.86,5l-50.7,29.26c-1.58.92-2.88.19-2.89-1.63a6.34,6.34,0,0,1,2.87-5Z"/></g><g class="cls-3"><g class="cls-3"><path class="cls-1" d="M481.55,230.6l-8.73-4.75-.08,0,8.73,4.75Z"/><g class="cls-13"><g class="cls-3"><path class="cls-1" d="M481.55,230.6l-8.73-4.75-.08,0,8.73,4.75.08,0"/></g></g></g><g class="cls-3"><path class="cls-1" d="M481.32,230.5l-8.72-4.74a.55.55,0,0,1-.19-.21,1.31,1.31,0,0,1-.06-1l8.73,4.75a1.31,1.31,0,0,0,.06,1A.49.49,0,0,0,481.32,230.5Z"/><g class="cls-14"><g class="cls-3"><path class="cls-1" d="M481.32,230.5l-8.72-4.74a.55.55,0,0,1-.19-.21,1.31,1.31,0,0,1-.06-1l8.73,4.75a1.31,1.31,0,0,0,.06,1,.49.49,0,0,0,.18.2"/></g></g></g><g class="cls-3"><path class="cls-1" d="M497.06,159l8.72,4.75a2.4,2.4,0,0,0-.77-.25l-8.72-4.74A2.17,2.17,0,0,1,497.06,159Z"/><g class="cls-15"><g class="cls-3"><path class="cls-1" d="M505,163.45l-8.72-4.74.28,0,8.73,4.75-.29-.06"/><path class="cls-1" d="M505.3,163.51l-8.73-4.75a2.86,2.86,0,0,1,.41.15l8.73,4.75a2.86,2.86,0,0,0-.41-.15"/><path class="cls-1" d="M505.71,163.66,497,158.91l.08,0,8.72,4.75-.07,0"/></g></g></g><g class="cls-3"><path class="cls-1" d="M481.08,229.32l-8.73-4.75c3.83-12,5-20.75,3.15-26.14a40.4,40.4,0,0,0-7-13.27l8.73,4.75a40.45,40.45,0,0,1,7,13.26C486.06,208.57,484.9,217.3,481.08,229.32Z"/><g class="cls-16"><g class="cls-3"><path class="cls-1" d="M481.08,229.32l-8.73-4.75c3.83-12,5-20.75,3.15-26.14a40.4,40.4,0,0,0-7-13.27l8.73,4.75a40.45,40.45,0,0,1,7,13.26c1.83,5.4.67,14.13-3.15,26.15"/></g></g></g><g class="cls-3"><path class="cls-1" d="M464.44,198.47l-8.73-4.74a1.59,1.59,0,0,1-.21-.15l8.72,4.75A1,1,0,0,0,464.44,198.47Z"/><g class="cls-17"><g class="cls-3"><path class="cls-1" d="M464.44,198.47l-8.73-4.74a1.59,1.59,0,0,1-.21-.15l8.72,4.75a1,1,0,0,0,.22.14"/></g></g></g><g class="cls-3"><path class="cls-1" d="M464.22,198.33l-8.72-4.75a2.14,2.14,0,0,1-.78-2.46l8.73,4.75A2.15,2.15,0,0,0,464.22,198.33Z"/><g class="cls-18"><g class="cls-3"><path class="cls-1" d="M464.22,198.33l-8.72-4.75a2.14,2.14,0,0,1-.78-2.46l8.73,4.75a2.15,2.15,0,0,0,.77,2.46"/></g></g></g><polygon class="cls-1" points="475.12 159.84 466.39 155.09 496.29 158.71 505.01 163.45 475.12 159.84"/><g class="cls-3"><path class="cls-1" d="M474.61,159.85l-8.73-4.75a1.46,1.46,0,0,1,.51,0l8.73,4.74A1.74,1.74,0,0,0,474.61,159.85Z"/><g class="cls-19"><g class="cls-3"><path class="cls-1" d="M474.61,159.85l-8.73-4.75a1.46,1.46,0,0,1,.51,0l8.73,4.74a1.74,1.74,0,0,0-.51,0"/></g></g></g><polygon class="cls-1" points="463.45 195.87 454.72 191.12 463.81 157.1 472.54 161.85 463.45 195.87"/><path class="cls-2" d="M474.61,159.85a1.74,1.74,0,0,1,.51,0L505,163.45a1.86,1.86,0,0,1,1.71,1.73,2.66,2.66,0,0,1-1.06,2.54l-9.84,7.67c4.54,8.22,5.58,17.46,3.16,27.53a55.15,55.15,0,0,1-16.23,27.48,1.5,1.5,0,0,1-.66.28.8.8,0,0,1-.62-.13.44.44,0,0,1-.33-.25,1.31,1.31,0,0,1-.06-1c3.82-12,5-20.75,3.15-26.15a40.45,40.45,0,0,0-7-13.26l-10.54,8.22a2.54,2.54,0,0,1-1.17.52,1.69,1.69,0,0,1-1.28-.32,2.15,2.15,0,0,1-.77-2.46l9.09-34A2.62,2.62,0,0,1,474.61,159.85Z"/><g class="cls-3"><path class="cls-1" d="M472.54,161.85l-8.73-4.75a2.63,2.63,0,0,1,2.07-2l8.73,4.75A2.62,2.62,0,0,0,472.54,161.85Z"/><g class="cls-20"><g class="cls-3"><path class="cls-1" d="M472.54,161.85l-8.73-4.75c0-.1.06-.21.1-.31l8.73,4.75c0,.1-.07.21-.1.31"/><path class="cls-1" d="M472.64,161.54l-8.73-4.75a2.17,2.17,0,0,1,.15-.35l8.73,4.75a2.17,2.17,0,0,0-.15.35"/><path class="cls-1" d="M472.79,161.19l-8.73-4.75a2.68,2.68,0,0,1,.18-.28l8.73,4.75a2.68,2.68,0,0,0-.18.28"/><path class="cls-1" d="M473,160.91l-8.73-4.75.19-.24,8.73,4.75a1.43,1.43,0,0,0-.19.24"/><path class="cls-1" d="M473.16,160.67l-8.73-4.75.22-.22,8.73,4.75a1.52,1.52,0,0,0-.22.22"/><path class="cls-1" d="M473.38,160.45l-8.73-4.75a1.71,1.71,0,0,1,.26-.21l8.73,4.75a1.71,1.71,0,0,0-.26.21"/><path class="cls-1" d="M473.64,160.24l-8.73-4.75a1.75,1.75,0,0,1,.35-.2L474,160a2.5,2.5,0,0,0-.35.21"/><path class="cls-1" d="M474,160l-8.73-4.74a2,2,0,0,1,.62-.19l8.73,4.75a2.31,2.31,0,0,0-.62.18"/></g></g></g></g><g class="cls-3"><g class="cls-3"><path class="cls-1" d="M192,185.29l8.73,4.75a1.72,1.72,0,0,0-1.06-.17,2.37,2.37,0,0,0-1.17.53l-8.73-4.75a2.45,2.45,0,0,1,1.18-.53A1.71,1.71,0,0,1,192,185.29Z"/><g class="cls-21"><g class="cls-3"><path class="cls-1" d="M198.48,190.4l-8.73-4.75.15-.11,8.73,4.75-.15.11"/><path class="cls-1" d="M198.63,190.29l-8.73-4.75a2.08,2.08,0,0,1,.38-.22l8.73,4.75a2.08,2.08,0,0,0-.38.22"/><path class="cls-1" d="M199,190.07l-8.73-4.75a2.22,2.22,0,0,1,.65-.2,2,2,0,0,1,.7,0l8.73,4.75a1.87,1.87,0,0,0-.71,0,2,2,0,0,0-.64.2"/><path class="cls-1" d="M200.36,189.9l-8.73-4.75a1.88,1.88,0,0,1,.3.12l8.72,4.74-.29-.11"/><path class="cls-1" d="M200.65,190l-8.72-4.74,0,0,8.73,4.75-.06,0"/></g></g></g><polygon class="cls-1" points="187.94 198.61 179.21 193.87 189.75 185.65 198.48 190.4 187.94 198.61"/><g class="cls-3"><path class="cls-1" d="M159.37,224.82l-8.73-4.74a1.81,1.81,0,0,1-.95-1.5l8.73,4.75A1.77,1.77,0,0,0,159.37,224.82Z"/><g class="cls-22"><g class="cls-3"><path class="cls-1" d="M159.37,224.82l-8.73-4.74a1.81,1.81,0,0,1-.95-1.5l8.73,4.75a1.77,1.77,0,0,0,1,1.49"/></g></g></g><polygon class="cls-1" points="159.49 220.8 150.76 216.05 160.6 208.38 169.33 213.13 159.49 220.8"/><g class="cls-3"><path class="cls-1" d="M158.42,223.33l-8.73-4.75a2.7,2.7,0,0,1,1.07-2.53l8.73,4.75A2.69,2.69,0,0,0,158.42,223.33Z"/><g class="cls-23"><g class="cls-3"><path class="cls-1" d="M158.42,223.33l-8.73-4.75a2.28,2.28,0,0,1,.12-1.23l8.72,4.75a2.27,2.27,0,0,0-.11,1.23"/><path class="cls-1" d="M158.53,222.1l-8.72-4.75A1.89,1.89,0,0,1,150,217l8.73,4.75a2.92,2.92,0,0,0-.17.36"/><path class="cls-1" d="M158.7,221.74,150,217a1.75,1.75,0,0,1,.18-.29l8.73,4.74a2.38,2.38,0,0,0-.18.3"/><path class="cls-1" d="M158.88,221.44l-8.73-4.74a2.47,2.47,0,0,1,.21-.27l8.73,4.75a2.39,2.39,0,0,0-.21.26"/><path class="cls-1" d="M159.09,221.18l-8.73-4.75.24-.25,8.73,4.75a2.83,2.83,0,0,0-.24.25"/><path class="cls-1" d="M159.33,220.93l-8.73-4.75.16-.13,8.73,4.75-.16.13"/></g></g></g><g class="cls-3"><path class="cls-1" d="M175.09,153.26l8.72,4.75a.4.4,0,0,0-.13,0L175,153.22Z"/><g class="cls-24"><g class="cls-3"><path class="cls-1" d="M183.68,158,175,153.22H175l8.73,4.75h0"/><path class="cls-1" d="M183.73,158,175,153.23l.07,0L183.8,158l-.07,0"/><path class="cls-1" d="M183.8,158l-8.73-4.74h0l8.72,4.75h0"/></g></g></g><g class="cls-3"><path class="cls-1" d="M174.87,153.16l8.73,4.75a.88.88,0,0,0-.54-.07l-8.73-4.75A.88.88,0,0,1,174.87,153.16Z"/><g class="cls-25"><g class="cls-3"><path class="cls-1" d="M183.06,157.84l-8.73-4.75a1,1,0,0,1,.39,0l8.73,4.74a1,1,0,0,0-.39,0"/><path class="cls-1" d="M183.45,157.85l-8.73-4.74.13,0,8.73,4.75-.13-.05"/><path class="cls-1" d="M183.58,157.9l-8.73-4.75h0l8.73,4.75h0"/></g></g></g><g class="cls-3"><path class="cls-1" d="M182.4,158.12l-8.73-4.75a1.56,1.56,0,0,1,.66-.28l8.73,4.75A1.4,1.4,0,0,0,182.4,158.12Z"/><g class="cls-26"><g class="cls-3"><path class="cls-1" d="M182.4,158.12l-8.73-4.75.05,0,8.73,4.75,0,0"/><path class="cls-1" d="M182.45,158.08l-8.73-4.75.2-.11,8.73,4.75-.2.11"/><path class="cls-1" d="M182.65,158l-8.73-4.75a1.51,1.51,0,0,1,.41-.13l8.73,4.75a1.23,1.23,0,0,0-.41.13"/></g></g></g><path class="cls-2" d="M183.06,157.84a.8.8,0,0,1,.62.13.43.43,0,0,1,.33.26,1.28,1.28,0,0,1,.06,1c-3.83,12-5,20.75-3.15,26.14a40.31,40.31,0,0,0,7,13.27l10.54-8.21a2.37,2.37,0,0,1,1.17-.53,1.65,1.65,0,0,1,1.27.31,2.16,2.16,0,0,1,.78,2.47l-9.09,34a2.66,2.66,0,0,1-2.07,2,2.18,2.18,0,0,1-.51,0l-29.9-3.61a1.88,1.88,0,0,1-1.71-1.74,2.69,2.69,0,0,1,1.07-2.53l9.84-7.67c-4.54-8.22-5.58-17.47-3.16-27.53a55.08,55.08,0,0,1,16.23-27.48A1.4,1.4,0,0,1,183.06,157.84Z"/><g class="cls-3"><path class="cls-1" d="M169.33,213.13l-8.73-4.75c-4.54-8.22-5.57-17.46-3.16-27.53a55.15,55.15,0,0,1,16.23-27.48l8.73,4.75a55.08,55.08,0,0,0-16.23,27.48C163.75,195.66,164.79,204.91,169.33,213.13Z"/><g class="cls-27"><g class="cls-3"><path class="cls-1" d="M169.33,213.13l-8.73-4.75c-4.54-8.22-5.57-17.46-3.16-27.53a54.92,54.92,0,0,1,1.82-6l8.73,4.75a52.81,52.81,0,0,0-1.82,6c-2.42,10.06-1.38,19.31,3.16,27.53"/><path class="cls-1" d="M168,179.59l-8.73-4.75a53,53,0,0,1,3.07-6.83l8.73,4.75a53,53,0,0,0-3.07,6.83"/><path class="cls-1" d="M171.06,172.76,162.33,168a53.77,53.77,0,0,1,3.4-5.49l8.73,4.74a55,55,0,0,0-3.4,5.5"/><path class="cls-1" d="M174.46,167.26l-8.73-4.74a56.94,56.94,0,0,1,4-5.1l8.73,4.75a58.27,58.27,0,0,0-4,5.09"/><path class="cls-1" d="M178.48,162.17l-8.73-4.75q1.84-2.08,3.92-4l8.73,4.75q-2.07,2-3.92,4"/></g></g></g></g><g class="cls-28"><polygon class="cls-29" points="138.96 384.45 166.78 400.35 192.63 385.43 164.93 369.43 138.96 384.45"/><polygon class="cls-30" points="138.96 384.45 166.14 399.99 191.99 385.06 164.93 369.43 138.96 384.45"/><polygon class="cls-31" points="138.96 384.45 165.49 399.62 191.35 384.69 164.93 369.43 138.96 384.45"/><polygon class="cls-32" points="138.96 384.45 164.85 399.25 190.71 384.31 164.93 369.43 138.96 384.45"/><polygon class="cls-33" points="138.96 384.45 164.21 398.88 190.07 383.94 164.93 369.43 138.96 384.45"/><polygon class="cls-34" points="138.96 384.45 163.56 398.51 189.42 383.57 164.93 369.43 138.96 384.45"/><polygon class="cls-35" points="138.96 384.45 162.92 398.15 188.78 383.2 164.93 369.43 138.96 384.45"/><polygon class="cls-36" points="138.96 384.45 162.28 397.78 188.14 382.83 164.93 369.43 138.96 384.45"/><polygon class="cls-37" points="138.96 384.45 161.63 397.41 187.5 382.46 164.93 369.43 138.96 384.45"/><polygon class="cls-38" points="138.96 384.45 160.99 397.04 186.86 382.09 164.93 369.43 138.96 384.45"/><polygon class="cls-39" points="138.96 384.45 160.35 396.68 186.21 381.72 164.93 369.43 138.96 384.45"/><polygon class="cls-40" points="138.96 384.45 159.7 396.31 185.57 381.35 164.93 369.43 138.96 384.45"/><polygon class="cls-41" points="138.96 384.45 159.06 395.94 184.93 380.98 164.93 369.43 138.96 384.45"/><polygon class="cls-42" points="138.96 384.45 158.42 395.57 184.29 380.61 164.93 369.43 138.96 384.45"/><polygon class="cls-43" points="138.96 384.45 157.77 395.21 183.65 380.24 164.93 369.43 138.96 384.45"/><polygon class="cls-44" points="138.96 384.45 157.13 394.84 183 379.87 164.93 369.43 138.96 384.45"/><polygon class="cls-45" points="138.96 384.45 156.49 394.47 182.36 379.5 164.93 369.43 138.96 384.45"/><polygon class="cls-46" points="138.96 384.45 155.84 394.1 181.72 379.13 164.93 369.43 138.96 384.45"/><polygon class="cls-47" points="138.96 384.45 155.2 393.74 181.08 378.76 164.93 369.43 138.96 384.45"/><polygon class="cls-48" points="138.96 384.45 154.56 393.37 180.44 378.38 164.93 369.43 138.96 384.45"/><polygon class="cls-49" points="138.96 384.45 153.91 393 179.79 378.01 164.93 369.43 138.96 384.45"/><polygon class="cls-50" points="138.96 384.45 153.27 392.63 179.15 377.64 164.93 369.43 138.96 384.45"/><polygon class="cls-51" points="138.96 384.45 152.63 392.26 178.51 377.27 164.93 369.43 138.96 384.45"/><polygon class="cls-52" points="138.96 384.45 151.98 391.9 177.87 376.9 164.93 369.43 138.96 384.45"/><polygon class="cls-53" points="138.96 384.45 151.34 391.53 177.23 376.53 164.93 369.43 138.96 384.45"/><polygon class="cls-54" points="138.96 384.45 150.7 391.16 176.59 376.16 164.93 369.43 138.96 384.45"/><polygon class="cls-55" points="138.96 384.45 150.05 390.79 175.94 375.79 164.93 369.43 138.96 384.45"/><polygon class="cls-56" points="138.96 384.45 149.41 390.43 175.3 375.42 164.93 369.43 138.96 384.45"/><polygon class="cls-57" points="138.96 384.45 148.77 390.06 174.66 375.05 164.93 369.43 138.96 384.45"/><polygon class="cls-58" points="138.96 384.45 148.12 389.69 174.02 374.68 164.93 369.43 138.96 384.45"/><polygon class="cls-59" points="138.96 384.45 147.48 389.32 173.38 374.31 164.93 369.43 138.96 384.45"/><polygon class="cls-60" points="138.96 384.45 146.84 388.95 172.73 373.94 164.93 369.43 138.96 384.45"/><polygon class="cls-61" points="138.96 384.45 146.19 388.59 172.09 373.57 164.93 369.43 138.96 384.45"/><polygon class="cls-62" points="138.96 384.45 145.55 388.22 171.45 373.2 164.93 369.43 138.96 384.45"/><polygon class="cls-63" points="138.96 384.45 144.91 387.85 170.81 372.83 164.93 369.43 138.96 384.45"/><polygon class="cls-64" points="138.96 384.45 144.26 387.48 170.17 372.45 164.93 369.43 138.96 384.45"/><polygon class="cls-65" points="138.96 384.45 143.62 387.12 169.52 372.08 164.93 369.43 138.96 384.45"/><polygon class="cls-66" points="138.96 384.45 142.98 386.75 168.88 371.71 164.93 369.43 138.96 384.45"/><polygon class="cls-67" points="138.96 384.45 142.33 386.38 168.24 371.34 164.93 369.43 138.96 384.45"/><polygon class="cls-68" points="138.96 384.45 141.69 386.01 167.6 370.97 164.93 369.43 138.96 384.45"/><polygon class="cls-69" points="138.96 384.45 141.05 385.64 166.96 370.6 164.93 369.43 138.96 384.45"/><polygon class="cls-70" points="138.96 384.45 140.41 385.28 166.31 370.23 164.93 369.43 138.96 384.45"/></g><polygon class="cls-71" points="170.09 260.42 143.68 245.17 117.92 260.42 143.68 275.67 170.09 260.42"/><polygon class="cls-11" points="170.09 260.42 170.09 372.97 143.68 387.39 143.68 275.67 170.09 260.42"/><polygon class="cls-72" points="117.92 260.42 117.92 372.14 143.68 387.39 143.68 275.67 117.92 260.42"/><g class="cls-28"><polygon class="cls-29" points="169.24 402.44 197.07 418.34 222.92 403.41 195.21 387.42 169.24 402.44"/><polygon class="cls-30" points="169.24 402.44 196.42 417.97 222.28 403.04 195.21 387.42 169.24 402.44"/><polygon class="cls-31" points="169.24 402.44 195.78 417.61 221.64 402.67 195.21 387.42 169.24 402.44"/><polygon class="cls-32" points="169.24 402.44 195.14 417.24 220.99 402.3 195.21 387.42 169.24 402.44"/><polygon class="cls-33" points="169.24 402.44 194.49 416.87 220.35 401.93 195.21 387.42 169.24 402.44"/><polygon class="cls-34" points="169.24 402.44 193.85 416.5 219.71 401.56 195.21 387.42 169.24 402.44"/><polygon class="cls-35" points="169.24 402.44 193.21 416.13 219.07 401.19 195.21 387.42 169.24 402.44"/><polygon class="cls-36" points="169.24 402.44 192.56 415.77 218.43 400.82 195.21 387.42 169.24 402.44"/><polygon class="cls-37" points="169.24 402.44 191.92 415.4 217.78 400.45 195.21 387.42 169.24 402.44"/><polygon class="cls-38" points="169.24 402.44 191.28 415.03 217.14 400.08 195.21 387.42 169.24 402.44"/><polygon class="cls-39" points="169.24 402.44 190.63 414.66 216.5 399.71 195.21 387.42 169.24 402.44"/><polygon class="cls-40" points="169.24 402.44 189.99 414.3 215.86 399.34 195.21 387.42 169.24 402.44"/><polygon class="cls-41" points="169.24 402.44 189.35 413.93 215.22 398.97 195.21 387.42 169.24 402.44"/><polygon class="cls-42" points="169.24 402.44 188.7 413.56 214.57 398.6 195.21 387.42 169.24 402.44"/><polygon class="cls-43" points="169.24 402.44 188.06 413.19 213.93 398.23 195.21 387.42 169.24 402.44"/><polygon class="cls-44" points="169.24 402.44 187.42 412.82 213.29 397.86 195.21 387.42 169.24 402.44"/><polygon class="cls-45" points="169.24 402.44 186.77 412.46 212.65 397.48 195.21 387.42 169.24 402.44"/><polygon class="cls-46" points="169.24 402.44 186.13 412.09 212.01 397.11 195.21 387.42 169.24 402.44"/><polygon class="cls-47" points="169.24 402.44 185.49 411.72 211.37 396.74 195.21 387.42 169.24 402.44"/><polygon class="cls-48" points="169.24 402.44 184.84 411.35 210.72 396.37 195.21 387.42 169.24 402.44"/><polygon class="cls-49" points="169.24 402.44 184.2 410.99 210.08 396 195.21 387.42 169.24 402.44"/><polygon class="cls-50" points="169.24 402.44 183.56 410.62 209.44 395.63 195.21 387.42 169.24 402.44"/><polygon class="cls-51" points="169.24 402.44 182.91 410.25 208.8 395.26 195.21 387.42 169.24 402.44"/><polygon class="cls-52" points="169.24 402.44 182.27 409.88 208.16 394.89 195.21 387.42 169.24 402.44"/><polygon class="cls-53" points="169.24 402.44 181.63 409.51 207.51 394.52 195.21 387.42 169.24 402.44"/><polygon class="cls-54" points="169.24 402.44 180.98 409.15 206.87 394.15 195.21 387.42 169.24 402.44"/><polygon class="cls-55" points="169.24 402.44 180.34 408.78 206.23 393.78 195.21 387.42 169.24 402.44"/><polygon class="cls-56" points="169.24 402.44 179.7 408.41 205.59 393.41 195.21 387.42 169.24 402.44"/><polygon class="cls-57" points="169.24 402.44 179.05 408.05 204.94 393.04 195.21 387.42 169.24 402.44"/><polygon class="cls-58" points="169.24 402.44 178.41 407.68 204.3 392.67 195.21 387.42 169.24 402.44"/><polygon class="cls-59" points="169.24 402.44 177.77 407.31 203.66 392.3 195.21 387.42 169.24 402.44"/><polygon class="cls-60" points="169.24 402.44 177.12 406.94 203.02 391.93 195.21 387.42 169.24 402.44"/><polygon class="cls-61" points="169.24 402.44 176.48 406.57 202.38 391.56 195.21 387.42 169.24 402.44"/><polygon class="cls-62" points="169.24 402.44 175.84 406.21 201.74 391.18 195.21 387.42 169.24 402.44"/><polygon class="cls-63" points="169.24 402.44 175.19 405.84 201.09 390.81 195.21 387.42 169.24 402.44"/><polygon class="cls-64" points="169.24 402.44 174.55 405.47 200.45 390.44 195.21 387.42 169.24 402.44"/><polygon class="cls-65" points="169.24 402.44 173.91 405.1 199.81 390.07 195.21 387.42 169.24 402.44"/><polygon class="cls-66" points="169.24 402.44 173.26 404.74 199.17 389.7 195.21 387.42 169.24 402.44"/><polygon class="cls-67" points="169.24 402.44 172.62 404.37 198.53 389.33 195.21 387.42 169.24 402.44"/><polygon class="cls-68" points="169.24 402.44 171.98 404 197.88 388.96 195.21 387.42 169.24 402.44"/><polygon class="cls-69" points="169.24 402.44 171.33 403.63 197.24 388.59 195.21 387.42 169.24 402.44"/><polygon class="cls-70" points="169.24 402.44 170.69 403.26 196.6 388.22 195.21 387.42 169.24 402.44"/></g><polygon class="cls-10" points="203.16 312.39 176.75 297.14 150.99 312.39 176.75 327.64 203.16 312.39"/><polygon class="cls-1" points="203.16 312.39 203.16 392.24 176.75 406.67 176.75 327.64 203.16 312.39"/><polygon class="cls-2" points="150.99 312.39 150.99 391.42 176.75 406.67 176.75 327.64 150.99 312.39"/><g class="cls-28"><polygon class="cls-29" points="211.53 426.75 239.36 442.66 265.21 427.73 237.51 411.73 211.53 426.75"/><polygon class="cls-30" points="211.53 426.75 238.72 442.29 264.57 427.36 237.51 411.73 211.53 426.75"/><polygon class="cls-31" points="211.53 426.75 238.07 441.92 263.93 426.99 237.51 411.73 211.53 426.75"/><polygon class="cls-32" points="211.53 426.75 237.43 441.55 263.29 426.62 237.51 411.73 211.53 426.75"/><polygon class="cls-33" points="211.53 426.75 236.78 441.19 262.64 426.25 237.51 411.73 211.53 426.75"/><polygon class="cls-34" points="211.53 426.75 236.14 440.82 262 425.88 237.51 411.73 211.53 426.75"/><polygon class="cls-35" points="211.53 426.75 235.5 440.45 261.36 425.5 237.51 411.73 211.53 426.75"/><polygon class="cls-36" points="211.53 426.75 234.85 440.08 260.72 425.13 237.51 411.73 211.53 426.75"/><polygon class="cls-37" points="211.53 426.75 234.21 439.71 260.08 424.76 237.51 411.73 211.53 426.75"/><polygon class="cls-38" points="211.53 426.75 233.57 439.35 259.44 424.39 237.51 411.73 211.53 426.75"/><polygon class="cls-39" points="211.53 426.75 232.93 438.98 258.79 424.02 237.51 411.73 211.53 426.75"/><polygon class="cls-40" points="211.53 426.75 232.28 438.61 258.15 423.65 237.51 411.73 211.53 426.75"/><polygon class="cls-41" points="211.53 426.75 231.64 438.24 257.51 423.28 237.51 411.73 211.53 426.75"/><polygon class="cls-42" points="211.53 426.75 231 437.88 256.87 422.91 237.51 411.73 211.53 426.75"/><polygon class="cls-43" points="211.53 426.75 230.35 437.51 256.23 422.54 237.51 411.73 211.53 426.75"/><polygon class="cls-44" points="211.53 426.75 229.71 437.14 255.58 422.17 237.51 411.73 211.53 426.75"/><polygon class="cls-45" points="211.53 426.75 229.07 436.77 254.94 421.8 237.51 411.73 211.53 426.75"/><polygon class="cls-46" points="211.53 426.75 228.42 436.4 254.3 421.43 237.51 411.73 211.53 426.75"/><polygon class="cls-47" points="211.53 426.75 227.78 436.04 253.66 421.06 237.51 411.73 211.53 426.75"/><polygon class="cls-48" points="211.53 426.75 227.14 435.67 253.02 420.69 237.51 411.73 211.53 426.75"/><polygon class="cls-49" points="211.53 426.75 226.49 435.3 252.37 420.32 237.51 411.73 211.53 426.75"/><polygon class="cls-50" points="211.53 426.75 225.85 434.93 251.73 419.94 237.51 411.73 211.53 426.75"/><polygon class="cls-51" points="211.53 426.75 225.21 434.56 251.09 419.57 237.51 411.73 211.53 426.75"/><polygon class="cls-52" points="211.53 426.75 224.56 434.2 250.45 419.2 237.51 411.73 211.53 426.75"/><polygon class="cls-53" points="211.53 426.75 223.92 433.83 249.81 418.83 237.51 411.73 211.53 426.75"/><polygon class="cls-54" points="211.53 426.75 223.28 433.46 249.16 418.46 237.51 411.73 211.53 426.75"/><polygon class="cls-55" points="211.53 426.75 222.63 433.1 248.52 418.09 237.51 411.73 211.53 426.75"/><polygon class="cls-56" points="211.53 426.75 221.99 432.73 247.88 417.72 237.51 411.73 211.53 426.75"/><polygon class="cls-57" points="211.53 426.75 221.35 432.36 247.24 417.35 237.51 411.73 211.53 426.75"/><polygon class="cls-58" points="211.53 426.75 220.7 431.99 246.6 416.98 237.51 411.73 211.53 426.75"/><polygon class="cls-59" points="211.53 426.75 220.06 431.62 245.96 416.61 237.51 411.73 211.53 426.75"/><polygon class="cls-60" points="211.53 426.75 219.42 431.26 245.31 416.24 237.51 411.73 211.53 426.75"/><polygon class="cls-61" points="211.53 426.75 218.77 430.89 244.67 415.87 237.51 411.73 211.53 426.75"/><polygon class="cls-62" points="211.53 426.75 218.13 430.52 244.03 415.5 237.51 411.73 211.53 426.75"/><polygon class="cls-63" points="211.53 426.75 217.49 430.15 243.39 415.13 237.51 411.73 211.53 426.75"/><polygon class="cls-64" points="211.53 426.75 216.84 429.79 242.75 414.76 237.51 411.73 211.53 426.75"/><polygon class="cls-65" points="211.53 426.75 216.2 429.42 242.1 414.39 237.51 411.73 211.53 426.75"/><polygon class="cls-66" points="211.53 426.75 215.56 429.05 241.46 414.02 237.51 411.73 211.53 426.75"/><polygon class="cls-67" points="211.53 426.75 214.91 428.68 240.82 413.64 237.51 411.73 211.53 426.75"/><polygon class="cls-68" points="211.53 426.75 214.27 428.31 240.18 413.27 237.51 411.73 211.53 426.75"/><polygon class="cls-69" points="211.53 426.75 213.63 427.95 239.53 412.9 237.51 411.73 211.53 426.75"/><polygon class="cls-70" points="211.53 426.75 212.98 427.58 238.89 412.53 237.51 411.73 211.53 426.75"/></g><polygon class="cls-73" points="238.37 355.57 211.97 340.97 186.21 355.57 211.97 370.81 238.37 355.57"/><polygon class="cls-74" points="238.37 355.57 238.37 412.57 211.97 426.99 211.97 370.81 238.37 355.57"/><polygon class="cls-75" points="186.21 355.57 186.21 411.75 211.97 426.99 211.97 370.81 186.21 355.57"/><path class="cls-76" d="M495.09,315.05c29.79-17.21,78.55-17.21,108.35,0s29.79,45.35,0,62.55-78.56,17.21-108.35,0S465.29,332.25,495.09,315.05Z"/><path class="cls-77" d="M592.74,326.64h-7.21a47.08,47.08,0,0,0-11.6-9.16c-25.09-14.48-66.14-14.48-91.22,0a46.89,46.89,0,0,0-11.6,9.16h-7.22v17h0c-.06,9.59,6.2,19.2,18.81,26.47,25.08,14.49,66.13,14.49,91.22,0,12.6-7.27,18.87-16.88,18.81-26.47h0Z"/><path class="cls-1" d="M482.71,317.48a46.89,46.89,0,0,0-11.6,9.16h-7.22v17h0c-.06,9.59,6.2,19.2,18.81,26.47.38.23.79.44,1.18.65V353.62l12.38-42.11A72.75,72.75,0,0,0,482.71,317.48Z"/><path class="cls-78" d="M482.71,300.31c25.08-14.49,66.13-14.49,91.22,0s25.09,38.18,0,52.67-66.14,14.48-91.22,0S457.62,314.79,482.71,300.31Z"/><path class="cls-10" d="M528.32,289.44c-16.54,0-33.07,3.63-45.61,10.87-25.09,14.48-25.09,38.18,0,52.67.38.22.79.43,1.18.64l44.43-21.14Z"/><path class="cls-11" d="M464.75,332.48h63.57v-43c-16.54,0-33.07,3.63-45.61,10.87C467.59,309,461.65,321.1,464.75,332.48Z"/><path class="cls-79" d="M287.46,259.26l.08-.06,44.57-25.73a3.81,3.81,0,0,1,3.81,0l44.56,25.73.09.06a1.87,1.87,0,0,0-.09-3.19l-44.56-25.73a3.81,3.81,0,0,0-3.81,0l-44.57,25.73A1.87,1.87,0,0,0,287.46,259.26Z"/><path class="cls-11" d="M331.33,221.84l-62.74,36.22a2.66,2.66,0,0,0,0,4.59l62.74,36.22a5.35,5.35,0,0,0,5.36,0l62.74-36.22a2.65,2.65,0,0,0,0-4.59l-62.74-36.22A5.35,5.35,0,0,0,331.33,221.84Z"/><path class="cls-11" d="M399.43,259.7l-62.74,36.22a5.35,5.35,0,0,1-5.36,0L268.59,259.7a2.48,2.48,0,0,1-.85-.82,2.63,2.63,0,0,0,.85,3.77l62.74,36.22a5.35,5.35,0,0,0,5.36,0l62.74-36.22a2.64,2.64,0,0,0,.86-3.77A2.6,2.6,0,0,1,399.43,259.7Z"/><path class="cls-80" d="M332.11,230.34l-44.57,25.73a1.89,1.89,0,0,0,0,3.26l44.57,25.73a3.81,3.81,0,0,0,3.81,0l44.56-25.73a1.88,1.88,0,0,0,0-3.26l-44.56-25.73A3.81,3.81,0,0,0,332.11,230.34Z"/><g class="cls-81"><path class="cls-10" d="M333.22,231.22,291.5,255.31a1.76,1.76,0,0,0,0,3.05l41.72,24.08a3.54,3.54,0,0,0,3.56,0l41.72-24.08a1.76,1.76,0,0,0,0-3.05l-41.72-24.09A3.59,3.59,0,0,0,333.22,231.22Z"/><path class="cls-82" d="M333.22,230.34,291.5,254.43a1.76,1.76,0,0,0,0,3.05l41.72,24.08a3.54,3.54,0,0,0,3.56,0l41.72-24.08a1.76,1.76,0,0,0,0-3.05l-41.72-24.09A3.59,3.59,0,0,0,333.22,230.34Z"/><path class="cls-83" d="M333.22,229.46,291.5,253.54a1.77,1.77,0,0,0,0,3.06l41.72,24.08a3.54,3.54,0,0,0,3.56,0L378.5,256.6a1.77,1.77,0,0,0,0-3.06l-41.72-24.08A3.54,3.54,0,0,0,333.22,229.46Z"/><path class="cls-84" d="M333.22,228.58,291.5,252.66a1.76,1.76,0,0,0,0,3.05l41.72,24.09a3.59,3.59,0,0,0,3.56,0l41.72-24.09a1.76,1.76,0,0,0,0-3.05l-41.72-24.08A3.54,3.54,0,0,0,333.22,228.58Z"/><path class="cls-85" d="M333.22,227.7,291.5,251.78a1.76,1.76,0,0,0,0,3.05l41.72,24.09a3.59,3.59,0,0,0,3.56,0l41.72-24.09a1.76,1.76,0,0,0,0-3.05L336.78,227.7A3.54,3.54,0,0,0,333.22,227.7Z"/><path class="cls-86" d="M333.22,226.81,291.5,250.9a1.76,1.76,0,0,0,0,3L333.22,278a3.54,3.54,0,0,0,3.56,0L378.5,254a1.76,1.76,0,0,0,0-3l-41.72-24.09A3.59,3.59,0,0,0,333.22,226.81Z"/><path class="cls-87" d="M333.22,225.93,291.5,250a1.76,1.76,0,0,0,0,3l41.72,24.08a3.54,3.54,0,0,0,3.56,0l41.72-24.08a1.76,1.76,0,0,0,0-3l-41.72-24.09A3.54,3.54,0,0,0,333.22,225.93Z"/><path class="cls-88" d="M333.22,225.05,291.5,249.13a1.77,1.77,0,0,0,0,3.06l41.72,24.08a3.54,3.54,0,0,0,3.56,0l41.72-24.08a1.77,1.77,0,0,0,0-3.06l-41.72-24.08A3.54,3.54,0,0,0,333.22,225.05Z"/><path class="cls-89" d="M333.22,224.17,291.5,248.25a1.76,1.76,0,0,0,0,3.05l41.72,24.09a3.59,3.59,0,0,0,3.56,0L378.5,251.3a1.76,1.76,0,0,0,0-3.05l-41.72-24.08A3.54,3.54,0,0,0,333.22,224.17Z"/><path class="cls-90" d="M333.22,223.29,291.5,247.37a1.76,1.76,0,0,0,0,3l41.72,24.09a3.59,3.59,0,0,0,3.56,0l41.72-24.09a1.76,1.76,0,0,0,0-3l-41.72-24.08A3.54,3.54,0,0,0,333.22,223.29Z"/><path class="cls-91" d="M333.22,222.4,291.5,246.49a1.76,1.76,0,0,0,0,3l41.72,24.08a3.54,3.54,0,0,0,3.56,0l41.72-24.08a1.76,1.76,0,0,0,0-3L336.78,222.4A3.59,3.59,0,0,0,333.22,222.4Z"/><path class="cls-92" d="M333.22,221.52,291.5,245.61a1.76,1.76,0,0,0,0,3l41.72,24.08a3.54,3.54,0,0,0,3.56,0l41.72-24.08a1.76,1.76,0,0,0,0-3l-41.72-24.09A3.54,3.54,0,0,0,333.22,221.52Z"/><path class="cls-93" d="M333.22,220.64,291.5,244.72a1.77,1.77,0,0,0,0,3.06l41.72,24.08a3.54,3.54,0,0,0,3.56,0l41.72-24.08a1.77,1.77,0,0,0,0-3.06l-41.72-24.08A3.54,3.54,0,0,0,333.22,220.64Z"/><path class="cls-94" d="M333.22,219.76,291.5,243.84a1.76,1.76,0,0,0,0,3L333.22,271a3.59,3.59,0,0,0,3.56,0l41.72-24.09a1.76,1.76,0,0,0,0-3l-41.72-24.08A3.54,3.54,0,0,0,333.22,219.76Z"/><path class="cls-95" d="M333.22,218.88,291.5,243a1.76,1.76,0,0,0,0,3l41.72,24.09a3.59,3.59,0,0,0,3.56,0L378.5,246a1.76,1.76,0,0,0,0-3l-41.72-24.08A3.54,3.54,0,0,0,333.22,218.88Z"/><path class="cls-96" d="M333.22,218,291.5,242.08a1.76,1.76,0,0,0,0,3l41.72,24.08a3.54,3.54,0,0,0,3.56,0l41.72-24.08a1.76,1.76,0,0,0,0-3L336.78,218A3.59,3.59,0,0,0,333.22,218Z"/><path class="cls-97" d="M333.22,217.11,291.5,241.2a1.76,1.76,0,0,0,0,3.05l41.72,24.08a3.54,3.54,0,0,0,3.56,0l41.72-24.08a1.76,1.76,0,0,0,0-3.05l-41.72-24.09A3.54,3.54,0,0,0,333.22,217.11Z"/><path class="cls-98" d="M333.22,216.23,291.5,240.31a1.77,1.77,0,0,0,0,3.06l41.72,24.08a3.54,3.54,0,0,0,3.56,0l41.72-24.08a1.77,1.77,0,0,0,0-3.06l-41.72-24.08A3.54,3.54,0,0,0,333.22,216.23Z"/><path class="cls-99" d="M333.22,215.35,291.5,239.43a1.76,1.76,0,0,0,0,3l41.72,24.09a3.59,3.59,0,0,0,3.56,0l41.72-24.09a1.76,1.76,0,0,0,0-3l-41.72-24.08A3.54,3.54,0,0,0,333.22,215.35Z"/><path class="cls-100" d="M333.22,214.47,291.5,238.55a1.76,1.76,0,0,0,0,3l41.72,24.09a3.59,3.59,0,0,0,3.56,0L378.5,241.6a1.76,1.76,0,0,0,0-3l-41.72-24.08A3.54,3.54,0,0,0,333.22,214.47Z"/><path class="cls-101" d="M333.22,213.58,291.5,237.67a1.76,1.76,0,0,0,0,3.05l41.72,24.08a3.54,3.54,0,0,0,3.56,0l41.72-24.08a1.76,1.76,0,0,0,0-3.05l-41.72-24.09A3.59,3.59,0,0,0,333.22,213.58Z"/><path class="cls-102" d="M333.22,212.7,291.5,236.79a1.76,1.76,0,0,0,0,3.05l41.72,24.08a3.54,3.54,0,0,0,3.56,0l41.72-24.08a1.76,1.76,0,0,0,0-3.05L336.78,212.7A3.54,3.54,0,0,0,333.22,212.7Z"/><path class="cls-103" d="M333.22,211.82,291.5,235.9a1.76,1.76,0,0,0,0,3L333.22,263a3.54,3.54,0,0,0,3.56,0L378.5,239a1.76,1.76,0,0,0,0-3l-41.72-24.08A3.54,3.54,0,0,0,333.22,211.82Z"/><path class="cls-104" d="M333.22,210.94,291.5,235a1.76,1.76,0,0,0,0,3l41.72,24.09a3.59,3.59,0,0,0,3.56,0l41.72-24.09a1.76,1.76,0,0,0,0-3l-41.72-24.08A3.54,3.54,0,0,0,333.22,210.94Z"/><path class="cls-105" d="M333.22,210.05,291.5,234.14a1.76,1.76,0,0,0,0,3.05l41.72,24.09a3.59,3.59,0,0,0,3.56,0l41.72-24.09a1.76,1.76,0,0,0,0-3.05l-41.72-24.09A3.59,3.59,0,0,0,333.22,210.05Z"/><path class="cls-106" d="M333.22,209.17,291.5,233.26a1.76,1.76,0,0,0,0,3.05l41.72,24.08a3.54,3.54,0,0,0,3.56,0l41.72-24.08a1.76,1.76,0,0,0,0-3.05l-41.72-24.09A3.59,3.59,0,0,0,333.22,209.17Z"/><path class="cls-107" d="M333.22,208.29,291.5,232.37a1.77,1.77,0,0,0,0,3.06l41.72,24.08a3.54,3.54,0,0,0,3.56,0l41.72-24.08a1.77,1.77,0,0,0,0-3.06l-41.72-24.08A3.54,3.54,0,0,0,333.22,208.29Z"/><path class="cls-108" d="M333.22,207.41,291.5,231.49a1.76,1.76,0,0,0,0,3l41.72,24.09a3.54,3.54,0,0,0,3.56,0l41.72-24.09a1.76,1.76,0,0,0,0-3l-41.72-24.08A3.54,3.54,0,0,0,333.22,207.41Z"/><path class="cls-109" d="M333.22,206.53,291.5,230.61a1.76,1.76,0,0,0,0,3l41.72,24.09a3.59,3.59,0,0,0,3.56,0l41.72-24.09a1.76,1.76,0,0,0,0-3l-41.72-24.08A3.54,3.54,0,0,0,333.22,206.53Z"/><path class="cls-110" d="M333.22,205.64,291.5,229.73a1.76,1.76,0,0,0,0,3.05l41.72,24.08a3.54,3.54,0,0,0,3.56,0l41.72-24.08a1.76,1.76,0,0,0,0-3.05l-41.72-24.09A3.59,3.59,0,0,0,333.22,205.64Z"/><path class="cls-111" d="M333.22,204.76,291.5,228.85a1.76,1.76,0,0,0,0,3.05L333.22,256a3.54,3.54,0,0,0,3.56,0L378.5,231.9a1.76,1.76,0,0,0,0-3.05l-41.72-24.09A3.59,3.59,0,0,0,333.22,204.76Z"/><path class="cls-112" d="M333.22,203.88,291.5,228a1.77,1.77,0,0,0,0,3.06l41.72,24.08a3.54,3.54,0,0,0,3.56,0L378.5,231a1.77,1.77,0,0,0,0-3.06l-41.72-24.08A3.54,3.54,0,0,0,333.22,203.88Z"/><path class="cls-113" d="M333.22,203,291.5,227.08a1.76,1.76,0,0,0,0,3l41.72,24.09a3.54,3.54,0,0,0,3.56,0l41.72-24.09a1.76,1.76,0,0,0,0-3L336.78,203A3.54,3.54,0,0,0,333.22,203Z"/><path class="cls-114" d="M333.22,202.12,291.5,226.2a1.76,1.76,0,0,0,0,3.05l41.72,24.09a3.59,3.59,0,0,0,3.56,0l41.72-24.09a1.76,1.76,0,0,0,0-3.05l-41.72-24.08A3.54,3.54,0,0,0,333.22,202.12Z"/><path class="cls-115" d="M333.22,201.23,291.5,225.32a1.76,1.76,0,0,0,0,3.05l41.72,24.08a3.54,3.54,0,0,0,3.56,0l41.72-24.08a1.76,1.76,0,0,0,0-3.05l-41.72-24.09A3.59,3.59,0,0,0,333.22,201.23Z"/><path class="cls-116" d="M333.22,200.35,291.5,224.44a1.76,1.76,0,0,0,0,3.05l41.72,24.08a3.54,3.54,0,0,0,3.56,0l41.72-24.08a1.76,1.76,0,0,0,0-3.05l-41.72-24.09A3.59,3.59,0,0,0,333.22,200.35Z"/><path class="cls-117" d="M333.22,199.47,291.5,223.55a1.77,1.77,0,0,0,0,3.06l41.72,24.08a3.54,3.54,0,0,0,3.56,0l41.72-24.08a1.77,1.77,0,0,0,0-3.06l-41.72-24.08A3.54,3.54,0,0,0,333.22,199.47Z"/><path class="cls-118" d="M333.22,198.59,291.5,222.67a1.76,1.76,0,0,0,0,3.05l41.72,24.09a3.54,3.54,0,0,0,3.56,0l41.72-24.09a1.76,1.76,0,0,0,0-3.05l-41.72-24.08A3.54,3.54,0,0,0,333.22,198.59Z"/><path class="cls-119" d="M333.22,197.71,291.5,221.79a1.76,1.76,0,0,0,0,3.05l41.72,24.09a3.59,3.59,0,0,0,3.56,0l41.72-24.09a1.76,1.76,0,0,0,0-3.05l-41.72-24.08A3.54,3.54,0,0,0,333.22,197.71Z"/><path class="cls-120" d="M333.22,196.82,291.5,220.91a1.76,1.76,0,0,0,0,3.05L333.22,248a3.54,3.54,0,0,0,3.56,0L378.5,224a1.76,1.76,0,0,0,0-3.05l-41.72-24.09A3.59,3.59,0,0,0,333.22,196.82Z"/><path class="cls-121" d="M333.22,195.94,291.5,220a1.76,1.76,0,0,0,0,3.05l41.72,24.08a3.54,3.54,0,0,0,3.56,0l41.72-24.08a1.76,1.76,0,0,0,0-3.05l-41.72-24.09A3.59,3.59,0,0,0,333.22,195.94Z"/><path class="cls-122" d="M333.22,195.06,291.5,219.14a1.77,1.77,0,0,0,0,3.06l41.72,24.08a3.54,3.54,0,0,0,3.56,0L378.5,222.2a1.77,1.77,0,0,0,0-3.06l-41.72-24.08A3.54,3.54,0,0,0,333.22,195.06Z"/><path class="cls-123" d="M333.22,194.18,291.5,218.26a1.76,1.76,0,0,0,0,3.05l41.72,24.09a3.59,3.59,0,0,0,3.56,0l41.72-24.09a1.76,1.76,0,0,0,0-3.05l-41.72-24.08A3.54,3.54,0,0,0,333.22,194.18Z"/><path class="cls-124" d="M333.22,193.3,291.5,217.38a1.76,1.76,0,0,0,0,3.05l41.72,24.09a3.59,3.59,0,0,0,3.56,0l41.72-24.09a1.76,1.76,0,0,0,0-3.05L336.78,193.3A3.54,3.54,0,0,0,333.22,193.3Z"/><path class="cls-125" d="M333.22,192.41,291.5,216.5a1.76,1.76,0,0,0,0,3.05l41.72,24.08a3.54,3.54,0,0,0,3.56,0l41.72-24.08a1.76,1.76,0,0,0,0-3.05l-41.72-24.09A3.59,3.59,0,0,0,333.22,192.41Z"/><path class="cls-126" d="M333.22,191.53,291.5,215.62a1.76,1.76,0,0,0,0,3l41.72,24.08a3.54,3.54,0,0,0,3.56,0l41.72-24.08a1.76,1.76,0,0,0,0-3l-41.72-24.09A3.59,3.59,0,0,0,333.22,191.53Z"/><path class="cls-127" d="M333.22,190.65,291.5,214.73a1.77,1.77,0,0,0,0,3.06l41.72,24.08a3.54,3.54,0,0,0,3.56,0l41.72-24.08a1.77,1.77,0,0,0,0-3.06l-41.72-24.08A3.54,3.54,0,0,0,333.22,190.65Z"/><path class="cls-128" d="M333.22,189.77,291.5,213.85a1.76,1.76,0,0,0,0,3.05L333.22,241a3.59,3.59,0,0,0,3.56,0L378.5,216.9a1.76,1.76,0,0,0,0-3.05l-41.72-24.08A3.54,3.54,0,0,0,333.22,189.77Z"/><path class="cls-129" d="M333.22,188.89,291.5,213a1.76,1.76,0,0,0,0,3.05l41.72,24.09a3.59,3.59,0,0,0,3.56,0L378.5,216a1.76,1.76,0,0,0,0-3.05l-41.72-24.08A3.54,3.54,0,0,0,333.22,188.89Z"/><path class="cls-130" d="M333.22,188,291.5,212.09a1.76,1.76,0,0,0,0,3l41.72,24.08a3.54,3.54,0,0,0,3.56,0l41.72-24.08a1.76,1.76,0,0,0,0-3L336.78,188A3.59,3.59,0,0,0,333.22,188Z"/><path class="cls-131" d="M333.22,187.12,291.5,211.21a1.76,1.76,0,0,0,0,3l41.72,24.08a3.54,3.54,0,0,0,3.56,0l41.72-24.08a1.76,1.76,0,0,0,0-3l-41.72-24.09A3.59,3.59,0,0,0,333.22,187.12Z"/><path class="cls-132" d="M333.22,186.24,291.5,210.32a1.77,1.77,0,0,0,0,3.06l41.72,24.08a3.54,3.54,0,0,0,3.56,0l41.72-24.08a1.77,1.77,0,0,0,0-3.06l-41.72-24.08A3.54,3.54,0,0,0,333.22,186.24Z"/><path class="cls-133" d="M333.22,185.36,291.5,209.44a1.76,1.76,0,0,0,0,3.05l41.72,24.09a3.59,3.59,0,0,0,3.56,0l41.72-24.09a1.76,1.76,0,0,0,0-3.05l-41.72-24.08A3.54,3.54,0,0,0,333.22,185.36Z"/><path class="cls-134" d="M333.22,184.48,291.5,208.56a1.76,1.76,0,0,0,0,3.05l41.72,24.09a3.59,3.59,0,0,0,3.56,0l41.72-24.09a1.76,1.76,0,0,0,0-3.05l-41.72-24.08A3.54,3.54,0,0,0,333.22,184.48Z"/><path class="cls-135" d="M333.22,183.59,291.5,207.68a1.76,1.76,0,0,0,0,3l41.72,24.08a3.54,3.54,0,0,0,3.56,0l41.72-24.08a1.76,1.76,0,0,0,0-3l-41.72-24.09A3.59,3.59,0,0,0,333.22,183.59Z"/><path class="cls-136" d="M333.22,182.71,291.5,206.8a1.76,1.76,0,0,0,0,3l41.72,24.08a3.54,3.54,0,0,0,3.56,0l41.72-24.08a1.76,1.76,0,0,0,0-3l-41.72-24.09A3.54,3.54,0,0,0,333.22,182.71Z"/><path class="cls-137" d="M333.22,181.83,291.5,205.91a1.77,1.77,0,0,0,0,3.06l41.72,24.08a3.54,3.54,0,0,0,3.56,0L378.5,209a1.77,1.77,0,0,0,0-3.06l-41.72-24.08A3.54,3.54,0,0,0,333.22,181.83Z"/><path class="cls-138" d="M333.22,181,291.5,205a1.76,1.76,0,0,0,0,3.05l41.72,24.09a3.59,3.59,0,0,0,3.56,0l41.72-24.09a1.76,1.76,0,0,0,0-3.05L336.78,181A3.54,3.54,0,0,0,333.22,181Z"/><path class="cls-139" d="M333.22,180.07,291.5,204.15a1.76,1.76,0,0,0,0,3l41.72,24.09a3.59,3.59,0,0,0,3.56,0L378.5,207.2a1.76,1.76,0,0,0,0-3l-41.72-24.08A3.54,3.54,0,0,0,333.22,180.07Z"/><path class="cls-140" d="M333.22,179.18,291.5,203.27a1.76,1.76,0,0,0,0,3l41.72,24.08a3.54,3.54,0,0,0,3.56,0l41.72-24.08a1.76,1.76,0,0,0,0-3l-41.72-24.09A3.59,3.59,0,0,0,333.22,179.18Z"/><path class="cls-141" d="M333.22,178.3,291.5,202.39a1.76,1.76,0,0,0,0,3.05l41.72,24.08a3.54,3.54,0,0,0,3.56,0l41.72-24.08a1.76,1.76,0,0,0,0-3.05L336.78,178.3A3.54,3.54,0,0,0,333.22,178.3Z"/><path class="cls-142" d="M333.22,177.42,291.5,201.5a1.77,1.77,0,0,0,0,3.06l41.72,24.08a3.54,3.54,0,0,0,3.56,0l41.72-24.08a1.77,1.77,0,0,0,0-3.06l-41.72-24.08A3.54,3.54,0,0,0,333.22,177.42Z"/><path class="cls-143" d="M333.22,176.54,291.5,200.62a1.76,1.76,0,0,0,0,3l41.72,24.09a3.59,3.59,0,0,0,3.56,0l41.72-24.09a1.76,1.76,0,0,0,0-3l-41.72-24.08A3.54,3.54,0,0,0,333.22,176.54Z"/><path class="cls-144" d="M333.22,175.66,291.5,199.74a1.76,1.76,0,0,0,0,3l41.72,24.09a3.59,3.59,0,0,0,3.56,0l41.72-24.09a1.76,1.76,0,0,0,0-3l-41.72-24.08A3.54,3.54,0,0,0,333.22,175.66Z"/><path class="cls-145" d="M333.22,174.77,291.5,198.86a1.76,1.76,0,0,0,0,3L333.22,226a3.54,3.54,0,0,0,3.56,0l41.72-24.08a1.76,1.76,0,0,0,0-3l-41.72-24.09A3.59,3.59,0,0,0,333.22,174.77Z"/><path class="cls-146" d="M333.22,173.89,291.5,198a1.76,1.76,0,0,0,0,3.05l41.72,24.08a3.54,3.54,0,0,0,3.56,0L378.5,201a1.76,1.76,0,0,0,0-3.05l-41.72-24.09A3.54,3.54,0,0,0,333.22,173.89Z"/><path class="cls-147" d="M333.22,173,291.5,197.09a1.77,1.77,0,0,0,0,3.06l41.72,24.08a3.54,3.54,0,0,0,3.56,0l41.72-24.08a1.77,1.77,0,0,0,0-3.06L336.78,173A3.54,3.54,0,0,0,333.22,173Z"/><path class="cls-148" d="M333.22,172.13,291.5,196.21a1.76,1.76,0,0,0,0,3l41.72,24.09a3.59,3.59,0,0,0,3.56,0l41.72-24.09a1.76,1.76,0,0,0,0-3l-41.72-24.08A3.54,3.54,0,0,0,333.22,172.13Z"/><path class="cls-149" d="M333.22,171.24,291.5,195.33a1.76,1.76,0,0,0,0,3l41.72,24.09a3.59,3.59,0,0,0,3.56,0l41.72-24.09a1.76,1.76,0,0,0,0-3l-41.72-24.09A3.59,3.59,0,0,0,333.22,171.24Z"/><path class="cls-150" d="M333.22,170.36,291.5,194.45a1.76,1.76,0,0,0,0,3.05l41.72,24.08a3.54,3.54,0,0,0,3.56,0L378.5,197.5a1.76,1.76,0,0,0,0-3.05l-41.72-24.09A3.59,3.59,0,0,0,333.22,170.36Z"/><path class="cls-151" d="M333.22,169.48,291.5,193.57a1.76,1.76,0,0,0,0,3.05l41.72,24.08a3.54,3.54,0,0,0,3.56,0l41.72-24.08a1.76,1.76,0,0,0,0-3.05l-41.72-24.09A3.54,3.54,0,0,0,333.22,169.48Z"/><path class="cls-152" d="M333.22,168.6,291.5,192.68a1.76,1.76,0,0,0,0,3l41.72,24.09a3.54,3.54,0,0,0,3.56,0l41.72-24.09a1.76,1.76,0,0,0,0-3L336.78,168.6A3.54,3.54,0,0,0,333.22,168.6Z"/><path class="cls-153" d="M333.22,167.72,291.5,191.8a1.76,1.76,0,0,0,0,3l41.72,24.09a3.59,3.59,0,0,0,3.56,0l41.72-24.09a1.76,1.76,0,0,0,0-3l-41.72-24.08A3.54,3.54,0,0,0,333.22,167.72Z"/><path class="cls-154" d="M333.22,166.83,291.5,190.92a1.76,1.76,0,0,0,0,3.05l41.72,24.08a3.54,3.54,0,0,0,3.56,0L378.5,194a1.76,1.76,0,0,0,0-3.05l-41.72-24.09A3.59,3.59,0,0,0,333.22,166.83Z"/><path class="cls-155" d="M333.22,166,291.5,190a1.76,1.76,0,0,0,0,3.05l41.72,24.08a3.54,3.54,0,0,0,3.56,0l41.72-24.08a1.76,1.76,0,0,0,0-3.05L336.78,166A3.59,3.59,0,0,0,333.22,166Z"/><path class="cls-156" d="M333.22,165.07,291.5,189.15a1.77,1.77,0,0,0,0,3.06l41.72,24.08a3.54,3.54,0,0,0,3.56,0l41.72-24.08a1.77,1.77,0,0,0,0-3.06l-41.72-24.08A3.54,3.54,0,0,0,333.22,165.07Z"/><path class="cls-157" d="M333.22,164.19,291.5,188.27a1.76,1.76,0,0,0,0,3l41.72,24.09a3.54,3.54,0,0,0,3.56,0l41.72-24.09a1.76,1.76,0,0,0,0-3l-41.72-24.08A3.54,3.54,0,0,0,333.22,164.19Z"/><path class="cls-158" d="M333.22,163.31,291.5,187.39a1.76,1.76,0,0,0,0,3.05l41.72,24.09a3.59,3.59,0,0,0,3.56,0l41.72-24.09a1.76,1.76,0,0,0,0-3.05l-41.72-24.08A3.54,3.54,0,0,0,333.22,163.31Z"/><path class="cls-159" d="M333.22,162.42,291.5,186.51a1.76,1.76,0,0,0,0,3.05l41.72,24.08a3.54,3.54,0,0,0,3.56,0l41.72-24.08a1.76,1.76,0,0,0,0-3.05l-41.72-24.09A3.59,3.59,0,0,0,333.22,162.42Z"/><path class="cls-160" d="M333.22,161.54,291.5,185.63a1.76,1.76,0,0,0,0,3.05l41.72,24.08a3.54,3.54,0,0,0,3.56,0l41.72-24.08a1.76,1.76,0,0,0,0-3.05l-41.72-24.09A3.59,3.59,0,0,0,333.22,161.54Z"/><path class="cls-161" d="M333.22,160.66,291.5,184.74a1.77,1.77,0,0,0,0,3.06l41.72,24.08a3.54,3.54,0,0,0,3.56,0L378.5,187.8a1.77,1.77,0,0,0,0-3.06l-41.72-24.08A3.54,3.54,0,0,0,333.22,160.66Z"/><path class="cls-162" d="M333.22,159.78,291.5,183.86a1.76,1.76,0,0,0,0,3L333.22,211a3.54,3.54,0,0,0,3.56,0l41.72-24.09a1.76,1.76,0,0,0,0-3l-41.72-24.08A3.54,3.54,0,0,0,333.22,159.78Z"/><path class="cls-163" d="M333.22,158.9,291.5,183a1.76,1.76,0,0,0,0,3.05l41.72,24.09a3.59,3.59,0,0,0,3.56,0L378.5,186a1.76,1.76,0,0,0,0-3.05L336.78,158.9A3.54,3.54,0,0,0,333.22,158.9Z"/><path class="cls-164" d="M333.22,158,291.5,182.1a1.76,1.76,0,0,0,0,3.05l41.72,24.08a3.54,3.54,0,0,0,3.56,0l41.72-24.08a1.76,1.76,0,0,0,0-3.05L336.78,158A3.59,3.59,0,0,0,333.22,158Z"/><path class="cls-165" d="M333.22,157.13,291.5,181.22a1.76,1.76,0,0,0,0,3.05l41.72,24.08a3.54,3.54,0,0,0,3.56,0l41.72-24.08a1.76,1.76,0,0,0,0-3.05l-41.72-24.09A3.59,3.59,0,0,0,333.22,157.13Z"/><path class="cls-166" d="M333.22,156.25,291.5,180.33a1.77,1.77,0,0,0,0,3.06l41.72,24.08a3.54,3.54,0,0,0,3.56,0l41.72-24.08a1.77,1.77,0,0,0,0-3.06l-41.72-24.08A3.54,3.54,0,0,0,333.22,156.25Z"/><path class="cls-167" d="M333.22,155.37,291.5,179.45a1.76,1.76,0,0,0,0,3.05l41.72,24.09a3.54,3.54,0,0,0,3.56,0L378.5,182.5a1.76,1.76,0,0,0,0-3.05l-41.72-24.08A3.54,3.54,0,0,0,333.22,155.37Z"/><path class="cls-168" d="M333.22,154.49,291.5,178.57a1.76,1.76,0,0,0,0,3.05l41.72,24.09a3.59,3.59,0,0,0,3.56,0l41.72-24.09a1.76,1.76,0,0,0,0-3.05l-41.72-24.08A3.54,3.54,0,0,0,333.22,154.49Z"/><path class="cls-169" d="M333.22,153.6,291.5,177.69a1.76,1.76,0,0,0,0,3.05l41.72,24.08a3.54,3.54,0,0,0,3.56,0l41.72-24.08a1.76,1.76,0,0,0,0-3.05L336.78,153.6A3.59,3.59,0,0,0,333.22,153.6Z"/><path class="cls-170" d="M333.22,152.72,291.5,176.81a1.76,1.76,0,0,0,0,3.05l41.72,24.08a3.54,3.54,0,0,0,3.56,0l41.72-24.08a1.76,1.76,0,0,0,0-3.05l-41.72-24.09A3.59,3.59,0,0,0,333.22,152.72Z"/><path class="cls-171" d="M333.22,151.84,291.5,175.92a1.77,1.77,0,0,0,0,3.06l41.72,24.08a3.54,3.54,0,0,0,3.56,0L378.5,179a1.77,1.77,0,0,0,0-3.06l-41.72-24.08A3.54,3.54,0,0,0,333.22,151.84Z"/><path class="cls-172" d="M333.22,151,291.5,175a1.76,1.76,0,0,0,0,3.05l41.72,24.09a3.59,3.59,0,0,0,3.56,0l41.72-24.09a1.76,1.76,0,0,0,0-3.05L336.78,151A3.54,3.54,0,0,0,333.22,151Z"/><path class="cls-173" d="M333.22,150.08,291.5,174.16a1.76,1.76,0,0,0,0,3.05l41.72,24.09a3.59,3.59,0,0,0,3.56,0l41.72-24.09a1.76,1.76,0,0,0,0-3.05l-41.72-24.08A3.54,3.54,0,0,0,333.22,150.08Z"/><path class="cls-174" d="M333.22,149.19,291.5,173.28a1.76,1.76,0,0,0,0,3.05l41.72,24.08a3.54,3.54,0,0,0,3.56,0l41.72-24.08a1.76,1.76,0,0,0,0-3.05l-41.72-24.09A3.59,3.59,0,0,0,333.22,149.19Z"/><path class="cls-175" d="M333.22,148.31,291.5,172.4a1.76,1.76,0,0,0,0,3l41.72,24.08a3.54,3.54,0,0,0,3.56,0l41.72-24.08a1.76,1.76,0,0,0,0-3l-41.72-24.09A3.59,3.59,0,0,0,333.22,148.31Z"/><path class="cls-176" d="M333.22,147.43,291.5,171.51a1.77,1.77,0,0,0,0,3.06l41.72,24.08a3.54,3.54,0,0,0,3.56,0l41.72-24.08a1.77,1.77,0,0,0,0-3.06l-41.72-24.08A3.54,3.54,0,0,0,333.22,147.43Z"/><path class="cls-177" d="M333.22,146.55,291.5,170.63a1.76,1.76,0,0,0,0,3.05l41.72,24.09a3.59,3.59,0,0,0,3.56,0l41.72-24.09a1.76,1.76,0,0,0,0-3.05l-41.72-24.08A3.54,3.54,0,0,0,333.22,146.55Z"/><path class="cls-178" d="M333.22,145.67,291.5,169.75a1.76,1.76,0,0,0,0,3.05l41.72,24.09a3.59,3.59,0,0,0,3.56,0L378.5,172.8a1.76,1.76,0,0,0,0-3.05l-41.72-24.08A3.54,3.54,0,0,0,333.22,145.67Z"/><path class="cls-179" d="M333.22,144.78,291.5,168.87a1.76,1.76,0,0,0,0,3L333.22,196a3.54,3.54,0,0,0,3.56,0l41.72-24.08a1.76,1.76,0,0,0,0-3l-41.72-24.09A3.59,3.59,0,0,0,333.22,144.78Z"/><path class="cls-180" d="M333.22,143.9,291.5,168a1.76,1.76,0,0,0,0,3l41.72,24.08a3.54,3.54,0,0,0,3.56,0L378.5,171a1.76,1.76,0,0,0,0-3L336.78,143.9A3.54,3.54,0,0,0,333.22,143.9Z"/><path class="cls-181" d="M333.22,143,291.5,167.1a1.77,1.77,0,0,0,0,3.06l41.72,24.08a3.54,3.54,0,0,0,3.56,0l41.72-24.08a1.77,1.77,0,0,0,0-3.06L336.78,143A3.54,3.54,0,0,0,333.22,143Z"/><path class="cls-182" d="M333.22,142.14,291.5,166.22a1.76,1.76,0,0,0,0,3.05l41.72,24.09a3.59,3.59,0,0,0,3.56,0l41.72-24.09a1.76,1.76,0,0,0,0-3.05l-41.72-24.08A3.54,3.54,0,0,0,333.22,142.14Z"/><path class="cls-183" d="M333.22,141.26,291.5,165.34a1.76,1.76,0,0,0,0,3l41.72,24.09a3.59,3.59,0,0,0,3.56,0l41.72-24.09a1.76,1.76,0,0,0,0-3l-41.72-24.08A3.54,3.54,0,0,0,333.22,141.26Z"/><path class="cls-184" d="M333.22,140.37,291.5,164.46a1.76,1.76,0,0,0,0,3l41.72,24.08a3.54,3.54,0,0,0,3.56,0l41.72-24.08a1.76,1.76,0,0,0,0-3l-41.72-24.09A3.59,3.59,0,0,0,333.22,140.37Z"/><path class="cls-185" d="M333.22,139.49,291.5,163.58a1.76,1.76,0,0,0,0,3l41.72,24.08a3.54,3.54,0,0,0,3.56,0l41.72-24.08a1.76,1.76,0,0,0,0-3l-41.72-24.09A3.54,3.54,0,0,0,333.22,139.49Z"/><path class="cls-186" d="M333.22,138.61,291.5,162.69a1.77,1.77,0,0,0,0,3.06l41.72,24.08a3.54,3.54,0,0,0,3.56,0l41.72-24.08a1.77,1.77,0,0,0,0-3.06l-41.72-24.08A3.54,3.54,0,0,0,333.22,138.61Z"/><path class="cls-187" d="M333.22,137.73,291.5,161.81a1.76,1.76,0,0,0,0,3.05L333.22,189a3.59,3.59,0,0,0,3.56,0l41.72-24.09a1.76,1.76,0,0,0,0-3.05l-41.72-24.08A3.54,3.54,0,0,0,333.22,137.73Z"/><path class="cls-188" d="M333.22,136.85,291.5,160.93a1.76,1.76,0,0,0,0,3l41.72,24.09a3.59,3.59,0,0,0,3.56,0L378.5,164a1.76,1.76,0,0,0,0-3l-41.72-24.08A3.54,3.54,0,0,0,333.22,136.85Z"/><path class="cls-189" d="M333.22,136,291.5,160.05a1.76,1.76,0,0,0,0,3l41.72,24.08a3.54,3.54,0,0,0,3.56,0L378.5,163.1a1.76,1.76,0,0,0,0-3L336.78,136A3.59,3.59,0,0,0,333.22,136Z"/><path class="cls-190" d="M333.22,135.08,291.5,159.17a1.76,1.76,0,0,0,0,3.05l41.72,24.08a3.54,3.54,0,0,0,3.56,0l41.72-24.08a1.76,1.76,0,0,0,0-3.05l-41.72-24.09A3.54,3.54,0,0,0,333.22,135.08Z"/><path class="cls-191" d="M333.22,134.2,291.5,158.28a1.77,1.77,0,0,0,0,3.06l41.72,24.08a3.54,3.54,0,0,0,3.56,0l41.72-24.08a1.77,1.77,0,0,0,0-3.06L336.78,134.2A3.54,3.54,0,0,0,333.22,134.2Z"/><path class="cls-192" d="M333.22,133.32,291.5,157.4a1.76,1.76,0,0,0,0,3l41.72,24.09a3.59,3.59,0,0,0,3.56,0l41.72-24.09a1.76,1.76,0,0,0,0-3l-41.72-24.08A3.54,3.54,0,0,0,333.22,133.32Z"/><path class="cls-193" d="M333.22,132.44,291.5,156.52a1.76,1.76,0,0,0,0,3l41.72,24.09a3.59,3.59,0,0,0,3.56,0l41.72-24.09a1.76,1.76,0,0,0,0-3l-41.72-24.08A3.54,3.54,0,0,0,333.22,132.44Z"/><path class="cls-194" d="M333.22,131.55,291.5,155.64a1.76,1.76,0,0,0,0,3.05l41.72,24.08a3.54,3.54,0,0,0,3.56,0l41.72-24.08a1.76,1.76,0,0,0,0-3.05l-41.72-24.09A3.59,3.59,0,0,0,333.22,131.55Z"/><path class="cls-195" d="M333.22,130.67,291.5,154.76a1.76,1.76,0,0,0,0,3.05l41.72,24.08a3.54,3.54,0,0,0,3.56,0l41.72-24.08a1.76,1.76,0,0,0,0-3.05l-41.72-24.09A3.54,3.54,0,0,0,333.22,130.67Z"/><path class="cls-196" d="M333.22,129.79,291.5,153.87a1.77,1.77,0,0,0,0,3.06L333.22,181a3.54,3.54,0,0,0,3.56,0l41.72-24.08a1.77,1.77,0,0,0,0-3.06l-41.72-24.08A3.54,3.54,0,0,0,333.22,129.79Z"/><path class="cls-197" d="M333.22,128.91,291.5,153a1.76,1.76,0,0,0,0,3l41.72,24.09a3.59,3.59,0,0,0,3.56,0L378.5,156a1.76,1.76,0,0,0,0-3l-41.72-24.08A3.54,3.54,0,0,0,333.22,128.91Z"/><path class="cls-198" d="M333.22,128,291.5,152.11a1.76,1.76,0,0,0,0,3l41.72,24.09a3.59,3.59,0,0,0,3.56,0l41.72-24.09a1.76,1.76,0,0,0,0-3L336.78,128A3.59,3.59,0,0,0,333.22,128Z"/><path class="cls-199" d="M333.22,127.14,291.5,151.23a1.76,1.76,0,0,0,0,3.05l41.72,24.08a3.54,3.54,0,0,0,3.56,0l41.72-24.08a1.76,1.76,0,0,0,0-3.05l-41.72-24.09A3.59,3.59,0,0,0,333.22,127.14Z"/></g><g class="cls-3"><path class="cls-2" d="M398.34,77.12l29.18,13a47.11,47.11,0,0,0-12.66-3.61l-29.18-13A47.1,47.1,0,0,1,398.34,77.12Z"/><g class="cls-200"><path class="cls-2" d="M414.86,86.5l-29.18-13a47.49,47.49,0,0,1,8.75,2.07l29.18,13a47.5,47.5,0,0,0-8.75-2.08"/><path class="cls-2" d="M423.61,88.58l-29.18-13c1.34.45,2.64,1,3.91,1.53l29.18,13c-1.27-.57-2.58-1.08-3.91-1.53"/></g></g><g class="cls-3"><path class="cls-2" d="M350.81,16.58l29.18,13a64.31,64.31,0,0,0-36.62-4.41l-29.18-13A64.39,64.39,0,0,1,350.81,16.58Z"/><g class="cls-201"><g class="cls-3"><path class="cls-2" d="M343.37,25.16l-29.18-13a69.69,69.69,0,0,1,11.85-.9l29.17,13a69.65,69.65,0,0,0-11.84.9"/><path class="cls-2" d="M355.21,24.26,326,11.27a63.22,63.22,0,0,1,19.72,3.34l29.18,13a63.28,63.28,0,0,0-19.73-3.33"/><path class="cls-2" d="M374.94,27.59l-29.18-13c1.72.58,3.41,1.24,5.05,2l29.18,13q-2.48-1.09-5.05-2"/></g></g></g><g class="cls-3"><path class="cls-2" d="M278.68,106.22l-29.18-13a14.34,14.34,0,0,0,0-2.7c-1.87-37.19,27.09-72.28,64.66-78.36l29.18,13c-37.58,6.08-66.53,41.17-64.66,78.36A14.35,14.35,0,0,1,278.68,106.22Z"/><g class="cls-202"><g class="cls-3"><path class="cls-2" d="M278.68,106.22l-29.18-13a14.34,14.34,0,0,0,0-2.7,71.25,71.25,0,0,1,5.59-31.12l29.18,13a71.32,71.32,0,0,0-5.59,31.13,14.35,14.35,0,0,1,0,2.7"/><path class="cls-2" d="M284.3,72.39l-29.18-13a77.9,77.9,0,0,1,5.75-11.11l29.18,13a78.43,78.43,0,0,0-5.75,11.11"/><path class="cls-2" d="M290.05,61.28l-29.18-13a79.56,79.56,0,0,1,6.27-8.7l29.17,13a80.71,80.71,0,0,0-6.26,8.69"/><path class="cls-2" d="M296.31,52.59l-29.17-13a81.2,81.2,0,0,1,7-7.47l29.18,13a81.43,81.43,0,0,0-7,7.48"/><path class="cls-2" d="M303.34,45.11l-29.18-13a80.58,80.58,0,0,1,8.23-6.74l29.17,13a80.37,80.37,0,0,0-8.22,6.73"/><path class="cls-2" d="M311.56,38.38l-29.17-13a78,78,0,0,1,10.43-6.28l29.18,13a77.11,77.11,0,0,0-10.44,6.29"/><path class="cls-2" d="M322,32.09l-29.18-13A74.17,74.17,0,0,1,313,12.37l29.17,13A74.33,74.33,0,0,0,322,32.09"/><path class="cls-2" d="M342.21,25.35,313,12.37l1.15-.2,29.18,13-1.16.19"/></g></g></g><g class="cls-3"><path class="cls-2" d="M255.69,206.6l-29.18-13c-15.24-6.78-25.89-21.46-26.82-40C198.25,125,220.55,97.91,249.5,93.23l29.18,13c-29,4.68-51.26,31.71-49.82,60.37C229.8,185.13,240.44,199.82,255.69,206.6Z"/><g class="cls-203"><g class="cls-3"><path class="cls-2" d="M255.69,206.6l-29.18-13c-15.24-6.78-25.89-21.46-26.82-40a54.86,54.86,0,0,1,4.3-24l29.18,13a55,55,0,0,0-4.31,24c.94,18.54,11.58,33.23,26.83,40"/><path class="cls-2" d="M233.17,142.61l-29.18-13a60.31,60.31,0,0,1,4.43-8.56l29.18,13a59.78,59.78,0,0,0-4.43,8.56"/><path class="cls-2" d="M237.6,134.05l-29.18-13a63.18,63.18,0,0,1,4.83-6.7l29.18,13a61.2,61.2,0,0,0-4.83,6.7"/><path class="cls-2" d="M242.43,127.35l-29.18-13a63.88,63.88,0,0,1,5.41-5.75l29.18,13a64,64,0,0,0-5.41,5.76"/><path class="cls-2" d="M247.84,121.59l-29.18-13a61.82,61.82,0,0,1,6.34-5.19l29.17,13a63,63,0,0,0-6.33,5.19"/><path class="cls-2" d="M254.17,116.4l-29.17-13a60.53,60.53,0,0,1,8-4.85l29.18,13a60.57,60.57,0,0,0-8,4.84"/><path class="cls-2" d="M262.21,111.56,233,98.57a57.6,57.6,0,0,1,15.58-5.19l29.18,13a57.26,57.26,0,0,0-15.58,5.19"/><path class="cls-2" d="M277.79,106.37l-29.18-13,.89-.15,29.18,13-.89.15"/></g></g></g><path class="cls-204" d="M343.37,25.16c37.58-6.08,69.57,19.15,71.44,56.35.08,1.67.09,3.33.05,5,21.74,3,38.31,20.28,39.48,43.62,1.44,28.65-20.86,55.68-49.83,60.37L283.89,210c-28.95,4.68-53.59-14.76-55-43.41s20.87-55.69,49.82-60.37a14.35,14.35,0,0,0,0-2.7C276.84,66.33,305.79,31.24,343.37,25.16Z"/><path class="cls-205" d="M345.29,27.08c37.59-6.08,69.57,19.16,71.44,56.35.08,1.67.09,3.34,0,5,21.74,3,38.31,20.28,39.49,43.62,1.44,28.66-20.87,55.69-49.83,60.37L285.81,211.92c-28.94,4.68-53.58-14.76-55-43.41s20.86-55.69,49.81-60.37a13.54,13.54,0,0,0,0-2.7C278.76,68.25,307.72,33.16,345.29,27.08Z"/></g></g></svg>