<svg id="图层_1" data-name="图层 1" xmlns="http://www.w3.org/2000/svg" xmlns:xlink="http://www.w3.org/1999/xlink" viewBox="0 0 144 144"><defs><style>.cls-1{fill:none;}.cls-2{fill:#ebe4d7;opacity:0.65;}.cls-3{fill:url(#linear-gradient);}.cls-4{fill:url(#linear-gradient-2);}.cls-5{fill:url(#linear-gradient-3);}.cls-6{fill:#fff;}.cls-7{fill:#ddb962;}.cls-8{fill:url(#linear-gradient-4);}.cls-9{fill:url(#linear-gradient-5);}.cls-10{fill:#aa893f;}.cls-11{fill:url(#linear-gradient-6);}.cls-12{fill:url(#linear-gradient-7);}.cls-13{fill:url(#linear-gradient-8);}.cls-14{fill:#ead098;}.cls-15{clip-path:url(#clip-path);}.cls-16{fill:url(#linear-gradient-9);}.cls-17{fill:#bec3cc;}.cls-18{fill:#e4e6ea;}.cls-19{isolation:isolate;}.cls-20{fill:#3d3f44;}.cls-21{fill:url(#linear-gradient-10);}</style><linearGradient id="linear-gradient" x1="24.65" y1="230.87" x2="25.51" y2="230.87" gradientTransform="matrix(1.04, -0.13, 0.01, 0.96, 48.68, -157.42)" gradientUnits="userSpaceOnUse"><stop offset="0" stop-color="#f9faff"/><stop offset="0.52" stop-color="#eceffe"/><stop offset="0.99" stop-color="#e6eafe"/></linearGradient><linearGradient id="linear-gradient-2" x1="-1.26" y1="219.32" x2="25.38" y2="219.32" xlink:href="#linear-gradient"/><linearGradient id="linear-gradient-3" x1="40.22" y1="232.81" x2="40.22" y2="300.29" xlink:href="#linear-gradient"/><linearGradient id="linear-gradient-4" x1="39.95" y1="300.96" x2="45.99" y2="300.96" xlink:href="#linear-gradient"/><linearGradient id="linear-gradient-5" x1="49.16" y1="263.48" x2="53.22" y2="263.48" xlink:href="#linear-gradient"/><linearGradient id="linear-gradient-6" x1="35.86" y1="265.56" x2="49.63" y2="265.56" xlink:href="#linear-gradient"/><linearGradient id="linear-gradient-7" x1="-21.27" y1="231.37" x2="7.77" y2="231.37" xlink:href="#linear-gradient"/><linearGradient id="linear-gradient-8" x1="7.02" y1="272.69" x2="41.62" y2="272.69" xlink:href="#linear-gradient"/><clipPath id="clip-path"><path class="cls-1" d="M124.44,44,59.65,16.88l-14.87,5L32,56.58l22.08,9.24a6.83,6.83,0,0,1,3.76,3.74l1.9,4.65L88.91,86.54l.23.12a5.59,5.59,0,0,1,3.15,4.39l.08.59,16.51,2.53Z"/></clipPath><linearGradient id="linear-gradient-9" x1="-1.78" y1="307.32" x2="11.42" y2="284.46" gradientTransform="matrix(1.04, -0.13, 0.01, 0.96, 48.68, -157.42)" gradientUnits="userSpaceOnUse"><stop offset="0" stop-color="#b1b8e4"/><stop offset="0.74" stop-color="#e6eafe"/><stop offset="1" stop-color="#e6eafe"/></linearGradient><linearGradient id="linear-gradient-10" x1="-3.37" y1="244.21" x2="16.57" y2="244.21" gradientTransform="matrix(1.04, -0.13, 0.01, 0.96, 48.68, -157.42)" gradientUnits="userSpaceOnUse"><stop offset="0" stop-color="#48486a"/><stop offset="1" stop-color="#5c629e"/></linearGradient></defs><title>【插图】页面元素插图</title><circle class="cls-2" cx="72" cy="72" r="71"/><polygon class="cls-3" points="77.86 59.06 77.1 59.35 77.28 63.26 78.04 62.96 77.86 59.06"/><path class="cls-4" d="M74.07,53.9l.14.08a3.89,3.89,0,0,1,.4.25l0,0c.14.1.27.19.39.29l.09.06.33.3,0,0,.26.28.09.11c.06.06.1.12.15.18s.11.16.17.23l.1.17a2,2,0,0,1,.11.2,1.62,1.62,0,0,1,.1.18l.09.2c0,.07,0,.13.08.19a2.25,2.25,0,0,0,.08.24l.06.19a.83.83,0,0,0,0,.15,1.84,1.84,0,0,1,.05.25.57.57,0,0,1,0,.14c0,.08,0,.17,0,.25A1,1,0,0,1,77,58l0,.22,0,.25a.76.76,0,0,1,0,.15c0,.21,0,.42,0,.63v.05l.77-.29v0c0-.22,0-.43,0-.63a.34.34,0,0,1,0-.1s0,0,0-.06l0-.25a.77.77,0,0,0,0-.15v-.06l0-.16,0-.17s0-.05,0-.08l0-.15,0-.12,0-.12c0-.05,0-.1,0-.15s0,0,0-.08,0-.08,0-.12l-.08-.23,0-.08-.05-.11-.09-.2-.1-.19L77,55.6a.2.2,0,0,0,0-.08l-.06-.09c-.06-.08-.11-.16-.17-.23a.61.61,0,0,0-.07-.1L76.61,55l-.09-.1-.07-.08-.2-.2,0,0h0L76,54.38l-.09-.07-.09-.07-.09-.07a2.11,2.11,0,0,0-.29-.2h0l0,0-.27-.17L75,53.68l-.14-.08-.12-.06-.28-.15-.13-.07,0,0-.56-.25h0l-21-8.82-.14,0-.11,0h0l-.14,0h-.14L52,44h-.84a.7.7,0,0,0-.14,0l-.08,0h0l-.21.07-.77.3.23-.08.08,0,.15,0h.06l.17,0h.29l.23,0h0l.22,0h0l.23.06h0l.24.09,21,8.81.61.28.13.07Z"/><path class="cls-5" d="M109.64,79.57v-.19a.61.61,0,0,0,0-.14v0c0-.07,0-.14,0-.21a.68.68,0,0,1,0-.14v-.07a2,2,0,0,0,0-.24s0,0,0-.08a.19.19,0,0,1,0-.08s0-.07,0-.1,0-.12,0-.17l0-.1v0s0-.07,0-.11-.06-.19-.1-.28a.17.17,0,0,0,0,0,.36.36,0,0,0,0-.09c0-.09-.07-.18-.12-.27s0-.09-.07-.14l-.14-.25-.06-.09a.05.05,0,0,0,0,0l-.24-.34h0l0,0-.18-.22,0,0,0-.06-.1-.1-.11-.09,0,0,0,0-.16-.13-.07,0,0,0,0,0a.71.71,0,0,0-.14-.1l-.09,0h0l0,0-.15-.07-.14-.06h0L78,63l-.76.3,29.08,12.21a1.77,1.77,0,0,1,.31.15l0,0,.27.17,0,0,.25.2,0,0,.21.2,0,0,.21.24,0,0,0,0c.08.1.16.22.24.33l.07.13.15.25.07.14.12.27.06.15c0,.09.07.18.1.27s0,.09,0,.14l0,.1c0,.09,0,.18.07.27a.29.29,0,0,0,0,.09c0,.11,0,.23,0,.34v0l0,.37v0c0,.12,0,.25,0,.37v0l0,.37v0c0,.13,0,.26-.07.39l-8.38,42a3.45,3.45,0,0,1-.12.46v0c0,.14-.1.28-.15.41l0,0a2,2,0,0,1-.19.36s0,0,0,0l-.18.26-.07.1-.16.18-.12.12a1.29,1.29,0,0,1-.17.16l-.12.1-.21.14-.11.06a1.5,1.5,0,0,1-.34.16h0l.76-.29a2.11,2.11,0,0,0,.34-.16l.11-.07.21-.14.12-.1.18-.15.11-.13.12-.13a.1.1,0,0,0,0,0l.07-.09.09-.12.09-.14,0,0v0l.11-.19.06-.14,0,0v0l.07-.18L101,123v-.07l0-.1a1.09,1.09,0,0,0,.05-.17c0-.06,0-.12,0-.17h0l8.39-42,0-.16a1.1,1.1,0,0,1,0-.18V80s0-.05,0-.08,0-.12,0-.18a.34.34,0,0,1,0-.1v-.08Z"/><path class="cls-6" d="M72.93,53.35c3.62,1.52,4,3.5,4.17,6l.18,3.91,29.08,12.21a4.81,4.81,0,0,1,2.42,5.26l-8.38,42c-.43,2.16-2.23,3.31-4,2.57L40.5,101.85a4.81,4.81,0,0,1-2.42-5.26L48,47.11c.43-2.16,2.23-3.31,4-2.57Z"/><path class="cls-7" d="M97.8,125.36a2.57,2.57,0,0,1-1.3-.19L40.59,101.69a4.64,4.64,0,0,1-2.33-5.09l9.87-49.48a3,3,0,0,1,2.41-2.61,2.59,2.59,0,0,1,1.31.19l21,8.82C76.39,55,76.78,57,76.91,59.38l.18,4,29.18,12.25a4.64,4.64,0,0,1,2.33,5.09l-8.38,42A3,3,0,0,1,97.8,125.36Z"/><polygon class="cls-7" points="100.13 123.64 93.89 127.9 35.73 103.47 41.97 99.22 100.13 123.64"/><polygon class="cls-8" points="100.13 123.64 99.83 124.72 93.9 128.77 93.89 127.9 100.13 123.64"/><polygon class="cls-9" points="103.53 93.22 103.04 93.02 106.67 85.08 107.17 85.28 103.53 93.22"/><polygon class="cls-10" points="89.67 91.43 103.53 93.22 107.17 85.28 99.54 123.38 94.96 126.5 89.67 91.43"/><polygon class="cls-11" points="89.67 91.43 89.18 91.22 103.04 93.02 103.53 93.22 89.67 91.43"/><polygon class="cls-7" points="89.67 91.43 103.53 93.22 97.41 124.83 94.96 126.5 89.67 91.43"/><path class="cls-12" d="M58.56,70.88c0-.06-.05-.12-.07-.19l0-.07c0-.1-.07-.19-.11-.29s0-.08,0-.11l0-.06a.5.5,0,0,0-.05-.13.61.61,0,0,0,0-.12l-.06-.14,0-.06,0,0c0-.07,0-.13-.08-.19l-.06-.1v0l0,0a.91.91,0,0,0-.07-.14.75.75,0,0,0-.07-.12l0,0v0l0,0-.06-.1-.06-.1-.06-.1h0l-.06-.09-.07-.11a1.13,1.13,0,0,0-.1-.13h0l-.09-.12L57,68l0,0h0l-.14-.16a1.59,1.59,0,0,0-.13-.13l0,0h0l0,0-.09-.09-.09-.09-.1-.08h0l-.09-.08-.12-.1L56,67l0,0,0,0-.08-.06-.18-.13-.14-.1,0,0,0,0-.23-.15-.16-.1-.07,0,0,0-.32-.18-.09,0-.11-.06L54.3,66,54,65.86l-.13-.07,0,0-.52-.23,0,0-21-8.81-.12-.05-.13,0-.08,0h-.05l-.12,0a.28.28,0,0,0-.13,0h-.12l-.13,0h-.54l-.13,0h0l-.18,0h0l-.08,0-.08,0,0,0a1.2,1.2,0,0,0-.27.16l-.79.61.28-.16.12,0,.08,0a.9.9,0,0,1,.22-.06h0a1.07,1.07,0,0,1,.25,0h0a1.4,1.4,0,0,1,.29,0h0l.29,0h0l.31.08h0l.33.12,21,8.81.61.27.13.07.43.21.11.06c.16.08.31.17.46.26l.06,0,.43.27,0,0,.4.28,0,0,.37.3h0l.34.32h0l.3.32h0l.19.23.09.12.23.33h0a3.13,3.13,0,0,1,.21.34v0a3.72,3.72,0,0,1,.19.34v0c.06.11.11.22.16.33l0,.06c0,.09.07.18.11.26s0,.09,0,.13,0,.11.07.17.08.19.11.29.07.18.1.26l1.16,3.33.78-.61Z"/><path class="cls-13" d="M95.61,126.54v-.16a.57.57,0,0,0,0-.13h0L92.31,91.05a.49.49,0,0,0,0-.12c0-.05,0-.09,0-.14s0,0,0-.06v-.07l0-.14s0-.09,0-.14h0a.56.56,0,0,1,0-.12s0-.09,0-.14l0-.07V90L92,89.82a.78.78,0,0,0,0-.14h0l0-.12-.06-.12,0-.09h0v0l0-.1-.06-.11L91.6,89h0a.35.35,0,0,0,0-.08l-.05-.1-.07-.09,0,0h0l0,0-.08-.11-.09-.13,0,0-.06-.07L91,88.14l-.09-.1h0l0,0-.19-.21,0,0,0,0,0,0a.94.94,0,0,0-.1-.1.3.3,0,0,0-.08-.08l0,0h0l0,0-.09-.07-.08-.08-.07-.06h0l-.1-.08-.1-.08a.18.18,0,0,1-.07,0h0l0,0-.12-.09-.13-.08h0l-.09-.06-.14-.08-.07,0,0,0-.05,0-.13-.06-.13-.06h0L59.72,74.21l-.78.61L88,87l.31.14,0,0,.3.17h0l.3.2h0l.29.23h0l.28.25h0a3.19,3.19,0,0,1,.26.26l0,0,.24.26,0,0,.2.25.06.07.21.3h0a3.45,3.45,0,0,1,.2.32h0a3.54,3.54,0,0,1,.19.33h0c.06.11.11.22.16.33h0c0,.11.09.22.13.33v0a3,3,0,0,1,.1.32h0c0,.11,0,.22.07.33v0c0,.11,0,.22,0,.32l3.29,35.19c0,.1,0,.2,0,.3v0a2.17,2.17,0,0,1,0,.26v0c0,.08,0,.16,0,.24v0c0,.07,0,.13,0,.19a.14.14,0,0,0,0,.06l-.06.13a.36.36,0,0,1,0,.09l0,.06a1.33,1.33,0,0,1-.14.19l-.05.06a1.26,1.26,0,0,1-.2.2l.79-.61.2-.2,0-.06c0-.06.09-.12.13-.19a.08.08,0,0,1,0,0v0a.36.36,0,0,0,0-.09l0-.09v0s0,0,0-.06a.19.19,0,0,0,0-.07l0-.12v0l0-.15a.17.17,0,0,1,0-.07v-.07a.61.61,0,0,0,0-.14v-.11Z"/><path class="cls-6" d="M52.52,66.13c3.62,1.52,4.49,3.23,5.26,5.36l1.16,3.33L88,87a6.24,6.24,0,0,1,3.51,4.62l3.29,35.19c.17,1.81-1.14,2.68-2.9,1.94L36,105.31a6.23,6.23,0,0,1-3.51-4.63L28.63,59.25c-.17-1.8,1.13-2.67,2.9-1.93Z"/><path class="cls-14" d="M93.37,128.86a2.79,2.79,0,0,1-1.36-.24L36.1,105.14a6.06,6.06,0,0,1-3.42-4.5L28.82,59.22a2,2,0,0,1,.37-1.52,1.35,1.35,0,0,1,.89-.45,2.77,2.77,0,0,1,1.36.23l21,8.82c3.58,1.5,4.43,3.2,5.17,5.27L58.78,75,87.93,87.2a6.08,6.08,0,0,1,3.42,4.5l3.28,35.19a2,2,0,0,1-.37,1.51A1.4,1.4,0,0,1,93.37,128.86Z"/><g class="cls-15"><path class="cls-16" d="M87.25,127.31c0-.15,0-.29.07-.44a1,1,0,0,1,0-.17.2.2,0,0,1,0-.07c0-.3.06-.61.08-.91a1,1,0,0,1,0-.17c0-.31,0-.61,0-.92L41.93,105.35c0,.3,0,.61,0,.92a1,1,0,0,1,0,.17c0,.3,0,.6-.08.91l0,.24-.06.44c0,.09,0,.18,0,.27s0,.3-.08.45,0,.16-.05.24c-.07.35-.16.71-.25,1.06a1.33,1.33,0,0,0,0,.19c-.09.33-.19.65-.29,1,0,0,0,.07,0,.11l-.28.81-.09.23c-.1.28-.22.58-.34.87h0c-.12.28-.25.56-.38.85,0,.08-.08.16-.11.25s-.21.43-.32.65a2.26,2.26,0,0,0-.11.22c-.14.26-.27.52-.42.78l-.13.24-.42.71-.13.22c-.18.29-.36.58-.55.87l-.06.07c-.19.3-.4.59-.6.88l-.1.14c-.25.34-.51.67-.77,1l-.14.18-.38.45-.15.19-.55.61,0,0c-.26.28-.52.55-.79.81l-.11.11-.79.73-.15.12c-.27.23-.53.46-.81.67l-.12.09c-.28.22-.57.43-.86.63s-.56.36-.84.53l-.27.16-.57.3-.21.11-.58.26-.22.09a6.77,6.77,0,0,1-.71.26l-.11,0c-.24.07-.48.14-.72.19H27l-.55.09-.33,0-.43,0h-.28c-.22,0-.43,0-.64,0l45.53,19.28a4.56,4.56,0,0,0,.54,0h.65l.15,0,.33,0,.24,0,.32-.06h.05l.43-.11.29-.08.11,0,.56-.19.15-.06.22-.1.57-.26.22-.11.12,0,.44-.25.28-.16c.28-.16.55-.34.83-.53l.87-.63.12-.09c.27-.21.54-.44.81-.67l.14-.12.8-.73.1-.11c.27-.26.54-.53.8-.82h0c.19-.2.37-.4.55-.61.06-.06.11-.13.16-.19l.38-.45.08-.09.06-.08c.26-.33.52-.66.76-1l0,0,.06-.09c.21-.29.41-.58.61-.88l0-.05v0c.19-.29.38-.58.56-.87l.06-.1.07-.13c.14-.23.28-.46.41-.7l.08-.13.06-.11c.14-.26.28-.52.41-.78a.25.25,0,0,0,0-.07s.05-.1.07-.14c.11-.23.22-.45.32-.67a.61.61,0,0,0,.07-.14s0-.07,0-.1c.26-.58.51-1.15.72-1.73a.3.3,0,0,0,0-.1l0-.12.28-.81,0-.09v0c.1-.33.19-.65.28-1l0-.1a.31.31,0,0,0,0-.08c.1-.36.18-.72.26-1.07,0,0,0-.05,0-.07l0-.17.09-.44C87.22,127.49,87.24,127.4,87.25,127.31Z"/><path class="cls-17" d="M109.72,49.71c0-3.27-1.3-5.43-3.28-6.27L60.91,24.16c2,.84,3.23,3,3.28,6.27a.4.4,0,0,0,.21.41l45.53,19.28A.4.4,0,0,1,109.72,49.71Z"/><path class="cls-18" d="M98.63,43.59c6.78-4.61,12.39-2.29,12.5,5.16a1.69,1.69,0,0,1-.69,1.26c-.39.26-.72.13-.72-.3-.1-6.59-5.07-8.64-11.06-4.57S87.86,57.91,88,64.5L88.8,119l.07,4.65a25,25,0,0,1-3.45,12,29.12,29.12,0,0,1-8.63,9.87c-3.29,2.23-6.39,2.92-8.75,1.94a5.93,5.93,0,0,1-3.39-4.28,8.24,8.24,0,0,1-.35-2.35,1.92,1.92,0,0,1,0-.24c0-.08,0-.15,0-.24.25-5.47,4-12.09,8.71-15.26,4.88-3.32,8.91-1.65,9,3.71s-3.82,12.43-8.7,15.74a10.41,10.41,0,0,1-3,1.48c1.88.25,4.14-.45,6.5-2.06a25.45,25.45,0,0,0,7.64-8.73,22.27,22.27,0,0,0,3.06-10.63l-.84-54.51-.07-4.66C86.44,58,91.86,48.2,98.63,43.59ZM66,141.9c.92,2.86,3.84,3.44,7.25,1.12,4.1-2.78,7.38-8.72,7.31-13.23s-3.46-5.91-7.56-3.12-7.26,8.52-7.31,13A10.09,10.09,0,0,0,66,141.9Z"/><path class="cls-6" d="M61.9,22.39l-.07,0-.09,0a4,4,0,0,0-.45-.15l-.09,0-.07,0a5.23,5.23,0,0,0-.57-.12h0a6.2,6.2,0,0,0-.62-.06h-.17a5.42,5.42,0,0,0-.57,0h-.11l-.72.08h-.07L58,22.1l-.16,0-.51.12h0l-.56.17-.16.05-.37.14h0l-.67.28-.14.07-.53.26-.08,0-.14.07-.57.33-.23.13c-.25.16-.51.32-.77.5s-.39.27-.59.42l-.19.14-.39.3-.22.17-.36.3-.22.19-.36.32-.2.18q-.21.18-.42.39l-.14.12-.54.55-.1.1-.36.38-.06.06c-.42.46-.83.93-1.22,1.42l-.05.06-.07.08c-.3.38-.61.78-.9,1.18l0,0-.07.09-.69,1-.06.09a.08.08,0,0,0,0,0c-.22.32-.42.65-.63,1l0,.09a1,1,0,0,0-.08.14l-.48.81-.07.13,0,0c-.17.31-.34.62-.5.94l0,.07-.08.17c-.13.25-.25.5-.37.75l-.07.16-.05.09-.42,1,0,0a.36.36,0,0,1,0,.11c-.12.29-.23.58-.34.87l-.06.14a.49.49,0,0,1,0,.11c-.12.34-.24.69-.35,1a0,0,0,0,0,0,0,.25.25,0,0,0,0,.07c-.11.35-.22.7-.31,1a.65.65,0,0,0,0,.13l0,.12c0,.1,0,.2-.08.31s-.07.28-.1.42,0,.21-.07.31,0,.16,0,.23a1.1,1.1,0,0,0,0,.16l-.09.46-.06.34-.06.48c0,.07,0,.15,0,.23v.06c0,.34-.07.68-.09,1,0,.08,0,.15,0,.22,0,.35,0,.69,0,1l.07,4.66.84,54.51,45.53,19.28-.84-54.51-.07-4.66c0-.33,0-.67,0-1a1.48,1.48,0,0,0,0-.21q0-.51.09-1c0-.1,0-.2,0-.3s.05-.31.07-.48l.06-.32c0-.16,0-.32.08-.47s.06-.26.08-.39a2.82,2.82,0,0,0,.07-.31c0-.14.07-.28.11-.43s0-.2.07-.3a2.33,2.33,0,0,0,.07-.25c.1-.36.2-.71.32-1.06,0,0,0,0,0-.08.11-.34.23-.68.36-1,0-.08.07-.17.1-.26.1-.28.22-.56.33-.84l.07-.16q.2-.48.42-1l.12-.25.37-.76.12-.23c.16-.32.33-.63.5-.94a1,1,0,0,1,.1-.17c.15-.28.31-.55.47-.83l.14-.22c.2-.33.41-.65.62-1l.09-.15.69-1,.09-.12c.29-.4.59-.79.9-1.18a.76.76,0,0,0,.11-.14c.4-.49.81-1,1.23-1.42l.42-.44.1-.1.54-.55.13-.12.42-.4.2-.17.37-.33.21-.18.37-.3.21-.17.4-.3a1.33,1.33,0,0,1,.19-.14c.19-.15.39-.29.58-.42l.78-.5.22-.13.58-.32.22-.12.52-.26.15-.07c.23-.1.45-.2.67-.28l.39-.14.17-.06c.19-.07.38-.12.56-.17h0l.51-.12.16,0,.31-.06.72-.08h.1a3.66,3.66,0,0,1,.57,0h.18a6.2,6.2,0,0,1,.62.06h0l.57.12.16.05a4,4,0,0,1,.45.15l.15.06Z"/><g class="cls-19"><path class="cls-20" d="M76.78,57.3l-28.51-12a.28.28,0,0,0-.42.29.76.76,0,0,0,.43.65l28.51,12a.29.29,0,0,0,.43-.29.78.78,0,0,0-.44-.64Z"/><path class="cls-20" d="M76.82,61.69l-28.51-12a.28.28,0,0,0-.42.29.77.77,0,0,0,.43.65l28.51,12a.29.29,0,0,0,.43-.29.77.77,0,0,0-.44-.64Z"/><path class="cls-20" d="M76.86,66.07l-28.51-12a.28.28,0,0,0-.42.29.8.8,0,0,0,.43.65L76.87,67a.29.29,0,0,0,.43-.29.79.79,0,0,0-.44-.65Z"/><path class="cls-20" d="M76.91,70.47l-28.51-12a.29.29,0,0,0-.43.29.77.77,0,0,0,.43.64l28.51,12a.29.29,0,0,0,.43-.29.75.75,0,0,0-.43-.64Z"/><path class="cls-20" d="M77,74.85l-28.51-12a.29.29,0,0,0-.43.29.76.76,0,0,0,.44.64L77,75.79a.29.29,0,0,0,.42-.29.78.78,0,0,0-.43-.65Z"/><path class="cls-20" d="M72.73,77.45,48.48,67.27a.29.29,0,0,0-.43.29.76.76,0,0,0,.44.64L72.74,78.39a.28.28,0,0,0,.42-.29.76.76,0,0,0-.43-.65Z"/><path class="cls-21" d="M68.52,80.05l-20-8.39a.29.29,0,0,0-.43.28.77.77,0,0,0,.44.65l20,8.4A.28.28,0,0,0,69,80.7a.8.8,0,0,0-.43-.65Z"/></g></g></svg>