<svg id="图层_1" data-name="图层 1" xmlns="http://www.w3.org/2000/svg" xmlns:xlink="http://www.w3.org/1999/xlink" viewBox="0 0 144 144"><defs><style>.cls-1{fill:#ebe4d7;opacity:0.65;}.cls-2{fill:url(#未命名的渐变_42);}.cls-3{fill:#f5f6f7;}.cls-4{fill:#3d3f44;}.cls-5{fill:url(#未命名的渐变_45);}.cls-6{fill:url(#未命名的渐变_45-2);}.cls-7{fill:#ebedf7;}.cls-8{fill:url(#未命名的渐变_20);}</style><linearGradient id="未命名的渐变_42" x1="-3509.17" y1="74.93" x2="-3435.63" y2="74.93" gradientTransform="matrix(-1, 0, 0, 1, -3400.53, 0)" gradientUnits="userSpaceOnUse"><stop offset="0" stop-color="#bec3cc"/><stop offset="0.46" stop-color="#bec3cc"/><stop offset="0.48" stop-color="#ced2d9"/><stop offset="0.5" stop-color="#e4e6ea"/></linearGradient><linearGradient id="未命名的渐变_45" x1="-3468.5" y1="68.55" x2="-3439.07" y2="68.55" gradientTransform="matrix(-1, 0, 0, 1, -3400.53, 0)" gradientUnits="userSpaceOnUse"><stop offset="0" stop-color="#bec3cc"/><stop offset="0.8" stop-color="#e4e6ea"/></linearGradient><linearGradient id="未命名的渐变_45-2" x1="-3468.5" y1="94.22" x2="-3439.07" y2="94.22" xlink:href="#未命名的渐变_45"/><linearGradient id="未命名的渐变_20" x1="-3466.42" y1="98.2" x2="-3442.38" y2="98.2" gradientTransform="matrix(-1, 0, 0, 1, -3400.53, 0)" gradientUnits="userSpaceOnUse"><stop offset="0.15" stop-color="#ddb962"/><stop offset="1" stop-color="#ebe4d7"/></linearGradient></defs><title>【插图】页面元素插图</title><circle class="cls-1" cx="72" cy="72" r="71"/><path class="cls-2" d="M73.35,21.12l35.29,19.5v67.25a.79.79,0,0,1-.39.68l-34.9,20.18a2.94,2.94,0,0,1-2.95,0L35.55,108.58a.88.88,0,0,1-.45-.77V40.62l35.3-19.5A3,3,0,0,1,73.35,21.12Z"/><path class="cls-3" d="M73.35,19.4l34.56,20a1.46,1.46,0,0,1,0,2.53l-34.56,20a2.94,2.94,0,0,1-2.95,0l-34.57-20a1.46,1.46,0,0,1,0-2.53l34.57-20A3,3,0,0,1,73.35,19.4Z"/><path class="cls-4" d="M72.83,26.89,95.21,39.81a.94.94,0,0,1,0,1.63L72.83,54.36a1.92,1.92,0,0,1-1.91,0L48.54,41.44a.94.94,0,0,1,0-1.63L70.92,26.89A1.87,1.87,0,0,1,72.83,26.89Z"/><polygon class="cls-4" points="99.45 52.54 104.89 49.41 104.89 50.97 99.45 54.12 99.45 52.54"/><polygon class="cls-4" points="99.45 55.3 104.89 52.17 104.89 53.74 99.45 56.88 99.45 55.3"/><polygon class="cls-4" points="99.45 58.09 104.89 54.96 104.89 56.53 99.45 59.67 99.45 58.09"/><polygon class="cls-4" points="99.45 60.88 104.89 57.75 104.89 59.32 99.45 62.46 99.45 60.88"/><polygon class="cls-4" points="99.45 63.67 104.89 60.54 104.89 62.11 99.45 65.25 99.45 63.67"/><polygon class="cls-4" points="99.45 66.46 104.89 63.33 104.89 64.9 99.45 68.04 99.45 66.46"/><path class="cls-4" d="M67,66.18,41,51.14a1.63,1.63,0,0,0-2.45,1.42V68.94a2.29,2.29,0,0,0,1.14,2L65.73,86a1.64,1.64,0,0,0,2.45-1.42V68.16A2.31,2.31,0,0,0,67,66.18Z"/><path class="cls-5" d="M40.14,50.92a1.61,1.61,0,0,0-.21.8V68.11a2.3,2.3,0,0,0,1.14,2l26.05,15a1.59,1.59,0,0,0,.85.22,1.63,1.63,0,0,1-2.24.62l-26.05-15a2.29,2.29,0,0,1-1.14-2V52.56A1.64,1.64,0,0,1,40.14,50.92Z"/><path class="cls-4" d="M67,91.85,41,76.81a1.63,1.63,0,0,0-2.45,1.41V94.61a2.28,2.28,0,0,0,1.14,2l26.05,15a1.63,1.63,0,0,0,2.45-1.41V93.83A2.3,2.3,0,0,0,67,91.85Z"/><path class="cls-6" d="M40.14,76.59a1.61,1.61,0,0,0-.21.8V93.77a2.28,2.28,0,0,0,1.14,2l26.05,15A1.59,1.59,0,0,0,68,111a1.63,1.63,0,0,1-2.24.62l-26.05-15a2.28,2.28,0,0,1-1.14-2V78.22A1.62,1.62,0,0,1,40.14,76.59Z"/><path class="cls-7" d="M48.61,59.39c-2.6-1.51-4.73-.27-4.73,2.74a10.5,10.5,0,0,0,4.74,8.22c2.61,1.51,4.74.27,4.74-2.74A10.57,10.57,0,0,0,48.61,59.39Z"/><polygon class="cls-7" points="66.17 71.33 54.99 64.87 54.99 66.11 66.17 72.57 66.17 71.33"/><polygon class="cls-7" points="66.17 73.56 61.35 70.79 61.35 72.02 66.17 74.8 66.17 73.56"/><polygon class="cls-7" points="60.58 70.38 54.99 67.16 54.99 68.39 60.58 71.61 60.58 70.38"/><polygon class="cls-7" points="66.17 75.8 58.69 71.47 58.69 72.71 66.17 77.03 66.17 75.8"/><polygon class="cls-7" points="58.16 71.2 54.99 69.37 54.99 70.61 58.16 72.44 58.16 71.2"/><polygon class="cls-7" points="66.17 78.03 56.42 72.44 56.42 73.67 66.17 79.26 66.17 78.03"/><polygon class="cls-7" points="66.17 80.26 58.69 75.94 58.69 77.17 66.17 81.49 66.17 80.26"/><path class="cls-8" d="M65.89,106.09v-1.83a.84.84,0,0,0-.15-.49l-2.22-3.15a.84.84,0,0,0-1.19-.2h0a.85.85,0,0,1-1.26-.3L59.2,96.4a.85.85,0,0,0-1.49,0l-.08.14a.85.85,0,0,1-.74.42h-.66a.84.84,0,0,1-.7-.37l-2.24-3.32A.85.85,0,0,0,53,93l-1.16-.72a.86.86,0,0,0-.44-.12H49a.82.82,0,0,1-.69-.37l-1.36-2a.83.83,0,0,0-1-.29l-1.45.65a.84.84,0,0,1-.38.08l-1.32-.06a.84.84,0,0,0-.88.84v2.14a.84.84,0,0,0,.42.73l22.35,12.9A.85.85,0,0,0,65.89,106.09Z"/></svg>